<svg xmlns="http://www.w3.org/2000/svg" width="24.585" height="24.585" viewBox="0 0 24.585 24.585">
  <g id="calendar_1_" data-name="calendar (1)" transform="translate(-16 -16)">
    <path id="Path_48761" data-name="Path 48761" d="M40,72H62.946V93.307H40Z" transform="translate(-22.771 -53.132)" fill="#c3c6c7"/>
    <path id="Path_48762" data-name="Path 48762" d="M24,56H46.127V76.488H24Z" transform="translate(-7.59 -37.951)" fill="#e9eef2"/>
    <path id="Path_48763" data-name="Path 48763" d="M24,56H46.127v4.917H24Z" transform="translate(-7.59 -37.951)" fill="#fcbd14"/>
    <path id="Path_48764" data-name="Path 48764" d="M139.473,205.327q0,.207-.017.41a5.133,5.133,0,0,1-1.505,3.2,5.544,5.544,0,0,1-.625.541,5.847,5.847,0,0,1-1.677.868,6.176,6.176,0,0,1-3.823,0,5.848,5.848,0,0,1-1.677-.868,5.546,5.546,0,0,1-.625-.541,5.133,5.133,0,0,1-1.505-3.2q-.017-.2-.017-.41t.017-.41a5.133,5.133,0,0,1,1.505-3.2,5.552,5.552,0,0,1,.625-.541,5.849,5.849,0,0,1,1.677-.868,6.177,6.177,0,0,1,3.823,0,5.847,5.847,0,0,1,1.677.868,5.553,5.553,0,0,1,.625.541,5.133,5.133,0,0,1,1.505,3.2Q139.473,205.12,139.473,205.327Z" transform="translate(-106.263 -174.576)" fill="#54a3e3"/>
    <path id="Path_48765" data-name="Path 48765" d="M40.175,18.459H38.946v-.41a.41.41,0,0,0-.41-.41H35.668v-.41a1.229,1.229,0,1,0-2.459,0v.41h-.82v-.41a1.229,1.229,0,1,0-2.459,0v.41H25.015v-.41a1.229,1.229,0,0,0-2.459,0v.41h-.82v-.41a1.229,1.229,0,0,0-2.459,0v.41H16.41a.41.41,0,0,0-.41.41V38.536a.41.41,0,0,0,.41.41h.41v1.229a.41.41,0,0,0,.41.41H40.175a.41.41,0,0,0,.41-.41V18.868A.41.41,0,0,0,40.175,18.459ZM16.82,38.127V23.376H38.127V38.127Zm17.21-20.9a.41.41,0,1,1,.82,0v.41h-.82Zm-3.278,0a.41.41,0,0,1,.82,0v.41h-.82Zm-7.376,0a.41.41,0,1,1,.82,0v.41h-.82Zm-3.278,0a.41.41,0,1,1,.82,0v.41H20.1Zm-.82,1.229v.41A1.231,1.231,0,0,0,20.507,20.1a.41.41,0,0,0,0-.82.41.41,0,0,1-.41-.41v-.41h2.459v.41A1.231,1.231,0,0,0,23.785,20.1a.41.41,0,1,0,0-.82.41.41,0,0,1-.41-.41v-.41h6.556v.41A1.231,1.231,0,0,0,31.161,20.1a.41.41,0,1,0,0-.82.41.41,0,0,1-.41-.41v-.41H33.21v.41A1.231,1.231,0,0,0,34.439,20.1a.41.41,0,0,0,0-.82.41.41,0,0,1-.41-.41v-.41h4.1v4.1H16.82v-4.1ZM39.766,39.766H17.639v-.82h20.9a.41.41,0,0,0,.41-.41V19.278h.82Z"/>
    <path id="Path_48766" data-name="Path 48766" d="M126.146,192a5.75,5.75,0,1,0,6.146,5.737A5.959,5.959,0,0,0,126.146,192Zm5.308,5.327h-2.039a9.285,9.285,0,0,0-.372-2.315,6.191,6.191,0,0,0,1-.624A4.731,4.731,0,0,1,131.454,197.327Zm-4.9-4.435a2.862,2.862,0,0,1,1.449,1.667,5.685,5.685,0,0,1-1.449.294Zm1.609.3a5.451,5.451,0,0,1,1.234.659,5.378,5.378,0,0,1-.638.391A5.33,5.33,0,0,0,128.165,193.186Zm-2.428-.3v1.961a5.687,5.687,0,0,1-1.449-.294A2.862,2.862,0,0,1,125.737,192.891Zm-2.2,1.344a5.378,5.378,0,0,1-.638-.391,5.453,5.453,0,0,1,1.234-.659A5.327,5.327,0,0,0,123.532,194.236Zm2.2,1.439v1.652H123.7a8.606,8.606,0,0,1,.316-1.994,6.512,6.512,0,0,0,1.724.342Zm0,2.471V199.8a6.512,6.512,0,0,0-1.724.342,8.607,8.607,0,0,1-.316-1.994Zm0,2.474v1.961a2.862,2.862,0,0,1-1.449-1.668A5.687,5.687,0,0,1,125.737,200.621Zm-1.609,1.666a5.454,5.454,0,0,1-1.234-.659,5.369,5.369,0,0,1,.638-.391A5.327,5.327,0,0,0,124.128,202.287Zm2.428.3v-1.961a5.685,5.685,0,0,1,1.449.294A2.864,2.864,0,0,1,126.556,202.582Zm2.2-1.344a5.378,5.378,0,0,1,.638.391,5.45,5.45,0,0,1-1.234.659,5.328,5.328,0,0,0,.6-1.049Zm-2.2-1.439v-1.652h2.04a8.606,8.606,0,0,1-.316,1.994A6.512,6.512,0,0,0,126.556,199.8Zm0-2.471v-1.652a6.511,6.511,0,0,0,1.724-.342,8.607,8.607,0,0,1,.316,1.994Zm-4.306-2.939a6.194,6.194,0,0,0,1,.624,9.286,9.286,0,0,0-.372,2.315h-2.039A4.735,4.735,0,0,1,122.25,194.387Zm-1.412,3.759h2.039a9.285,9.285,0,0,0,.372,2.315,6.192,6.192,0,0,0-1,.624A4.731,4.731,0,0,1,120.838,198.146Zm9.2,2.939a6.194,6.194,0,0,0-1-.624,9.285,9.285,0,0,0,.372-2.315h2.039A4.735,4.735,0,0,1,130.043,201.086Z" transform="translate(-98.673 -166.985)"/>
  </g>
</svg>
