<svg xmlns="http://www.w3.org/2000/svg" width="79" height="125" viewBox="0 0 79 125">
  <g id="Group_40301" data-name="Group 40301" transform="translate(0 -587)">
    <path id="Rectangle_1950" data-name="Rectangle 1950" d="M0,0H59A20,20,0,0,1,79,20v85a20,20,0,0,1-20,20H0a0,0,0,0,1,0,0V0A0,0,0,0,1,0,0Z" transform="translate(0 587)" fill="#fcbd14"/>
    <rect id="Rectangle_1951" data-name="Rectangle 1951" width="3" height="40" rx="1.5" transform="translate(68 630)" fill="#fff"/>
    <g id="Group_40307" data-name="Group 40307">
      <g id="chat" transform="translate(18 606.93)">
        <path id="Path_47211" data-name="Path 47211" d="M249.98,48.437a1.452,1.452,0,0,0-.433-1.032,1.513,1.513,0,0,0-1.06-.428A1.485,1.485,0,0,0,247,48.437v1.131h2.98Zm0,0" transform="translate(-222.466 -42.247)" fill="#fff"/>
        <path id="Path_47212" data-name="Path 47212" d="M62.88,48.437a1.439,1.439,0,0,0-.418-1.032,1.413,1.413,0,0,0-1.017-.428A1.449,1.449,0,0,0,60,48.437v1.131h2.88Zm0,0" transform="translate(-54.04 -42.247)" fill="#fff"/>
        <path id="Path_47213" data-name="Path 47213" d="M136.908,120.987a3.492,3.492,0,0,0,2.486-1.028,3.546,3.546,0,0,0,.98-1.888h-6.933A3.489,3.489,0,0,0,136.908,120.987Zm0,0" transform="translate(-120.187 -106.28)" fill="#fff"/>
        <path id="Path_47214" data-name="Path 47214" d="M12.184,20.681a.558.558,0,0,1,.381-.149H30.953a2.521,2.521,0,0,0,2.521-2.491V2.563A2.523,2.523,0,0,0,30.953.07H2.489A2.5,2.5,0,0,0,0,2.563V18.04a2.493,2.493,0,0,0,2.489,2.491H4.34a.621.621,0,0,1,.627.593v5.993ZM23.342,6.19a2.682,2.682,0,0,1,4.569-1.876,2.648,2.648,0,0,1,.795,1.876V7.9a.617.617,0,0,1-.606.61H23.987a.652.652,0,0,1-.645-.61ZM12.608,10.6h8.225a.592.592,0,0,1,.6.591,4.709,4.709,0,0,1-9.417,0,.592.592,0,0,1,.6-.591ZM4.768,7.9V6.19A2.646,2.646,0,0,1,7.409,3.537c.044,0,.083,0,.127,0l.048,0,.08.006.079.01.05.006.1.017.031.005c.042.008.082.017.123.028h0l.1.028.025.007q.119.036.234.083l.009,0,.105.047.012.006.1.051.013.007.094.054.018.01.077.048.033.021c.023.015.044.031.066.047l.04.028.066.051.037.029.06.052c.013.012.027.023.04.035l.051.049.044.042H9.264a2.621,2.621,0,0,1,.768,1.876V7.9a.594.594,0,0,1-.577.61H5.342a.59.59,0,0,1-.574-.61Zm0,0" fill="#fff"/>
        <path id="Path_47215" data-name="Path 47215" d="M181.928,83.029a3.816,3.816,0,0,0,3.8-3.26h4.986a7.218,7.218,0,0,0,7.231-7.209V65.114a4.675,4.675,0,0,0,1.007-2.826,4.552,4.552,0,0,0-3.888-4.5v9a4.4,4.4,0,0,0,1.689-.62v6.393a6.024,6.024,0,0,1-6.039,6.017h-4.986a3.844,3.844,0,1,0-3.8,4.452Zm0,0" transform="translate(-160.397 -51.986)" fill="#fff"/>
      </g>
      <text id="تواصل_فوري" data-name="تواصلفوري" transform="translate(17 664)" fill="#fff" font-size="16" font-family="DroidSansArabic, Droid Sans Arabic"><tspan x="0" y="0">تواصل</tspan><tspan y="0"></tspan><tspan x="0" y="22">فوري</tspan></text>
    </g>
  </g>
</svg>
