<svg xmlns="http://www.w3.org/2000/svg" width="578.424" height="903.355" viewBox="0 0 578.424 903.355">
  <g id="Group_40437" data-name="Group 40437" transform="translate(-66.8 -66.6)">
    <g id="Group_40436" data-name="Group 40436" transform="translate(66.8 66.6)">
      <g id="Group_40435" data-name="Group 40435" transform="translate(0.2 1.4)">
        <path id="Path_48809" data-name="Path 48809" d="M95.3,351A19.248,19.248,0,0,1,76,331.7V136H67V332.1A28.914,28.914,0,0,0,95.9,361H391V351Z" transform="translate(-67 540.955)" fill="#5c2f84"/>
        <path id="Path_48810" data-name="Path 48810" d="M330.7,77A19.248,19.248,0,0,1,350,96.3V289h10V96.9A28.914,28.914,0,0,0,331.1,68H-64v9Z" transform="translate(218.224 -68)" fill="#5c2f84"/>
      </g>
      <path id="Path_48811" data-name="Path 48811" d="M313.7,332q0-3-3.6-3.3h-3.8a9.267,9.267,0,0,1-6.8-3.6,11.527,11.527,0,0,1-3-8,12.383,12.383,0,0,1,3.8-9.1,13.941,13.941,0,0,1,20.4,1.6c2.9,3.5,4.3,8,4.3,13.5,0,10.5-4,20.9-11.9,31.4-2.9,4-5.5,5.9-7.7,5.9-2.6,0-3.8-1.3-3.8-3.8q0-1.5,2.1-4.2a59.886,59.886,0,0,0,6.9-11.1C312.6,337.1,313.7,334,313.7,332Zm34.6,0c0-2-1.1-3.1-3.4-3.3H341a9.488,9.488,0,0,1-7-3.6,11.527,11.527,0,0,1-3-8,12.383,12.383,0,0,1,3.8-9.1,14.171,14.171,0,0,1,20.6,1.6c2.9,3.5,4.3,8,4.3,13.5,0,10.3-4,20.8-12.1,31.4-3.1,4-5.6,5.9-7.7,5.9-2.4,0-3.6-1.3-3.6-3.8q0-1.5,2.1-4.2a65.285,65.285,0,0,0,6.7-11.1C347.3,337.1,348.3,334,348.3,332Z" transform="translate(218.424 542.355)" fill="#5c2f84"/>
      <path id="Path_48812" data-name="Path 48812" d="M113,95q0,3,3.6,3.3h3.8a9.267,9.267,0,0,1,6.8,3.6,11.527,11.527,0,0,1,3,8,12.383,12.383,0,0,1-3.8,9.1,13.941,13.941,0,0,1-20.4-1.6c-2.9-3.5-4.3-8-4.3-13.5,0-10.5,4-20.9,11.9-31.4,2.9-4,5.5-5.9,7.7-5.9,2.6,0,3.8,1.3,3.8,3.8q0,1.5-2.1,4.2a59.886,59.886,0,0,0-6.9,11.1C114,89.8,113,92.9,113,95ZM78.3,95c0,2,1.1,3.1,3.4,3.3h3.8a9.488,9.488,0,0,1,7,3.6,11.527,11.527,0,0,1,3,8,12.383,12.383,0,0,1-3.8,9.1,14.171,14.171,0,0,1-20.6-1.6c-2.9-3.5-4.3-8-4.3-13.5,0-10.3,4-20.8,12.1-31.4,3.1-4,5.6-5.9,7.7-5.9,2.4,0,3.6,1.3,3.6,3.8q0,1.5-2.1,4.2a65.284,65.284,0,0,0-6.7,11.1C79.4,89.8,78.3,92.9,78.3,95Z" transform="translate(-66.8 -66.6)" fill="#5c2f84"/>
    </g>
    <rect id="Rectangle_2088" data-name="Rectangle 2088" width="477.824" height="147.6" transform="translate(115.7 449.626)" fill="none"/>
  </g>
</svg>
