<svg xmlns="http://www.w3.org/2000/svg" width="1439" height="645.35" viewBox="0 0 1439 645.35">
  <g id="f1" transform="translate(-0.5 -3678.125)">
    <g id="Group_40264" data-name="Group 40264" transform="translate(-4878 767)">
      <path id="Subtraction_5" data-name="Subtraction 5" d="M1439,534.772H0V204.505H233.5V182.116a25.524,25.524,0,0,1,25.545-25.545h22.911A25.523,25.523,0,0,1,307.5,182.116V292.425a25.573,25.573,0,0,0,25.544,25.544H492.956A25.573,25.573,0,0,0,518.5,292.425V-83.588c0-.071,0-.141,0-.212v-1.233a25.385,25.385,0,0,1,2.007-9.943,25.458,25.458,0,0,1,5.474-8.119,25.459,25.459,0,0,1,8.119-5.474,25.381,25.381,0,0,1,9.943-2.007h22.912a25.381,25.381,0,0,1,9.943,2.007,25.459,25.459,0,0,1,8.119,5.474,25.458,25.458,0,0,1,5.474,8.119,25.378,25.378,0,0,1,2.007,9.943V204.505h120V154.544A25.523,25.523,0,0,1,738.044,129h9.912A25.524,25.524,0,0,1,773.5,154.544V243.26A25.573,25.573,0,0,0,799.044,268.8h9.911A25.574,25.574,0,0,0,834.5,243.26V153.844a25.522,25.522,0,0,1,25.543-25.33h9.913A25.523,25.523,0,0,1,895.5,154.058v89.2A25.573,25.573,0,0,0,921.045,268.8h8.912A25.573,25.573,0,0,0,955.5,243.26v-89.2a25.522,25.522,0,0,1,25.544-25.544h9.912a25.523,25.523,0,0,1,25.544,25.544v50.448h82.127a25.546,25.546,0,0,1,25.418-22.992h9.912a25.546,25.546,0,0,1,25.418,22.992h.127V287.26a25.572,25.572,0,0,0,25.543,25.544h36.913A25.573,25.573,0,0,0,1247.5,287.26V204.505h.125a25.545,25.545,0,0,1,25.417-22.993h9.913a25.545,25.545,0,0,1,25.418,22.992H1439V534.771Z" transform="translate(4878.5 3021.703)" fill="rgba(92,47,132,0.2)"/>
      <rect id="bg" width="60" height="60" rx="24" transform="translate(6052 3250)" fill="rgba(92,47,132,0.2)"/>
      <path id="Subtraction_6" data-name="Subtraction 6" d="M36,60H24A24,24,0,0,1,0,36V24A24,24,0,0,1,24,0H36A24,24,0,0,1,60,24V36A24,24,0,0,1,36,60ZM19.174,32.565h0L19,32.738v.087a5.5,5.5,0,0,0,.435,2.347,4.446,4.446,0,0,0,4.087,2.783h16.52l.087-.087a7.4,7.4,0,0,0-.348-2.261,4.7,4.7,0,0,0-4.347-3.043h-6a6.373,6.373,0,0,1,.695-1.652,5.8,5.8,0,0,1,3.391-2.434A15.251,15.251,0,0,0,37,28.13a4.894,4.894,0,0,0,3.13-4.87v-.086L39.956,23H34.216c-2.842,0-5.445,1.346-7.738,4-1.558,2.149-2.348,4.022-2.348,5.565Z" transform="translate(5260 3127)" fill="rgba(92,47,132,0.2)"/>
    </g>
  </g>
</svg>
