<svg xmlns="http://www.w3.org/2000/svg" xmlns:xlink="http://www.w3.org/1999/xlink" width="1470" height="398" viewBox="0 0 1470 398">
  <defs>
    <filter id="Rectangle_1880" x="0" y="0" width="1470" height="398" filterUnits="userSpaceOnUse">
      <feOffset input="SourceAlpha"/>
      <feGaussianBlur stdDeviation="5" result="blur"/>
      <feFlood flood-opacity="0.2"/>
      <feComposite operator="in" in2="blur"/>
      <feComposite in="SourceGraphic"/>
    </filter>
  </defs>
  <g id="عرض_سعر" data-name="عرض سعر" transform="translate(-3667 -3005)">
    <g id="Group_40269" data-name="Group 40269">
      <g transform="matrix(1, 0, 0, 1, 3667, 3005)" filter="url(#Rectangle_1880)">
        <rect id="Rectangle_1880-2" data-name="Rectangle 1880" width="1440" height="368" transform="translate(15 15)" fill="rgba(252,189,20,0.12)"/>
      </g>
      <circle id="Ellipse_438" data-name="Ellipse 438" cx="140" cy="140" r="140" transform="translate(3904 3077)" fill="rgba(255,255,255,0.25)"/>
      <g id="Ellipse_439" data-name="Ellipse 439" transform="translate(3815 3052)" fill="none" stroke="rgba(255,255,255,0.5)" stroke-linecap="round" stroke-linejoin="round" stroke-width="15" stroke-dasharray="50 45">
        <circle cx="107.5" cy="107.5" r="107.5" stroke="none"/>
        <circle cx="107.5" cy="107.5" r="100" fill="none"/>
      </g>
    </g>
    <g id="Group_40422" data-name="Group 40422" transform="translate(28.297 -151.864)">
      <path id="Path_47369" data-name="Path 47369" d="M585.995,398.29a.66.66,0,0,1-.581-.317c-.422-.766-.871-1.505-1.32-2.245a.66.66,0,0,1,.238-.9.634.634,0,0,1,.9.211c.449.766.9,1.505,1.32,2.271a.66.66,0,0,1-.238.9Zm-5.466-8.926a.687.687,0,0,1-.554-.29c-1.453-2.165-2.984-4.331-4.569-6.417a.713.713,0,0,1,.132-.951.66.66,0,0,1,.924.132c1.611,2.139,3.143,4.3,4.621,6.5a.713.713,0,0,1-.185.924A.607.607,0,0,1,580.528,389.364Zm-9.507-12.649a.661.661,0,0,1-.5-.238c-1.664-2.007-3.433-3.988-5.281-5.915a.66.66,0,0,1,0-.924.687.687,0,0,1,.951,0c1.8,1.954,3.591,3.961,5.282,5.968a.66.66,0,0,1-.5,1.083Zm-309.368-7.13a.582.582,0,0,1-.343,0,.66.66,0,0,1-.211-.9,46.736,46.736,0,0,1,4.832-6.391.663.663,0,1,1,.951.924,46.043,46.043,0,0,0-4.727,6.206.581.581,0,0,1-.607.158Zm298.567-4.437a.687.687,0,0,1-.449-.185c-1.928-1.849-3.882-3.644-5.836-5.282a.665.665,0,1,1,.871-1c1.954,1.69,3.935,3.486,5.863,5.282a.687.687,0,0,1,0,.951.713.713,0,0,1-.554.238ZM272.058,357.7a.662.662,0,0,1-.5-1.136c1.875-1.664,3.988-3.354,6.232-4.991a.66.66,0,1,1,.766,1.056c-2.218,1.637-4.278,3.275-6.127,4.912a.713.713,0,0,1-.475.158Zm276.2-2.9a.581.581,0,0,1-.4-.158c-2.06-1.585-4.2-3.169-6.338-4.674a.656.656,0,1,1,.739-1.083c2.166,1.532,4.331,3.116,6.391,4.727a.66.66,0,0,1,.132.924.74.74,0,0,1-.634.264Zm-263.5-6.47a.581.581,0,0,1-.555-.317.634.634,0,0,1,.185-.9c2.165-1.347,4.463-2.641,6.866-4.04a.668.668,0,0,1,.66,1.162c-2.4,1.32-4.7,2.641-6.813,3.988A.582.582,0,0,1,284.76,348.326Zm250.478-2.641a.581.581,0,0,1-.343,0c-2.218-1.373-4.489-2.641-6.787-4.04a.66.66,0,1,1,.66-1.136c2.3,1.294,4.595,2.641,6.813,4.067a.634.634,0,0,1,.211.9.581.581,0,0,1-.607.238Zm-236.614-5.044a.713.713,0,0,1-.607-.37.687.687,0,0,1,.317-.9c2.324-1.136,4.753-2.245,7.209-3.327a.662.662,0,1,1,.528,1.215c-2.43,1.056-4.859,2.165-7.157,3.3a.608.608,0,0,1-.343.106ZM521.454,338h-.29c-2.35-1.188-4.753-2.324-7.13-3.407a.662.662,0,1,1,.528-1.215c2.43,1.083,4.833,2.245,7.183,3.433a.66.66,0,0,1-.29,1.241Zm-208.305-3.618a.66.66,0,0,1-.238-1.268c2.377-.951,4.886-1.875,7.447-2.773a.66.66,0,0,1,.845.4.687.687,0,0,1-.423.845c-2.641.9-5.018,1.822-7.394,2.641a.4.4,0,0,1-.291.079Zm193.86-2.878h-.238c-2.4-.977-4.885-1.9-7.394-2.8a.607.607,0,0,1-.4-.819.687.687,0,0,1,.845-.423c2.509.9,5.018,1.849,7.421,2.826a.634.634,0,0,1,.37.845.66.66,0,0,1-.66.29ZM328.1,329.1a.634.634,0,0,1-.634-.449.66.66,0,0,1,.423-.819c2.482-.792,5.044-1.558,7.606-2.3a.66.66,0,0,1,.37,1.268c-2.641.739-5.1,1.505-7.579,2.271Zm163.966-2.9h-.185c-2.641-.792-5.07-1.532-7.579-2.192a.66.66,0,0,1-.475-.819.687.687,0,0,1,.819-.475c2.509.687,5.1,1.426,7.632,2.218a.609.609,0,1,1-.264,1.188Zm-148.729-1.426a.655.655,0,0,1-.158-1.294c2.641-.634,5.123-1.268,7.711-1.849a.663.663,0,1,1,.29,1.294c-2.641.581-5.15,1.188-7.685,1.849Zm133.439-2.641h-.158c-2.641-.607-5.282-1.162-7.711-1.664a.66.66,0,1,1,.238-1.294c2.641.5,5.281,1.056,7.79,1.664a.66.66,0,0,1-.158,1.294Zm-118.069-.9a.666.666,0,0,1-.106-1.32c2.641-.5,5.281-.977,7.79-1.426a.634.634,0,0,1,.766.555.66.66,0,0,1-.528.766c-2.641.423-5.282.9-7.79,1.4Zm102.462-2.377h0c-2.641-.422-5.282-.819-7.922-1.162a.652.652,0,1,1,.158-1.294c2.641.343,5.282.713,7.922,1.136a.66.66,0,0,1,0,1.32Zm-86.8-.317a.66.66,0,1,1,0-1.32q3.961-.555,7.922-1.03a.665.665,0,0,1,.158,1.32c-2.641.317-5.282.634-7.922,1Zm71.09-1.743h0c-2.641-.264-5.282-.475-7.922-.66a.687.687,0,0,1-.607-.713.634.634,0,0,1,.713-.607c2.641.185,5.281.4,7.922.66a.687.687,0,0,1,.581.739.66.66,0,0,1-.687.634ZM390,316.8a.687.687,0,0,1-.66-.607.66.66,0,0,1,.608-.713c2.641-.238,5.282-.449,7.922-.607a.581.581,0,0,1,.687.607.607.607,0,0,1-.607.687q-3.961.277-7.922.634Zm39.612-1h0c-2.641,0-5.281-.185-7.922-.211a.687.687,0,0,1-.66-.687.634.634,0,0,1,.66-.634h0c2.641,0,5.282,0,7.922.211a.66.66,0,0,1,.634.687.687.687,0,0,1-.581.581Zm-23.767,0a.66.66,0,0,1,0-1.32c2.641,0,5.282-.185,7.922-.211h0a.66.66,0,1,1,0,1.32C411.122,315.581,408.481,315.581,405.84,315.792Z" transform="translate(4273.469 2879.836)" fill="#fff"/>
      <path id="Path_47370" data-name="Path 47370" d="M253.544,495.288a.713.713,0,0,1-.475-.211c-1.849-1.928-3.618-3.961-5.282-5.995a.66.66,0,0,1,1.03-.819,78.108,78.108,0,0,0,5.282,5.889.66.66,0,0,1,0,.951.739.739,0,0,1-.555.185Zm-9.956-12.306a.687.687,0,0,1-.555-.291c-1.505-2.218-2.9-4.489-4.172-6.787a.65.65,0,1,1,1.136-.634c1.268,2.245,2.641,4.516,4.146,6.681a.687.687,0,0,1-.185.924.608.608,0,0,1-.37.105Zm-7.764-13.838a.687.687,0,0,1-.607-.4q-1.585-3.644-2.852-7.447a.664.664,0,1,1,1.268-.4,74.408,74.408,0,0,0,2.8,7.315.66.66,0,0,1-.343.871A.423.423,0,0,1,235.824,469.144Zm-4.965-15a.66.66,0,0,1-.634-.528,77.364,77.364,0,0,1-1.426-7.922.634.634,0,0,1,.555-.739.687.687,0,0,1,.739.554,77.291,77.291,0,0,0,1.4,7.738.66.66,0,0,1-.475.792Zm-2.139-15.686a.687.687,0,0,1-.66-.634q0-2.139,0-4.278v-3.7a.686.686,0,0,1,.66-.634h0a.66.66,0,0,1,.634.687q0,1.822,0,3.644v4.225a.66.66,0,0,1-.607.687Zm.607-15.845h0a.66.66,0,0,1-.555-.739c.29-2.641.739-5.282,1.241-7.922a.687.687,0,0,1,.792-.528.66.66,0,0,1,.5.792c-.5,2.641-.924,5.282-1.241,7.764a.634.634,0,0,1-.66.66Zm3.116-15.528h-.185a.66.66,0,0,1-.475-.819c.713-2.641,1.532-5.07,2.43-7.579a.66.66,0,0,1,.845-.4.634.634,0,0,1,.4.845c-.9,2.456-1.69,4.991-2.377,7.5a.687.687,0,0,1-.555.475Zm5.282-14.894h-.264a.66.66,0,0,1-.317-.871c1.083-2.456,2.271-4.859,3.512-7.156a.634.634,0,0,1,.9-.264.66.66,0,0,1,.264.9c-1.241,2.245-2.4,4.621-3.486,7.051a.661.661,0,0,1-.475.29Zm7.553-13.943a.607.607,0,0,1-.37,0,.634.634,0,0,1-.185-.9,74.1,74.1,0,0,1,4.674-6.47.634.634,0,0,1,.924,0,.66.66,0,0,1,0,.924c-1.558,1.954-3.116,4.093-4.595,6.364a.686.686,0,0,1-.317.106Zm9.956-12.28a.581.581,0,0,1-.475-.211.66.66,0,0,1,0-.924,39.4,39.4,0,0,1,6.311-5.018.687.687,0,0,1,.924.238.66.66,0,0,1-.238.9,37.637,37.637,0,0,0-6.074,4.833.607.607,0,0,1-.317.211Z" transform="translate(4219.415 2954.437)" fill="#fff"/>
      <path id="Path_47371" data-name="Path 47371" d="M312.326,475.53h0c-2.641,0-5.282-.238-7.922-.5a.634.634,0,0,1-.581-.713.66.66,0,0,1,.713-.607c2.641.264,5.282.423,7.922.5a.66.66,0,0,1,.634.687.687.687,0,0,1-.766.634Zm7.922,0a.687.687,0,0,1-.66-.634.634.634,0,0,1,.634-.687,66.726,66.726,0,0,0,7.922-.634.66.66,0,0,1,.739.581.687.687,0,0,1-.581.739q-3.961.475-7.922.634Zm-23.767-1.505h0c-2.641-.449-5.282-.977-7.922-1.611a.66.66,0,0,1-.5-.792.686.686,0,0,1,.819-.5c2.641.634,5.123,1.162,7.711,1.611a.66.66,0,0,1,.528.766.687.687,0,0,1-.634.528Zm39.427-.29a.687.687,0,0,1-.66-.555.66.66,0,0,1,.528-.766c2.641-.475,5.15-1.056,7.685-1.717a.657.657,0,1,1,.343,1.268c-2.641.687-5.282,1.268-7.79,1.743Zm-54.8-3.486H280.9c-2.509-.792-5.018-1.69-7.5-2.641a.669.669,0,0,1,.5-1.241c2.43.977,4.938,1.875,7.394,2.641a.634.634,0,0,1,.449.819.66.66,0,0,1-.608.37Zm70.113-.555a.634.634,0,0,1-.634-.449.608.608,0,0,1,.423-.819c2.456-.845,4.938-1.8,7.341-2.8a.66.66,0,0,1,.871.343.687.687,0,0,1-.343.871c-2.456,1.03-4.965,1.981-7.447,2.826Zm-84.848-5.282a.5.5,0,0,1-.264,0c-2.377-1.135-4.78-2.35-7.077-3.644a.66.66,0,0,1-.264-.9.634.634,0,0,1,.9-.264c2.3,1.268,4.648,2.509,7,3.618a.634.634,0,0,1,.317.872.661.661,0,0,1-.581.29Zm99.426-.871a.633.633,0,0,1-.581-.37.607.607,0,0,1,.29-.872c2.35-1.215,4.648-2.482,6.892-3.829a.66.66,0,1,1,.66,1.136c-2.245,1.347-4.6,2.641-6.972,3.855a.525.525,0,0,1-.264,0Zm13.574-8.134a.607.607,0,0,1-.528-.29.66.66,0,0,1,.158-.924c2.139-1.505,4.252-3.09,6.285-4.753a.66.66,0,1,1,.819,1.03c-2.06,1.664-4.2,3.275-6.364,4.806a.633.633,0,0,1-.343.106Zm12.28-10.009a.633.633,0,0,1-.475-.185.66.66,0,0,1,0-.951c1.928-1.8,3.776-3.671,5.546-5.6a.66.66,0,0,1,.924,0,.634.634,0,0,1,0,.924c-1.769,1.928-3.644,3.855-5.6,5.677a.711.711,0,0,1-.37.106Zm10.722-11.619a.581.581,0,0,1-.4-.158.634.634,0,0,1,0-.924c1.637-2.033,3.2-4.172,4.674-6.312a.66.66,0,1,1,1.083.739c-1.479,2.165-3.063,4.331-4.727,6.391a.607.607,0,0,1-.607.238Zm8.952-13.046a.742.742,0,0,1-.317,0,.66.66,0,0,1-.238-.9,50.846,50.846,0,0,0,2.641-5.044.687.687,0,0,1,.9-.29.66.66,0,0,1,.264.9c-.9,1.743-1.849,3.459-2.8,5.1a.686.686,0,0,1-.423.211Z" transform="translate(4269.67 3044.202)" fill="#fff"/>
      <path id="Path_47372" data-name="Path 47372" d="M420.485,472.15h-4.7a.66.66,0,0,1-.634-.687.687.687,0,0,1,.66-.634h0c2.641,0,5.282.132,7.922,0a.66.66,0,0,1,.687.634.634.634,0,0,1-.634.687Zm11.144-.607a.634.634,0,0,1-.634-.581.66.66,0,0,1,.581-.739c2.641-.29,5.282-.687,7.764-1.188a.66.66,0,1,1,.264,1.294c-2.641.528-5.281.924-7.922,1.215Zm-23.767,0h0c-2.641-.29-5.282-.687-7.922-1.136a.687.687,0,0,1-.555-.766.66.66,0,0,1,.766-.528q3.961.673,7.922,1.109a.615.615,0,1,1-.158,1.215Zm-15.607-2.773H392.1c-2.641-.607-5.123-1.32-7.658-2.113a.664.664,0,1,1,.4-1.268c2.509.792,5.07,1.505,7.579,2.113a.66.66,0,0,1,.5.792.687.687,0,0,1-.607.37Zm54.849-.211a.66.66,0,0,1-.185-1.294,71.8,71.8,0,0,0,7.394-2.641.66.66,0,0,1,.871.37.686.686,0,0,1-.343.871c-2.43.977-4.965,1.875-7.553,2.641Zm-69.954-4.516h-.238c-2.482-.951-4.938-2.007-7.341-3.09a.668.668,0,0,1,.555-1.215c2.377,1.109,4.806,2.139,7.262,3.063a.577.577,0,0,1-.185,1.136Zm84.505-1.532a.66.66,0,0,1-.317-1.241,62.44,62.44,0,0,0,6.628-4.172.66.66,0,0,1,.924.132.634.634,0,0,1-.158.924A64.7,64.7,0,0,1,462,462.432a.741.741,0,0,1-.238-.027Zm-98.9-5.2h-.317c-2.35-1.268-4.648-2.641-6.84-4.067a.66.66,0,0,1-.185-.924.634.634,0,0,1,.9-.185c2.165,1.4,4.436,2.641,6.76,4.014a.66.66,0,0,1,.264.9.608.608,0,0,1-.581.264Zm-13.2-8.635a.633.633,0,0,1-.422-.132,63.985,63.985,0,0,1-6.074-5.282.634.634,0,0,1,0-.924.66.66,0,0,1,.924,0c1.875,1.743,3.882,3.459,5.995,5.1a.66.66,0,0,1,.132.924.713.713,0,0,1-.555.317Zm-11.54-10.827a.66.66,0,0,1-.5-.238,62.856,62.856,0,0,1-4.806-6.364.66.66,0,0,1,.185-.924.686.686,0,0,1,.924.185,60.5,60.5,0,0,0,4.7,6.259.66.66,0,0,1,0,.924.713.713,0,0,1-.5.158Zm-8.609-13.2a.633.633,0,0,1-.607-.37,47.007,47.007,0,0,1-2.641-7.553.66.66,0,0,1,.449-.818.687.687,0,0,1,.819.475,44.556,44.556,0,0,0,2.641,7.341.686.686,0,0,1-.343.871.475.475,0,0,1-.317.026Z" transform="translate(4380.326 3046.578)" fill="#fff"/>
      <path id="Path_47373" data-name="Path 47373" d="M409.432,524.89a.653.653,0,0,1-.343-1.215,59.508,59.508,0,0,0,6.338-4.6.66.66,0,0,1,.924,0,.687.687,0,0,1,0,.951,64.738,64.738,0,0,1-6.47,4.674A.66.66,0,0,1,409.432,524.89Zm12.227-10.008a.766.766,0,0,1-.475-.185.687.687,0,0,1,0-.951,69.557,69.557,0,0,0,5.123-5.942.66.66,0,0,1,.924,0,.634.634,0,0,1,0,.924,77.291,77.291,0,0,1-5.281,6.074.714.714,0,0,1-.291.211Zm9.639-12.544a.549.549,0,0,1-.581-.9c1.373-2.192,2.641-4.516,3.8-6.866a.66.66,0,0,1,.9-.317.687.687,0,0,1,.29.9c-1.188,2.4-2.482,4.753-3.856,6.972a.66.66,0,0,1-.555.211Zm7-14.181h-.238a.634.634,0,0,1-.37-.845c.95-2.43,1.8-4.938,2.641-7.447a.66.66,0,1,1,1.268.37,68.784,68.784,0,0,1-2.641,7.553.634.634,0,0,1-.66.37ZM442.811,473h-.132a.66.66,0,0,1-.528-.766c.555-2.641,1-5.282,1.373-7.764a.66.66,0,0,1,.739-.555.634.634,0,0,1,.555.739c-.343,2.641-.819,5.282-1.373,7.922a.66.66,0,0,1-.634.423Zm2.165-15.686h0a.66.66,0,0,1-.607-.687c.158-2.43.238-4.912.238-7.394v-.475a.66.66,0,1,1,1.32,0v.475a68.942,68.942,0,0,1-.264,7.473.607.607,0,0,1-.687.607Zm0-15.845a.66.66,0,0,1-.66-.607c-.185-2.641-.475-5.282-.845-7.922a.686.686,0,0,1,.581-.739.66.66,0,0,1,.739.555c.37,2.641.66,5.282.845,7.922a.66.66,0,0,1-.607.713Zm-2.218-15.66a.634.634,0,0,1-.634-.528c-.555-2.641-1.188-5.123-1.9-7.658a.634.634,0,0,1,.449-.792.66.66,0,0,1,.819.449c.713,2.641,1.373,5.15,1.9,7.711a.66.66,0,0,1-.5.792ZM438.4,410.571a.634.634,0,0,1-.607-.422c-.9-2.456-1.9-4.912-2.958-7.315a.66.66,0,0,1,.343-.871.686.686,0,0,1,.872.343c1.056,2.43,2.06,4.912,2.984,7.394a.687.687,0,0,1-.4.845Zm-6.549-14.392a.66.66,0,0,1-.581-.343c-1.241-2.3-2.641-4.595-3.961-6.787a.634.634,0,0,1,.185-.9.687.687,0,0,1,.924.185c1.426,2.245,2.773,4.542,4.014,6.892a.66.66,0,0,1-.581.951Zm-8.5-13.2a.66.66,0,0,1-.528-.264c-1.584-2.113-3.275-4.146-4.991-6.1a.66.66,0,0,1,0-.924.687.687,0,0,1,.951,0c1.743,1.98,3.433,4.04,5.017,6.179a.634.634,0,0,1,0,.924.792.792,0,0,1-.449.185Zm-10.563-11.857a.765.765,0,0,1-.475-.185c-1.875-1.849-3.856-3.592-5.863-5.282a.66.66,0,1,1,.845-1c2.033,1.664,4.014,3.459,5.942,5.282a.66.66,0,0,1,0,.924.712.712,0,0,1-.238.132ZM400.559,361.03a.607.607,0,0,1-.37,0l-1.373-.951a.656.656,0,1,1,.739-1.083l1.4.951a.66.66,0,0,1-.4,1.188Z" transform="translate(4499.097 2953.038)" fill="#fff"/>
      <path id="Path_47374" data-name="Path 47374" d="M346.641,439.623l3.565-3.2-1.769-4.252-4.78.264-2.641-2.641.264-4.78-4.252-1.769-3.2,3.565h-3.644l-3.222-3.565-4.225,1.769.238,4.78-2.641,2.641-4.806-.264-1.743,4.252,3.565,3.2v3.618L314,446.357l1.743,4.252,4.806-.238,2.641,2.641-.238,4.78,4.225,1.769L330.4,456h3.618l3.2,3.565,4.252-1.769-.264-4.78,2.641-2.641,4.78.238,1.769-4.252-3.565-3.2Zm-14.551,11.725a9.9,9.9,0,1,1,9.9-9.9,9.9,9.9,0,0,1-9.9,9.9Z" transform="translate(4360.079 3058.666)" fill="#fff" opacity="0.2"/>
      <path id="Path_47375" data-name="Path 47375" d="M282.413,326.479l2.773-2.509-1.373-3.3-3.75.185-1.981-2.007.185-3.723-3.327-1.373-2.509,2.773H269.6L267.1,313.75l-3.3,1.373.185,3.723-2.007,2.007-3.75-.185-1.373,3.3,2.8,2.509V329.3l-2.8,2.641,1.373,3.3,3.75-.185,2.007,1.981-.185,3.75,3.3,1.373,2.509-2.773h2.826l2.509,2.773,3.433-1.347-.185-3.75,1.981-1.981,3.75.185,1.373-3.3-2.773-2.641Zm-11.382,9.058a7.764,7.764,0,1,1,7.738-7.737A7.764,7.764,0,0,1,271.031,335.536Z" transform="translate(4266.653 2879)" fill="#fff" opacity="0.2"/>
      <path id="Path_47376" data-name="Path 47376" d="M374.053,420l2.773-2.509-1.373-3.327-3.75.211-2.007-2.007.211-3.75-3.327-1.373-2.509,2.8h-2.826l-2.509-2.8-3.327,1.373.211,3.75-2.007,2.007-3.75-.211-1.373,3.327,2.8,2.509v2.826l-2.8,2.509,1.373,3.327,3.75-.211,2.007,2.007-.211,3.75,3.327,1.373,2.509-2.773h2.826l2.509,2.773,3.327-1.373-.211-3.75,2.007-2.007,3.75.211,1.373-3.327-2.773-2.509Zm-11.382,9.163a7.764,7.764,0,1,1,7.737-7.737,7.764,7.764,0,0,1-7.737,7.737Z" transform="translate(4417.014 3032.397)" fill="#fff" opacity="0.2"/>
      <path id="Path_47377" data-name="Path 47377" d="M295.805,374.253l3.644-3.3-1.8-4.331-4.912.238-2.641-2.641.238-4.912-4.331-1.8-3.3,3.644h-3.723l-3.275-3.644-4.357,1.8.264,4.912-2.641,2.641-4.859-.132-1.8,4.331,3.644,3.3v3.7l-3.644,3.3,1.8,4.357,4.912-.264,2.641,2.641-.264,4.885,4.357,1.822,3.275-3.671h3.723l3.3,3.671,4.331-1.822-.238-4.885,2.641-2.641,4.912.264,1.8-4.357-3.7-3.407Zm-14.92,12.016a10.128,10.128,0,1,1,.079,0Z" transform="translate(4275.627 2950.801)" fill="#fff" opacity="0.2"/>
      <path id="Path_47378" data-name="Path 47378" d="M386.92,345.161l2.773-2.509-1.373-3.327-3.75.106-1.981-2.007.185-3.75-3.327-1.373-2.509,2.8h-2.931l-2.641-2.8-3.3,1.373.185,3.75-2.007,2.007-3.75-.211-1.373,3.327,2.8,2.509v2.826l-2.8,2.509,1.373,3.327,3.75-.211,2.007,2.007-.185,3.75,3.3,1.373,2.641-2.8h2.826l2.509,2.8,3.327-1.373-.185-3.75,1.981-2.007,3.75.211,1.373-3.327-2.773-2.509Zm-11.382,9.164a7.764,7.764,0,1,1,7.738-7.764,7.764,7.764,0,0,1-7.738,7.764Z" transform="translate(4437.737 2909.437)" fill="#fff" opacity="0.2"/>
      <path id="Path_47379" data-name="Path 47379" d="M313.473,392.035l2.773-2.509-1.373-3.3-3.75.185-1.981-2.007.185-3.75L306,379.28l-2.509,2.8h-2.826l-2.509-2.8-3.327,1.373.211,3.75-2.007,2.007-3.75-.185-1.373,3.3,2.8,2.509v2.826l-2.8,2.509,1.373,3.327,3.75-.185,2.007,1.981-.211,3.75,3.327,1.373,2.509-2.773h2.826L306,407.616l3.327-1.373-.185-3.75,1.981-1.981,3.75.185,1.373-3.327-2.773-2.509ZM302.091,401.2a7.764,7.764,0,1,1,7.737-7.738,7.764,7.764,0,0,1-7.737,7.738Z" transform="translate(4317.616 2986.521)" fill="#fff" opacity="0.2"/>
      <g id="Group_40396" data-name="Group 40396" transform="translate(4426.956 3441.667)" opacity="0.2">
        <path id="Path_47380" data-name="Path 47380" d="M236.677,415.646a5.942,5.942,0,0,0-3.776-1.215,6.02,6.02,0,0,0-3.8,1.215,3.618,3.618,0,0,0-1.558,2.931v9.428a3.565,3.565,0,0,0,1.558,2.878,6.152,6.152,0,0,0,3.8,1.188,6.048,6.048,0,0,0,3.75-1.188,3.433,3.433,0,0,0,1.558-2.879v-9.428A3.644,3.644,0,0,0,236.677,415.646Zm-1.928,12.306a1.321,1.321,0,0,1-.581,1.056,2.139,2.139,0,0,1-1.373.449,2.272,2.272,0,0,1-1.4-.317,1.294,1.294,0,0,1-.555-1.056v-9.507a1.347,1.347,0,0,1,.555-1.083,2.271,2.271,0,0,1,1.4-.422,2.137,2.137,0,0,1,1.373.422,1.373,1.373,0,0,1,.581,1.083Z" transform="translate(-208.394 -397.475)" fill="#fff"/>
        <path id="Path_47381" data-name="Path 47381" d="M229.4,424.464a3.539,3.539,0,0,0,1.611-2.9v-9.428a3.618,3.618,0,0,0-1.584-2.905,5.942,5.942,0,0,0-3.776-1.215,6.02,6.02,0,0,0-3.8,1.215,3.512,3.512,0,0,0-1.558,2.905v9.427a3.539,3.539,0,0,0,1.558,2.9,6.021,6.021,0,0,0,3.8,1.215A5.915,5.915,0,0,0,229.4,424.464Zm-5.282-1.875a1.347,1.347,0,0,1-.555-1.083v-9.428a1.294,1.294,0,0,1,.555-1.056,2.271,2.271,0,0,1,1.4-.449,2.191,2.191,0,0,1,1.373.449,1.294,1.294,0,0,1,.555,1.056v9.428a1.347,1.347,0,0,1-.555,1.083,2.192,2.192,0,0,1-1.373.423,2.273,2.273,0,0,1-1.373-.423Z" transform="translate(-220.29 -408.009)" fill="#fff"/>
        <path id="Path_47382" data-name="Path 47382" d="M242.926,408.04,221.06,442.951h3.8l21.813-34.911Z" transform="translate(-219.027 -407.958)" fill="#fff"/>
      </g>
      <g id="Group_40397" data-name="Group 40397" transform="translate(4604.892 3455.373)" opacity="0.2">
        <path id="Path_47383" data-name="Path 47383" d="M303.934,420.817a5.81,5.81,0,0,0-3.75-1.215,6.074,6.074,0,0,0-3.776,1.189,3.671,3.671,0,0,0-1.558,2.931v9.4A3.618,3.618,0,0,0,296.408,436a6.549,6.549,0,0,0,7.526,0,3.538,3.538,0,0,0,1.558-2.879v-9.4a3.539,3.539,0,0,0-1.558-2.9Zm-1.9,12.253a1.241,1.241,0,0,1-.581,1.056,2.139,2.139,0,0,1-1.373.422,2.193,2.193,0,0,1-1.373-.422,1.294,1.294,0,0,1-.555-1.056v-9.4a1.294,1.294,0,0,1,.555-1.056,2.192,2.192,0,0,1,1.373-.449,2.139,2.139,0,0,1,1.373.449,1.241,1.241,0,0,1,.581,1.056Z" transform="translate(-275.889 -402.698)" fill="#fff"/>
        <path id="Path_47384" data-name="Path 47384" d="M296.781,429.6a3.565,3.565,0,0,0,1.585-2.878v-9.4a3.565,3.565,0,0,0-1.584-2.9A5.89,5.89,0,0,0,293,413.2a6.126,6.126,0,0,0-3.776,1.189,3.671,3.671,0,0,0-1.558,2.931v9.4a3.618,3.618,0,0,0,1.558,2.879,6.47,6.47,0,0,0,7.553,0Zm-5.282-1.875a1.321,1.321,0,0,1-.554-1.056v-9.4a1.347,1.347,0,0,1,.555-1.083,2.271,2.271,0,0,1,1.4-.423,2.192,2.192,0,0,1,1.373.423,1.347,1.347,0,0,1,.554,1.083v9.4a1.32,1.32,0,0,1-.555,1.056,2.192,2.192,0,0,1-1.373.423,2.272,2.272,0,0,1-1.373-.422Z" transform="translate(-287.67 -413.199)" fill="#fff"/>
        <path id="Path_47385" data-name="Path 47385" d="M310.227,413.23,288.44,448.036h3.8l21.734-34.806Z" transform="translate(-286.407 -413.148)" fill="#fff"/>
      </g>
      <g id="Group_40398" data-name="Group 40398" transform="translate(4828.698 3194.878)" opacity="0.2">
        <path id="Path_47386" data-name="Path 47386" d="M384.607,320.255a4.358,4.358,0,0,0-2.8-.924,4.437,4.437,0,0,0-2.826.924,2.641,2.641,0,0,0-1.162,2.165v7.024a2.641,2.641,0,0,0,1.162,2.139,4.411,4.411,0,0,0,2.826.9,4.594,4.594,0,0,0,2.8-.871,2.641,2.641,0,0,0,1.162-2.165v-7.024A2.641,2.641,0,0,0,384.607,320.255Zm-1.426,9.164a1,1,0,0,1-.422.792,1.717,1.717,0,0,1-1.03.317,1.637,1.637,0,0,1-1.03-.317,1,1,0,0,1-.423-.792v-7.025a.924.924,0,0,1,.423-.792,1.531,1.531,0,0,1,1.03-.343,1.557,1.557,0,0,1,1.03.343.924.924,0,0,1,.422.792Z" transform="translate(-363.56 -306.723)" fill="#fff"/>
        <path id="Path_47387" data-name="Path 47387" d="M379.233,326.794a2.641,2.641,0,0,0,1.188-2.139V317.63a2.64,2.64,0,0,0-1.188-2.165,4.806,4.806,0,0,0-5.625,0,2.641,2.641,0,0,0-1.188,2.192v7.024a2.641,2.641,0,0,0,1.188,2.139,4.384,4.384,0,0,0,2.8.9,4.463,4.463,0,0,0,2.826-.924Zm-3.908-1.4a.924.924,0,0,1-.423-.792v-7.024a.924.924,0,0,1,.423-.792,1.61,1.61,0,0,1,1.03-.317,1.716,1.716,0,0,1,1.03.317.977.977,0,0,1,.4.792V324.6a.977.977,0,0,1-.4.792,1.718,1.718,0,0,1-1.03.317,1.61,1.61,0,0,1-.951-.317Z" transform="translate(-372.42 -314.556)" fill="#fff"/>
        <path id="Path_47388" data-name="Path 47388" d="M389.3,314.57,373.03,340.582h2.826L392.1,314.57Z" transform="translate(-371.419 -314.533)" fill="#fff"/>
      </g>
      <g id="Group_40399" data-name="Group 40399" transform="translate(4932.957 3286.313)" opacity="0.2">
        <path id="Path_47389" data-name="Path 47389" d="M472.506,390.165l-5.678-1.505v.871H415.1l10.563-10.8a1.533,1.533,0,0,0,.687.158,1.584,1.584,0,0,0,1.584-1.452l9.586-2.324a1.585,1.585,0,0,0,2.826-.977,1.82,1.82,0,0,0,0-.528l9.507-9.137a1.9,1.9,0,0,0,.581,0,1.584,1.584,0,0,0,1.426-.924h10.774a1.611,1.611,0,0,0,1.452.924,1.584,1.584,0,1,0-1.452-2.245H451.776a1.532,1.532,0,0,0-1.426-.924,1.584,1.584,0,0,0-1.585,1.585,1.825,1.825,0,0,0,0,.528l-9.507,9.164a1.426,1.426,0,0,0-.581-.132,1.611,1.611,0,0,0-1.558,1.294l-9.745,2.35a1.479,1.479,0,0,0-1.109-.475,1.585,1.585,0,0,0-1.584,1.585,2.056,2.056,0,0,0,0,.422l-8.794,8.979,5.968-11.857h0a1.558,1.558,0,0,0,1.584-1.558h0l10.854-5.282a1.479,1.479,0,0,0,1,.37,1.584,1.584,0,0,0,1.584-1.584,1.826,1.826,0,0,0-.132-.634l8.451-9.216h.475a1.585,1.585,0,0,0,1.558-1.215l15.316-3.275a1.532,1.532,0,0,0,1.268.66,1.584,1.584,0,1,0-1.479-1.664l-15.29,3.248a1.611,1.611,0,0,0-1.294-.66,1.584,1.584,0,0,0-1.452,2.218l-8.451,9.216h-.475a1.585,1.585,0,0,0-1.585,1.585h0l-10.854,5.282a1.574,1.574,0,0,0-2.218,2.218l-6.629,13.2v-32.8h.845l-1.505-5.678-1.532,5.678h.871v36.1h54.057v.871Z" transform="translate(-411.9 -349.18)" fill="#fff"/>
        <path id="Path_47390" data-name="Path 47390" d="M472.506,390.165l-5.678-1.505v.871H415.1l10.563-10.8a1.533,1.533,0,0,0,.687.158,1.584,1.584,0,0,0,1.584-1.452l9.586-2.324a1.585,1.585,0,0,0,2.826-.977,1.82,1.82,0,0,0,0-.528l9.507-9.137a1.9,1.9,0,0,0,.581,0,1.584,1.584,0,0,0,1.426-.924h10.774a1.611,1.611,0,0,0,1.452.924,1.584,1.584,0,1,0-1.452-2.245H451.776a1.532,1.532,0,0,0-1.426-.924,1.584,1.584,0,0,0-1.585,1.585,1.825,1.825,0,0,0,0,.528l-9.507,9.164a1.426,1.426,0,0,0-.581-.132,1.611,1.611,0,0,0-1.558,1.294l-9.745,2.35a1.479,1.479,0,0,0-1.109-.475,1.585,1.585,0,0,0-1.584,1.585,2.056,2.056,0,0,0,0,.422l-8.794,8.979,5.968-11.857h0a1.558,1.558,0,0,0,1.584-1.558h0l10.854-5.282a1.479,1.479,0,0,0,1,.37,1.584,1.584,0,0,0,1.584-1.584,1.826,1.826,0,0,0-.132-.634l8.451-9.216h.475a1.585,1.585,0,0,0,1.558-1.215l15.316-3.275a1.532,1.532,0,0,0,1.268.66,1.584,1.584,0,1,0-1.479-1.664l-15.29,3.248a1.611,1.611,0,0,0-1.294-.66,1.584,1.584,0,0,0-1.452,2.218l-8.451,9.216h-.475a1.585,1.585,0,0,0-1.585,1.585h0l-10.854,5.282a1.574,1.574,0,0,0-2.218,2.218l-6.629,13.2v-32.8h.845l-1.505-5.678-1.532,5.678h.871v36.1h54.057v.871Z" transform="translate(-411.9 -349.18)" fill="#fff"/>
        <path id="Path_47391" data-name="Path 47391" d="M472.506,390.165l-5.678-1.505v.871H415.1l10.563-10.8a1.533,1.533,0,0,0,.687.158,1.584,1.584,0,0,0,1.584-1.452l9.586-2.324a1.585,1.585,0,0,0,2.826-.977,1.82,1.82,0,0,0,0-.528l9.507-9.137a1.9,1.9,0,0,0,.581,0,1.584,1.584,0,0,0,1.426-.924h10.774a1.611,1.611,0,0,0,1.452.924,1.584,1.584,0,1,0-1.452-2.245H451.776a1.532,1.532,0,0,0-1.426-.924,1.584,1.584,0,0,0-1.585,1.585,1.825,1.825,0,0,0,0,.528l-9.507,9.164a1.426,1.426,0,0,0-.581-.132,1.611,1.611,0,0,0-1.558,1.294l-9.745,2.35a1.479,1.479,0,0,0-1.109-.475,1.585,1.585,0,0,0-1.584,1.585,2.056,2.056,0,0,0,0,.422l-8.794,8.979,5.968-11.857h0a1.558,1.558,0,0,0,1.584-1.558h0l10.854-5.282a1.479,1.479,0,0,0,1,.37,1.584,1.584,0,0,0,1.584-1.584,1.826,1.826,0,0,0-.132-.634l8.451-9.216h.475a1.585,1.585,0,0,0,1.558-1.215l15.316-3.275a1.532,1.532,0,0,0,1.268.66,1.584,1.584,0,1,0-1.479-1.664l-15.29,3.248a1.611,1.611,0,0,0-1.294-.66,1.584,1.584,0,0,0-1.452,2.218l-8.451,9.216h-.475a1.585,1.585,0,0,0-1.585,1.585h0l-10.854,5.282a1.574,1.574,0,0,0-2.218,2.218l-6.629,13.2v-32.8h.845l-1.505-5.678-1.532,5.678h.871v36.1h54.057v.871Z" transform="translate(-411.9 -349.18)" fill="#fff"/>
        <path id="Path_47392" data-name="Path 47392" d="M472.506,390.165l-5.678-1.505v.871H415.1l10.563-10.8a1.533,1.533,0,0,0,.687.158,1.584,1.584,0,0,0,1.584-1.452l9.586-2.324a1.585,1.585,0,0,0,2.826-.977,1.82,1.82,0,0,0,0-.528l9.507-9.137a1.9,1.9,0,0,0,.581,0,1.584,1.584,0,0,0,1.426-.924h10.774a1.611,1.611,0,0,0,1.452.924,1.584,1.584,0,1,0-1.452-2.245H451.776a1.532,1.532,0,0,0-1.426-.924,1.584,1.584,0,0,0-1.585,1.585,1.825,1.825,0,0,0,0,.528l-9.507,9.164a1.426,1.426,0,0,0-.581-.132,1.611,1.611,0,0,0-1.558,1.294l-9.745,2.35a1.479,1.479,0,0,0-1.109-.475,1.585,1.585,0,0,0-1.584,1.585,2.056,2.056,0,0,0,0,.422l-8.794,8.979,5.968-11.857h0a1.558,1.558,0,0,0,1.584-1.558h0l10.854-5.282a1.479,1.479,0,0,0,1,.37,1.584,1.584,0,0,0,1.584-1.584,1.826,1.826,0,0,0-.132-.634l8.451-9.216h.475a1.585,1.585,0,0,0,1.558-1.215l15.316-3.275a1.532,1.532,0,0,0,1.268.66,1.584,1.584,0,1,0-1.479-1.664l-15.29,3.248a1.611,1.611,0,0,0-1.294-.66,1.584,1.584,0,0,0-1.452,2.218l-8.451,9.216h-.475a1.585,1.585,0,0,0-1.585,1.585h0l-10.854,5.282a1.574,1.574,0,0,0-2.218,2.218l-6.629,13.2v-32.8h.845l-1.505-5.678-1.532,5.678h.871v36.1h54.057v.871Z" transform="translate(-411.9 -349.18)" fill="#fff"/>
      </g>
      <path id="Path_47393" data-name="Path 47393" d="M425.867,419.5c0-6.549-4.912-10.061-9.665-13.468l-.924-.66V389.743a4.912,4.912,0,0,1,3.908,5.282v.845h6.549v-.4c0-7.658-5.282-9.956-10.563-10.378V380.5H411v4.595c-5.123.475-10.352,2.8-10.352,10.378,0,6.549,4.938,10.061,9.665,13.468l.687.5v15.633a4.859,4.859,0,0,1-3.961-5.282v-2.218H400.41v1.769c0,7.632,5.282,9.929,10.563,10.378v3.565h4.2v-3.407C420.454,429.354,425.867,427.136,425.867,419.5Zm-17.984-24.3a4.938,4.938,0,0,1,3.222-5.282v11.936a9.375,9.375,0,0,1-3.222-6.655Zm7.289,29.92V412.955a9.454,9.454,0,0,1,3.486,7A4.885,4.885,0,0,1,415.172,425.129Z" transform="translate(4502.204 2988.522)" fill="#fff" opacity="0.2"/>
      <path id="Path_47394" data-name="Path 47394" d="M264.277,420.964c0-7.922-5.942-12.148-11.672-16.267l-1.109-.819v-18.75a5.915,5.915,0,0,1,4.7,6.5v1.03h7.922v-.475c0-9.243-6.417-12.016-12.676-12.544V374.09H246.4v5.546c-6.206.581-12.491,3.38-12.491,12.544,0,7.922,5.942,12.148,11.672,16.267l.819.581v18.882a5.863,5.863,0,0,1-4.806-6.391v-2.641H233.67v2.139c0,9.216,6.47,11.989,12.781,12.544v4.278H251.5V433.56C257.807,432.953,264.277,430.18,264.277,420.964Zm-21.813-29.339a5.994,5.994,0,0,1,3.908-6.259v14.419a11.276,11.276,0,0,1-3.908-8.16Zm8.952,36.126V413.068a11.435,11.435,0,0,1,4.2,8.451,5.915,5.915,0,0,1-4.12,6.232Z" transform="translate(4228.62 2978.005)" fill="#fff" opacity="0.2"/>
      <g id="Group_40400" data-name="Group 40400" transform="translate(4741.41 3219.271)" opacity="0.2">
        <path id="Path_47395" data-name="Path 47395" d="M339.562,372.411,353.32,340.59a1.51,1.51,0,0,0,.423.29l6.311,2.456a1.716,1.716,0,0,0,.528,0l-11.408,32.719a2.905,2.905,0,0,1-3.829,1.69l-4.146-1.611a2.878,2.878,0,0,1-1.637-3.724Z" transform="translate(-339.366 -296.232)" fill="#fff"/>
        <path id="Path_47396" data-name="Path 47396" d="M345.452,343.4a1.8,1.8,0,0,1-.608-2.086l1.4-3.618a19.514,19.514,0,0,0,4.595,2.641,19.868,19.868,0,0,0,5.123,1.241l-1.426,3.591a1.822,1.822,0,0,1-1.849,1.136,3.318,3.318,0,0,1-.5,0l-6.312-2.456a2.411,2.411,0,0,1-.422-.449Z" transform="translate(-330.573 -300.974)" fill="#fff"/>
        <path id="Path_47397" data-name="Path 47397" d="M354.985,360.836a18.83,18.83,0,0,0,5.1,1.215,19.172,19.172,0,1,0-5.1-1.215Zm1.822-4.648a14.841,14.841,0,1,1,19.225-8.451,14.841,14.841,0,0,1-19.225,8.451Z" transform="translate(-333.795 -323.793)" fill="#fff"/>
      </g>
      <path id="Path_47398" data-name="Path 47398" d="M395.87,408.141c0,11.514-10.563,12.544-10.563,22.658v8.16H374.347v-6.047c0-14.577,10.431-17.931,10.431-25.035a4.806,4.806,0,0,0-4.991-4.833c-2.641,0-4.912,2.456-4.912,6.76v2.456H363.89v-4.12c0-8.345,6.576-13.891,15.845-13.891S395.87,399.717,395.87,408.141Zm-21.5,37.684h10.933v10.959H374.347Z" transform="translate(4442.282 3011.083)" fill="#fff" opacity="0.2"/>
      <path id="Path_47399" data-name="Path 47399" d="M430.9,425.939c0,6.813-6.259,7.447-6.259,13.442v4.833h-6.5v-3.591c0-8.635,6.179-10.563,6.179-14.841a2.826,2.826,0,0,0-2.958-2.852c-1.558,0-2.9,1.452-2.9,3.988V428.4H411.94v-2.456c0-4.938,3.908-8.239,9.428-8.239S430.9,420.948,430.9,425.939ZM418.146,448.28h6.5v6.5h-6.5Z" transform="translate(4521.123 3049.56)" fill="#fff" opacity="0.2"/>
      <g id="Group_40401" data-name="Group 40401" transform="translate(4750.565 3359.384)" opacity="0.2">
        <path id="Path_47400" data-name="Path 47400" d="M357.508,376.85a16.32,16.32,0,0,0-11.118,26.408l11.039-10.933Z" transform="translate(-342.833 -376.85)" fill="#fff"/>
        <path id="Path_47401" data-name="Path 47401" d="M359.5,381.613a16.24,16.24,0,0,0-9.85-4.753v14.577h14.577a16.241,16.241,0,0,0-4.727-9.824Z" transform="translate(-331.648 -376.834)" fill="#fff"/>
        <path id="Path_47402" data-name="Path 47402" d="M359.109,392.3a16.267,16.267,0,0,0,3.618-8.635H350.5Z" transform="translate(-330.253 -365.676)" fill="#fff"/>
        <path id="Path_47403" data-name="Path 47403" d="M345.06,394.136a16.214,16.214,0,0,0,10.3,3.724v0a16.214,16.214,0,0,0,10.246-3.618L355.465,383.89Z" transform="translate(-339.179 -365.299)" fill="#fff"/>
      </g>
      <path id="Path_47404" data-name="Path 47404" d="M307.82,459.91a116.527,116.527,0,0,0-4.885-18.485h0c-2.033-.845-4.41-1.875-6.1-2.641l-2.852-1.69h0l-1.268-.713v-.9h0v-1l.555-.819a10.565,10.565,0,0,0,.9-3.327s.211.423.845.185,1-1.479,1.215-2.43-.211-1.849-.871-1.849h0a8.107,8.107,0,0,0-1.4-7.447c-2.641-3.2-9.665-2.641-11.487,0a8.847,8.847,0,0,0-1.32,7.447h0c-.66,0-1.135.766-.871,1.849s.713,2.218,1.241,2.4a.713.713,0,0,0,.871-.185,10.166,10.166,0,0,0,.924,3.3,7.717,7.717,0,0,0,.475.687v.977h0v.977l-1.268.713h0l-2.879,1.716c-1.69.819-4.067,1.822-6.047,2.641h0A113.75,113.75,0,0,0,268.71,459.8Z" transform="translate(4286.113 3047.754)" fill="#fff" opacity="0.2"/>
      <path id="Path_47405" data-name="Path 47405" d="M398.027,401.549a91.759,91.759,0,0,0-3.988-15.079h0c-1.637-.687-3.591-1.532-4.965-2.192l-2.324-1.373h0l-1.03-.581v-.792h0v-.819c.132-.211.29-.4.449-.66a8.8,8.8,0,0,0,.739-2.641s.185.343.687.159.819-1.215,1-1.981-.185-1.532-.739-1.505h0a6.628,6.628,0,0,0-1.162-6.074,6.945,6.945,0,0,0-9.375,0,7.21,7.21,0,0,0-1.083,6.1h0c-.528,0-.924.607-.687,1.505s.581,1.822,1,1.981a.644.644,0,0,0,.687-.158,9.535,9.535,0,0,0,.766,2.641l.4.555v.9h0v.819l-1.03.581h0l-2.35,1.4c-1.373.66-3.3,1.479-4.938,2.165h0a94.48,94.48,0,0,0-3.988,15.079Z" transform="translate(4445.909 2965.044)" fill="#fff" opacity="0.2"/>
      <path id="Path_47406" data-name="Path 47406" d="M246.8,394.5a96.5,96.5,0,0,0-4.172-15.845h0c-1.716-.713-3.776-1.611-5.282-2.3l-2.43-1.452h0l-1.083-.607v-.766h0v-.845l.475-.713a8.768,8.768,0,0,0,.766-2.826s.185.343.739,0a3.334,3.334,0,0,0,1.03-2.06c.185-.819-.185-1.584-.766-1.584h0a6.972,6.972,0,0,0-1.215-6.364,7.236,7.236,0,0,0-9.8,0,7.552,7.552,0,0,0-1.136,6.391h0c-.555,0-.951.66-.713,1.611s.607,1.875,1.056,2.033a.625.625,0,0,0,.713-.158,9.4,9.4,0,0,0,.792,2.826l.422.581v.845h0v.845l-1.083.607h0l-2.482,1.479c-1.426.687-3.459,1.558-5.282,2.271h0a96.5,96.5,0,0,0-4.172,15.845Z" transform="translate(4195 2950.336)" fill="#fff" opacity="0.2"/>
      <path id="Path_47407" data-name="Path 47407" d="M280.723,399.633a63.578,63.578,0,0,0-2.8-10.563h0c-1.135-.475-2.641-1.056-3.486-1.532l-1.637-.977h0l-.739-.423v-.5h0v-.555l.317-.475a5.941,5.941,0,0,0,.5-1.9.4.4,0,0,0,.5,0c.29-.132.555-.845.687-1.4s-.132-1.083-.5-1.056h0a4.7,4.7,0,0,0-.792-4.278,4.912,4.912,0,0,0-6.6,0,5.044,5.044,0,0,0-.766,4.278h0c-.4,0-.66.423-.5,1.056s.4,1.268.713,1.373a.567.567,0,0,0,.475,0,6.1,6.1,0,0,0,.555,1.9c0,.158.185.264.264.4v.581h0v.5l-.739.422h0l-1.664.977c-.951.475-2.324,1.056-3.459,1.532h0a66.29,66.29,0,0,0-2.8,10.563Z" transform="translate(4268.95 2979.002)" fill="#fff" opacity="0.2"/>
      <path id="Path_47408" data-name="Path 47408" d="M328.173,347.83a70.266,70.266,0,0,0-2.984-11.25h0c-1.215-.5-2.641-1.135-3.7-1.611l-1.743-1.03h0l-.792-.423h0v-.581h0v-.607l.343-.5a6.415,6.415,0,0,0,.528-2.033s.158.264.528,0a2.63,2.63,0,0,0,.739-1.452c.132-.555-.132-1.162-.528-1.136h0a4.991,4.991,0,0,0-.845-4.542,4.6,4.6,0,0,0-7.817,4.569h0c-.423,0-.687.475-.528,1.135s.423,1.347.739,1.452a.423.423,0,0,0,.528,0,6.9,6.9,0,0,0,.555,2.007l.317.423v.607h0v.792l-.792.422h0l-1.769,1.03c-1,.5-2.456,1.109-3.671,1.611h0a70.25,70.25,0,0,0-2.984,11.25Z" transform="translate(4344.507 2891.451)" fill="#fff" opacity="0.2"/>
      <g id="Group_40402" data-name="Group 40402" transform="translate(4581.653 3218.366)" opacity="0.3">
        <path id="Path_47409" data-name="Path 47409" d="M301.864,327.856V326.8a36.127,36.127,0,0,0-20.7-.185V327.7a36.338,36.338,0,0,1,20.7.159Z" transform="translate(-275.113 -320.594)" fill="#fff"/>
        <path id="Path_47410" data-name="Path 47410" d="M291.066,326.69a36.976,36.976,0,0,0-9.876,1.426V329.2a35.862,35.862,0,0,1,9.877-1.426Z" transform="translate(-275.063 -318.134)" fill="#fff"/>
        <path id="Path_47411" data-name="Path 47411" d="M286.06,327.813a36.354,36.354,0,0,1,7.922,1.479v-1.056a36.408,36.408,0,0,0-7.922-1.505Z" transform="translate(-267.073 -318.068)" fill="#fff"/>
        <path id="Path_47412" data-name="Path 47412" d="M296.451,329.637v-1.083a36.6,36.6,0,0,0-15.211,1.056v1.083a36.152,36.152,0,0,1,15.211-1.056Z" transform="translate(-274.981 -315.667)" fill="#fff"/>
        <path id="Path_47413" data-name="Path 47413" d="M299.207,331.714v-1.162a35.993,35.993,0,0,0-18.037.554v1.056a36.31,36.31,0,0,1,18.036-.449Z" transform="translate(-275.096 -313.255)" fill="#fff"/>
        <path id="Path_47414" data-name="Path 47414" d="M301.864,333.868v-1.083a36.338,36.338,0,0,0-20.7-.158v1.056a36.126,36.126,0,0,1,20.7.185Z" transform="translate(-275.113 -310.735)" fill="#fff"/>
        <path id="Path_47415" data-name="Path 47415" d="M288.743,332.73a37.184,37.184,0,0,0-7.553,1.347v1.056a35.382,35.382,0,0,1,7.553-1.32Z" transform="translate(-275.063 -308.223)" fill="#fff"/>
        <path id="Path_47416" data-name="Path 47416" d="M301.864,336.868v-1.083a36.339,36.339,0,0,0-20.7-.158v1.056a36.364,36.364,0,0,1,20.7.185Z" transform="translate(-275.113 -305.812)" fill="#fff"/>
        <path id="Path_47417" data-name="Path 47417" d="M301.864,338.366V337.31a36.125,36.125,0,0,0-20.7-.185v1.083A36.336,36.336,0,0,1,301.864,338.366Z" transform="translate(-275.113 -303.349)" fill="#fff"/>
        <path id="Path_47418" data-name="Path 47418" d="M301.864,338.81a36.126,36.126,0,0,0-20.7-.185v1.083a36.337,36.337,0,0,1,20.7.158Z" transform="translate(-275.113 -300.888)" fill="#fff"/>
        <path id="Path_47419" data-name="Path 47419" d="M312,327.856V326.8a36.127,36.127,0,0,0-20.7-.185V327.7a36.338,36.338,0,0,1,20.7.159Z" transform="translate(-258.475 -320.594)" fill="#fff"/>
        <path id="Path_47420" data-name="Path 47420" d="M304.382,327.944h1.928a37.5,37.5,0,0,1,5.678,1.241v-1.056a35.482,35.482,0,0,0-5.466-1.215h-1.056l-1.056-.132h-.238a35.966,35.966,0,0,0-12.861,1.294v1.083a36.1,36.1,0,0,1,13.072-1.215Z" transform="translate(-258.459 -318.173)" fill="#fff"/>
        <path id="Path_47421" data-name="Path 47421" d="M312,330.849v-1.056a36.364,36.364,0,0,0-20.7-.185v1.083a36.339,36.339,0,0,1,20.7.159Z" transform="translate(-258.475 -315.665)" fill="#fff"/>
        <path id="Path_47422" data-name="Path 47422" d="M293.23,330.058v1.056a36.227,36.227,0,0,1,10.141,0v-1.056A35.25,35.25,0,0,0,293.23,330.058Z" transform="translate(-255.308 -313.209)" fill="#fff"/>
        <path id="Path_47423" data-name="Path 47423" d="M312,333.868v-1.083a36.338,36.338,0,0,0-20.7-.158v1.056a36.126,36.126,0,0,1,20.7.185Z" transform="translate(-258.475 -310.735)" fill="#fff"/>
        <path id="Path_47424" data-name="Path 47424" d="M312,335.368v-1.083a36.338,36.338,0,0,0-20.7-.158v1.056a36.126,36.126,0,0,1,20.7.185Z" transform="translate(-258.475 -308.274)" fill="#fff"/>
        <path id="Path_47425" data-name="Path 47425" d="M305.824,335.549v-1.083a36.5,36.5,0,0,0-14.524,1.162v1.056a36.494,36.494,0,0,1,14.524-1.136Z" transform="translate(-258.475 -305.814)" fill="#fff"/>
        <path id="Path_47426" data-name="Path 47426" d="M312,338.366V337.31a36.125,36.125,0,0,0-20.7-.185v1.083A36.336,36.336,0,0,1,312,338.366Z" transform="translate(-258.475 -303.349)" fill="#fff"/>
        <path id="Path_47427" data-name="Path 47427" d="M301.361,337.2a36.305,36.305,0,0,0-10.061,1.426v1.083a36.31,36.31,0,0,1,10.061-1.426Z" transform="translate(-258.475 -300.889)" fill="#fff"/>
        <path id="Path_47428" data-name="Path 47428" d="M280.727,367.445a33.617,33.617,0,0,1,25.616,0h.29a33.7,33.7,0,0,1,25.642,0h.132a.29.29,0,0,0,.211,0,.423.423,0,0,0,.132-.29V326.461a.423.423,0,0,0-.238-.37,34.516,34.516,0,0,0-13.2-2.641,34.119,34.119,0,0,0-12.94,2.641,34.331,34.331,0,0,0-26.065,0,.4.4,0,0,0-.264.37v40.694a.422.422,0,0,0,.185.343A.449.449,0,0,0,280.727,367.445Zm26.144-40.721a33.723,33.723,0,0,1,25.14,0v39.744a34.779,34.779,0,0,0-25.14,0Zm-25.906,0a33.723,33.723,0,0,1,25.14,0v39.744a34.779,34.779,0,0,0-25.14,0Z" transform="translate(-276.95 -323.45)" fill="#fff"/>
        <path id="Path_47429" data-name="Path 47429" d="M337.944,325.779h-1.268v39.189a.449.449,0,0,1-.185.343.423.423,0,0,1-.4,0,34.832,34.832,0,0,0-24.163-1.611h0a9.165,9.165,0,0,1-3.512.687,8.978,8.978,0,0,1-3.512-.687h0a34.912,34.912,0,0,0-24.189,1.611.37.37,0,0,1-.555-.37V325.7H278.87v41.143l26.091-2.3a4.648,4.648,0,0,0,3.46,1.241,4.726,4.726,0,0,0,3.459-1.241l26.065,2.3Z" transform="translate(-278.87 -319.758)" fill="#fff"/>
        <path id="Path_47430" data-name="Path 47430" d="M279.976,365.782a.4.4,0,0,0,.4-.4v-40.14a.4.4,0,1,0-.792,0v40.14A.4.4,0,0,0,279.976,365.782Z" transform="translate(-277.705 -321.153)" fill="#fff"/>
        <path id="Path_47431" data-name="Path 47431" d="M300.626,365.782a.4.4,0,0,0,.4-.4v-40.14a.4.4,0,1,0-.792,0v40.14A.4.4,0,0,0,300.626,365.782Z" transform="translate(-243.823 -321.153)" fill="#fff"/>
      </g>
      <path id="Path_47687" data-name="Path 47687" d="M357.908,431.726h0l14.313-4.859a1.769,1.769,0,0,0,.9-2.3h0c-.4-.9-.449-1.69-1.347-1.294-2.3,1.188-12.121,4.3-14.894,5.282a1.69,1.69,0,0,0-1.32,2.35h0a1.743,1.743,0,0,0,2.351.819Z" transform="translate(4428.379 3058.535)" fill="#ffd2a1"/>
      <path id="Path_47688" data-name="Path 47688" d="M355.57,433.571a1.743,1.743,0,0,0,2.324.792l12.649-6.338a1.716,1.716,0,0,0,.792-2.324h0a1.743,1.743,0,0,0-2.324-.792l-12.649,6.311a1.769,1.769,0,0,0-.792,2.35Z" transform="translate(4428.34 3061.1)" fill="#ffd2a1"/>
      <path id="Path_47689" data-name="Path 47689" d="M371.024,426.81h0a1.769,1.769,0,0,0-2.377-.713l-11.25,6.127a1.769,1.769,0,0,0-.687,2.377h0a1.716,1.716,0,0,0,2.35.686l11.25-6.126a1.717,1.717,0,0,0,.713-2.35Z" transform="translate(4430.157 3063.001)" fill="#ffd2a1"/>
      <path id="Path_47690" data-name="Path 47690" d="M369.084,427.722h0a1.558,1.558,0,0,0-2.139-.449l-7.738,5.123a1.532,1.532,0,0,0-.423,2.139h0a1.532,1.532,0,0,0,2.139.449l7.737-5.123a1.532,1.532,0,0,0,.423-2.139Z" transform="translate(4433.471 3064.862)" fill="#ffd2a1"/>
      <path id="Path_47691" data-name="Path 47691" d="M375.714,432.855l7-2.456-2.641-8.239-6.021,2.456c-.951-1.532-9.639-.37-9.639-.37a27.135,27.135,0,0,0-4.912,2.641,26.065,26.065,0,0,0,5.783,11.936s3.327-1.056,4.41-1.452a9.217,9.217,0,0,0,6.021-4.516Z" transform="translate(4435.08 3056.877)" fill="#f2c799"/>
      <path id="Path_47692" data-name="Path 47692" d="M358.31,423.847h0c0,1,.819,1.505,1.822,1.611a49.613,49.613,0,0,0,5.863-.159s2.641,6.681,7.236,6.153h0l10.933-2.377-2.641-6.681L375,424.454a9.481,9.481,0,0,0-6.787-2.984,58.08,58.08,0,0,1-7.553.528C358.574,421.892,358.31,422.87,358.31,423.847Z" transform="translate(4433.126 3055.745)" fill="#ffd2a1"/>
      <path id="Path_47693" data-name="Path 47693" d="M377.066,442.389c1.294-6.206,2.878-23.767,4.542-28.785a14.366,14.366,0,0,1,4.014-7.262,13.944,13.944,0,0,1,4.225-3.222h0a14.952,14.952,0,0,1,2.641-1.03,14.025,14.025,0,0,1,4.436-.555c9.031,9.428,7.711,20.334,4.093,32.27-.158.581-.343,1.136-.5,1.69v.185a4.285,4.285,0,0,1-.343,1.083c-1.558,4.859-3.407,9.85-4.991,14.947a8.45,8.45,0,0,1-5.282,5.863l-12.94-15.132Z" transform="translate(4463.727 3023.022)" fill="#a1947f"/>
      <path id="Path_47694" data-name="Path 47694" d="M375.416,434.563l-3.565-12.993-7.341,1.822,3.433,13.23Z" transform="translate(4443.3 3055.909)" fill="#ededed"/>
      <path id="Path_47695" data-name="Path 47695" d="M369.642,444.052a2.64,2.64,0,0,0,.634,0c3.671-.792,22.13-6.364,30.343-9.058a40.621,40.621,0,0,0,3.856-1.4l1.611-1.056-2.113-13.389-7.922-2.139c-5.282,1.954-24.638,11.144-30.659,12.729C367,435.654,368.348,440.064,369.642,444.052Z" transform="translate(4444.744 3048.427)" fill="#a1947f"/>
      <path id="Path_47696" data-name="Path 47696" d="M367.881,426.953a1.08,1.08,0,1,0,.37-1.479,1.056,1.056,0,0,0-.37,1.479Z" transform="translate(4448.565 3062.066)" fill="#fff"/>
      <path id="Path_47697" data-name="Path 47697" d="M369.261,426.62a1.089,1.089,0,1,0,1.875-1.109,1.089,1.089,0,1,0-1.875,1.109Z" transform="translate(4450.854 3061.502)" fill="#fff"/>
      <path id="Path_47698" data-name="Path 47698" d="M367.23,457.46c3.671-.792,22.13-6.364,30.343-9.058l3.354-39.612-6.312,33.67Z" transform="translate(4447.763 3034.94)" fill="#1d1d1b" opacity="0.2"/>
      <path id="Path_47699" data-name="Path 47699" d="M442.691,487.049H377.2c.845-10.088,17.112-81.864,17.112-81.864l7.13-1.135,21.443-3.459S442.929,477.912,442.691,487.049Z" transform="translate(4464.121 3021.486)" fill="#fff"/>
      <path id="Path_47700" data-name="Path 47700" d="M406.117,410.518l-1.769-17.878c-7.632.924-17.852,1.928-19.647,1.8,0,0,1.162,13.019,1.188,18.644C384.7,427.71,401.6,427.155,406.117,410.518Z" transform="translate(4476.427 3008.442)" fill="#f2c799"/>
      <path id="Path_47701" data-name="Path 47701" d="M401.7,400.62l18.116,8.609c.528,5.757.845,11.593,1.347,17.878,2.271,27.517,3.407,50.756,3.275,59.893H390.11c.37-35.835,1.558-69.875,10.563-86.222Z" transform="translate(4485.304 3021.535)" fill="#a1947f"/>
      <path id="Path_47702" data-name="Path 47702" d="M385.756,407.677l1.083-.66,7.473-4.542,1.03-.185L393.2,484.154h-16C378.045,474.172,385.624,412.8,385.756,407.677Z" transform="translate(4464.121 3024.275)" fill="#a1947f"/>
      <path id="Path_47703" data-name="Path 47703" d="M391.737,412.945l-4.621-.475-1.505-9.19,7.738.29Z" transform="translate(4477.92 3025.899)" fill="#d42441"/>
      <path id="Path_47704" data-name="Path 47704" d="M391.963,407.953l-6.391,7.315c-.951-4.436-2.245-8.107-1.717-10.8l3.671-3.988A6.76,6.76,0,0,0,391.963,407.953Z" transform="translate(4474.842 3021.305)" fill="#dadada"/>
      <path id="Path_47705" data-name="Path 47705" d="M386.85,410.89,394.772,420c5.282-5.282,10.933-11.144,12.333-16.214l-4.648-5.1C402.4,403.259,392.924,411.128,386.85,410.89Z" transform="translate(4479.955 3018.368)" fill="#dadada"/>
      <path id="Path_47706" data-name="Path 47706" d="M392.262,407.235l-4.621-.475-2.35,42.385,4.7,7.394,5.044-5.968Z" transform="translate(4477.396 3031.61)" fill="#e45f59"/>
      <path id="Path_47707" data-name="Path 47707" d="M390.439,456.458c3.935-14,13.627-39.8,13.627-39.8s-6.179-3.222-5.731-3.7l6.76.238-1.215-8.82-6.232-5.282a203.635,203.635,0,0,0-7.21,57.358Z" transform="translate(4485.793 3019.041)" fill="#8a7f6d"/>
      <path id="Path_47708" data-name="Path 47708" d="M387.547,452.934c-3.908-14-6.417-40.219-6.417-40.219s5.836-2.165,5.282-2.641l-4.912-.607,3.776-6.443,5.282-2.033C388.894,417.178,387.97,435.03,387.547,452.934Z" transform="translate(4470.57 3022.142)" fill="#8a7f6d"/>
      <path id="Path_47709" data-name="Path 47709" d="M413.493,410.445a20.466,20.466,0,0,0,2.4-8.715c1.188-17.482-9.058-16.03-15.5-16.663-7.579-.423-16.056,2.086-16.8,15.5a17.7,17.7,0,0,0,.634,2.165l-2.931,4.833a3.116,3.116,0,0,0,1.743,4.2l-.158,5.1c0,4.806,2.641,9.164,6.708,9.19,9.375-1.135,14.366-4.727,14.551-14.788C406.943,411.369,412.2,412.9,413.493,410.445Z" transform="translate(4470.398 2995.945)" fill="#ffd2a1"/>
      <path id="Path_47710" data-name="Path 47710" d="M403.471,389.3l-10.431-.475a4.463,4.463,0,0,0-4.648,4.067c-.185,2.192-.238,4.754-.423,7.236,1.716.317,7.368.37,7.368.37s-2.509,10.431,4.912,9.718c6.206-.871,5.546-15.053,5.282-19.04a2.086,2.086,0,0,0-2.06-1.875Z" transform="translate(4481.792 3002.171)" fill="#3c3c3b"/>
      <path id="Path_47711" data-name="Path 47711" d="M395.409,396.234c-.29,2.641-2.9,5.625-4.7,5.44s-1.69-2.482-1.426-5.282c.158-1.822.317-4.3,2.324-4.674S395.831,392.22,395.409,396.234Z" transform="translate(4483.703 3006.802)" fill="#ffd2a1"/>
      <path id="Path_47712" data-name="Path 47712" d="M427.3,443.988l-3.908,21.206-42.411,5.07h58.44l-.977-56.037-16.109-3.407Z" transform="translate(4470.324 3038.271)" fill="#1d1d1b" opacity="0.2"/>
      <path id="Path_47713" data-name="Path 47713" d="M424.9,454.538c-2.033-11.672-4.991-27.939-7.632-39.876a17.509,17.509,0,0,0-5.678-9.243c-3.459-2.852-7.553-1.769-10.563,1.584a16.743,16.743,0,0,0-4.569,12.438c.159,2.139,9.613,35.6,9.613,35.6s-4.78,24.216-5.44,26.91h17.429C418.269,481.131,425.029,455.092,424.9,454.538Z" transform="translate(4495.675 3026.718)" fill="#a1947f"/>
      <path id="Path_47714" data-name="Path 47714" d="M279.938,426.821,276,430.149c-2.165-2.509-4.252-5.1-6.443-7.579l3.8-3.3-.238-.924a5.678,5.678,0,0,1,.9-4.569c.238-.343,3.75-4.331,3.908-4.542h0l1.584,2.007,4.41-3.671c3.644,4.014,5.889,7.025,8.926,10.959l-4.674,4.595C284.612,426.584,282.553,427.191,279.938,426.821Z" transform="translate(4287.508 3032.938)" fill="#f2c799"/>
      <path id="Path_47715" data-name="Path 47715" d="M276.388,419.258a2.245,2.245,0,0,1-3.011-.185l-.238-.29a1.954,1.954,0,0,1-.475-1.452,1.981,1.981,0,0,1,.687-1.373L288.166,404.6a1.848,1.848,0,0,1,2.641.185l.185.185a1.769,1.769,0,0,1-.185,2.482Z" transform="translate(4292.589 3027.298)" fill="#f2c799"/>
      <path id="Path_47716" data-name="Path 47716" d="M277.965,414.546a2.3,2.3,0,0,1-1.452.528,1.77,1.77,0,0,1-1.32-.581l-.211-.264a1.875,1.875,0,0,1,.317-2.641l3.855-3.407a2.113,2.113,0,0,1,1.347-.5,1.611,1.611,0,0,1,1.215.554l.449.528a1.664,1.664,0,0,1-.264,2.324Z" transform="translate(4295.738 3033.119)" fill="#ffd2a1"/>
      <path id="Path_47717" data-name="Path 47717" d="M278.733,415.307a1.928,1.928,0,0,1-2.641,0l-.238-.238a1.822,1.822,0,0,1-.4-1.373,1.98,1.98,0,0,1,.739-1.32l3.09-2.641a1.849,1.849,0,0,1,2.641,0l.449.528a1.558,1.558,0,0,1,.343,1.188,1.954,1.954,0,0,1-.634,1.162Z" transform="translate(4297.163 3035.58)" fill="#ffd2a1"/>
      <path id="Path_47718" data-name="Path 47718" d="M279.293,415.588a1.584,1.584,0,0,1-2.218-.211l-.185-.211a1.558,1.558,0,0,1,.132-2.218l2.377-2.033a1.452,1.452,0,0,1,2.06.185l.4.449a1.373,1.373,0,0,1,0,1.928Z" transform="translate(4298.874 3037.86)" fill="#ffd2a1"/>
      <path id="Path_47719" data-name="Path 47719" d="M283.117,412.616H281.03a1.189,1.189,0,0,0-.9.4l-.449.528a6.523,6.523,0,0,1-2.4,8.662l2.773,3.776-3.539,3.908c-2.377-2.641-4.621-5.546-7.025-8.266l2.35-1.822,1.637-1.32-.238-.924a5.677,5.677,0,0,1,.9-4.569c.238-.343,3.75-4.331,3.908-4.542h0A1.557,1.557,0,0,1,279,408.1h5.6a1.294,1.294,0,0,1,1.268,1.32v.422a2.9,2.9,0,0,1-2.746,2.773Z" transform="translate(4287.393 3033.808)" fill="#ffd2a1"/>
      <path id="Path_47720" data-name="Path 47720" d="M281.362,442.355c-1.294-6.206-2.878-23.767-4.542-28.784a14.577,14.577,0,0,0-4.014-7.262,14.284,14.284,0,0,0-4.225-3.2h0a13.041,13.041,0,0,0-2.641-1,13.946,13.946,0,0,0-4.41-.554c-9.058,9.4-7.738,20.334-4.12,32.27.158.555.343,1.109.5,1.69v.185a4.648,4.648,0,0,0,.343,1.083c1.558,4.833,3.407,9.824,4.991,14.947a8.4,8.4,0,0,0,5.282,5.836l12.94-15.132Z" transform="translate(4263.055 3023.056)" fill="#0a415f"/>
      <path id="Path_47721" data-name="Path 47721" d="M276.365,427.159,268.39,416.3l5.968-4.6,8.266,10.854Z" transform="translate(4285.588 3039.731)" fill="#ededed"/>
      <path id="Path_47722" data-name="Path 47722" d="M292.919,424.3a4.375,4.375,0,0,1-.475.449c-2.9,2.4-18.7,13.442-25.906,18.2a28.47,28.47,0,0,1-3.486,2.165l-1.822.634-.238-13.2-.132-6.655c4.78-2.878,18.486-10.009,23.345-13.758C288.113,417.068,290.648,420.818,292.919,424.3Z" transform="translate(4273.232 3040.42)" fill="#0a415f"/>
      <path id="Path_47723" data-name="Path 47723" d="M272.83,416.993a1.091,1.091,0,0,1-2.033.792,1.109,1.109,0,0,1,.607-1.426,1.083,1.083,0,0,1,1.426.634Z" transform="translate(4289.413 3047.229)" fill="#fff"/>
      <path id="Path_47724" data-name="Path 47724" d="M271.678,417.854a1.083,1.083,0,1,1-2.007.792,1.056,1.056,0,0,1,.607-1.4A1.083,1.083,0,0,1,271.678,417.854Z" transform="translate(4287.554 3048.693)" fill="#fff"/>
      <path id="Path_47725" data-name="Path 47725" d="M292.4,428.674c-2.9,2.4-18.7,13.442-25.906,18.2l-5.546-10.563L262.3,409.74l7.526,29.735Z" transform="translate(4273.38 3036.499)" fill="#1d1d1b" opacity="0.2"/>
      <path id="Path_47726" data-name="Path 47726" d="M239.74,487.053h65.571c-.845-10.088-17.112-81.864-17.112-81.864l-7.13-1.135-21.443-3.433S239.608,477.916,239.74,487.053Z" transform="translate(4238.579 3021.535)" fill="#fff"/>
      <path id="Path_47727" data-name="Path 47727" d="M249,410.538l1.769-17.878c7.632.9,17.852,1.928,19.647,1.8,0,0-1.162,12.993-1.188,18.644C270.311,427.73,253.41,427.175,249,410.538Z" transform="translate(4253.772 3008.474)" fill="#f2c799"/>
      <path id="Path_47728" data-name="Path 47728" d="M261.4,400.64l-18.116,8.583c-.528,5.783-.845,11.619-1.347,17.878-2.271,27.543-3.407,50.782-3.275,59.919H273c-.37-35.835-1.558-69.875-10.563-86.248Z" transform="translate(4236.801 3021.568)" fill="#0a415f"/>
      <path id="Path_47729" data-name="Path 47729" d="M267.286,407.7l-1.083-.66-7.473-4.569-1.03-.158,2.139,81.864h16C275,474.192,267.418,412.82,267.286,407.7Z" transform="translate(4268.048 3024.308)" fill="#0a415f"/>
      <path id="Path_47730" data-name="Path 47730" d="M254.841,412.965l4.621-.5,1.532-9.164-7.764.291Z" transform="translate(4260.713 3025.932)" fill="#d42441"/>
      <path id="Path_47731" data-name="Path 47731" d="M254.92,407.973l6.391,7.289c.951-4.436,2.245-8.081,1.716-10.774l-3.671-3.988A6.76,6.76,0,0,1,254.92,407.973Z" transform="translate(4263.486 3021.338)" fill="#dadada"/>
      <path id="Path_47732" data-name="Path 47732" d="M267.5,410.927l-7.922,9.084c-5.281-5.282-10.933-11.118-12.332-16.188l4.621-5.123C251.871,403.269,261.431,411.165,267.5,410.927Z" transform="translate(4250.901 3018.385)" fill="#dadada"/>
      <path id="Path_47733" data-name="Path 47733" d="M255.563,407.272l4.621-.5,2.35,42.385-4.7,7.421-5.044-5.995Z" transform="translate(4259.991 3031.626)" fill="#e45f59"/>
      <path id="Path_47734" data-name="Path 47734" d="M260.456,456.478c-3.935-14-13.626-39.823-13.626-39.823s6.179-3.2,5.73-3.7l-6.76.264,1.215-8.82,6.232-5.282a203.626,203.626,0,0,1,7.209,57.358Z" transform="translate(4248.522 3019.074)" fill="#0c4f73"/>
      <path id="Path_47735" data-name="Path 47735" d="M260.2,452.928c3.908-14,6.417-40.219,6.417-40.219s-5.836-2.139-5.282-2.641l4.912-.581-3.961-6.47L257,401.01C258.849,417.172,259.773,435.05,260.2,452.928Z" transform="translate(4266.899 3022.175)" fill="#0c4f73"/>
      <path id="Path_47736" data-name="Path 47736" d="M249.433,409.145a20.306,20.306,0,0,1-1.426-8.9c.766-17.508,10.774-14.947,17.271-14.868,7.579.422,14.683,5.651,14.947,17.3a18,18,0,0,1-.871,2.06l2.43,6.549a1.9,1.9,0,0,1-1.373,2.509l-1.69.422v6.206c-.132,2.958-1.479,7.579-5.414,7.156-11.382-1.188-15.633-6.549-14.709-16.558C255.982,410.651,250.436,411.76,249.433,409.145Z" transform="translate(4252.073 2996.241)" fill="#ffd2a1"/>
      <path id="Path_47737" data-name="Path 47737" d="M252.663,418.289c8.979,2.641,5.282-10.88,5.282-10.88s2.43,2.641,3.38,3.935c1.928,0,2.113.238,3.856.132.739-11.487-1.954-20.255,14.392-16.611,3.248-.5.37-11.012-14.63-10.378-8.741.37-16.082,4.806-17.323,13.468A24.084,24.084,0,0,0,252.663,418.289Z" transform="translate(4250.664 2995.019)" fill="#3c3c3b"/>
      <path id="Path_47738" data-name="Path 47738" d="M250.46,395.815c0,2.641,2.271,5.942,4.067,5.942s1.954-2.271,2.007-5.017c0-1.822.158-4.3-1.8-4.912S250.486,391.8,250.46,395.815Z" transform="translate(4256.168 3006.772)" fill="#ffd2a1"/>
      <path id="Path_47739" data-name="Path 47739" d="M252.181,435.5l24.058,17.9L297.1,470.284H238.66l.977-56.037,16.109-3.407Z" transform="translate(4236.807 3038.304)" fill="#1d1d1b" opacity="0.2"/>
      <path id="Path_47740" data-name="Path 47740" d="M253.247,430.53h0a2.007,2.007,0,0,1,1.928-2.218,62.45,62.45,0,0,0,13.046-2.641,2.086,2.086,0,0,1,2.641,1.268h0a1.98,1.98,0,0,1-1.294,2.641,66.554,66.554,0,0,1-13.679,2.958,2.4,2.4,0,0,1-2.641-2.007Z" transform="translate(4260.723 3062.451)" fill="#f2c799"/>
      <rect id="Rectangle_2019" data-name="Rectangle 2019" width="11.065" height="10.088" transform="translate(4504.869 3501.232) rotate(-79.67)" fill="#ffd2a1"/>
      <path id="Path_47741" data-name="Path 47741" d="M255.412,428.421h0a1.9,1.9,0,0,1,2.218-1.532l15,2.641a1.875,1.875,0,0,1,1.532,2.192h0a1.9,1.9,0,0,1-2.218,1.505l-15-2.641a1.928,1.928,0,0,1-1.532-2.165Z" transform="translate(4264.262 3064.586)" fill="#f2c799"/>
      <path id="Path_47742" data-name="Path 47742" d="M257.19,430.211h0a1.9,1.9,0,0,1,2.218-1.532l6.919,1.268a1.9,1.9,0,0,1,1.505,2.192h0a1.9,1.9,0,0,1-2.192,1.532l-6.919-1.268a1.875,1.875,0,0,1-1.532-2.192Z" transform="translate(4267.158 3067.523)" fill="#f2c799"/>
      <path id="Path_47743" data-name="Path 47743" d="M1.875,0h0a1.9,1.9,0,0,1,1.9,1.9V7.79A1.875,1.875,0,0,1,1.9,9.665h0A1.9,1.9,0,0,1,0,7.764V1.875A1.875,1.875,0,0,1,1.875,0Z" transform="matrix(0.181, -0.983, 0.983, 0.181, 4521.471, 3502.859)" fill="#f2c799"/>
      <path id="Path_47744" data-name="Path 47744" d="M1.664,0h0a1.69,1.69,0,0,1,1.69,1.69V6.972A1.664,1.664,0,0,1,1.69,8.635h0A1.69,1.69,0,0,1,0,6.945V1.664A1.664,1.664,0,0,1,1.664,0Z" transform="translate(4520.73 3506.076) rotate(-79.66)" fill="#f2c799"/>
      <path id="Path_47745" data-name="Path 47745" d="M252.148,434.736l.66-3.644a5.6,5.6,0,0,1,6.47-4.489l4.463.819-2.641,14.6-4.489-.819a5.546,5.546,0,0,1-4.463-6.47Z" transform="translate(4258.785 3064.028)" fill="#ffd2a1"/>
      <path id="Path_47746" data-name="Path 47746" d="M255.22,441.446l3.327.607a1.717,1.717,0,0,0,1.954-1.347h0a1.69,1.69,0,0,0-1.347-1.954h.607a1.9,1.9,0,0,0,2.192-1.505h0a1.875,1.875,0,0,0-1.532-2.192H261a1.875,1.875,0,0,0,2.192-1.532h0a1.9,1.9,0,0,1,.687-3.723h0a1.875,1.875,0,0,0-1.532-2.192l-4.463-.819Z" transform="translate(4263.978 3064.474)" fill="#ffd2a1"/>
      <path id="Path_47747" data-name="Path 47747" d="M248.9,438.618l4.2-12.808L260.308,428l-4.014,13.019Z" transform="translate(4253.608 3062.866)" fill="#ededed"/>
      <path id="Path_47748" data-name="Path 47748" d="M254.686,448.465s12.623,7.421,26.408,14.894l-4.516,14.63c-18.169-4.436-43.388-15.422-41.962-23.5,2.033-11.646,4.991-27.913,7.632-39.849a17.667,17.667,0,0,1,5.678-9.269c3.459-2.826,7.553-1.743,10.563,1.584a16.98,16.98,0,0,1,4.595,12.465C262.688,424.038,254.686,448.465,254.686,448.465Z" transform="translate(4230.077 3026.664)" fill="#0a415f"/>
      <path id="Path_47749" data-name="Path 47749" d="M250.833,431.682a1.109,1.109,0,0,1-1.848-1.189,1.135,1.135,0,0,1,1.532-.317,1.109,1.109,0,0,1,.317,1.505Z" transform="translate(4253.577 3069.75)" fill="#fff"/>
      <path id="Path_47750" data-name="Path 47750" d="M249.49,431.286a1.109,1.109,0,0,1-1.505.317,1.056,1.056,0,0,1-.317-1.505,1.082,1.082,0,0,1,1.505-.317,1.109,1.109,0,0,1,.317,1.505Z" transform="translate(4251.276 3069.089)" fill="#fff"/>
      <path id="Path_47751" data-name="Path 47751" d="M381.187,349.912l-.687-2.9,46.847-10.7,10.458,6.206L452.99,319.49l2.482,1.637-16.716,25.4-11.91-7.025Z" transform="translate(4469.536 2888.418)" fill="#d42441"/>
      <path id="Path_47752" data-name="Path 47752" d="M406.83,325.349l10.035-8.9-4.225,12.728Z" transform="translate(4512.738 2883.43)" fill="#d42441"/>
      <path id="Path_47753" data-name="Path 47753" d="M381.187,349.912l-.687-2.9,46.847-10.7,10.458,6.206L452.99,319.49l2.482,1.637-16.716,25.4-11.91-7.025Z" transform="translate(4469.536 2888.418)" fill="#d42441"/>
      <path id="Path_47754" data-name="Path 47754" d="M406.83,325.349l10.035-8.9-4.225,12.728Z" transform="translate(4512.738 2883.43)" fill="#d42441"/>
      <path id="Path_47755" data-name="Path 47755" d="M418.657,340.392l-.132,4.41c-2.8,0-5.6-.132-8.424-.132l.132-4.278-.713-.343a4.939,4.939,0,0,1-2.4-3.143c0-.343-.66-4.806-.687-5.017h2.139l.132-4.859c4.595,0,7.764.185,11.936.475l.317,5.519C421.139,337.3,420.373,338.993,418.657,340.392Z" transform="translate(4512.082 2900.79)" fill="#f2c799"/>
      <path id="Path_47756" data-name="Path 47756" d="M410.573,339.7a1.9,1.9,0,0,1-1.8,1.8h-.317a1.611,1.611,0,0,1-1.188-.528,1.69,1.69,0,0,1-.5-1.188l1.056-15.845a1.585,1.585,0,0,1,1.611-1.558h.238a1.479,1.479,0,0,1,1.452,1.505Z" transform="translate(4512.639 2893.16)" fill="#f2c799"/>
      <path id="Path_47757" data-name="Path 47757" d="M411.571,331.626a1.875,1.875,0,0,1-.449,1.241,1.584,1.584,0,0,1-1.109.5h-.29a1.637,1.637,0,0,1-1.532-1.69V327.4a1.769,1.769,0,0,1,.423-1.136,1.5,1.5,0,0,1,1.056-.475h.66a1.4,1.4,0,0,1,1.32,1.452Z" transform="translate(4514.968 2898.755)" fill="#ffd2a1"/>
      <path id="Path_47758" data-name="Path 47758" d="M412.827,331.324a1.637,1.637,0,0,1-1.558,1.69h-.317a1.479,1.479,0,0,1-1.083-.5,1.823,1.823,0,0,1-.449-1.215v-3.433a1.532,1.532,0,0,1,1.452-1.584h.607a1.294,1.294,0,0,1,.951.449,1.61,1.61,0,0,1,.37,1.056Z" transform="translate(4516.987 2899.559)" fill="#ffd2a1"/>
      <path id="Path_47759" data-name="Path 47759" d="M413.621,330.592a1.294,1.294,0,0,1-1.347,1.294h-.238a1.32,1.32,0,0,1-1.347-1.32v-2.641a1.241,1.241,0,0,1,1.268-1.215h.5a1.162,1.162,0,0,1,1.162,1.136Z" transform="translate(4519.071 2900.265)" fill="#ffd2a1"/>
      <path id="Path_47760" data-name="Path 47760" d="M412.038,330.854l-1.188,1.294a.977.977,0,0,0-.264.792v.607a5.466,5.466,0,0,1,4.12,6.338l3.961.343.5,4.41c-3.063,0-6.1-.132-9.164-.132l.158-2.509v-1.769l-.713-.343a4.938,4.938,0,0,1-2.4-3.143c0-.343-.66-4.806-.687-5.017h0a1.242,1.242,0,0,1,.317-.819l1.928-2.06,1.268-1.4a1.083,1.083,0,0,1,1.532,0l.264.238a2.165,2.165,0,0,1,.766,1.585,2.377,2.377,0,0,1-.4,1.584Z" transform="translate(4511.967 2900.953)" fill="#ffd2a1"/>
      <path id="Path_47761" data-name="Path 47761" d="M439.6,352.176c-.739,2.06-23.9,10.8-29.313,12.834l-1.136.449h-.739c-1.03,0-2.641-.343-3.856-.449a20.662,20.662,0,0,1-2.641-.37,19.831,19.831,0,0,1-9.005-4.542,12.7,12.7,0,0,1,.29-3.7,13.406,13.406,0,0,1,.739-2.271h0a11.169,11.169,0,0,1,2.509-3.723c.713-.713,1.215-2.641,1.69-3.116,1.135-.951,28.283-5.968,28.283-6.021h0l9.3,7.922,1.294,1.109Z" transform="translate(4489.847 2924.155)" fill="#0a415f"/>
      <path id="Path_47762" data-name="Path 47762" d="M418.649,339.5l-11.329-1,.4-6.364,11.514.819Z" transform="translate(4513.542 2909.158)" fill="#ededed"/>
      <path id="Path_47763" data-name="Path 47763" d="M422.265,334.072c0,.951-.185,1.981-.29,3.063-.687,7.236-1.585,17.086-2.43,23.186a13.628,13.628,0,0,1-.9,4.489l-2.509-1.611-.924-.607L409.933,358l-4.278-3.618a4.261,4.261,0,0,1,0-.5c.132-.766.317-1.716.528-2.641a179.583,179.583,0,0,0,3.486-17.667C414.845,333.755,418.753,333.649,422.265,334.072Z" transform="translate(4510.797 2911.521)" fill="#0a415f"/>
      <path id="Path_47764" data-name="Path 47764" d="M411.772,334.311a.924.924,0,1,1-1.188.554A.95.95,0,0,1,411.772,334.311Z" transform="translate(4518.807 2912.655)" fill="#fff"/>
      <path id="Path_47765" data-name="Path 47765" d="M411.848,335.569a.872.872,0,0,1,.528,1.162.9.9,0,0,1-1.162.555.924.924,0,1,1,.634-1.716Z" transform="translate(4518.732 2914.618)" fill="#fff"/>
      <path id="Path_47766" data-name="Path 47766" d="M381,416.318h42.622c-.713-8.5-1.69-69.083-1.69-69.083l-6.021-.951-18.116-2.9S381,408.713,381,416.318Z" transform="translate(4470.356 2927.617)" fill="#fff"/>
      <path id="Path_47767" data-name="Path 47767" d="M388.81,351.785l1.479-15.105c6.443.766,15.079,1.637,16.611,1.505,0,0-1,10.986-1,15.845C406.9,366.283,392.613,365.834,388.81,351.785Z" transform="translate(4483.17 2916.623)" fill="#f2c799"/>
      <path id="Path_47768" data-name="Path 47768" d="M399.265,343.42l-15.316,7.262c-.423,4.859-.687,9.8-1.135,15.079-1.9,23.265-2.878,42.886-2.641,50.6H409.22c-.317-30.263-1.32-59.022-9.005-72.806Z" transform="translate(4468.94 2927.682)" fill="#0a415f"/>
      <path id="Path_47769" data-name="Path 47769" d="M409.266,413.923l-11.3.132-1.373-51.971V358.81l-.37-13.97.871.132,6.312,3.855.924.581c0,.845.158,3.644.423,7.579a12.521,12.521,0,0,0,.132,2.192,12.153,12.153,0,0,1,0,2.192,12.964,12.964,0,0,0,.132,2.245c.423,6.391.924,14.181,1.426,21.707h0c0,1.32.185,2.641.264,3.935s.158,2.218.264,3.3C407.787,402.2,409,410.939,409.266,413.923Z" transform="translate(4495.329 2930.012)" fill="#0a415f"/>
      <path id="Path_47770" data-name="Path 47770" d="M393.783,353.82l3.882-.4,1.294-7.764-6.549.264Z" transform="translate(4489.078 2931.357)" fill="#d42441"/>
      <path id="Path_47771" data-name="Path 47771" d="M393.84,349.612l5.282,6.179a28.417,28.417,0,0,0,1.479-9.111l-3.116-3.38a5.757,5.757,0,0,1-3.644,6.312Z" transform="translate(4491.424 2927.485)" fill="#dadada"/>
      <path id="Path_47772" data-name="Path 47772" d="M404.439,352.105l-6.628,7.685c-4.542-4.463-9.243-9.4-10.431-13.679l3.935-4.331C391.288,345.662,399.316,352.317,404.439,352.105Z" transform="translate(4480.825 2924.991)" fill="#dadada"/>
      <path id="Path_47773" data-name="Path 47773" d="M394.39,349l3.882-.4,2.007,35.783-3.988,6.259L392.04,385.6Z" transform="translate(4488.471 2936.181)" fill="#e45f59"/>
      <path id="Path_47774" data-name="Path 47774" d="M398.515,390.523c-3.3-11.831-11.487-33.617-11.487-33.617s5.282-2.641,4.833-3.116l-5.731.185,1.056-7.447,5.282-4.357a171.648,171.648,0,0,1,6.048,48.353Z" transform="translate(4478.773 2925.631)" fill="#0c4f73"/>
      <path id="Path_47775" data-name="Path 47775" d="M398.95,389.4c3.3-11.831,4.859-35.783,4.859-35.783s-4.912-1.822-4.569-2.245l4.172-.5-4.516-7.262-3.7-.977C396.6,356.362,398.58,374.267,398.95,389.4Z" transform="translate(4493.656 2926.386)" fill="#0c4f73"/>
      <path id="Path_47776" data-name="Path 47776" d="M389.611,353.784a17.772,17.772,0,0,1-3.063-7c-3.116-14.445,5.6-14.5,10.906-15.845,6.285-1.268,13.2,1.452,15.845,10.906a15.274,15.274,0,0,1-.264,1.875l3.38,4.833a1.558,1.558,0,0,1-.581,2.324l-1.268.739c.211.951,1.347,5.044,1.347,5.044.528,2.456.423,6.5-2.878,7.024-9.533,1.479-14.181-2.007-15.581-10.378C395.209,353.626,391.01,355.686,389.611,353.784Z" transform="translate(4478.382 2906.729)" fill="#ffd2a1"/>
      <path id="Path_47777" data-name="Path 47777" d="M393.845,361.116c7.922.132,1.981-10.035,1.981-10.035s2.641,1.69,3.591,2.482c1.585-.423,1.8-.264,3.2-.739-1.875-9.533-5.968-16.109,8.186-16.637,2.641-1.135-2.06-9.084-14.181-5.282-7.077,2.192-12.095,7.368-11.25,14.736a20.308,20.308,0,0,0,8.477,15.475Z" transform="translate(4477.37 2905.47)" fill="#3c3c3b"/>
      <path id="Path_47778" data-name="Path 47778" d="M388.8,340.714c.581,2.245,3.143,4.357,4.595,3.988s1.109-2.3.581-4.542c-.37-1.479-.792-3.565-2.641-3.618S387.983,337.413,388.8,340.714Z" transform="translate(4482.783 2916.392)" fill="#ffd2a1"/>
      <path id="Path_47779" data-name="Path 47779" d="M390.039,377.127l9.269,21.575,30.158,3.512H380.11l.819-47.323,13.6-2.852Z" transform="translate(4468.896 2941.825)" fill="#1d1d1b" opacity="0.2"/>
      <path id="Path_47780" data-name="Path 47780" d="M376.64,388.958c1.716-9.824,4.225-23.582,6.444-33.644a14.736,14.736,0,0,1,4.806-7.922c2.931-2.4,6.364-1.505,8.952,1.32a14.313,14.313,0,0,1,3.856,10.563c-.264,3.644-7.236,26.408-8.054,28.837l9.428,23.952H384.8C384.695,411.642,376.561,389.433,376.64,388.958Z" transform="translate(4463.202 2931.923)" fill="#0a415f"/>
      <path id="Path_47781" data-name="Path 47781" d="M376.64,388.958c1.716-9.824,4.225-23.582,6.444-33.644a14.736,14.736,0,0,1,4.806-7.922c2.931-2.4,6.364-1.505,8.952,1.32a14.313,14.313,0,0,1,3.856,10.563c-.264,3.644-7.236,26.408-8.054,28.837l9.428,23.952H384.8C384.695,411.642,376.561,389.433,376.64,388.958Z" transform="translate(4463.202 2931.923)" fill="#0a415f"/>
      <path id="Path_47782" data-name="Path 47782" d="M411.27,334.014c0-3.38-2.641-5.282-4.965-7l-.475-.343V318.75a2.641,2.641,0,0,1,2.007,2.8v.423h3.407v-.211a5.123,5.123,0,0,0-5.282-5.414V313.97H403.8v2.377a5.071,5.071,0,0,0-5.281,5.282c0,3.38,2.641,5.281,4.938,7l.37.264v8.081a2.641,2.641,0,0,1-2.06-2.641v-1.162H398.33v.924c0,3.961,2.641,5.282,5.44,5.414v1.849h2.165v-1.822C408.471,339.163,411.243,337.975,411.27,334.014Zm-9.243-12.623a2.641,2.641,0,0,1,1.69-2.641v6.179a4.78,4.78,0,0,1-1.69-3.539Zm3.75,15.5v-6.285a4.806,4.806,0,0,1,1.769,3.618,2.641,2.641,0,0,1-1.769,2.667Z" transform="translate(4498.792 2879.361)" fill="#fff"/>
      <path id="Path_47783" data-name="Path 47783" d="M433.488,334.92c-.687,7.236-1.584,17.086-2.43,23.186a13.627,13.627,0,0,1-.9,4.489c-.739,2.06-23.9,10.8-29.313,12.834v2.192a12.969,12.969,0,0,0,.132,2.245c.423,6.391.924,14.181,1.426,21.707h0c0,1.32.185,2.641.264,3.935s.158,2.218.264,3.3v.4l-4.093-33.38-.211-1.8,1.954-.845,26.936-11.646.132-.528v-.4Z" transform="translate(4499.283 2913.735)" fill="#1d1d1b" opacity="0.2"/>
      <path id="Path_47784" data-name="Path 47784" d="M258.78,339.92c3.327,3.988,18.961,19.515,27.491,18.01l3.591-2.113c5.942-6.47,1.426-11.619-5.757-14.973-2.641-1.162-17.35-6.734-20.783-8.186l-1.188-.528C261.262,333.82,259.651,338.23,258.78,339.92Z" transform="translate(4269.819 2909.158)" fill="#ededed"/>
      <path id="Path_47785" data-name="Path 47785" d="M256.53,349.075l12.491,23.978c15.132-11.7,27.306-23.239,27.279-34.013H279.4a31.241,31.241,0,0,1-22.869,10.035Z" transform="translate(4266.128 2920.496)" fill="#ededed"/>
      <path id="Path_47786" data-name="Path 47786" d="M249.9,387.748l-14.181-3.776a229.9,229.9,0,0,1,10.141-38.582l14.181,3.724Z" transform="translate(4231.983 2930.915)" fill="#ededed"/>
      <path id="Path_47787" data-name="Path 47787" d="M229.25,361.049a81.232,81.232,0,0,0,6.047,7.1h0a60.421,60.421,0,0,0,24.8,16.241l4.437-7.473,2.456-4.146c-1.294-1.056-2.641-2.112-3.935-3.143s-2.113-1.584-3.222-2.35a144.345,144.345,0,0,0-27.174-14.841Z" transform="translate(4221.367 2942.482)" fill="#ededed"/>
      <path id="Path_47788" data-name="Path 47788" d="M243.33,378.589a223.721,223.721,0,0,1-.185,23.344,73.733,73.733,0,0,0,.264,9.613h52a81.409,81.409,0,0,0,.238-10.4,216.255,216.255,0,0,1-.185-21.813,32.879,32.879,0,0,1,.687-4.912c.871-3.935,1.373-8.715,2.192-15.845h0c.29-2.4.607-5.123,1-8.16a115.2,115.2,0,0,1-16.611-7.922,78.093,78.093,0,0,1-13.2,1.69c-1.426-.159-4.067-.317-6.708-.555a31.3,31.3,0,0,1-6.628-1.136,113.763,113.763,0,0,1-16.61,7.922c1.558,12.174,2.033,18.935,3.222,24.19A23.219,23.219,0,0,1,243.33,378.589Z" transform="translate(4238.316 2926.156)" fill="#ededed"/>
      <path id="Path_47789" data-name="Path 47789" d="M254.724,352.234l1.32-6.285-3.169-.079-3.2.079,1.32,6.285Z" transform="translate(4254.888 2931.702)" fill="#3c3c3b"/>
      <path id="Path_47790" data-name="Path 47790" d="M229.892,357.423l-1.136-.792-1.532-1.4-1.452-4.093a1.479,1.479,0,0,0-1.32-.977l-.475-1.347a1.479,1.479,0,0,0-1.875-.871h0a3.113,3.113,0,0,0-.5.29,1.558,1.558,0,0,0-1.479,0h0a1.584,1.584,0,0,0-.66,2.165l2.931,5.519h0v.264h0l.132.132h0l5.15,3.565a1.584,1.584,0,0,0,2.218-.423h0a1.532,1.532,0,0,0,0-2.033Z" transform="translate(4204.987 2934.964)" fill="#f5c08c"/>
      <path id="Path_47791" data-name="Path 47791" d="M236.12,354.687l-4.753-1.505a2.639,2.639,0,0,1-.871-.343l-4.885-2.931a1.611,1.611,0,0,0-2.192.555h0a1.585,1.585,0,0,0,.528,2.192l3.142,1.9S236.569,354.793,236.12,354.687Z" transform="translate(4211.407 2937.964)" fill="#f5c08c"/>
      <path id="Path_47792" data-name="Path 47792" d="M243.742,356.585c-3.935-1.452-13.2-.475-13.2-.475l-5.282-2.377-3.671-4.542a1.584,1.584,0,0,0-2.245-.238h0a1.585,1.585,0,0,0-.238,2.245s4.516,5.281,4.542,5.281,3.908,2.641,5.282,3.407l.977.423a35.889,35.889,0,0,0,9.665,2.641l5.044,1.32,2.641-5.651Z" transform="translate(4204.129 2936.171)" fill="#ffcf9f"/>
      <rect id="Rectangle_2020" data-name="Rectangle 2020" width="9.111" height="4.833" transform="translate(4446.099 3301.727) rotate(-68.58)" fill="#dadada"/>
      <path id="Path_47793" data-name="Path 47793" d="M228.744,355.979a.819.819,0,1,0-.449-1.056.819.819,0,0,0,.449,1.056Z" transform="translate(4219.708 2945.704)" fill="#fff"/>
      <path id="Path_47794" data-name="Path 47794" d="M255.84,348.28l3.116,32.614-4.965,4.41L249,380.894l3.116-32.614Z" transform="translate(4253.772 2935.656)" fill="#a1947f"/>
      <path id="Path_47795" data-name="Path 47795" d="M247.44,340.359v2.43h0v4.093l.264,9.137h11.831l5.625.132.158-9.48v-1.32h0v-2.958h0V339.62Z" transform="translate(4251.213 2921.447)" fill="#f2c799"/>
      <path id="Path_47796" data-name="Path 47796" d="M259.69,358.534a28.071,28.071,0,0,0,5.466-14.049l-5.282-2.9a17.773,17.773,0,0,1-9.005,11.487Z" transform="translate(4256.841 2924.663)" fill="#dadada"/>
      <path id="Path_47797" data-name="Path 47797" d="M250.957,358.534a28.573,28.573,0,0,1-5.467-14.049l5.282-2.9a17.746,17.746,0,0,0,9.031,11.487Z" transform="translate(4248.014 2924.663)" fill="#dadada"/>
      <path id="Path_47798" data-name="Path 47798" d="M279.192,401.5h0c0-1.162.211-8.424.264-10.061h0v-.264a216.29,216.29,0,0,1-.185-21.813,32.878,32.878,0,0,1,.687-4.912c.871-3.935,1.373-8.715,2.192-15.845a207.257,207.257,0,0,1-7.922,27.2,26.127,26.127,0,0,1-1.769,3.407,19.331,19.331,0,0,1-12.729,9.375l14.551-2.007a77.351,77.351,0,0,1-24.85,15.105h29.762Z" transform="translate(4254.478 2936.198)" fill="#1d1d1b" opacity="0.05"/>
      <path id="Path_47799" data-name="Path 47799" d="M231.54,373.1a60.422,60.422,0,0,0,24.8,16.241v.713c0,1.4.317,8.662.528,10.035h13.97c-5.282-1.769-8.318-12.412-10.061-18.221a45.671,45.671,0,0,1-1.479-7.289,121.476,121.476,0,0,1,.343-25.14,163.01,163.01,0,0,0-3.565,22.79q-.159,2.456-.238,5.07C252.508,384.8,241.549,379.281,231.54,373.1Z" transform="translate(4225.124 2937.56)" fill="#1d1d1b" opacity="0.05"/>
      <path id="Path_47800" data-name="Path 47800" d="M254.073,328.2a4.913,4.913,0,0,0,1.479,2.165,12.119,12.119,0,0,0,2.35,1.479,10.008,10.008,0,0,0,3.829,1.215,4.988,4.988,0,0,0,1.532,0l-.317-.528a10.559,10.559,0,0,0-2.192-2.852,13.459,13.459,0,0,1-1.32-.792,29.045,29.045,0,0,1-2.826-1.875,4.27,4.27,0,0,0-.977-.607,1.268,1.268,0,0,0-1.109,0,1.558,1.558,0,0,0-.449,1.8Z" transform="translate(4261.903 2899.545)" fill="#f2c799"/>
      <path id="Path_47801" data-name="Path 47801" d="M259.237,325.77a9.849,9.849,0,0,1-.475,2.773,3.381,3.381,0,0,1-1.769,2.034,9.164,9.164,0,0,1-5.572-1.136A9.718,9.718,0,0,0,259.237,325.77Z" transform="translate(4257.744 2898.722)" fill="#3c3c3b"/>
      <path id="Path_47802" data-name="Path 47802" d="M260.711,328.018a12.993,12.993,0,0,1,13.679,14.788,27.778,27.778,0,0,1-.423,3.275c1.8-1,3.327.766,2.641,3.459-.449,1.9-1.4,4.436-2.456,4.806a1.652,1.652,0,0,1-1.716-.343,21.126,21.126,0,0,1-1.822,6.628c-1.162,1.716-2.06,2.984-2.878,3.961a7.632,7.632,0,0,1-7.051,2.641h0a7.632,7.632,0,0,1-7.051-2.641,43.643,43.643,0,0,1-2.9-3.961,21.84,21.84,0,0,1-1.8-6.629s-.449.819-1.716.343-2.007-2.9-2.456-4.806c-.634-2.641.9-4.463,2.641-3.459a19.865,19.865,0,0,1-.423-3.275,12.993,12.993,0,0,1,13.732-14.788Z" transform="translate(4246.578 2902.363)" fill="#ffd2a1"/>
      <path id="Path_47803" data-name="Path 47803" d="M271.424,331.834c3.063,3.591,4.014,7.579,2.641,14.947-1.188.66-1.849,1.558-2.324,5.282-.871.238-1.241.29-2.033.555,4.885-19.489-2.641-19.885-4.753-20.308a55.61,55.61,0,0,0-10.273,0c-2.06.423-9.612.819-4.727,20.308-.792-.264-1.162-.317-2.033-.555-.5-3.671-1.136-4.569-2.35-5.282-1.241-7.368,0-11.038,2.641-14.947C252.12,326.394,265.984,325.39,271.424,331.834Z" transform="translate(4247.352 2901.347)" fill="#3c3c3b"/>
      <path id="Path_47804" data-name="Path 47804" d="M252.368,327.069a3.671,3.671,0,0,0,.713,1.532c-1.32-.343-3.988-2.3-4.991-2.35,2.482,6.866,9.19,14.181,15.369,15.4l-1.954-2.324,9.718,2.878c-1.109-2.245-2.218-4.463-3.3-6.681l3.486,1.268a15.132,15.132,0,0,0-14.524-8.134c.29-.264.845-.95,1.241-1.32a5.652,5.652,0,0,0-3.248.951A8.186,8.186,0,0,0,252.368,327.069Z" transform="translate(4252.28 2899.51)" fill="#3c3c3b"/>
      <path id="Path_47805" data-name="Path 47805" d="M258.505,334.8a13.705,13.705,0,0,1-6.338,2.879l1.347-1.849-8.424,1.4a14.259,14.259,0,0,1,3.037-6.47h-1.9a9.877,9.877,0,0,1,12.464-1.928,3.486,3.486,0,0,1-.185,5.889Z" transform="translate(4247.357 2901.445)" fill="#3c3c3b"/>
      <path id="Path_47806" data-name="Path 47806" d="M251.006,329.918c.211.634,1.03.766,1.69.819a24,24,0,0,1,5.81,1.083,5.281,5.281,0,0,1,2.958,1.822,5.072,5.072,0,0,1,.634,1.505,34.057,34.057,0,0,0,1.373,4.674,6.893,6.893,0,0,0,3.063,3.671,3.882,3.882,0,0,0,4.489-.5,4.278,4.278,0,0,0,.9-3.8,12.861,12.861,0,0,0-1.69-3.671l-2.192-3.7-.317-.528a10.567,10.567,0,0,0-2.192-2.852,2.885,2.885,0,0,0-.449-.343l-.871-.449a10.01,10.01,0,0,0-3.433-.475H258.85a7.922,7.922,0,0,0-6.259,1.215c-.343.238-.845.238-1.162.5a1.109,1.109,0,0,0-.423,1.03Z" transform="translate(4257.047 2900.701)" fill="#ffd2a1"/>
      <path id="Path_47807" data-name="Path 47807" d="M257.26,337.78l4.014,3.486,4.674-7.183-3.961-2.773Z" transform="translate(4267.326 2907.812)" fill="#dadada"/>
      <path id="Path_47808" data-name="Path 47808" d="M257.4,330.993a5.282,5.282,0,0,1-6.259-.819l9.269-2.245a10.406,10.406,0,0,1-3.011,3.063Z" transform="translate(4257.284 2902.266)" fill="#3c3c3b"/>
      <path id="Path_47809" data-name="Path 47809" d="M252.951,329.326a18.137,18.137,0,0,0-5.282-1.136c.871.317,1.267,1.373,2.086,1.822a2.35,2.35,0,0,0,1.69,0A4.988,4.988,0,0,0,252.951,329.326Z" transform="translate(4251.59 2902.693)" fill="#3c3c3b"/>
      <path id="Path_47810" data-name="Path 47810" d="M228.491,369.325a9.557,9.557,0,0,1-.423-3.116c0-11.091,8.688-12.095,8.688-24.691,0-3.618-1.452-4.991-3.988-4.991s-4.093,1.373-4.093,5.07v5.519H221.15v-4.991c0-8.107,3.988-12.755,11.725-12.755s11.725,4.648,11.725,12.755c0,13.2-9.4,15.184-9.4,24.454a12.992,12.992,0,0,0,.29,2.826Zm7.315,3.539v7.658h-7.658v-7.658Z" transform="translate(4208.077 2904.629)" fill="#d42441"/>
      <path id="Path_47811" data-name="Path 47811" d="M228.491,369.325a9.557,9.557,0,0,1-.423-3.116c0-11.091,8.688-12.095,8.688-24.691,0-3.618-1.452-4.991-3.988-4.991s-4.093,1.373-4.093,5.07v5.519H221.15v-4.991c0-8.107,3.988-12.755,11.725-12.755s11.725,4.648,11.725,12.755c0,13.2-9.4,15.184-9.4,24.454a12.992,12.992,0,0,0,.29,2.826Zm7.315,3.539v7.658h-7.658v-7.658Z" transform="translate(4208.077 2904.629)" fill="#65b87f"/>
      <rect id="Rectangle_2058" data-name="Rectangle 2058" width="14.947" height="33.696" transform="translate(4738.489 3315.229)" fill="#0a415f"/>
      <rect id="Rectangle_2059" data-name="Rectangle 2059" width="14.947" height="38.133" transform="translate(4757.159 3310.766)" fill="#0a415f"/>
      <rect id="Rectangle_2060" data-name="Rectangle 2060" width="14.947" height="65.412" transform="translate(4775.831 3283.487)" fill="#0a415f"/>
      <rect id="Rectangle_2061" data-name="Rectangle 2061" width="14.947" height="73.784" transform="translate(4794.5 3275.142)" fill="#fff"/>
      <rect id="Rectangle_2062" data-name="Rectangle 2062" width="6.972" height="4.753" transform="translate(4577.188 3342.456)" fill="#d42441"/>
      <rect id="Rectangle_2063" data-name="Rectangle 2063" width="18.565" height="2.086" transform="translate(4587.227 3343.803)" fill="#fff"/>
      <rect id="Rectangle_2064" data-name="Rectangle 2064" width="18.565" height="2.086" transform="translate(4587.227 3352.306)" fill="#fff"/>
      <rect id="Rectangle_2065" data-name="Rectangle 2065" width="6.972" height="4.753" transform="translate(4577.188 3350.959)" fill="#0a415f"/>
      <rect id="Rectangle_2066" data-name="Rectangle 2066" width="6.972" height="4.753" transform="translate(4609.673 3342.456)" fill="#65b87f"/>
      <rect id="Rectangle_2067" data-name="Rectangle 2067" width="19.779" height="2.086" transform="translate(4619.707 3343.803)" fill="#fff"/>
      <rect id="Rectangle_2068" data-name="Rectangle 2068" width="19.779" height="2.086" transform="translate(4619.707 3352.306)" fill="#fff"/>
      <rect id="Rectangle_2069" data-name="Rectangle 2069" width="6.972" height="4.753" transform="translate(4609.673 3350.959)" fill="#fff"/>
      <path id="Path_48727" data-name="Path 48727" d="M327.92,333.8a3.723,3.723,0,0,0-2.4-.819,4.066,4.066,0,0,0-2.4.739,2.3,2.3,0,0,0-1,1.849v5.995a2.086,2.086,0,0,0,.977,1.822,4.252,4.252,0,0,0,4.753,0,2.245,2.245,0,0,0,1.03-1.849v-5.968a2.271,2.271,0,0,0-.951-1.769Zm-1.32,7.764a.819.819,0,0,1-.343.66,1.347,1.347,0,0,1-.9.264,1.374,1.374,0,0,1-.871-.264.845.845,0,0,1-.343-.687v-5.995a.819.819,0,0,1,.37-.66,1.508,1.508,0,0,1,1.743.026.872.872,0,0,1,.37.687Z" transform="translate(4373.73 2910.552)" fill="#fff"/>
      <path id="Path_48728" data-name="Path 48728" d="M323.39,329.68a3.8,3.8,0,0,0-2.377-.819,3.7,3.7,0,0,0-2.4.766,2.271,2.271,0,0,0-1.03,1.849v5.968a2.3,2.3,0,0,0,.977,1.849,3.829,3.829,0,0,0,2.377.766,3.645,3.645,0,0,0,2.43-.739,2.245,2.245,0,0,0,1-1.822v-5.968a2.165,2.165,0,0,0-.977-1.849Zm-1.294,7.764a.792.792,0,0,1-.37.66,1.241,1.241,0,0,1-.871.291,1.532,1.532,0,0,1-.9-.291.924.924,0,0,1-.343-.687V331.45a.951.951,0,0,1,.343-.687,1.716,1.716,0,0,1,.9-.264,1.374,1.374,0,0,1,.871.29.845.845,0,0,1,.343.687Z" transform="translate(4366.297 2903.791)" fill="#fff"/>
      <path id="Path_48729" data-name="Path 48729" d="M332.075,328.93l-14.075,22,2.4.026,14.049-22Z" transform="translate(4366.987 2903.907)" fill="#fff"/>
      <path id="Path_48730" data-name="Path 48730" d="M306.6,369.772l-2.456-5.836,30.818-12.993,29.841,2.8L387.4,332.59l4.331,4.648-24.718,23.08-31.056-2.931Z" transform="translate(4344.246 2909.912)" fill="#d42441"/>
      <path id="Path_48731" data-name="Path 48731" d="M344.584,345.635l4.6-15.105L333.81,334.1Z" transform="translate(4392.928 2906.532)" fill="#d42441"/>
      <path id="Path_48732" data-name="Path 48732" d="M306.6,369.772l-2.456-5.836,30.818-12.993,29.841,2.8L387.4,332.59l4.331,4.648-24.718,23.08-31.056-2.931Z" transform="translate(4344.246 2909.912)" fill="#d42441"/>
      <path id="Path_48733" data-name="Path 48733" d="M344.584,345.635l4.6-15.105L333.81,334.1Z" transform="translate(4392.928 2906.532)" fill="#d42441"/>
      <path id="Path_48734" data-name="Path 48734" d="M319.174,449.24l-23.054-6.047A376.2,376.2,0,0,1,312.6,380.5l23.054,6.074Z" transform="translate(4331.086 2988.522)" fill="#fff"/>
      <path id="Path_48735" data-name="Path 48735" d="M346.908,449.24l23.054-6.047A376.215,376.215,0,0,0,353.484,380.5l-23.054,6.074Z" transform="translate(4387.382 2988.522)" fill="#fff"/>
      <path id="Path_48736" data-name="Path 48736" d="M346.913,425l-11.2,18.855a98.659,98.659,0,0,1-40.325-26.408,138.159,138.159,0,0,1-9.771-11.567l5.546-13.917a237.67,237.67,0,0,1,44.709,24.506C339.677,419.16,343.348,421.986,346.913,425Z" transform="translate(4313.858 3007.326)" fill="#fff"/>
      <path id="Path_48737" data-name="Path 48737" d="M393.983,405.785a130.953,130.953,0,0,1-9.824,11.593h0a98,98,0,0,1-40.246,26.408l-7.236-12.174L332.69,424.9c2.086-1.769,4.2-3.459,6.391-5.123,1.717-1.32,3.459-2.641,5.282-3.829A235.031,235.031,0,0,1,388.437,392Z" transform="translate(4391.09 3007.391)" fill="#fff"/>
      <path id="Path_48738" data-name="Path 48738" d="M308.764,488.049c-1.8-16.452,2.4-44.444-1.162-60.289-1.928-8.583-2.641-19.542-5.282-39.348,10.563-4.41,24.639-10.563,26.962-12.7,4.489,1.769,16.98,2.245,21.628,2.641h0c4.648-.5,17.139-.977,21.628-2.641,2.3,2.192,16.32,8.292,26.962,12.7-2.641,19.806-3.275,30.765-5.282,39.348-3.565,15.845.607,43.837-1.188,60.289Z" transform="translate(4341.259 2980.663)" fill="#fff"/>
      <path id="Path_48739" data-name="Path 48739" d="M320.939,391.6,318.8,381.4l5.176-.132,5.176.132L327.013,391.6Z" transform="translate(4368.299 2989.786)" fill="#0a415f"/>
      <path id="Path_48740" data-name="Path 48740" d="M286.653,400.011l-1.849-1.268-2.456-2.271-2.4-6.655a2.35,2.35,0,0,0-2.113-1.585l-.766-2.165A2.377,2.377,0,0,0,274,384.642h0a3.013,3.013,0,0,0-.792.475,2.641,2.641,0,0,0-2.43,0h0a2.641,2.641,0,0,0-1.083,3.512l4.806,8.979h0l.158.211.158.211.185.158.211.185h0l8.371,5.783a2.641,2.641,0,0,0,3.618-.66h0A2.641,2.641,0,0,0,286.653,400.011Z" transform="translate(4287.263 2995.075)" fill="#f5c08c"/>
      <path id="Path_48741" data-name="Path 48741" d="M296.742,395.572l-7.711-2.43a4.3,4.3,0,0,1-1.4-.554l-7.922-4.754a2.641,2.641,0,0,0-3.565.871h0a2.641,2.641,0,0,0,.871,3.565l5.123,3.09S297.482,395.73,296.742,395.572Z" transform="translate(4297.718 2999.964)" fill="#f5c08c"/>
      <path id="Path_48742" data-name="Path 48742" d="M309.138,398.655c-6.391-2.377-21.338-.766-21.338-.766l-8.662-3.856-5.995-7.394a2.641,2.641,0,0,0-3.644-.37h0a2.641,2.641,0,0,0-.37,3.644s7.341,8.635,7.368,8.635,6.391,4.331,8.477,5.519c.4.211,1,.423,1.584.687a58.947,58.947,0,0,0,15.686,4.41l8.186,2.165,4.2-9.19Z" transform="translate(4285.877 2997.065)" fill="#ffcf9f"/>
      <rect id="Rectangle_2070" data-name="Rectangle 2070" width="14.788" height="7.843" transform="translate(4592.159 3410.306) rotate(-68.58)" fill="#dadada"/>
      <path id="Path_48743" data-name="Path 48743" d="M284.815,397.725a1.3,1.3,0,1,0-.739-1.69A1.3,1.3,0,0,0,284.815,397.725Z" transform="translate(4311.177 3012.652)" fill="#fff"/>
      <path id="Path_48744" data-name="Path 48744" d="M366.211,400.011l1.875-1.268,2.456-2.271,2.377-6.655a2.377,2.377,0,0,1,2.139-1.585l.766-2.165a2.377,2.377,0,0,1,3.063-1.426h0a2.351,2.351,0,0,1,.792.475,2.641,2.641,0,0,1,2.43,0h0a2.641,2.641,0,0,1,1.083,3.512l-4.806,8.979h0a.554.554,0,0,1-.158.211.919.919,0,0,1-.132.211l-.185.158-.211.185h0l-8.4,5.942a2.641,2.641,0,0,1-3.618-.66h0A2.641,2.641,0,0,1,366.211,400.011Z" transform="translate(4444.398 2995.075)" fill="#f5c08c"/>
      <path id="Path_48745" data-name="Path 48745" d="M357.815,395.565l7.711-2.43a4.3,4.3,0,0,0,1.4-.554l7.922-4.754a2.641,2.641,0,0,1,3.539.871h0a2.641,2.641,0,0,1-.871,3.565l-5.1,3.09S357.1,395.723,357.815,395.565Z" transform="translate(4432.275 2999.971)" fill="#f5c08c"/>
      <path id="Path_48746" data-name="Path 48746" d="M360.986,398.655c6.364-2.377,21.337-.766,21.337-.766l8.662-3.856,5.995-7.394a2.641,2.641,0,0,1,3.644-.37h0a2.641,2.641,0,0,1,.4,3.644s-7.368,8.635-7.394,8.635-6.364,4.331-8.477,5.519c-.4.211-.977.423-1.585.687a58.385,58.385,0,0,1-15.66,4.41l-8.187,2.165-4.2-9.19Z" transform="translate(4428.549 2997.065)" fill="#ffcf9f"/>
      <rect id="Rectangle_2071" data-name="Rectangle 2071" width="7.843" height="14.788" transform="translate(4779.65 3399.443) rotate(-21.42)" fill="#dadada"/>
      <path id="Path_48747" data-name="Path 48747" d="M358.323,397.71a1.32,1.32,0,0,1-1.69-.739,1.294,1.294,0,1,1,1.69.739Z" transform="translate(4430.235 3012.667)" fill="#fff"/>
      <path id="Path_48748" data-name="Path 48748" d="M322.744,385.18,317.7,438.154l8.081,7.157,8.081-7.157-5.044-52.974Z" transform="translate(4366.495 2996.201)" fill="#0c4f73"/>
      <path id="Path_48749" data-name="Path 48749" d="M315.16,371.27v4.489h0v4.78h0v2.139l.29,15.4,9.111-.185h9.876l9.375-.185.4-14.841v-1.875l.132-4.78h0l.132-3.935Z" transform="translate(4362.327 2973.378)" fill="#f2c799"/>
      <path id="Path_48750" data-name="Path 48750" d="M337.049,351.6c13.2,0,23.767,8.662,22.79,24.348a42.836,42.836,0,0,1-.66,5.282c2.931-1.69,5.519,1.241,4.489,5.7-.739,3.143-2.271,7.368-4.014,7.922a2.245,2.245,0,0,1-2.852-.581c-.924,4.516-1.294,8.583-2.9,10.986a78.3,78.3,0,0,1-4.78,6.6c-3.09,3.644-5.678,4.542-11.619,4.595h0c-5.942,0-8.53-.845-11.7-4.463a79.6,79.6,0,0,1-4.833-6.523c-1.637-2.4-2.086-6.443-3.063-10.959,0,0-.739,1.347-2.852.607s-3.327-4.806-4.093-7.922c-1.083-4.436,1.452-7.394,4.41-5.757a41.9,41.9,0,0,1-.74-5.282C313.361,360.579,323.819,351.706,337.049,351.6Z" transform="translate(4355.015 2941.104)" fill="#ffd2a1"/>
      <path id="Path_48751" data-name="Path 48751" d="M354.722,357.831c5.07,5.915,6.681,12.517,4.7,24.718-2.007,1.109-3.063,2.641-3.8,8.635-1.452.423-2.086.5-3.38.977,7.922-32.3-4.621-32.878-7.922-33.538a85.127,85.127,0,0,0-17.007,0c-3.433.713-15.845,1.426-7.605,33.617-1.32-.422-1.954-.5-3.407-.9-.819-6.047-1.9-7.526-3.908-8.609-2.139-12.174,0-18.3,4.384-24.771C322.689,349.064,345.638,347.242,354.722,357.831Z" transform="translate(4356.409 2939.415)" fill="#3c3c3b"/>
      <path id="Path_48752" data-name="Path 48752" d="M324.492,351.64a9.8,9.8,0,0,0-4.648,1.452c-2.033,1.109-7.236,8.662-6.153,10.563,4.41,7.209,18.063,9.269,27.7,9.533a9.11,9.11,0,0,1-3.222-3.988,25.721,25.721,0,0,0,16.69,1.347,32.456,32.456,0,0,0-7.21-13.045,21.575,21.575,0,0,0-10.959-5.1A64.969,64.969,0,0,0,324.492,351.64Z" transform="translate(4359.677 2941.116)" fill="#3c3c3b"/>
      <path id="Path_48753" data-name="Path 48753" d="M320.9,401.78a45.816,45.816,0,0,1-8.9-22.843l8.5-4.727a28.627,28.627,0,0,0,14.63,18.644Z" transform="translate(4357.142 2978.202)" fill="#dadada"/>
      <path id="Path_48754" data-name="Path 48754" d="M334.994,401.763a45.817,45.817,0,0,0,8.9-22.816l-8.5-4.727a28.626,28.626,0,0,1-14.63,18.644Z" transform="translate(4371.515 2978.218)" fill="#dadada"/>
      <path id="Path_48755" data-name="Path 48755" d="M378.447,472.511H330.279c-.211-1.769-.37-13.653-.449-16.373h0l-.185-1.056a98.658,98.658,0,0,1-40.325-26.408c17.086,10.563,35.994,20.017,40.272,4.859,0,0,0-2.271.211-5.836.449-12.834,1.558-42.517,2.192-42.517l.555,11.963c.528,11.355,1.136,23,5.546,33.459a42.518,42.518,0,0,0,2.878,5.546,31.69,31.69,0,0,0,20.651,15.237l-23.635-3.3a125.647,125.647,0,0,0,40.457,24.427Z" transform="translate(4319.929 2996.201)" fill="#1d1d1b" opacity="0.05"/>
      <path id="Path_48756" data-name="Path 48756" d="M391.828,425.467a98,98,0,0,1-40.246,26.408v1.162c-.238,2.245-.528,14.049-.871,16.294H328c8.53-2.878,13.494-20.176,16.32-29.6a76.949,76.949,0,0,0,2.4-11.831c2.166-17.165-.158-35.6-.554-40.826a267.828,267.828,0,0,1,5.783,36.971c.185,2.641.317,5.413.37,8.213C357.788,444.481,375.534,435.528,391.828,425.467Z" transform="translate(4383.395 2999.302)" fill="#1d1d1b" opacity="0.05"/>
      <path id="Path_48757" data-name="Path 48757" d="M285.509,396.681l21.654-21.417.158-30.475a30.9,30.9,0,0,0-21.813,51.891Z" transform="translate(4300.157 2929.93)" fill="#d42441"/>
      <path id="Path_48758" data-name="Path 48758" d="M289.518,344.816l-.158,29.867h8.187l21.681.132a30.9,30.9,0,0,0-29.709-30.026Z" transform="translate(4319.995 2929.93)" fill="#65b87f"/>
      <path id="Path_48759" data-name="Path 48759" d="M289.91,356.88l19.991,20.2a30.712,30.712,0,0,0,8.424-20.043Z" transform="translate(4320.897 2949.767)" fill="#fff"/>
      <path id="Path_48760" data-name="Path 48760" d="M302.208,386.419a30.712,30.712,0,0,0,20.994-8.213L302.076,357.08,280.95,378.074a30.685,30.685,0,0,0,21.126,8.451Z" transform="translate(4306.196 2950.095)" fill="#0a415f"/>
    </g>
  </g>
</svg>
