<svg xmlns="http://www.w3.org/2000/svg" xmlns:xlink="http://www.w3.org/1999/xlink" width="1741.509" height="367.93" viewBox="0 0 1741.509 367.93">
  <defs>
    <clipPath id="clip-path">
      <rect id="Rectangle_1805" data-name="Rectangle 1805" width="642.001" height="367.93"/>
    </clipPath>
    <clipPath id="clip-path-4">
      <rect id="Rectangle_1808" data-name="Rectangle 1808" width="642.001" height="367.93" fill="#fff"/>
    </clipPath>
  </defs>
  <g id="عرض_سعر" data-name="عرض سعر" transform="translate(-3682.491 -3020)">
    <g id="Group_40052" data-name="Group 40052" transform="translate(4782 3020)">
      <g id="Group_40053" data-name="Group 40053" opacity="0.3" clip-path="url(#clip-path)">
        <path id="Path_44911" data-name="Path 44911" d="M1015.1,740.872l117.553,11.59-58.8-32.562Z" transform="translate(-863.182 -455.027)" fill="none" stroke="#d4d2d1" stroke-miterlimit="10" stroke-width="1"/>
        <path id="Path_44912" data-name="Path 44912" d="M1049.06,596.9l24.835,77.817-58.8-32.562Z" transform="translate(-804.423 -377.283)" fill="none" stroke="#d4d2d1" stroke-miterlimit="10" stroke-width="1"/>
        <path id="Path_44913" data-name="Path 44913" d="M977.023,733.3l60.12,124.36L943.1,760.932Z" transform="translate(-741.18 -463.497)" fill="none" stroke="#d4d2d1" stroke-miterlimit="10" stroke-width="1"/>
        <path id="Path_44914" data-name="Path 44914" d="M972.435,674.717,947.6,596.9l49.671,66.227Z" transform="translate(-702.964 -377.283)" fill="none" stroke="#d4d2d1" stroke-miterlimit="10" stroke-width="1"/>
        <path id="Path_44915" data-name="Path 44915" d="M917.8,788.49l35.8,51.62L942.635,776.9Z" transform="translate(-648.328 -491.055)" fill="none" stroke="#d4d2d1" stroke-miterlimit="10" stroke-width="1"/>
        <path id="Path_44916" data-name="Path 44916" d="M947.2,808.4l35.8,51.62-65.2,32.12Z" transform="translate(-677.726 -510.966)" fill="none" stroke="#d4d2d1" stroke-miterlimit="10" stroke-width="1"/>
        <path id="Path_44917" data-name="Path 44917" d="M824.9,622.618,674.9,596.9l49.671,66.227Z" transform="translate(-430.264 -377.283)" fill="none" stroke="#d4d2d1" stroke-miterlimit="10" stroke-width="1"/>
        <path id="Path_44918" data-name="Path 44918" d="M674.9,707.309,775.234,666.8l-89.959,52.1Z" transform="translate(-380.593 -421.464)" fill="none" stroke="#d4d2d1" stroke-miterlimit="10" stroke-width="1"/>
        <path id="Path_44919" data-name="Path 44919" d="M674.9,601.88l100.334-40.509L732.849,500Z" transform="translate(-380.593 -316.035)" fill="none" stroke="#d4d2d1" stroke-miterlimit="10" stroke-width="1"/>
        <path id="Path_44920" data-name="Path 44920" d="M658.629,397l-34.144,99.267L582.1,434.9Z" transform="translate(-229.844 -250.932)" fill="none" stroke="#d4d2d1" stroke-miterlimit="10" stroke-width="1"/>
        <path id="Path_44921" data-name="Path 44921" d="M686.306,500,674.9,530.17l53.791,31.2" transform="translate(-334.05 -316.035)" fill="none" stroke="#d4d2d1" stroke-miterlimit="10" stroke-width="1"/>
        <path id="Path_44922" data-name="Path 44922" d="M658.629,343.906,582.1,381.8l6.255-68.8Z" transform="translate(-229.844 -197.838)" fill="none" stroke="#d4d2d1" stroke-miterlimit="10" stroke-width="1"/>
        <path id="Path_44923" data-name="Path 44923" d="M652.375,332.529,620,295l-37.9,6.623Z" transform="translate(-223.589 -186.461)" fill="none" stroke="#d4d2d1" stroke-miterlimit="10" stroke-width="1"/>
        <path id="Path_44924" data-name="Path 44924" d="M773.1,331.4,838,381.8l6.255-68.8Z" transform="translate(-485.747 -197.838)" fill="none" stroke="#d4d2d1" stroke-miterlimit="10" stroke-width="1"/>
        <path id="Path_44925" data-name="Path 44925" d="M773.1,294.736,826.229,255l18.029,21.34Z" transform="translate(-485.747 -161.178)" fill="none" stroke="#d4d2d1" stroke-miterlimit="10" stroke-width="1"/>
        <path id="Path_44926" data-name="Path 44926" d="M773.1,417.455,793.373,381.8l6.255-68.8Z" transform="translate(-441.117 -197.838)" fill="none" stroke="#d4d2d1" stroke-miterlimit="10" stroke-width="1"/>
        <path id="Path_44927" data-name="Path 44927" d="M726.5,776.9l28.625,72.261L807.849,806Z" transform="translate(-432.193 -491.055)" fill="none" stroke="#d4d2d1" stroke-miterlimit="10" stroke-width="1"/>
        <path id="Path_44928" data-name="Path 44928" d="M847.8,776.9l8.278,97.06,28.441-85.47Z" transform="translate(-553.493 -491.055)" fill="none" stroke="#d4d2d1" stroke-miterlimit="10" stroke-width="1"/>
        <path id="Path_44929" data-name="Path 44929" d="M1141.358,642.155,1082.6,663.127l92.718-66.227Z" transform="translate(-930.682 -377.283)" fill="none" stroke="#d4d2d1" stroke-miterlimit="10" stroke-width="1"/>
        <path id="Path_44930" data-name="Path 44930" d="M868.168,422,722.1,512.069l4.636,24.467Z" transform="translate(-490.893 -266.734)" fill="none" stroke="#d4d2d1" stroke-miterlimit="10" stroke-width="1"/>
        <path id="Path_44931" data-name="Path 44931" d="M854.1,670.1l75.242-7.322L970.7,573Z" transform="translate(-641.988 -362.176)" fill="none" stroke="#d4d2d1" stroke-miterlimit="10" stroke-width="1"/>
        <path id="Path_44932" data-name="Path 44932" d="M1114.978,910.155,996.1,836.9l155.266,33.518-36.388,38.265-38.154,3.2" transform="translate(-874.904 -528.98)" fill="none" stroke="#d4d2d1" stroke-miterlimit="10" stroke-width="1"/>
        <path id="Path_44933" data-name="Path 44933" d="M1284.207,893.87V808.4L1198.7,892.141Z" transform="translate(-1082.287 -510.966)" fill="none" stroke="#d4d2d1" stroke-miterlimit="10" stroke-width="1"/>
        <path id="Path_44934" data-name="Path 44934" d="M947.6,644l126.752,20.236-54.233,122.521Z" transform="translate(-780.045 -407.053)" fill="none" stroke="#d4d2d1" stroke-miterlimit="10" stroke-width="1"/>
        <path id="Path_44935" data-name="Path 44935" d="M1074.352,608.614,1050.436,556,947.6,588.378" transform="translate(-780.045 -351.431)" fill="none" stroke="#d4d2d1" stroke-miterlimit="10" stroke-width="1"/>
        <path id="Path_44936" data-name="Path 44936" d="M460.544,370.426,438.1,295l85.36,56.661Z" transform="translate(-41.693 -186.461)" fill="none" stroke="#d4d2d1" stroke-miterlimit="10" stroke-width="1"/>
        <path id="Path_44937" data-name="Path 44937" d="M487.95,388.321l8.462-23.18L415.1,353Z" transform="translate(-6.183 -223.121)" fill="none" stroke="#d4d2d1" stroke-miterlimit="10" stroke-width="1"/>
        <path id="Path_44938" data-name="Path 44938" d="M649.09,313,535.4,408.662l117.259-75.426Z" transform="translate(-206.692 -197.838)" fill="none" stroke="#d4d2d1" stroke-miterlimit="10" stroke-width="1"/>
        <path id="Path_44939" data-name="Path 44939" d="M580.237,34l48.751,102.652H545.1Z" transform="translate(-186.589 -21.49)" fill="none" stroke="#d4d2d1" stroke-miterlimit="10" stroke-width="1"/>
        <path id="Path_44940" data-name="Path 44940" d="M543.238,12l2.576,89.407L469.1,20.094Z" transform="translate(-75.452 -7.585)" fill="none" stroke="#d4d2d1" stroke-miterlimit="10" stroke-width="1"/>
        <path id="Path_44941" data-name="Path 44941" d="M550.238-24.66,480.552-46,476.1-16.566Z" transform="translate(-82.452 29.075)" fill="none" stroke="#d4d2d1" stroke-miterlimit="10" stroke-width="1"/>
        <path id="Path_44942" data-name="Path 44942" d="M300.1,111l119.945,52.982,62.18-51.142Z" transform="translate(50.316 -70.16)" fill="none" stroke="#d4d2d1" stroke-miterlimit="10" stroke-width="1"/>
        <path id="Path_44943" data-name="Path 44943" d="M316.1,182.973,433.837,84l-94.668,8.094Z" transform="translate(92.817 -53.094)" fill="none" stroke="#d4d2d1" stroke-miterlimit="10" stroke-width="1"/>
        <path id="Path_44944" data-name="Path 44944" d="M423.724,116l-42.312,99.341L300.1,203.2Z" transform="translate(108.817 -73.32)" fill="none" stroke="#d4d2d1" stroke-miterlimit="10" stroke-width="1"/>
      </g>
      <g id="Group_40054" data-name="Group 40054" opacity="0.2" clip-path="url(#clip-path)">
        <path id="Path_44945" data-name="Path 44945" d="M1145.6,222.172l117.554,11.59-58.8-32.562Z" transform="translate(-1041.697 -127.173)" fill="none" stroke="#d4d2d1" stroke-miterlimit="10" stroke-width="1"/>
        <path id="Path_44946" data-name="Path 44946" d="M1179.56,78.2l24.835,77.817-58.8-32.562Z" transform="translate(-982.938 -49.428)" fill="none" stroke="#d4d2d1" stroke-miterlimit="10" stroke-width="1"/>
        <path id="Path_44947" data-name="Path 44947" d="M1107.523,214.7l60.12,124.36L1073.6,242.295Z" transform="translate(-919.695 -135.705)" fill="none" stroke="#d4d2d1" stroke-miterlimit="10" stroke-width="1"/>
        <path id="Path_44948" data-name="Path 44948" d="M1102.935,156.017,1078.1,78.2l49.67,66.227Z" transform="translate(-881.478 -49.428)" fill="none" stroke="#d4d2d1" stroke-miterlimit="10" stroke-width="1"/>
        <path id="Path_44949" data-name="Path 44949" d="M1048.3,269.79l35.8,51.621-10.964-63.21Z" transform="translate(-826.843 -163.201)" fill="none" stroke="#d4d2d1" stroke-miterlimit="10" stroke-width="1"/>
        <path id="Path_44950" data-name="Path 44950" d="M1077.7,289.7l35.8,51.621-65.2,32.12Z" transform="translate(-856.241 -183.111)" fill="none" stroke="#d4d2d1" stroke-miterlimit="10" stroke-width="1"/>
        <path id="Path_44951" data-name="Path 44951" d="M955.4,103.918,805.4,78.2l49.671,66.227Z" transform="translate(-608.778 -49.428)" fill="none" stroke="#d4d2d1" stroke-miterlimit="10" stroke-width="1"/>
        <path id="Path_44952" data-name="Path 44952" d="M805.4,188.609,905.734,148.1l-89.959,52.1Z" transform="translate(-559.108 -93.61)" fill="none" stroke="#d4d2d1" stroke-miterlimit="10" stroke-width="1"/>
        <path id="Path_44953" data-name="Path 44953" d="M805.4,83.18,905.734,42.671,863.349-18.7Z" transform="translate(-559.108 11.82)" fill="none" stroke="#d4d2d1" stroke-miterlimit="10" stroke-width="1"/>
        <path id="Path_44954" data-name="Path 44954" d="M789.129-121.7,754.985-22.433,712.6-83.8Z" transform="translate(-408.359 76.923)" fill="none" stroke="#d4d2d1" stroke-miterlimit="10" stroke-width="1"/>
        <path id="Path_44955" data-name="Path 44955" d="M816.806-18.7,805.4,11.47l53.791,31.2" transform="translate(-512.565 11.82)" fill="none" stroke="#d4d2d1" stroke-miterlimit="10" stroke-width="1"/>
        <path id="Path_44956" data-name="Path 44956" d="M903.6-101.245,923.873-136.9l6.255-68.8Z" transform="translate(-619.632 130.017)" fill="none" stroke="#d4d2d1" stroke-miterlimit="10" stroke-width="1"/>
        <path id="Path_44957" data-name="Path 44957" d="M856.9,258.2l28.625,72.3L938.286,287.3Z" transform="translate(-610.608 -163.201)" fill="none" stroke="#d4d2d1" stroke-miterlimit="10" stroke-width="1"/>
        <path id="Path_44958" data-name="Path 44958" d="M978.3,258.2l8.278,97.1,28.441-85.507Z" transform="translate(-732.008 -163.201)" fill="none" stroke="#d4d2d1" stroke-miterlimit="10" stroke-width="1"/>
        <path id="Path_44959" data-name="Path 44959" d="M1271.858,123.455,1213.1,144.427,1305.818,78.2Z" transform="translate(-1109.196 -49.428)" fill="none" stroke="#d4d2d1" stroke-miterlimit="10" stroke-width="1"/>
        <path id="Path_44960" data-name="Path 44960" d="M998.668-96.7,852.6-6.631l4.636,24.5Z" transform="translate(-669.408 61.121)" fill="none" stroke="#d4d2d1" stroke-miterlimit="10" stroke-width="1"/>
        <path id="Path_44961" data-name="Path 44961" d="M984.6,151.4l75.242-7.322L1101.2,54.3Z" transform="translate(-820.503 -34.321)" fill="none" stroke="#d4d2d1" stroke-miterlimit="10" stroke-width="1"/>
        <path id="Path_44962" data-name="Path 44962" d="M1245.478,391.455,1126.6,318.2l155.266,33.518-36.388,38.265-38.154,3.238" transform="translate(-1053.419 -201.125)" fill="none" stroke="#d4d2d1" stroke-miterlimit="10" stroke-width="1"/>
        <path id="Path_44963" data-name="Path 44963" d="M1414.707,375.207V289.7L1329.2,373.441Z" transform="translate(-1260.802 -183.111)" fill="none" stroke="#d4d2d1" stroke-miterlimit="10" stroke-width="1"/>
        <path id="Path_44964" data-name="Path 44964" d="M1078.1,125.3l126.752,20.236-54.233,122.521Z" transform="translate(-958.559 -79.198)" fill="none" stroke="#d4d2d1" stroke-miterlimit="10" stroke-width="1"/>
        <path id="Path_44965" data-name="Path 44965" d="M1204.852,89.914,1180.936,37.3,1078.1,69.678" transform="translate(-958.559 -23.576)" fill="none" stroke="#d4d2d1" stroke-miterlimit="10" stroke-width="1"/>
      </g>
      <g id="Group_40055" data-name="Group 40055" opacity="0.2" clip-path="url(#clip-path)">
        <path id="Path_44966" data-name="Path 44966" d="M445.3,758.372l117.554,11.59L504.1,737.4Z" transform="translate(-83.735 -466.089)" fill="none" stroke="#d4d2d1" stroke-miterlimit="10" stroke-width="1"/>
        <path id="Path_44967" data-name="Path 44967" d="M479.223,614.4l24.835,77.817L445.3,659.655Z" transform="translate(-24.94 -388.344)" fill="none" stroke="#d4d2d1" stroke-miterlimit="10" stroke-width="1"/>
        <path id="Path_44968" data-name="Path 44968" d="M407.223,750.9l60.083,124.36L373.3,778.495Z" transform="translate(38.303 -474.622)" fill="none" stroke="#d4d2d1" stroke-miterlimit="10" stroke-width="1"/>
        <path id="Path_44969" data-name="Path 44969" d="M402.635,692.217,377.8,614.4l49.671,66.227Z" transform="translate(76.483 -388.344)" fill="none" stroke="#d4d2d1" stroke-miterlimit="10" stroke-width="1"/>
        <path id="Path_44970" data-name="Path 44970" d="M347.9,805.99l35.836,51.62-11-63.21Z" transform="translate(131.218 -502.117)" fill="none" stroke="#d4d2d1" stroke-miterlimit="10" stroke-width="1"/>
        <path id="Path_44971" data-name="Path 44971" d="M377.3,825.9l35.836,51.621L347.9,909.678Z" transform="translate(101.82 -522.027)" fill="none" stroke="#d4d2d1" stroke-miterlimit="10" stroke-width="1"/>
        <path id="Path_44972" data-name="Path 44972" d="M255.1,640.118,105.1,614.4l49.671,66.227Z" transform="translate(349.183 -388.344)" fill="none" stroke="#d4d2d1" stroke-miterlimit="10" stroke-width="1"/>
        <path id="Path_44973" data-name="Path 44973" d="M105.1,724.809,205.434,684.3l-89.959,52.1Z" transform="translate(398.853 -432.526)" fill="none" stroke="#d4d2d1" stroke-miterlimit="10" stroke-width="1"/>
        <path id="Path_44974" data-name="Path 44974" d="M105.1,619.443l100.334-40.509L163.049,517.6Z" transform="translate(398.853 -327.16)" fill="none" stroke="#d4d2d1" stroke-miterlimit="10" stroke-width="1"/>
        <path id="Path_44975" data-name="Path 44975" d="M88.829,414.6,54.686,513.831,12.3,452.5Z" transform="translate(549.602 -262.056)" fill="none" stroke="#d4d2d1" stroke-miterlimit="10" stroke-width="1"/>
        <path id="Path_44976" data-name="Path 44976" d="M116.506,517.6,105.1,547.77l53.791,31.164" transform="translate(445.396 -327.16)" fill="none" stroke="#d4d2d1" stroke-miterlimit="10" stroke-width="1"/>
        <path id="Path_44977" data-name="Path 44977" d="M88.829,361.506,12.3,399.4l6.255-68.8Z" transform="translate(549.602 -208.962)" fill="none" stroke="#d4d2d1" stroke-miterlimit="10" stroke-width="1"/>
        <path id="Path_44978" data-name="Path 44978" d="M82.575,350.129,50.2,312.6l-37.9,6.623Z" transform="translate(555.857 -197.585)" fill="none" stroke="#d4d2d1" stroke-miterlimit="10" stroke-width="1"/>
        <path id="Path_44979" data-name="Path 44979" d="M203.3,349,268.166,399.4l6.255-68.8Z" transform="translate(293.736 -208.962)" fill="none" stroke="#d4d2d1" stroke-miterlimit="10" stroke-width="1"/>
        <path id="Path_44980" data-name="Path 44980" d="M203.3,312.336,256.392,272.6l18.029,21.34Z" transform="translate(293.736 -172.302)" fill="none" stroke="#d4d2d1" stroke-miterlimit="10" stroke-width="1"/>
        <path id="Path_44981" data-name="Path 44981" d="M203.3,435.018,223.573,399.4l6.255-68.8Z" transform="translate(338.329 -208.962)" fill="none" stroke="#d4d2d1" stroke-miterlimit="10" stroke-width="1"/>
        <path id="Path_44982" data-name="Path 44982" d="M156.6,794.4l28.662,72.3,52.724-43.158Z" transform="translate(347.353 -502.117)" fill="none" stroke="#d4d2d1" stroke-miterlimit="10" stroke-width="1"/>
        <path id="Path_44983" data-name="Path 44983" d="M277.9,794.4l8.278,97.1,28.478-85.507Z" transform="translate(226.053 -502.117)" fill="none" stroke="#d4d2d1" stroke-miterlimit="10" stroke-width="1"/>
        <path id="Path_44984" data-name="Path 44984" d="M571.6,659.655l-58.8,20.972L605.518,614.4Z" transform="translate(-151.235 -388.344)" fill="none" stroke="#d4d2d1" stroke-miterlimit="10" stroke-width="1"/>
        <path id="Path_44985" data-name="Path 44985" d="M298.368,439.6,152.3,529.632l4.673,24.5Z" transform="translate(288.553 -277.858)" fill="none" stroke="#d4d2d1" stroke-miterlimit="10" stroke-width="1"/>
        <path id="Path_44986" data-name="Path 44986" d="M284.3,687.66l75.242-7.285L400.86,590.6Z" transform="translate(137.495 -373.301)" fill="none" stroke="#d4d2d1" stroke-miterlimit="10" stroke-width="1"/>
        <path id="Path_44987" data-name="Path 44987" d="M545.178,927.692,426.3,854.4l155.266,33.555L545.178,926.22l-38.117,3.2" transform="translate(-95.458 -540.041)" fill="none" stroke="#d4d2d1" stroke-miterlimit="10" stroke-width="1"/>
        <path id="Path_44988" data-name="Path 44988" d="M714.344,911.407V825.9L628.8,909.678Z" transform="translate(-302.741 -522.027)" fill="none" stroke="#d4d2d1" stroke-miterlimit="10" stroke-width="1"/>
        <path id="Path_44989" data-name="Path 44989" d="M377.8,661.6l126.752,20.236L450.319,804.357Z" transform="translate(-0.598 -418.178)" fill="none" stroke="#d4d2d1" stroke-miterlimit="10" stroke-width="1"/>
        <path id="Path_44990" data-name="Path 44990" d="M504.552,626.214,480.673,573.6,377.8,605.978" transform="translate(-0.598 -362.556)" fill="none" stroke="#d4d2d1" stroke-miterlimit="10" stroke-width="1"/>
        <path id="Path_44991" data-name="Path 44991" d="M-109.256,388.026-131.7,312.6l85.36,56.661Z" transform="translate(737.754 -197.585)" fill="none" stroke="#d4d2d1" stroke-miterlimit="10" stroke-width="1"/>
        <path id="Path_44992" data-name="Path 44992" d="M-81.85,405.921l8.462-23.18L-154.7,370.6Z" transform="translate(773.263 -234.245)" fill="none" stroke="#d4d2d1" stroke-miterlimit="10" stroke-width="1"/>
        <path id="Path_44993" data-name="Path 44993" d="M79.29,330.6-34.4,426.262,82.859,350.836Z" transform="translate(572.755 -208.962)" fill="none" stroke="#d4d2d1" stroke-miterlimit="10" stroke-width="1"/>
        <path id="Path_44994" data-name="Path 44994" d="M10.437,51.6,59.188,154.252H-24.7Z" transform="translate(592.857 -32.615)" fill="none" stroke="#d4d2d1" stroke-miterlimit="10" stroke-width="1"/>
        <path id="Path_44995" data-name="Path 44995" d="M-26.562,29.6l2.576,89.407L-100.7,37.694Z" transform="translate(703.994 -18.709)" fill="none" stroke="#d4d2d1" stroke-miterlimit="10" stroke-width="1"/>
        <path id="Path_44996" data-name="Path 44996" d="M-19.562-7.06-89.248-28.4-93.7,1.034Z" transform="translate(696.994 17.951)" fill="none" stroke="#d4d2d1" stroke-miterlimit="10" stroke-width="1"/>
        <path id="Path_44997" data-name="Path 44997" d="M-269.7,128.6l119.945,52.982,62.18-51.142Z" transform="translate(829.763 -81.284)" fill="none" stroke="#d4d2d1" stroke-miterlimit="10" stroke-width="1"/>
        <path id="Path_44998" data-name="Path 44998" d="M-253.7,200.573-135.963,101.6l-94.632,8.094Z" transform="translate(872.263 -64.218)" fill="none" stroke="#d4d2d1" stroke-miterlimit="10" stroke-width="1"/>
        <path id="Path_44999" data-name="Path 44999" d="M-146.076,133.6l-42.312,99.341L-269.7,220.8Z" transform="translate(888.263 -84.445)" fill="none" stroke="#d4d2d1" stroke-miterlimit="10" stroke-width="1"/>
      </g>
      <g id="Group_40056" data-name="Group 40056" clip-path="url(#clip-path-4)">
        <path id="Path_45000" data-name="Path 45000" d="M724.942,852.271a2.151,2.151,0,0,0-2.171-2.171,2.171,2.171,0,1,0,2.171,2.171Z" transform="translate(-347.115 -537.323)" fill="#ec1b62"/>
        <path id="Path_45001" data-name="Path 45001" d="M1012.987,803.344a2.943,2.943,0,1,0-2.943,2.943A2.952,2.952,0,0,0,1012.987,803.344Z" transform="translate(-740.572 -505.909)" fill="#ec1b62"/>
        <circle id="Ellipse_352" data-name="Ellipse 352" cx="2.281" cy="2.281" r="2.281" transform="translate(302.217 294.859)" fill="#ec1b62"/>
        <path id="Path_45002" data-name="Path 45002" d="M945.962,772.981a2.281,2.281,0,1,0-2.281,2.281A2.293,2.293,0,0,0,945.962,772.981Z" transform="translate(-649.374 -487.137)" fill="#ec1b62"/>
        <circle id="Ellipse_353" data-name="Ellipse 353" cx="3.606" cy="3.606" r="3.606" transform="translate(283.747 296.993)" fill="#ec1b62"/>
        <path id="Path_45003" data-name="Path 45003" d="M867.542,969.571a2.152,2.152,0,0,0-2.171-2.171,2.171,2.171,0,1,0,2.171,2.171Z" transform="translate(-542.181 -611.465)" fill="#ec1b62"/>
        <path id="Path_45004" data-name="Path 45004" d="M1093.653,1031.077a1.876,1.876,0,1,0-1.876,1.876A1.884,1.884,0,0,0,1093.653,1031.077Z" transform="translate(-851.702 -650.527)" fill="#ec1b62"/>
        <circle id="Ellipse_354" data-name="Ellipse 354" cx="2.833" cy="2.833" r="2.833" transform="translate(120.657 312.184) rotate(-135)" fill="#ec1b62"/>
        <path id="Path_45005" data-name="Path 45005" d="M945.983,694.892a2.392,2.392,0,1,0-2.392,2.391A2.387,2.387,0,0,0,945.983,694.892Z" transform="translate(-649.321 -437.709)" fill="#ec1b62"/>
        <path id="Path_45006" data-name="Path 45006" d="M1335.983,772.792a2.392,2.392,0,1,0-2.391,2.392A2.387,2.387,0,0,0,1335.983,772.792Z" transform="translate(-1182.814 -486.947)" fill="#ec1b62"/>
        <path id="Path_45007" data-name="Path 45007" d="M1172.072,716.086a2.686,2.686,0,1,0-2.686,2.686A2.7,2.7,0,0,0,1172.072,716.086Z" transform="translate(-958.378 -450.919)" fill="#ec1b62"/>
        <circle id="Ellipse_355" data-name="Ellipse 355" cx="2.686" cy="2.686" r="2.686" transform="translate(232.973 267.117)" fill="#ec1b62"/>
        <circle id="Ellipse_356" data-name="Ellipse 356" cx="2.686" cy="2.686" r="2.686" transform="translate(267.706 201.883)" fill="#ec1b62"/>
        <circle id="Ellipse_357" data-name="Ellipse 357" cx="2.686" cy="2.686" r="2.686" transform="translate(227.491 213.473)" fill="#ec1b62"/>
        <circle id="Ellipse_358" data-name="Ellipse 358" cx="3.201" cy="3.201" r="3.201" transform="translate(227.491 244.011)" fill="#ec1b62"/>
        <circle id="Ellipse_359" data-name="Ellipse 359" cx="3.311" cy="3.311" r="3.311" transform="translate(199.528 294.123)" fill="#ec1b62"/>
        <path id="Path_45008" data-name="Path 45008" d="M672.47,660.985a3.385,3.385,0,1,0-3.385,3.385A3.376,3.376,0,0,0,672.47,660.985Z" transform="translate(-274.443 -415.649)" fill="#ec1b62"/>
        <path id="Path_45009" data-name="Path 45009" d="M855.57,567.185a3.385,3.385,0,1,0-3.385,3.385A3.376,3.376,0,0,0,855.57,567.185Z" transform="translate(-524.911 -356.361)" fill="#ec1b62"/>
        <path id="Path_45010" data-name="Path 45010" d="M716.23,411.715a4.415,4.415,0,1,0-4.415,4.415A4.428,4.428,0,0,0,716.23,411.715Z" transform="translate(-333.547 -257.442)" fill="#ec1b62"/>
        <path id="Path_45011" data-name="Path 45011" d="M771.436,309.018a2.318,2.318,0,1,0-2.318,2.318A2.308,2.308,0,0,0,771.436,309.018Z" transform="translate(-410.607 -193.856)" fill="#ec1b62"/>
        <path id="Path_45012" data-name="Path 45012" d="M820.885,252.092a1.692,1.692,0,1,0-1.692,1.693A1.712,1.712,0,0,0,820.885,252.092Z" transform="translate(-478.71 -158.27)" fill="#ec1b62"/>
        <path id="Path_45013" data-name="Path 45013" d="M669.4,290.95a1.95,1.95,0,1,0-1.95,1.95A1.963,1.963,0,0,0,669.4,290.95Z" transform="translate(-271.3 -182.668)" fill="#ec1b62"/>
        <path id="Path_45014" data-name="Path 45014" d="M580.3,392.7a2.5,2.5,0,1,0-2.5,2.5A2.5,2.5,0,0,0,580.3,392.7Z" transform="translate(-149.017 -246.634)" fill="#ec1b62"/>
        <path id="Path_45015" data-name="Path 45015" d="M543.3,308.7a2.5,2.5,0,1,0-2.5,2.5A2.5,2.5,0,0,0,543.3,308.7Z" transform="translate(-98.403 -193.54)" fill="#ec1b62"/>
        <path id="Path_45016" data-name="Path 45016" d="M675.8,29.7a2.5,2.5,0,1,0-2.5,2.5A2.5,2.5,0,0,0,675.8,29.7Z" transform="translate(-279.654 -17.192)" fill="#ec1b62"/>
        <path id="Path_45017" data-name="Path 45017" d="M471.111,2.906a3.606,3.606,0,1,0-3.606,3.606A3.612,3.612,0,0,0,471.111,2.906Z" transform="translate(1.163 0.442)" fill="#ec1b62"/>
        <path id="Path_45018" data-name="Path 45018" d="M313.611,77.806a3.606,3.606,0,1,0-3.606,3.606A3.612,3.612,0,0,0,313.611,77.806Z" transform="translate(216.612 -46.9)" fill="#ec1b62"/>
        <path id="Path_45019" data-name="Path 45019" d="M568.915,97.358a4.158,4.158,0,1,0-4.158,4.158A4.153,4.153,0,0,0,568.915,97.358Z" transform="translate(-132.219 -58.909)" fill="#ec1b62"/>
        <path id="Path_45020" data-name="Path 45020" d="M793.3,106.7a2.5,2.5,0,1,0-2.5,2.5A2.5,2.5,0,0,0,793.3,106.7Z" transform="translate(-440.386 -65.862)" fill="#ec1b62"/>
        <path id="Path_45021" data-name="Path 45021" d="M532.313,362.007a2.907,2.907,0,1,0-2.907,2.907A2.913,2.913,0,0,0,532.313,362.007Z" transform="translate(-83.071 -226.976)" fill="#ec1b62"/>
        <path id="Path_45022" data-name="Path 45022" d="M961.955,355.427a3.127,3.127,0,1,0-3.127,3.127A3.125,3.125,0,0,0,961.955,355.427Z" transform="translate(-670.628 -222.678)" fill="#ec1b62"/>
        <path id="Path_45023" data-name="Path 45023" d="M819.806,578.9a1.8,1.8,0,1,0-1.8,1.8A1.806,1.806,0,0,0,819.806,578.9Z" transform="translate(-477.153 -364.768)" fill="#ec1b62"/>
        <path id="Path_45024" data-name="Path 45024" d="M764.306,611.4a1.8,1.8,0,1,0-1.8,1.8A1.806,1.806,0,0,0,764.306,611.4Z" transform="translate(-401.233 -385.31)" fill="#ec1b62"/>
        <path id="Path_45025" data-name="Path 45025" d="M467.219,250.512a2.764,2.764,0,1,0-2.759,2.612A2.68,2.68,0,0,0,467.219,250.512Z" transform="translate(5.865 -156.69)" fill="#ec1b62"/>
      </g>
      <g id="Group_40057" data-name="Group 40057" opacity="0.3" clip-path="url(#clip-path)">
        <path id="Path_45026" data-name="Path 45026" d="M793.738,282.24a2.165,2.165,0,1,0,1.766-2.5A2.144,2.144,0,0,0,793.738,282.24Z" transform="translate(-447.111 -176.791)" fill="#ec1b62"/>
        <path id="Path_45027" data-name="Path 45027" d="M499.133,280.919a2.946,2.946,0,1,0,2.428-3.385A2.949,2.949,0,0,0,499.133,280.919Z" transform="translate(-45.66 -175.397)" fill="#ec1b62"/>
        <path id="Path_45028" data-name="Path 45028" d="M594.74,298.252a2.274,2.274,0,1,0,1.876-2.612A2.238,2.238,0,0,0,594.74,298.252Z" transform="translate(-175.116 -186.843)" fill="#ec1b62"/>
        <path id="Path_45029" data-name="Path 45029" d="M562.34,324.052a2.274,2.274,0,1,0,1.876-2.612A2.238,2.238,0,0,0,562.34,324.052Z" transform="translate(-130.795 -203.15)" fill="#ec1b62"/>
        <path id="Path_45030" data-name="Path 45030" d="M546.712,279.271a3.617,3.617,0,1,0,2.98-4.158A3.643,3.643,0,0,0,546.712,279.271Z" transform="translate(-112.076 -173.859)" fill="#ec1b62"/>
        <path id="Path_45031" data-name="Path 45031" d="M672.138,143.139a2.165,2.165,0,1,0,1.766-2.5A2.144,2.144,0,0,0,672.138,143.139Z" transform="translate(-280.771 -88.87)" fill="#ec1b62"/>
        <path id="Path_45032" data-name="Path 45032" d="M460.05,46.62a1.884,1.884,0,1,0,1.545-2.171A1.877,1.877,0,0,0,460.05,46.62Z" transform="translate(9.907 -28.077)" fill="#ec1b62"/>
        <path id="Path_45033" data-name="Path 45033" d="M105.132,186.207a2.837,2.837,0,1,0,2.318-3.275A2.837,2.837,0,0,0,105.132,186.207Z" transform="translate(493.526 -115.601)" fill="#ec1b62"/>
        <path id="Path_45034" data-name="Path 45034" d="M549.433,400.764a2.368,2.368,0,1,0,1.95-2.723A2.37,2.37,0,0,0,549.433,400.764Z" transform="translate(-113.326 -251.569)" fill="#ec1b62"/>
        <path id="Path_45035" data-name="Path 45035" d="M177.342,260.264a2.368,2.368,0,1,0,1.95-2.723A2.37,2.37,0,0,0,177.342,260.264Z" transform="translate(395.672 -162.763)" fill="#ec1b62"/>
        <path id="Path_45036" data-name="Path 45036" d="M328.73,341.821a2.686,2.686,0,1,0,2.208-3.091A2.672,2.672,0,0,0,328.73,341.821Z" transform="translate(187.953 -214.076)" fill="#ec1b62"/>
        <path id="Path_45037" data-name="Path 45037" d="M396.93,340.321a2.686,2.686,0,1,0,2.208-3.091A2.672,2.672,0,0,0,396.93,340.321Z" transform="translate(94.661 -213.128)" fill="#ec1b62"/>
        <path id="Path_45038" data-name="Path 45038" d="M461.13,530.721a2.686,2.686,0,1,0,2.208-3.091A2.672,2.672,0,0,0,461.13,530.721Z" transform="translate(6.84 -333.474)" fill="#ec1b62"/>
        <path id="Path_45039" data-name="Path 45039" d="M358.43,481.821a2.686,2.686,0,1,0,2.208-3.091A2.672,2.672,0,0,0,358.43,481.821Z" transform="translate(147.326 -302.565)" fill="#ec1b62"/>
        <path id="Path_45040" data-name="Path 45040" d="M372.125,398a3.206,3.206,0,1,0,2.649-3.679A3.162,3.162,0,0,0,372.125,398Z" transform="translate(127.56 -249.213)" fill="#ec1b62"/>
        <path id="Path_45041" data-name="Path 45041" d="M319.524,250.814a3.3,3.3,0,1,0,2.723-3.79A3.294,3.294,0,0,0,319.524,250.814Z" transform="translate(199.33 -156.109)" fill="#ec1b62"/>
        <path id="Path_45042" data-name="Path 45042" d="M810.426,475.426a3.393,3.393,0,1,0,2.8-3.9A3.408,3.408,0,0,0,810.426,475.426Z" transform="translate(-472.373 -298.011)" fill="#ec1b62"/>
        <path id="Path_45043" data-name="Path 45043" d="M557.126,580.926a3.393,3.393,0,1,0,2.8-3.9A3.408,3.408,0,0,0,557.126,580.926Z" transform="translate(-125.876 -364.694)" fill="#ec1b62"/>
        <path id="Path_45044" data-name="Path 45044" d="M723.493,710.834a4.382,4.382,0,1,0,3.606-5.041A4.376,4.376,0,0,0,723.493,710.834Z" transform="translate(-355.416 -446.072)" fill="#ec1b62"/>
        <path id="Path_45045" data-name="Path 45045" d="M658.643,810.028a2.332,2.332,0,1,0,1.913-2.686A2.335,2.335,0,0,0,658.643,810.028Z" transform="translate(-262.64 -510.275)" fill="#ec1b62"/>
        <path id="Path_45046" data-name="Path 45046" d="M602.563,860.313a1.7,1.7,0,1,0,1.4-1.95A1.7,1.7,0,0,0,602.563,860.313Z" transform="translate(-184.669 -542.532)" fill="#ec1b62"/>
        <path id="Path_45047" data-name="Path 45047" d="M757.543,845.9a1.957,1.957,0,1,0,1.619-2.244A1.954,1.954,0,0,0,757.543,845.9Z" transform="translate(-397.192 -533.229)" fill="#ec1b62"/>
        <path id="Path_45048" data-name="Path 45048" d="M860.344,758.05a2.519,2.519,0,1,0,2.06-2.907A2.555,2.555,0,0,0,860.344,758.05Z" transform="translate(-538.92 -477.283)" fill="#ec1b62"/>
        <path id="Path_45049" data-name="Path 45049" d="M883.144,846.95a2.519,2.519,0,1,0,2.06-2.907A2.555,2.555,0,0,0,883.144,846.95Z" transform="translate(-570.109 -533.474)" fill="#ec1b62"/>
        <path id="Path_45050" data-name="Path 45050" d="M780.445,795.845a2.888,2.888,0,1,0,2.391-3.311A2.826,2.826,0,0,0,780.445,795.845Z" transform="translate(-430.359 -500.913)" fill="#ec1b62"/>
        <path id="Path_45051" data-name="Path 45051" d="M475.722,730.428a3.133,3.133,0,1,0,2.576-3.606A3.15,3.15,0,0,0,475.722,730.428Z" transform="translate(-14.007 -459.374)" fill="#ec1b62"/>
        <path id="Path_45052" data-name="Path 45052" d="M656.647,537.708a1.79,1.79,0,1,0,1.472-2.06A1.746,1.746,0,0,0,656.647,537.708Z" transform="translate(-258.842 -338.547)" fill="#ec1b62"/>
        <path id="Path_45053" data-name="Path 45053" d="M716.737,514.708a1.79,1.79,0,1,0,1.472-2.06A1.8,1.8,0,0,0,716.737,514.708Z" transform="translate(-341.044 -324.01)" fill="#ec1b62"/>
        <path id="Path_45054" data-name="Path 45054" d="M948.047,916.545a2.666,2.666,0,0,0,3.127,2.134,2.693,2.693,0,0,0,2.281-3.017,2.743,2.743,0,0,0-5.409.883Z" transform="translate(-659.333 -577.387)" fill="#ec1b62"/>
      </g>
      <g id="Group_40067" data-name="Group 40067" clip-path="url(#clip-path)">
        <g id="Group_40058" data-name="Group 40058" transform="translate(301.518 345.302)">
          <circle id="Ellipse_360" data-name="Ellipse 360" cx="3.753" cy="3.753" r="3.753" fill="none" stroke="#d4d2d1" stroke-miterlimit="10" stroke-width="2.486"/>
          <path id="Path_45055" data-name="Path 45055" d="M913.691,942.2a2.392,2.392,0,1,0,2.391,2.392A2.387,2.387,0,0,0,913.691,942.2Z" transform="translate(-909.939 -940.839)" fill="#ec1b62"/>
        </g>
        <g id="Group_40059" data-name="Group 40059" transform="translate(327.273 293.681)">
          <circle id="Ellipse_361" data-name="Ellipse 361" cx="3.753" cy="3.753" r="3.753" fill="none" stroke="#d4d2d1" stroke-miterlimit="10" stroke-width="2.486"/>
          <path id="Path_45056" data-name="Path 45056" d="M843.691,801.9a2.392,2.392,0,1,0,2.392,2.392A2.387,2.387,0,0,0,843.691,801.9Z" transform="translate(-839.939 -800.539)" fill="#ec1b62"/>
        </g>
        <g id="Group_40060" data-name="Group 40060" transform="translate(324.183 362.3)">
          <path id="Path_45057" data-name="Path 45057" d="M857.3,987.349A2.649,2.649,0,1,0,854.649,990,2.638,2.638,0,0,0,857.3,987.349Z" transform="translate(-852 -984.7)" fill="none" stroke="#d4d2d1" stroke-miterlimit="10" stroke-width="1.756"/>
          <path id="Path_45058" data-name="Path 45058" d="M856.393,987.3a1.693,1.693,0,1,0,1.692,1.693A1.665,1.665,0,0,0,856.393,987.3Z" transform="translate(-853.78 -986.343)" fill="#ec1b62"/>
        </g>
        <g id="Group_40061" data-name="Group 40061" transform="translate(163.802 232.899)">
          <circle id="Ellipse_362" data-name="Ellipse 362" cx="3.753" cy="3.753" r="3.753" fill="none" stroke="#d4d2d1" stroke-miterlimit="10" stroke-width="2.486"/>
          <path id="Path_45059" data-name="Path 45059" d="M1287.992,636.7a2.392,2.392,0,1,0,2.391,2.392A2.387,2.387,0,0,0,1287.992,636.7Z" transform="translate(-1284.239 -635.339)" fill="#ec1b62"/>
        </g>
        <g id="Group_40062" data-name="Group 40062" transform="translate(273.077 214.54)">
          <path id="Path_45060" data-name="Path 45060" d="M994.934,586.117a3.017,3.017,0,1,0-3.017,3.017A3.031,3.031,0,0,0,994.934,586.117Z" transform="translate(-988.9 -583.1)" fill="none" stroke="#d4d2d1" stroke-miterlimit="10" stroke-width="1.984"/>
          <path id="Path_45061" data-name="Path 45061" d="M993.813,586.2a1.913,1.913,0,1,0,1.913,1.913A1.9,1.9,0,0,0,993.813,586.2Z" transform="translate(-990.796 -585.059)" fill="#ec1b62"/>
        </g>
        <g id="Group_40063" data-name="Group 40063" transform="translate(406.145 196.583)">
          <circle id="Ellipse_363" data-name="Ellipse 363" cx="2.833" cy="2.833" r="2.833" transform="translate(4.007 8.013) rotate(-135)" fill="none" stroke="#d4d2d1" stroke-miterlimit="10" stroke-width="1.875"/>
          <path id="Path_45062" data-name="Path 45062" d="M629.7,540.3a1.8,1.8,0,1,0,1.8,1.8A1.806,1.806,0,0,0,629.7,540.3Z" transform="translate(-625.717 -538.09)" fill="#ec1b62"/>
        </g>
        <g id="Group_40064" data-name="Group 40064" transform="translate(487.249 136.318)">
          <path id="Path_45063" data-name="Path 45063" d="M408.283,374.842a4.342,4.342,0,1,0-4.342,4.342A4.3,4.3,0,0,0,408.283,374.842Z" transform="translate(-399.6 -370.5)" fill="none" stroke="#d4d2d1" stroke-miterlimit="10" stroke-width="2.876"/>
          <path id="Path_45064" data-name="Path 45064" d="M406.659,374.8a2.759,2.759,0,1,0,2.759,2.759A2.78,2.78,0,0,0,406.659,374.8Z" transform="translate(-402.318 -373.218)" fill="#ec1b62"/>
        </g>
        <g id="Group_40065" data-name="Group 40065" transform="translate(405.495 126.457)">
          <circle id="Ellipse_364" data-name="Ellipse 364" cx="3.422" cy="3.422" r="3.422" fill="none" stroke="#d4d2d1" stroke-miterlimit="10" stroke-width="2.264"/>
          <path id="Path_45065" data-name="Path 45065" d="M632.371,347.1a2.171,2.171,0,1,0,0,4.342,2.2,2.2,0,0,0,2.171-2.171A2.175,2.175,0,0,0,632.371,347.1Z" transform="translate(-628.949 -345.849)" fill="#ec1b62"/>
        </g>
        <g id="Group_40066" data-name="Group 40066" transform="translate(529.083 39.148)">
          <path id="Path_45066" data-name="Path 45066" d="M297.617,109.859a3.459,3.459,0,1,0-3.459,3.459A3.455,3.455,0,0,0,297.617,109.859Z" transform="translate(-290.7 -106.4)" fill="none" stroke="#d4d2d1" stroke-miterlimit="10" stroke-width="2.289"/>
          <path id="Path_45067" data-name="Path 45067" d="M296.308,109.8a2.208,2.208,0,1,0,2.208,2.208A2.214,2.214,0,0,0,296.308,109.8Z" transform="translate(-292.849 -108.549)" fill="#ec1b62"/>
        </g>
      </g>
      <g id="Group_40068" data-name="Group 40068" opacity="0.1" clip-path="url(#clip-path)">
        <path id="Path_45068" data-name="Path 45068" d="M1089,80.6a3.9,3.9,0,1,0,3.9-3.9A3.9,3.9,0,0,0,1089,80.6Z" transform="translate(-854.518 -48.48)" fill="#ec1b62"/>
        <path id="Path_45069" data-name="Path 45069" d="M566.5,164.8a5.317,5.317,0,1,0,5.335-5.3A5.307,5.307,0,0,0,566.5,164.8Z" transform="translate(-142.608 -100.815)" fill="#ec1b62"/>
        <path id="Path_45070" data-name="Path 45070" d="M741.1,167.884a4.1,4.1,0,1,0,4.121-4.084A4.154,4.154,0,0,0,741.1,167.884Z" transform="translate(-379.02 -103.533)" fill="#ec1b62"/>
        <path id="Path_45071" data-name="Path 45071" d="M691.3,223.283a4.1,4.1,0,1,0,4.121-4.084A4.106,4.106,0,0,0,691.3,223.283Z" transform="translate(-310.897 -138.549)" fill="#ec1b62"/>
        <path id="Path_45072" data-name="Path 45072" d="M650.8,147.076a6.494,6.494,0,1,0,6.512-6.476A6.493,6.493,0,0,0,650.8,147.076Z" transform="translate(-260.279 -88.869)" fill="#ec1b62"/>
        <path id="Path_45073" data-name="Path 45073" d="M427.3-237.615a3.431,3.431,0,0,0,3.385,3.422,3.431,3.431,0,0,0,3.422-3.385A3.431,3.431,0,0,0,430.722-241,3.384,3.384,0,0,0,427.3-237.615Z" transform="translate(51.634 152.329)" fill="#ec1b62"/>
        <path id="Path_45074" data-name="Path 45074" d="M691.1,362.868a4.268,4.268,0,1,0,4.268-4.268A4.271,4.271,0,0,0,691.1,362.868Z" transform="translate(-310.955 -226.66)" fill="#ec1b62"/>
        <path id="Path_45075" data-name="Path 45075" d="M-10.1,224.368a4.271,4.271,0,0,0,4.268,4.268,4.271,4.271,0,0,0,4.268-4.268A4.271,4.271,0,0,0-5.832,220.1,4.271,4.271,0,0,0-10.1,224.368Z" transform="translate(648.237 -139.119)" fill="#ec1b62"/>
        <path id="Path_45076" data-name="Path 45076" d="M282.5,323.719a4.857,4.857,0,1,0,4.857-4.82A4.8,4.8,0,0,0,282.5,323.719Z" transform="translate(246.804 -201.566)" fill="#ec1b62"/>
        <path id="Path_45077" data-name="Path 45077" d="M402.9,300.819a4.857,4.857,0,1,0,4.857-4.82A4.8,4.8,0,0,0,402.9,300.819Z" transform="translate(82.105 -187.092)" fill="#ec1b62"/>
        <path id="Path_45078" data-name="Path 45078" d="M573.3,619.219a4.857,4.857,0,1,0,4.857-4.82A4.8,4.8,0,0,0,573.3,619.219Z" transform="translate(-150.99 -388.343)" fill="#ec1b62"/>
        <path id="Path_45079" data-name="Path 45079" d="M376.7,562.957a4.857,4.857,0,1,0,4.857-4.857A4.852,4.852,0,0,0,376.7,562.957Z" transform="translate(117.945 -352.758)" fill="#ec1b62"/>
        <path id="Path_45080" data-name="Path 45080" d="M256,433.139a5.758,5.758,0,1,0,5.776-5.74A5.709,5.709,0,0,0,256,433.139Z" transform="translate(281.251 -270.146)" fill="#ec1b62"/>
        <path id="Path_45081" data-name="Path 45081" d="M239.5,164.424a5.924,5.924,0,1,0,5.924-5.924A5.92,5.92,0,0,0,239.5,164.424Z" transform="translate(303.491 -100.183)" fill="#ec1b62"/>
        <path id="Path_45082" data-name="Path 45082" d="M1176.4,416.671a6.089,6.089,0,1,0,6.108-6.071A6.108,6.108,0,0,0,1176.4,416.671Z" transform="translate(-978.454 -259.528)" fill="#ec1b62"/>
        <path id="Path_45083" data-name="Path 45083" d="M619.6,751.57a6.089,6.089,0,1,0,6.108-6.071A6.108,6.108,0,0,0,619.6,751.57Z" transform="translate(-216.791 -471.208)" fill="#ec1b62"/>
        <path id="Path_45084" data-name="Path 45084" d="M1092.6,858.673a7.892,7.892,0,1,0,7.91-7.874A7.891,7.891,0,0,0,1092.6,858.673Z" transform="translate(-867.427 -537.765)" fill="#ec1b62"/>
        <path id="Path_45085" data-name="Path 45085" d="M1348.4,903.926a4.526,4.526,0,1,0,4.526-4.526A4.522,4.522,0,0,0,1348.4,903.926Z" transform="translate(-1210.61 -568.484)" fill="#ec1b62"/>
        <path id="Path_45086" data-name="Path 45086" d="M1178.1,1556.625a4.526,4.526,0,1,0,4.526-4.526A4.57,4.57,0,0,0,1178.1,1556.625Z" transform="translate(-977.652 -981.036)" fill="#ec1b62"/>
        <path id="Path_45087" data-name="Path 45087" d="M1539.6,1597.439a6.457,6.457,0,1,0,6.476-6.439A6.454,6.454,0,0,0,1539.6,1597.439Z" transform="translate(-1476.022 -1005.624)" fill="#ec1b62"/>
        <path id="Path_45088" data-name="Path 45088" d="M1822.4,1462.139a6.457,6.457,0,1,0,6.476-6.439A6.454,6.454,0,0,0,1822.4,1462.139Z" transform="translate(-1862.872 -920.105)" fill="#ec1b62"/>
        <path id="Path_45089" data-name="Path 45089" d="M1360,1424.532a7.451,7.451,0,1,0,7.469-7.432A7.443,7.443,0,0,0,1360,1424.532Z" transform="translate(-1232.328 -895.707)" fill="#ec1b62"/>
        <path id="Path_45090" data-name="Path 45090" d="M966.6,1418.725a4.526,4.526,0,1,0,4.526-4.526A4.522,4.522,0,0,0,966.6,1418.725Z" transform="translate(-688.335 -893.874)" fill="#ec1b62"/>
        <path id="Path_45091" data-name="Path 45091" d="M1432.5,956.488a5.206,5.206,0,1,0,5.225-5.188A5.237,5.237,0,0,0,1432.5,956.488Z" transform="translate(-1327.015 -601.288)" fill="#ec1b62"/>
        <path id="Path_45092" data-name="Path 45092" d="M658.7,968.429a5.648,5.648,0,1,0,5.666-5.629A5.685,5.685,0,0,0,658.7,968.429Z" transform="translate(-269.394 -608.557)" fill="#ec1b62"/>
        <path id="Path_45093" data-name="Path 45093" d="M921.8,574.6a3.219,3.219,0,1,0,3.238-3.2A3.188,3.188,0,0,0,921.8,574.6Z" transform="translate(-624.439 -361.164)" fill="#ec1b62"/>
        <path id="Path_45094" data-name="Path 45094" d="M1021.4,515.9a3.219,3.219,0,1,0,3.238-3.2A3.235,3.235,0,0,0,1021.4,515.9Z" transform="translate(-760.685 -324.062)" fill="#ec1b62"/>
      </g>
    </g>
    <g id="_2310729" data-name="2310729" transform="translate(3682.491 3020.399)">
      <g id="OBJECTS">
        <g id="Group_39085" data-name="Group 39085">
          <path id="Path_43838" data-name="Path 43838" d="M531.375,465.03H213.491V97.5H360.5c35.187,6.387,82.905,7.351,90.376,30.607,16.147,50.129-30,77.965,0,107.97s108.331,70.855,69.65,120.743-9.761,48.8,0,63.384C528.362,431.651,537.038,448.642,531.375,465.03Z" transform="translate(-213.491 -97.5)" fill="#f1f1f1"/>
          <path id="Path_43839" data-name="Path 43839" d="M471.837,386.521a5.549,5.549,0,0,0,.362-11.086,53.562,53.562,0,0,1-15.424-4.1,67.279,67.279,0,0,1-28.92-22.654,5.519,5.519,0,0,0-8.917,6.507c21.208,29.041,51.213,31.21,52.539,31.33Z" transform="translate(-403.995 -46.466)" fill="#74818e"/>
          <path id="Path_43840" data-name="Path 43840" d="M285.094,298.146a5.549,5.549,0,0,0-11.086-.362,53.563,53.563,0,0,1-4.1,15.424,67.279,67.279,0,0,1-22.654,28.92,5.519,5.519,0,0,0,6.507,8.917c29.041-21.208,31.21-51.213,31.33-52.539Z" transform="translate(-3.36 -57.504)" fill="#74818e"/>
          <path id="Path_43841" data-name="Path 43841" d="M329.418,119.165a5.472,5.472,0,0,0,7.11,8.315,55.542,55.542,0,0,1,14.219-7.351,66.389,66.389,0,0,1,36.633-2.41,5.483,5.483,0,0,0,2.29-10.725c-35.187-7.351-58.925,11.086-59.889,11.93C329.538,118.924,329.418,119.044,329.418,119.165Z" transform="translate(-211.808 -95.908)" fill="#74818e"/>
          <path id="Path_43842" data-name="Path 43842" d="M312.022,296.229,280.33,279.6,268.4,311.051l31.451,11.086Z" transform="translate(-58.486 -60.166)" fill="#fda080"/>
          <path id="Path_43843" data-name="Path 43843" d="M319.819,295.521s-10-2.049-14.219,0-7.833,14.7-7.833,14.7L276.8,311.669,295.719,276l19.642,9.279Z" transform="translate(-76.406 -60.904)" fill="#f4907c"/>
          <path id="Path_43844" data-name="Path 43844" d="M503.1,212.072a31.9,31.9,0,0,1,16.388,41.935L465.62,376.8a31.9,31.9,0,0,1-41.935,16.388L266.792,324.26V108.2Z" transform="translate(-266.671 -95.306)" fill="#d4d2d1"/>
          <ellipse id="Ellipse_343" data-name="Ellipse 343" cx="10.725" cy="10.725" rx="10.725" ry="10.725" transform="translate(16.863 226.638) rotate(-103.232)" fill="gray" opacity="0.4"/>
          <ellipse id="Ellipse_344" data-name="Ellipse 344" cx="10.725" cy="10.725" rx="10.725" ry="10.725" transform="translate(59.189 85.386) rotate(-103.232)" fill="gray" opacity="0.4"/>
          <ellipse id="Ellipse_345" data-name="Ellipse 345" cx="10.724" cy="10.724" rx="10.724" ry="10.724" transform="matrix(-0.231, -0.973, 0.973, -0.231, 211.258, 165.986)" fill="gray" opacity="0.4"/>
          <g id="Group_39072" data-name="Group 39072" transform="translate(144.291 190.031)" opacity="0.4">
            <path id="Path_43845" data-name="Path 43845" d="M309.534,281.1l10.243,10.484,42.9,37.235,6.748-1.567-6.266,14.219a36.308,36.308,0,0,1-1.928,3.736c-5.061-1.326-11.448-3.374-14.219-5.543-4.941-3.856-27.474-35.548-27.474-35.548s-6.628-4.1-7.592-6.387c-.844-2.29-2.531-12.05-3.254-13.617A2.769,2.769,0,0,1,309.534,281.1Z" transform="translate(-308.5 -249.89)" fill="gray"/>
            <path id="Path_43846" data-name="Path 43846" d="M289.774,280.626c-2.29-.241-3.977-3.495-3.977-3.495l-3.615-1.566-.482-3.615,6.025-2.531,33.5-9.64,20.847-4.579,1.084,3.495-6.146,13.858-34.945,6.869C302.065,279.662,292.063,280.867,289.774,280.626Z" transform="translate(-249.938 -255.2)" fill="gray"/>
          </g>
          <path id="Path_43847" data-name="Path 43847" d="M390.079,256.409,387.79,278.1l-12.291,20-18.8,19.16,77.844,34.1,4.579-37.476,4.459-20,12.412-21.208L391.4,244.6a3.055,3.055,0,0,0-.482,1.446C390.682,246.528,390.079,256.409,390.079,256.409Z" transform="translate(-308.861 -67.342)" fill="gray" opacity="0.4"/>
          <g id="Group_39073" data-name="Group 39073" transform="translate(63.265 176.624)">
            <path id="Path_43848" data-name="Path 43848" d="M382.5,255.531l55.31,23.859a2.382,2.382,0,0,1,1.2,2.892l-15.786,36.512A2.382,2.382,0,0,1,420.336,320l-55.31-23.859a2.382,2.382,0,0,1-1.205-2.892l15.786-36.512A2.164,2.164,0,0,1,382.5,255.531Z" transform="translate(-363.702 -241.763)" fill="#e5e5e5"/>
            <path id="Path_43849" data-name="Path 43849" d="M381.03,258.823l43.863,18.919a1.828,1.828,0,0,1,.964,2.29l-9.52,21.931a1.829,1.829,0,0,1-2.29.964l-43.863-18.919a1.829,1.829,0,0,1-.964-2.29l9.52-21.931A1.649,1.649,0,0,1,381.03,258.823Z" transform="translate(-357.052 -241.078)" fill="#666"/>
            <path id="Path_43850" data-name="Path 43850" d="M399.085,287.723l7.471,3.254a1.816,1.816,0,0,1,.964,2.41l-2.651,6.146a1.816,1.816,0,0,1-2.41.964l-7.471-3.254a1.816,1.816,0,0,1-.964-2.41l2.651-6.146A1.816,1.816,0,0,1,399.085,287.723Z" transform="translate(-368.599 -235.153)" fill="#cbcbcb"/>
            <path id="Path_43851" data-name="Path 43851" d="M359.551,244.226,390.52,257.6l30.969,13.376a1.6,1.6,0,0,1,.482,2.651l-7.471,7.953a1.1,1.1,0,0,1-1.326.241l-27.836-12.05L357.5,257.722a1.21,1.21,0,0,1-.723-1.205l.723-10.966A1.4,1.4,0,0,1,359.551,244.226Z" transform="translate(-338.706 -244.074)" fill="#fff"/>
            <path id="Path_43852" data-name="Path 43852" d="M357.123,256.328l.723-10.966a1.873,1.873,0,0,1,1.807-.241L390.622,258.5l30.969,13.376a1.566,1.566,0,0,1,.964,1.446l-7.471,7.953a1.1,1.1,0,0,1-1.326.241l-27.836-12.05-27.836-12.05C357.364,257.292,357,256.931,357.123,256.328Z" transform="translate(-339.17 -243.885)" fill="gray"/>
            <path id="Path_43853" data-name="Path 43853" d="M360.1,256.587l.241-9.038a1.435,1.435,0,0,1,1.566-.121l28.2,12.171,28.2,12.171a1.386,1.386,0,0,1,.964,1.2l-6.387,6.266a1.054,1.054,0,0,1-1.2.121L386.249,268.4,360.823,257.43A.806.806,0,0,1,360.1,256.587Z" transform="translate(-339.496 -243.42)" fill="#a5b4c2"/>
          </g>
          <path id="Path_43854" data-name="Path 43854" d="M370,316.5l2.531-12.05s-2.41-7.592-2.169-9.158c.121-1.446,2.772-10.6,2.772-10.6s1.687-.241,2.169.723c.361.964,0,5.423,0,5.423a12.206,12.206,0,0,0,1.687-2.29c.241-.6.844-6.869,1.205-9.881A1.729,1.729,0,0,1,380,277.1h0a1.62,1.62,0,0,1,1.687,1.567l.482,3.495,3.013.6,1.446,3.254,3.133,6.748-1.928,7.592-4.459,5.784-.964,10.363Z" transform="translate(-258.656 -60.679)" fill="#eac9b8"/>
          <path id="Path_43855" data-name="Path 43855" d="M406.269,300.333l8.315-9.038s7.592-2.531,8.676-3.615c1.085-.964,6.989-8.435,6.989-8.435s-.844-1.566-1.808-1.325-4.338,3.133-4.338,3.133a10.248,10.248,0,0,1,.844-2.651,98.351,98.351,0,0,1,7.351-6.748,1.707,1.707,0,0,0,.241-2.41h0a1.689,1.689,0,0,0-2.289-.482l-3.133,1.687-2.169-2.049-3.495.723-7.23,1.326-4.941,6.025-2.169,6.989-7.833,6.869Z" transform="translate(-337.101 -62.463)" fill="#eac9b8"/>
          <rect id="Rectangle_1793" data-name="Rectangle 1793" width="54.103" height="38.8" transform="translate(196.419 245.582) rotate(-160.396)" fill="#fff"/>
          <rect id="Rectangle_1794" data-name="Rectangle 1794" width="52.657" height="35.908" transform="translate(197.298 242.876) rotate(-160.396)" fill="#c4ccd7"/>
          <rect id="Rectangle_1795" data-name="Rectangle 1795" width="54.103" height="38.8" transform="translate(199.092 242.808) rotate(-160.396)" fill="#fff"/>
          <path id="Path_43856" data-name="Path 43856" d="M335.818,259.1l-6.387,2.651s-7.23-1.567-9.64-.6-9.64,5.543-10.363,6.025a8.858,8.858,0,0,0-1.928,3.615c0,.482,1.567,2.892,3.254,3.013s9.279.361,9.279.361-1.928,1.687-2.29,2.169a2.478,2.478,0,0,0-.121,2.049c.241.241,6.146-2.29,7.833-2.892,1.687-.482,4.218-2.771,4.7-3.254s2.049-2.169,2.049-2.169l6.989-2.892Z" transform="translate(-132.772 -64.369)" fill="#fad1b1"/>
          <path id="Path_43857" data-name="Path 43857" d="M358.482,306.818l-4.459-5.3s-7.11-1.928-8.917-3.856c-1.687-1.928-1.205-4.941-1.566-5.784-.482-.844.241-6.146-.121-6.628-1.326-1.446-3.133-2.772-4.338-3.977-1.928-2.169-.6-3.133.482-2.651,1.567.6,11.809,7.592,11.809,7.592s-.964-2.41-1.084-2.892a2.176,2.176,0,0,1,.844-1.807c.361-.121,4.459,4.82,5.664,6.146a14.685,14.685,0,0,1,2.651,5.061c.241.6.723,2.892.723,2.892l4.941,5.784Z" transform="translate(-195.563 -60.392)" fill="#fad1b1"/>
          <g id="Group_39074" data-name="Group 39074" transform="translate(110.17 114.434)">
            <path id="Path_43858" data-name="Path 43858" d="M352.7,193.643l40.368,13.376a4.538,4.538,0,0,1,2.892,5.784l-8.074,24.221a4.538,4.538,0,0,1-5.784,2.892L341.735,226.54a4.538,4.538,0,0,1-2.892-5.784l8.074-24.221A4.491,4.491,0,0,1,352.7,193.643Z" transform="translate(-337.429 -192.275)" fill="#647889"/>
            <path id="Path_43859" data-name="Path 43859" d="M341.51,227.814l40.368,13.5a5.89,5.89,0,0,0,7.351-3.615l8.074-24.221a5.89,5.89,0,0,0-3.615-7.351l-40.368-13.376a5.89,5.89,0,0,0-7.351,3.615l-8.074,24.221A5.614,5.614,0,0,0,341.51,227.814Zm49.526-20a3.415,3.415,0,0,1,2.169,4.338l-8.074,24.221a3.415,3.415,0,0,1-4.338,2.169l-38.561-12.773a3.415,3.415,0,0,1-2.169-4.338l8.074-24.221a3.415,3.415,0,0,1,4.338-2.169Z" transform="translate(-337.565 -192.465)" fill="#f8fbfc"/>
            <path id="Path_43860" data-name="Path 43860" d="M342.012,219.075a1.449,1.449,0,1,0,1.808-.964A1.5,1.5,0,0,0,342.012,219.075Z" transform="translate(-290.108 -187.22)" fill="#d4d2d1"/>
          </g>
          <path id="Path_43861" data-name="Path 43861" d="M402.912,186.889,364.834,241.6l-17.111-4.338,4.82-11.448,9.881-2.892,11.689-20.967-59.648-21.69-.964-9.52,7.833-19.642Z" transform="translate(-203.723 -86.511)" fill="gray" opacity="0.4"/>
          <path id="Path_43862" data-name="Path 43862" d="M350.408,218.136l7.833-3.615a.785.785,0,0,1,1.085.241l.12.121a.932.932,0,0,1-.361,1.446l-7.953,3.495a.937.937,0,0,1-1.2-.361A1.013,1.013,0,0,1,350.408,218.136Z" transform="translate(-204.239 -73.534)" fill="#fdf5ea"/>
          <path id="Path_43863" data-name="Path 43863" d="M332.4,175.3a18.8,18.8,0,0,0,4.459,1.205c2.169.241,4.941-.964,6.748-.6,1.808.241,6.387,3.495,6.387,3.495l1.807,4.338,1.085,6.989-7.833,3.254s-2.049.964-5.3-.844-9.279-6.869-9.279-6.869l-3.977-2.049Z" transform="translate(-169.366 -81.55)" fill="#eac9b8"/>
          <path id="Path_43864" data-name="Path 43864" d="M346.71,209.059l-5.423,1.928s-2.772,3.013-3.374,3.856c-.482.844,0,3.374,0,3.374s-1.928,1.928-1.808,3.615c.121,1.808,2.892,4.218,6.507,4.218,3.495.121,7.23.482,8.074,0s4.82-8.435,4.82-8.435l5.664-7.712L350.2,204.6Z" transform="translate(-189.214 -75.543)" fill="#eac9b8"/>
          <path id="Path_43866" data-name="Path 43866" d="M326.3,313.21s1.807-18.437-2.41-24.1c-4.218-5.784-26.751-45.429-28.679-47S253.281,262.6,253.281,262.6s4.459,10.484,4.941,10.725,30.125-10.6,30.125-10.6l5.182,16.629-7.712-3.013L278.947,292s8.194,5.182,22.052,11.93A120.914,120.914,0,0,0,326.3,313.21Z" transform="translate(-54.935 -67.868)" fill="#80c1d8"/>
          <path id="Path_43867" data-name="Path 43867" d="M362.92,332.643c.241.482-19.883,15.3-27.715,12.653-7.712-2.651-37.958-10.122-42.055-13.135-4.1-2.892-26.751-29.764-26.751-29.764l7.23-8.8,23.859,21.57L314,320.231l7.833-17.714C321.709,302.638,355.208,312.639,362.92,332.643Z" transform="translate(-106.974 -57.296)" fill="#80c1d8"/>
          <path id="Path_43868" data-name="Path 43868" d="M483.663,311.172l-17.834-2.41L459.081,333.1l-45.55-20,15.786-15.665L418.472,284.3l-35.066,28.8s-10.243,30.246-10,33.62,12.412,28.8,30.848,37.356,43.381-2.531,46.755-3.254,23.016-25.787,23.377-26.631C474.867,353.348,483.663,311.172,483.663,311.172Z" transform="translate(-356.654 -59.203)" fill="#f39475"/>
          <g id="Group_39077" data-name="Group 39077" transform="translate(108.583 21.451)">
            <path id="Path_43869" data-name="Path 43869" d="M308.109,175.792c2.289-12.05,3.254-39.163,5.543-43.019,3.013-5.061,9.761-12.05,20.606-16.268,0,0,46.032-3.977,56.636,2.531s14.34,63.5,14.34,66.155-35.428,47.719-35.428,47.719l-11.207-8.8,22.775-37.356-50.611-22.172-.964,6.266,35.307,16.268-6.989,12.532-45.188-15.665A7.3,7.3,0,0,1,308.109,175.792Z" transform="translate(-308 -115.302)" fill="#e74a5f"/>
            <path id="Path_43870" data-name="Path 43870" d="M308.3,216.558l4.338.964L348.909,173.9l-35.187,46.875Z" transform="translate(-252.037 -103.288)" fill="#c9364f"/>
            <path id="Path_43871" data-name="Path 43871" d="M345.1,167.4a14.17,14.17,0,0,0,5.423,4.338c3.374,1.2,42.417,13.255,42.417,13.255l4.579-.6-2.531,4.459L349.8,173.184A7.087,7.087,0,0,1,345.1,167.4Z" transform="translate(-344.991 -104.621)" fill="#c9364f"/>
            <path id="Path_43872" data-name="Path 43872" d="M378.39,183.767l-7.23-53.5s-20.847-2.169-26.631,0-14.46,6.025-14.46,6.025L327.9,161.594Z" transform="translate(-305.136 -112.432)" fill="#c9364f"/>
            <path id="Path_43873" data-name="Path 43873" d="M338.586,121.6s-10.966,13.5-11.207,26.751-4.579,7.712-4.579,7.712l2.289-24.221C325.21,131.843,330.874,124.01,338.586,121.6Z" transform="translate(-259.186 -114.011)" fill="#c9364f"/>
            <path id="Path_43874" data-name="Path 43874" d="M366.872,143.288s2.41-14.219-4.459-21.088a22.157,22.157,0,0,1,11.327,13.737C376.391,145.818,366.872,143.288,366.872,143.288Z" transform="translate(-342.542 -113.887)" fill="#c9364f"/>
          </g>
          <g id="Group_39078" data-name="Group 39078" transform="translate(131.036 6.953)">
            <path id="Path_43875" data-name="Path 43875" d="M333.608,132.712c-.361-.121.241,9.761.241,9.761l3.254,5.061s7.471,5.3,8.917,6.025c1.446.6,9.64.723,9.64.723s2.41,1.205,3.615.6c1.2-.482,2.41-4.579,2.41-4.579s4.579-2.41,4.338-11.809c-.121-9.4-12.05-13.5-12.05-13.5Z" transform="translate(-321.969 -98.815)" fill="#eac9b8"/>
            <path id="Path_43876" data-name="Path 43876" d="M332.189,116.949s2.772-1.085,4.338.964c1.567,2.169-1.084,6.025-1.084,6.025Z" transform="translate(-291.389 -100.525)" fill="#eac9b8"/>
            <path id="Path_43877" data-name="Path 43877" d="M364.537,131.8s-2.049.6-2.049,2.29,3.977,6.025,6.748,5.664S364.537,131.8,364.537,131.8Z" transform="translate(-360.731 -97.421)" fill="#eac9b8"/>
            <path id="Path_43878" data-name="Path 43878" d="M377.589,139.939s1.567-16.991-3.977-25.064-11.568-9.52-11.568-9.52a15.829,15.829,0,0,0-13.014-1.205c-7.23,2.531-13.5,9.279-15.906,16.388s1.085,17.352,4.941,22.413a53.469,53.469,0,0,0,9.279,8.917s-2.29-6.628.362-6.989c0,0,10.484,7.953,17.473,7.471s8.315-1.808,8.315-1.808-8.556-2.049-12.171-5.061c0,0,10,3.013,14.581,2.892l-3.374-4.218,2.29,1.085A6.849,6.849,0,0,0,377.589,139.939Z" transform="translate(-332.33 -103.27)" fill="#393f4b"/>
          </g>
          <path id="Path_43879" data-name="Path 43879" d="M242.872,315.484s-.964,3.736.723,6.507c1.687,2.651,4.941,3.254,6.989,6.146,2.169,3.013,6.387,8.8,12.291,9.038,5.9.12,10.363-6.025,13.737-7.351,3.495-1.326,12.291,1.2,15.063-4.338s-3.736-14.822.482-19.521c4.338-4.7,3.615-10.484,1.205-13.135-3.977-4.459-9.158-4.82-15.183-1.446-6.025,3.495-9.52.844-12.291,0-2.772-.964-7.471-1.205-9.158-.482-1.807.723-3.012,3.856-3.012,3.856Z" transform="translate(-10.665 -58.213)" fill="#11114e"/>
          <path id="Path_43880" data-name="Path 43880" d="M283.669,270.4l7.712,3.013,4.7,11.93s-7.471-1.085-9.158,0c-.844.482-2.29,2.531-3.615,4.579-4.218-2.41-6.507-3.736-6.507-3.736Z" transform="translate(-52.667 -62.053)" fill="#63adc1"/>
          <path id="Path_43881" data-name="Path 43881" d="M300.733,301.1s2.049.6,5.3,1.808c-1.446,3.254-3.495,8.676-3.013,11.93.723,4.82,6.989,8.556,6.989,8.556L292.9,318.934Z" transform="translate(-85.999 -55.759)" fill="#63adc1"/>
          <path id="Path_43882" data-name="Path 43882" d="M439.29,345.35s3.013-8.315-.12-13.135c-3.615-5.664-13.5-9.4-19.883-6.989-9.279,3.495-8.556,6.507-8.556,6.507Z" transform="translate(-358.554 -50.965)" fill="#fad1b1"/>
          <path id="Path_43883" data-name="Path 43883" d="M420.049,332.2s6.628-7.23,16.629-5.664c9.881,1.567,12.171,3.615,12.171,3.615l-2.531-.121,4.579,3.495s5.423,8.917,5.3,15.183a18.922,18.922,0,0,1-3.133,10.363s-1.205,6.146-4.1,8.8-10,5.423-15.3,4.941a28.782,28.782,0,0,1-10-3.374,12.887,12.887,0,0,1-11.086-12.773s-3.254-3.977-3.374-6.387,1.687-8.315,1.687-8.315S413.06,332.563,420.049,332.2Z" transform="translate(-372.331 -50.589)" fill="#6f251e"/>
          <path id="Path_43884" data-name="Path 43884" d="M457.907,328.224l-2.772,11.327-7.592,9.038s-2.049-12.653-11.93-20.847-27.113-6.146-29.643-6.025S393.8,333.164,393.8,333.164l5.3-14.1L412.357,308.1Z" transform="translate(-355.48 -54.323)" fill="#e28166"/>
          <path id="Path_43885" data-name="Path 43885" d="M401.2,342.3s18.678,23.98,35.91,28.8c15.063,4.218,33.379-.6,37.717-1.807-5.664,1.928-28.559,11.086-45.791,3.013C415.9,366.039,405.9,351.338,401.2,342.3Z" transform="translate(-381.317 -47.312)" fill="#e28166"/>
          <path id="Path_43886" data-name="Path 43886" d="M345.967,216.5l8.8-3.977a.835.835,0,0,1,1.205.361l.12.121a1.053,1.053,0,0,1-.361,1.567l-8.8,3.856a1.084,1.084,0,0,1-.964-1.928Z" transform="translate(-195.581 -73.944)" fill="#fdf5ea"/>
          <rect id="Rectangle_1796" data-name="Rectangle 1796" width="54.105" height="38.802" transform="translate(35.548 131.467)" fill="#fff"/>
          <rect id="Rectangle_1797" data-name="Rectangle 1797" width="52.659" height="35.91" transform="translate(36.994 131.467)" fill="#c4ccd7"/>
          <rect id="Rectangle_1798" data-name="Rectangle 1798" width="54.105" height="38.802" transform="translate(37.235 127.973)" fill="#fff"/>
          <rect id="Rectangle_1799" data-name="Rectangle 1799" width="54.105" height="38.801" transform="matrix(-0.988, -0.153, 0.153, -0.988, 79.498, 134.728)" fill="#fff"/>
          <rect id="Rectangle_1800" data-name="Rectangle 1800" width="52.659" height="35.909" transform="matrix(-0.988, -0.153, 0.153, -0.988, 79.969, 131.875)" fill="#c4ccd7"/>
          <rect id="Rectangle_1801" data-name="Rectangle 1801" width="54.105" height="38.801" transform="matrix(-0.988, -0.153, 0.153, -0.988, 81.662, 131.605)" fill="#fff"/>
          <g id="Group_39080" data-name="Group 39080" transform="translate(204.409 135.4)">
            <path id="Path_43887" data-name="Path 43887" d="M294.229,229.284a1.689,1.689,0,0,1-2.289.482l-5.543-3.495,1.687-2.772,5.543,3.495A1.617,1.617,0,0,1,294.229,229.284Z" transform="translate(-267.033 -207.068)" fill="#f16a44"/>
            <circle id="Ellipse_346" data-name="Ellipse 346" cx="10.002" cy="10.002" r="10.002" transform="translate(14.144 28.289) rotate(-135)" fill="#f16a44"/>
            <path id="Path_43888" data-name="Path 43888" d="M307.032,221.553a8.148,8.148,0,0,0-.844-2.772,10.334,10.334,0,0,0-1.567-2.41,9.005,9.005,0,0,0-5.061-2.651c-.241,0-.482-.121-.723-.121h-1.446a1.528,1.528,0,0,0-.723.121,7.416,7.416,0,0,0-2.772.843,10.338,10.338,0,0,0-2.41,1.567,7.5,7.5,0,0,0-1.687,2.29,9.864,9.864,0,0,1,4.218-3.495,9.31,9.31,0,0,1,10.243,1.928A8.945,8.945,0,0,1,307.032,221.553Z" transform="translate(-283.692 -209.098)" fill="#f8fbfc"/>
            <ellipse id="Ellipse_347" data-name="Ellipse 347" cx="8.074" cy="8.074" rx="8.074" ry="8.074" transform="translate(6.108 6.069)" fill="#93603d"/>
            <path id="Path_43889" data-name="Path 43889" d="M306.665,224.689A8.026,8.026,0,0,1,291,223.484a8.026,8.026,0,0,1,15.665,1.205Z" transform="translate(-284.772 -208.257)" fill="#a4704c"/>
            <g id="Group_39079" data-name="Group 39079" transform="translate(7.313 8.787)" opacity="0.5">
              <path id="Path_43890" data-name="Path 43890" d="M297.805,218.609s.121-.121.121,0c0,0,.12.12,0,.12a6.387,6.387,0,0,0,5.423,9.761,2.349,2.349,0,0,0,.964-.12c.121,0,.121,0,.121.12s0,.121-.121.121c-.362,0-.723.121-1.085.121A6.686,6.686,0,0,1,296.6,222.1,12.022,12.022,0,0,1,297.805,218.609Z" transform="translate(-296.6 -216.869)" fill="#f8fbfc"/>
              <path id="Path_43891" data-name="Path 43891" d="M291.954,217.33s-.121-.121,0-.121c0,0,.12-.121.12,0a6.732,6.732,0,0,1,2.772,5.423,6.614,6.614,0,0,1-1.687,4.459h-.241v-.241a6.24,6.24,0,0,0,1.687-4.218A6.4,6.4,0,0,0,291.954,217.33Z" transform="translate(-281.349 -217.156)" fill="#f8fbfc"/>
              <path id="Path_43892" data-name="Path 43892" d="M294.523,218.141h-.6c-.121,0-.121,0-.121-.12s0-.121.121-.121h.6a4.32,4.32,0,0,1,4.338,4.338v.6a.118.118,0,0,1-.121.12h0a.118.118,0,0,1-.121-.12v-.6A4.14,4.14,0,0,0,294.523,218.141Z" transform="translate(-287.654 -217.003)" fill="#f8fbfc"/>
              <path id="Path_43893" data-name="Path 43893" d="M294.7,224.041V223.8h.241a4.107,4.107,0,0,0,3.013,1.326,3.916,3.916,0,0,0,3.013-1.326h.241v.241a4.777,4.777,0,0,1-3.254,1.446A4.3,4.3,0,0,1,294.7,224.041Z" transform="translate(-291.085 -215.793)" fill="#f8fbfc"/>
              <path id="Path_43894" data-name="Path 43894" d="M301.456,218.521a4.137,4.137,0,0,0-2.29,3.736v.361c0,.121,0,.121-.121.121h0c-.12,0-.12,0-.12-.121v-.361a4.293,4.293,0,0,1,2.41-3.856h.12C301.576,218.4,301.576,218.521,301.456,218.521Z" transform="translate(-296.515 -216.9)" fill="#f8fbfc"/>
              <path id="Path_43895" data-name="Path 43895" d="M300.248,224.708a3.245,3.245,0,0,1-2.892-1.687V222.9h.121a3.14,3.14,0,0,0,2.651,1.567c.12,0,.12,0,.12.121C300.368,224.587,300.248,224.708,300.248,224.708Z" transform="translate(-293.379 -215.978)" fill="#f8fbfc"/>
              <path id="Path_43896" data-name="Path 43896" d="M295.341,219.905H295.1v-.241a3.364,3.364,0,0,1,2.41-.964,3.245,3.245,0,0,1,2.892,1.687v.121h-.121a.118.118,0,0,1-.121-.121,3.187,3.187,0,0,0-2.772-1.567A5.649,5.649,0,0,0,295.341,219.905Z" transform="translate(-290.762 -216.839)" fill="#f8fbfc"/>
            </g>
          </g>
          <g id="Group_39082" data-name="Group 39082" transform="translate(55.933 57.783)">
            <path id="Path_43897" data-name="Path 43897" d="M426.342,146.277a1.676,1.676,0,0,1,2.29,0l4.7,4.7-2.29,2.29-4.7-4.7A1.478,1.478,0,0,1,426.342,146.277Z" transform="translate(-425.398 -145.375)" fill="#f16a44"/>
            <circle id="Ellipse_348" data-name="Ellipse 348" cx="10.002" cy="10.002" r="10.002" transform="matrix(-0.231, -0.973, 0.973, -0.231, 4.613, 24.078)" fill="#f16a44"/>
            <path id="Path_43898" data-name="Path 43898" d="M432.032,155.453a8.148,8.148,0,0,0-.844-2.772,10.335,10.335,0,0,0-1.567-2.41,9.005,9.005,0,0,0-5.061-2.651c-.241,0-.482-.121-.723-.121h-1.446a1.528,1.528,0,0,0-.723.121,7.416,7.416,0,0,0-2.772.843,10.336,10.336,0,0,0-2.41,1.567,7.5,7.5,0,0,0-1.687,2.29,9.864,9.864,0,0,1,4.218-3.495,9.31,9.31,0,0,1,10.243,1.928A9.8,9.8,0,0,1,432.032,155.453Z" transform="translate(-410.844 -145.032)" fill="#f8fbfc"/>
            <ellipse id="Ellipse_349" data-name="Ellipse 349" cx="8.074" cy="8.074" rx="8.074" ry="8.074" transform="translate(3.957 3.914)" fill="#93603d"/>
            <path id="Path_43899" data-name="Path 43899" d="M431.665,158.489A8.026,8.026,0,0,1,416,157.284a8.025,8.025,0,0,1,7.712-5.784A8.368,8.368,0,0,1,431.665,158.489Z" transform="translate(-411.923 -144.212)" fill="#a4704c"/>
            <g id="Group_39081" data-name="Group 39081" transform="translate(5.162 6.632)" opacity="0.5">
              <path id="Path_43900" data-name="Path 43900" d="M422.805,152.509s.121-.121.121,0c0,0,.121.12,0,.12a6.387,6.387,0,0,0,5.423,9.761,2.349,2.349,0,0,0,.964-.121c.121,0,.121,0,.121.121s0,.121-.121.121c-.361,0-.723.121-1.085.121A6.686,6.686,0,0,1,421.6,156,12.024,12.024,0,0,1,422.805,152.509Z" transform="translate(-421.6 -150.648)" fill="#f8fbfc"/>
              <path id="Path_43901" data-name="Path 43901" d="M416.954,151.13s-.121-.121,0-.121c0,0,.121-.121.121,0a6.732,6.732,0,0,1,2.772,5.423,6.614,6.614,0,0,1-1.687,4.459h-.241v-.241a6.24,6.24,0,0,0,1.687-4.218A6.4,6.4,0,0,0,416.954,151.13Z" transform="translate(-406.349 -150.956)" fill="#f8fbfc"/>
              <path id="Path_43902" data-name="Path 43902" d="M419.523,152.041h-.6c-.121,0-.121,0-.121-.121s0-.12.121-.12h.6a4.32,4.32,0,0,1,4.338,4.338v.6a.118.118,0,0,1-.121.121h0a.118.118,0,0,1-.121-.121v-.6A4.14,4.14,0,0,0,419.523,152.041Z" transform="translate(-412.654 -150.782)" fill="#f8fbfc"/>
              <path id="Path_43903" data-name="Path 43903" d="M419.7,157.941V157.7h.241a4.107,4.107,0,0,0,3.013,1.326,3.917,3.917,0,0,0,3.013-1.326h.241v.241a4.777,4.777,0,0,1-3.254,1.446A4.3,4.3,0,0,1,419.7,157.941Z" transform="translate(-416.085 -149.573)" fill="#f8fbfc"/>
              <path id="Path_43904" data-name="Path 43904" d="M426.456,152.42a4.137,4.137,0,0,0-2.29,3.736v.362c0,.12,0,.12-.121.12h0c-.121,0-.121,0-.121-.12v-.362a4.293,4.293,0,0,1,2.41-3.856h.121C426.576,152.3,426.576,152.42,426.456,152.42Z" transform="translate(-421.515 -150.68)" fill="#f8fbfc"/>
              <path id="Path_43905" data-name="Path 43905" d="M425.248,158.608a3.245,3.245,0,0,1-2.892-1.687v-.12h.121a3.141,3.141,0,0,0,2.651,1.567c.12,0,.12,0,.12.12C425.368,158.487,425.248,158.608,425.248,158.608Z" transform="translate(-418.379 -149.757)" fill="#f8fbfc"/>
              <path id="Path_43906" data-name="Path 43906" d="M420.341,153.805H420.1v-.241a3.365,3.365,0,0,1,2.41-.964,3.245,3.245,0,0,1,2.892,1.687v.121h-.121a.118.118,0,0,1-.121-.121,3.187,3.187,0,0,0-2.772-1.567A4.262,4.262,0,0,0,420.341,153.805Z" transform="translate(-415.762 -150.618)" fill="#f8fbfc"/>
            </g>
          </g>
          <g id="Group_39084" data-name="Group 39084" transform="translate(13.644 197.162)">
            <path id="Path_43907" data-name="Path 43907" d="M460.233,283.833a1.689,1.689,0,0,1-.482-2.289L463.245,276l2.772,1.687-3.495,5.543A1.642,1.642,0,0,1,460.233,283.833Z" transform="translate(-456.404 -258.066)" fill="#f16a44"/>
            <circle id="Ellipse_350" data-name="Ellipse 350" cx="10.002" cy="10.002" r="10.002" transform="matrix(-0.231, -0.973, 0.973, -0.231, 4.613, 24.078)" fill="#f16a44"/>
            <path id="Path_43908" data-name="Path 43908" d="M467.132,271.153a8.148,8.148,0,0,0-.844-2.772,10.337,10.337,0,0,0-1.567-2.41,9.005,9.005,0,0,0-5.061-2.651c-.241,0-.482-.121-.723-.121h-1.446a1.528,1.528,0,0,0-.723.121,7.415,7.415,0,0,0-2.771.844,10.335,10.335,0,0,0-2.41,1.567,7.5,7.5,0,0,0-1.687,2.29,9.865,9.865,0,0,1,4.218-3.495,9.31,9.31,0,0,1,10.243,1.928A7.868,7.868,0,0,1,467.132,271.153Z" transform="translate(-445.95 -260.69)" fill="#f8fbfc"/>
            <ellipse id="Ellipse_351" data-name="Ellipse 351" cx="8.074" cy="8.074" rx="8.074" ry="8.074" transform="translate(3.949 3.956)" fill="#93603d"/>
            <path id="Path_43909" data-name="Path 43909" d="M466.765,274.189a8.026,8.026,0,0,1-15.665-1.2,8.025,8.025,0,0,1,7.712-5.784A8.168,8.168,0,0,1,466.765,274.189Z" transform="translate(-447.03 -259.87)" fill="#a4704c"/>
            <g id="Group_39083" data-name="Group 39083" transform="translate(5.154 6.674)" opacity="0.5">
              <path id="Path_43910" data-name="Path 43910" d="M457.905,268.209s.121-.121.121,0c0,0,.121.121,0,.121a6.387,6.387,0,0,0,5.423,9.761,2.349,2.349,0,0,0,.964-.121c.121,0,.121,0,.121.121s0,.121-.121.121c-.362,0-.723.121-1.085.121A6.686,6.686,0,0,1,456.7,271.7,12.026,12.026,0,0,1,457.905,268.209Z" transform="translate(-456.7 -266.348)" fill="#f8fbfc"/>
              <path id="Path_43911" data-name="Path 43911" d="M452.054,266.83s-.121-.121,0-.121c0,0,.121-.121.121,0a6.732,6.732,0,0,1,2.771,5.423,6.614,6.614,0,0,1-1.687,4.459h-.241v-.241a6.24,6.24,0,0,0,1.687-4.218A6.4,6.4,0,0,0,452.054,266.83Z" transform="translate(-441.449 -266.656)" fill="#f8fbfc"/>
              <path id="Path_43912" data-name="Path 43912" d="M454.623,267.741h-.6c-.121,0-.121,0-.121-.121s0-.121.121-.121h.6a4.32,4.32,0,0,1,4.338,4.338v.6a.118.118,0,0,1-.121.121h0a.118.118,0,0,1-.121-.121v-.6A4.063,4.063,0,0,0,454.623,267.741Z" transform="translate(-447.754 -266.482)" fill="#f8fbfc"/>
              <path id="Path_43913" data-name="Path 43913" d="M454.8,273.641V273.4h.241a4.107,4.107,0,0,0,3.013,1.326,3.917,3.917,0,0,0,3.013-1.326h.241v.241a4.383,4.383,0,0,1-6.507,0Z" transform="translate(-451.185 -265.273)" fill="#f8fbfc"/>
              <path id="Path_43914" data-name="Path 43914" d="M461.531,268.121a4.137,4.137,0,0,0-2.29,3.736v.361c0,.121,0,.121-.121.121h0c-.121,0-.121,0-.121-.121v-.361A4.293,4.293,0,0,1,461.41,268h.121Z" transform="translate(-456.469 -266.38)" fill="#f8fbfc"/>
              <path id="Path_43915" data-name="Path 43915" d="M460.317,274.308a3.245,3.245,0,0,1-2.892-1.687V272.5h.121a3.141,3.141,0,0,0,2.651,1.567c.121,0,.121,0,.121.121C460.438,274.187,460.438,274.308,460.317,274.308Z" transform="translate(-453.448 -265.457)" fill="#f8fbfc"/>
              <path id="Path_43916" data-name="Path 43916" d="M455.341,269.505H455.1v-.241a3.365,3.365,0,0,1,2.41-.964,3.245,3.245,0,0,1,2.892,1.687v.121h-.121a.118.118,0,0,1-.121-.121,3.187,3.187,0,0,0-2.772-1.567A3.8,3.8,0,0,0,455.341,269.505Z" transform="translate(-450.641 -266.318)" fill="#f8fbfc"/>
            </g>
          </g>
          <path id="Path_43917" data-name="Path 43917" d="M273.385,302.863c.241-.482,1.567-.723,2.892-.844,4.941-9.158,17.473-9.52,17.473-9.52s.964,3.977-4.338,10.484-5.3,19.4-5.3,19.4a23.38,23.38,0,0,1-5.664-4.579c-2.41-2.651-4.7-6.507-3.736-11.568C273.988,304.912,273.144,303.345,273.385,302.863Z" transform="translate(-46.239 -57.522)" fill="#fad1b1"/>
          <path id="Path_43918" data-name="Path 43918" d="M372.691,309.153l1.2-4.459a2.39,2.39,0,0,1,2.651-1.687l15.665,2.049a2.408,2.408,0,0,1,2.049,2.892l-1.205,4.82a2.4,2.4,0,0,1-2.651,1.808l-15.786-2.41A2.3,2.3,0,0,1,372.691,309.153Z" transform="translate(-266.288 -55.376)" fill="#f9e1df"/>
          <path id="Path_43919" data-name="Path 43919" d="M432.429,295.8l-3.615,2.892a2.381,2.381,0,0,1-3.133-.121l-11.568-10.725a2.284,2.284,0,0,1,.121-3.495l3.856-3.254a2.412,2.412,0,0,1,3.254.12L432.671,292.3A2.378,2.378,0,0,1,432.429,295.8Z" transform="translate(-354.465 -59.977)" fill="#f9e1df"/>
        </g>
      </g>
    </g>
  </g>
</svg>
