<svg xmlns="http://www.w3.org/2000/svg" width="31.945" height="32.001" viewBox="0 0 31.945 32.001">
  <g id="google" transform="translate(-0.447)">
    <path id="Path_48767" data-name="Path 48767" d="M240.293,193.526v13.6l-4.275-.791-1.885-2.261-7.942-8.829,6.742-4.791c3.377,4.458,3.484,3.371,3.484,3.371a2.345,2.345,0,0,1,3.809-.35Z" transform="translate(-211.634 -178.554)" fill="#ccc"/>
    <path id="Path_48768" data-name="Path 48768" d="M53.485,223.1,67.5,241.149c-.082.008-.164.012-.248.012H44.336Z" transform="translate(-41.146 -209.16)" fill="#518ef8"/>
    <path id="Path_48769" data-name="Path 48769" d="M21.3,68.751.447,86.3V63.184a2.547,2.547,0,0,1,2.547-2.547H18.2c-.653,1.122,1.768,1.843,1.768,3.235A12.148,12.148,0,0,0,21.3,68.751Z" transform="translate(0 -56.847)" fill="#28b446"/>
    <path id="Path_48770" data-name="Path 48770" d="M241.345,291.564v.878a2.547,2.547,0,0,1-2.3,2.535L227.313,283.4l2.84-2.878,6.554,6.467.362.358Z" transform="translate(-212.686 -262.988)" fill="#f2f2f2"/>
    <path id="Path_48771" data-name="Path 48771" d="M20.577,186.121l-3.11,3.152-2.84,2.878L3.19,203.741h-.2a2.548,2.548,0,0,1-2.547-2.547l17.767-18c.333.57,2.621-.007,3.086.454l.854,1.1C22.571,185.187,20.219,185.649,20.577,186.121Z" transform="translate(0 -171.74)" fill="#ffd837"/>
    <path id="Path_48772" data-name="Path 48772" d="M46.024,106.015a4.059,4.059,0,1,1,2.869-6.928l-.941.941a2.727,2.727,0,1,0,.718,2.594H46.024V101.29h4.059v.665A4.063,4.063,0,0,1,46.024,106.015Z" transform="translate(-38.923 -91.778)" fill="#fff"/>
    <path id="Path_48773" data-name="Path 48773" d="M269.091,3.79A7.611,7.611,0,1,1,281.042,13a17.383,17.383,0,0,0-1.559,1.923,24.7,24.7,0,0,0-3.809,9.293,24.459,24.459,0,0,0-4.206-9.837A17.358,17.358,0,0,0,270.306,13h0a7.612,7.612,0,0,1-1.215-9.212Z" transform="translate(-250.891)" fill="#f14336"/>
    <g id="Route-pin-locations" transform="translate(20.757 3.559)">
      <ellipse id="Ellipse_440" data-name="Ellipse 440" cy="1.5" ry="1.5" transform="translate(4.69 0.567)" fill="#7e2d25"/>
      <ellipse id="Ellipse_441" data-name="Ellipse 441" cx="1" cy="0.5" rx="1" ry="0.5" transform="translate(0.69 3.567)" fill="#7e2d25"/>
      <circle id="Ellipse_442" data-name="Ellipse 442" transform="translate(4.69 4.567)" fill="#7e2d25"/>
      <path id="Path_48777" data-name="Path 48777" d="M22.05,17.1A4.05,4.05,0,1,0,18,13.05a4.05,4.05,0,0,0,4.05,4.05Zm-2.314-5.5a1.15,1.15,0,0,1,.868.4l1.473-.736a1.175,1.175,0,1,1,.263.515l-1.473.736a1.11,1.11,0,0,1-.05.645l1.064.746a1.169,1.169,0,1,1-.333.473l-1.064-.746a1.155,1.155,0,1,1-.747-2.033Z" transform="translate(-18 -9)" fill="#7e2d25"/>
    </g>
  </g>
</svg>
