<svg xmlns="http://www.w3.org/2000/svg" width="599.673" height="282.378" viewBox="0 0 599.673 282.378">
  <g id="offer6" transform="translate(0 -1071.052)">
    <g id="_06" data-name="06">
      <path id="Path_48852" data-name="Path 48852" d="M158.976,344h-18.04a33.871,33.871,0,0,0-23.531,9.8,33.278,33.278,0,0,0,23.531,56.867h18.04Z" transform="translate(-107.6 804.312)" fill="#1c9dbc"/>
      <path id="Path_48853" data-name="Path 48853" d="M158.976,344h-18.04a33.871,33.871,0,0,0-23.531,9.8,33.278,33.278,0,0,0,23.531,56.867h18.04Z" transform="translate(-107.6 804.312)" fill="#cecece"/>
      <path id="Path_48854" data-name="Path 48854" d="M685.353,492.575c-.784-22.747-20-40.395-43.14-40-15.3.392-27.845,9.02-34.9,21.178a23.125,23.125,0,0,1-19.217,11.766l-36.865,1.176A22.778,22.778,0,0,1,527.7,464.73l-3.138-101.183c-.784-21.57-19.217-38.434-40.787-38.042L153.553,336.486c-21.962.784-39.218,18.825-38.434,40.395l6.275,188.248c.784,21.57,18.825,38.434,40.787,38.042L492.4,592.189c21.962-.784,39.218-18.825,38.434-40.395l-.784-21.178a22.435,22.435,0,0,1,21.962-23.139l36.865-1.177a22.659,22.659,0,0,1,20,10.589,42.141,42.141,0,0,0,36.473,18.825C668.1,534.539,686.138,515.322,685.353,492.575Z" transform="translate(-85.705 750.253)" fill="#cecece"/>
      <path id="Path_48855" data-name="Path 48855" d="M678.03,497.645a41.167,41.167,0,0,0-76.476-21.178,22.251,22.251,0,0,1-19.609,10.981H545.472A22.763,22.763,0,0,1,522.725,464.7V363.518A39.334,39.334,0,0,0,483.507,324.3H156.818A39.334,39.334,0,0,0,117.6,363.518V551.766a39.334,39.334,0,0,0,39.218,39.218H483.9a39.334,39.334,0,0,0,39.218-39.218V530.588a22.763,22.763,0,0,1,22.747-22.747h36.473a22.726,22.726,0,0,1,19.609,10.981c7.451,11.766,20.393,20,35.3,20C659.6,538.824,678.03,520.391,678.03,497.645Z" transform="translate(-78.382 746.752)" fill="#fdfdfd"/>
      <circle id="Ellipse_449" data-name="Ellipse 449" cx="33.336" cy="33.336" r="33.336" transform="translate(525.133 1211.061)" fill="#6bc6b3"/>
      <path id="Path_48856" data-name="Path 48856" d="M107.992,424.985a33.169,33.169,0,0,1,32.943-29.414H538.217a33.308,33.308,0,0,0,33.336-33.336,13.339,13.339,0,0,0-.392-3.922A33.434,33.434,0,0,0,538.217,328.9H140.936a33.871,33.871,0,0,0-23.531,9.8,33.16,33.16,0,0,0-9.8,23.531v58.435Z" transform="translate(-107.6 760.192)" fill="#cecece"/>
      <path id="Path_48857" data-name="Path 48857" d="M571.553,360.049a33.308,33.308,0,0,1-33.336,33.336H140.936a33.871,33.871,0,0,0-23.531,9.8,33.16,33.16,0,0,0-9.8,23.531V360.441a33.872,33.872,0,0,1,9.8-23.531,33.16,33.16,0,0,1,23.531-9.8H538.609C556.65,326.713,571.553,341.616,571.553,360.049Z" transform="translate(-107.6 754.927)" fill="#6bc6b3"/>
    </g>
    <text id="_06-2" data-name="06" transform="translate(545.272 1254.619)" fill="#fdfdfd" font-size="24" font-family="SegoeUI, Segoe UI"><tspan x="0" y="0">06</tspan></text>
  </g>
</svg>
