<svg xmlns="http://www.w3.org/2000/svg" width="1117.329" height="1353.43" viewBox="0 0 1117.329 1353.43">
  <g id="_2841807" data-name="2841807" transform="translate(-107.6 -229.643)">
    <g id="OBJECTS" transform="translate(107.6 51.2)">
      <g id="Group_40507" data-name="Group 40507">
        <path id="Path_48815" data-name="Path 48815" d="M264.372,1197.645c0,3.588-3.53,6.278-8.236,6.278h0c-4.706,0-8.236-2.69-8.236-6.278V72.478c0-3.587,3.53-6.277,8.236-6.277h0c4.706,0,8.236,2.69,8.236,6.277Z" transform="translate(302.333 252.253)" fill="#cecece"/>
        <path id="Path_48822" data-name="Path 48822" d="M379.3,116.4h18.04a33.871,33.871,0,0,1,23.531,9.8,33.278,33.278,0,0,1-23.531,56.867H379.3Z" transform="translate(686.261 139.303)" fill="#f79530"/>
        <path id="Path_48823" data-name="Path 48823" d="M379.3,116.4h18.04a33.871,33.871,0,0,1,23.531,9.8,33.278,33.278,0,0,1-23.531,56.867H379.3Z" transform="translate(686.261 139.303)" fill="#cecece"/>
        <path id="Path_48824" data-name="Path 48824" d="M239.518,264.975c.784-22.747,20-40.395,43.14-40,15.3.392,27.845,9.02,34.9,21.178a23.125,23.125,0,0,0,19.217,11.765l36.865,1.177a22.778,22.778,0,0,0,23.531-21.962l3.137-101.183C401.1,114.377,419.53,97.513,441.1,97.9l330.218,10.981c21.962.784,39.218,18.825,38.434,40.395l-6.275,188.248c-.784,21.57-18.825,38.434-40.787,38.042L432.472,364.589c-21.962-.784-39.218-18.825-38.434-40.395l.784-21.178a22.435,22.435,0,0,0-21.962-23.139L336,278.7a22.659,22.659,0,0,0-20,10.589,42.141,42.141,0,0,1-36.473,18.825C256.774,306.939,238.734,287.722,239.518,264.975Z" transform="translate(277.771 85.244)" fill="#cecece"/>
        <path id="Path_48825" data-name="Path 48825" d="M239.5,270.045a41.167,41.167,0,0,1,76.476-21.178,22.251,22.251,0,0,0,19.609,10.981h36.473A22.763,22.763,0,0,0,394.8,237.1V135.918A39.334,39.334,0,0,1,434.023,96.7H760.711a39.334,39.334,0,0,1,39.218,39.218V324.166a39.334,39.334,0,0,1-39.218,39.218H433.631a39.334,39.334,0,0,1-39.218-39.218V302.988a22.763,22.763,0,0,0-22.747-22.747H335.193a22.726,22.726,0,0,0-19.609,10.981c-7.452,11.765-20.394,20-35.3,20C257.933,311.224,239.5,292.791,239.5,270.045Z" transform="translate(277.789 81.743)" fill="#fdfdfd"/>
        <circle id="Ellipse_444" data-name="Ellipse 444" cx="33.336" cy="33.336" r="33.336" transform="translate(525.133 318.453)" fill="#ec1b62"/>
        <path id="Path_48826" data-name="Path 48826" d="M737.953,193.171V134.736a33.871,33.871,0,0,0-9.8-23.531,33.16,33.16,0,0,0-23.531-9.8H307.336a33.434,33.434,0,0,0-32.943,29.414c0,1.177-.392,2.745-.392,3.922a33.308,33.308,0,0,0,33.336,33.336H705.009a33.169,33.169,0,0,1,32.943,29.414Z" transform="translate(378.593 95.476)" fill="#cecece"/>
        <path id="Path_48827" data-name="Path 48827" d="M274.1,132.449a33.308,33.308,0,0,0,33.336,33.336H705.109a33.871,33.871,0,0,1,23.531,9.8,33.159,33.159,0,0,1,9.8,23.531V132.841a33.871,33.871,0,0,0-9.8-23.531,33.159,33.159,0,0,0-23.531-9.8H307.043C289,99.113,274.1,114.016,274.1,132.449Z" transform="translate(378.885 89.919)" fill="#ec1b62"/>
        <path id="Path_48828" data-name="Path 48828" d="M158.976,161.9h-18.04a33.871,33.871,0,0,0-23.531,9.8,33.278,33.278,0,0,0,23.531,56.867h18.04Z" transform="translate(-107.6 272.247)" fill="#df2d3d"/>
        <path id="Path_48829" data-name="Path 48829" d="M158.976,161.9h-18.04a33.871,33.871,0,0,0-23.531,9.8,33.278,33.278,0,0,0,23.531,56.867h18.04Z" transform="translate(-107.6 272.247)" fill="#cecece"/>
        <path id="Path_48830" data-name="Path 48830" d="M685.353,310.575c-.784-22.747-20-40.395-43.14-40-15.3.392-27.845,9.02-34.9,21.178a23.125,23.125,0,0,1-19.217,11.766l-36.865,1.177A22.778,22.778,0,0,1,527.7,282.73l-3.138-101.183c-.784-21.57-19.217-38.434-40.787-38.042L153.553,154.486c-21.962.784-39.218,18.825-38.434,40.395l6.275,188.248c.784,21.57,18.825,38.434,40.787,38.042L492.4,410.189c21.962-.784,39.218-18.825,38.434-40.395l-.784-21.178a22.435,22.435,0,0,1,21.962-23.139l36.865-1.177a22.659,22.659,0,0,1,20,10.589,42.141,42.141,0,0,0,36.473,18.825C668.1,352.146,686.138,332.929,685.353,310.575Z" transform="translate(-85.705 218.48)" fill="#cecece"/>
        <path id="Path_48831" data-name="Path 48831" d="M678.03,315.545a41.167,41.167,0,0,0-76.476-21.178,22.251,22.251,0,0,1-19.609,10.981H545.472A22.763,22.763,0,0,1,522.725,282.6V181.418A39.334,39.334,0,0,0,483.507,142.2H156.818A39.334,39.334,0,0,0,117.6,181.418V369.666a39.334,39.334,0,0,0,39.218,39.218H483.9a39.334,39.334,0,0,0,39.218-39.218V348.488a22.763,22.763,0,0,1,22.747-22.747h36.473a22.726,22.726,0,0,1,19.609,10.981c7.451,11.766,20.393,20,35.3,20C659.6,356.724,678.03,338.292,678.03,315.545Z" transform="translate(-78.382 214.687)" fill="#fdfdfd"/>
        <path id="Path_48910" data-name="Path 48910" d="M33.336,0A33.336,33.336,0,1,1,0,33.336,33.336,33.336,0,0,1,33.336,0Z" transform="translate(525.133 496.896)" fill="#fcbd14"/>
        <path id="Path_48832" data-name="Path 48832" d="M107.992,242.985a33.169,33.169,0,0,1,32.943-29.414H538.217a33.308,33.308,0,0,0,33.336-33.336,13.339,13.339,0,0,0-.392-3.922A33.434,33.434,0,0,0,538.217,146.9H140.936a33.871,33.871,0,0,0-23.531,9.8,33.16,33.16,0,0,0-9.8,23.531v58.435Z" transform="translate(-107.6 228.419)" fill="#cecece"/>
        <path id="Path_48833" data-name="Path 48833" d="M571.553,177.943a33.308,33.308,0,0,1-33.336,33.336H140.936a33.871,33.871,0,0,0-23.531,9.8,33.16,33.16,0,0,0-9.8,23.531V178.336a33.871,33.871,0,0,1,9.8-23.531,33.16,33.16,0,0,1,23.531-9.8H538.609A33.142,33.142,0,0,1,571.553,177.943Z" transform="translate(-107.6 222.868)" fill="#fcbd14"/>
        <path id="Path_48834" data-name="Path 48834" d="M379.3,207.4h18.04a33.871,33.871,0,0,1,23.531,9.8,33.278,33.278,0,0,1-23.531,56.867H379.3Z" transform="translate(686.261 405.19)" fill="#d7006b"/>
        <path id="Path_48835" data-name="Path 48835" d="M379.3,207.4h18.04a33.871,33.871,0,0,1,23.531,9.8,33.278,33.278,0,0,1-23.531,56.867H379.3Z" transform="translate(686.261 405.19)" fill="#cecece"/>
        <path id="Path_48836" data-name="Path 48836" d="M239.518,356.075c.784-22.747,20-40.395,43.14-40,15.3.392,27.845,9.02,34.9,21.178a23.125,23.125,0,0,0,19.217,11.765l36.865,1.177a22.778,22.778,0,0,0,23.531-21.962l3.137-101.183c.784-21.57,19.217-38.434,40.787-38.042l330.218,10.981c21.962.784,39.218,18.825,38.434,40.395l-6.275,188.248c-.784,21.57-18.825,38.434-40.787,38.042L432.472,455.69c-21.962-.784-39.218-18.825-38.434-40.395l.784-21.178a22.435,22.435,0,0,0-21.962-23.139L336,369.8a22.659,22.659,0,0,0-20,10.589,42.141,42.141,0,0,1-36.473,18.825C256.774,397.646,238.734,378.822,239.518,356.075Z" transform="translate(277.771 351.423)" fill="#cecece"/>
        <path id="Path_48837" data-name="Path 48837" d="M239.5,361.045a41.167,41.167,0,0,1,76.476-21.178,22.251,22.251,0,0,0,19.609,10.981h36.473A22.763,22.763,0,0,0,394.8,328.1V226.918A39.334,39.334,0,0,1,434.023,187.7H760.711a39.334,39.334,0,0,1,39.218,39.218V415.166a39.334,39.334,0,0,1-39.218,39.218H433.631a39.334,39.334,0,0,1-39.218-39.218V393.988a22.763,22.763,0,0,0-22.747-22.747H335.193a22.726,22.726,0,0,0-19.609,10.981c-7.452,11.765-20.394,20-35.3,20C257.933,402.224,239.5,383.791,239.5,361.045Z" transform="translate(277.789 347.63)" fill="#fdfdfd"/>
        <path id="Path_48911" data-name="Path 48911" d="M33.336,0A33.336,33.336,0,1,1,0,33.336,33.336,33.336,0,0,1,33.336,0Z" transform="translate(525.133 675.339)" fill="#57b09a"/>
        <path id="Path_48838" data-name="Path 48838" d="M737.953,284.271V225.836a33.871,33.871,0,0,0-9.8-23.531,33.16,33.16,0,0,0-23.531-9.8H307.336a33.434,33.434,0,0,0-32.943,29.414c0,1.177-.392,2.745-.392,3.922a33.308,33.308,0,0,0,33.336,33.336H705.009a33.169,33.169,0,0,1,32.943,29.414Z" transform="translate(378.593 361.655)" fill="#cecece"/>
        <path id="Path_48839" data-name="Path 48839" d="M274.1,223.836a33.308,33.308,0,0,0,33.336,33.336H705.109a33.871,33.871,0,0,1,23.531,9.8,33.159,33.159,0,0,1,9.8,23.531V223.836a33.871,33.871,0,0,0-9.8-23.531,33.16,33.16,0,0,0-23.531-9.8H307.043A33.226,33.226,0,0,0,274.1,223.836Z" transform="translate(378.885 355.811)" fill="#57b09a"/>
        <path id="Path_48840" data-name="Path 48840" d="M158.976,252.9h-18.04a33.871,33.871,0,0,0-23.531,9.8,33.278,33.278,0,0,0,23.531,56.867h18.04Z" transform="translate(-107.6 538.133)" fill="#930a64"/>
        <path id="Path_48841" data-name="Path 48841" d="M158.976,252.9h-18.04a33.871,33.871,0,0,0-23.531,9.8,33.278,33.278,0,0,0,23.531,56.867h18.04Z" transform="translate(-107.6 538.133)" fill="#cecece"/>
        <path id="Path_48842" data-name="Path 48842" d="M685.353,401.575c-.784-22.747-20-40.395-43.14-40-15.3.392-27.845,9.02-34.9,21.178a23.125,23.125,0,0,1-19.217,11.766l-36.865,1.177A22.778,22.778,0,0,1,527.7,373.73l-3.138-101.183c-.784-21.57-19.217-38.434-40.787-38.042L153.553,245.486c-21.962.784-39.218,18.825-38.434,40.395l6.275,188.248c.784,21.57,18.825,38.434,40.787,38.042L492.4,501.19c21.962-.784,39.218-18.825,38.434-40.395l-.784-21.178a22.435,22.435,0,0,1,21.962-23.139l36.865-1.177a22.659,22.659,0,0,1,20,10.589,42.141,42.141,0,0,0,36.473,18.825C668.1,443.147,686.138,424.322,685.353,401.575Z" transform="translate(-85.705 484.366)" fill="#cecece"/>
        <path id="Path_48843" data-name="Path 48843" d="M678.03,406.545a41.167,41.167,0,0,0-76.476-21.178,22.251,22.251,0,0,1-19.609,10.981H545.472A22.763,22.763,0,0,1,522.725,373.6V272.418A39.334,39.334,0,0,0,483.507,233.2H156.818A39.334,39.334,0,0,0,117.6,272.418V460.666a39.334,39.334,0,0,0,39.218,39.218H483.9a39.334,39.334,0,0,0,39.218-39.218V439.488a22.763,22.763,0,0,1,22.747-22.747h36.473a22.726,22.726,0,0,1,19.609,10.981c7.451,11.765,20.393,20,35.3,20C659.6,447.724,678.03,429.292,678.03,406.545Z" transform="translate(-78.382 480.573)" fill="#fdfdfd"/>
        <path id="Path_48912" data-name="Path 48912" d="M33.336,0A33.336,33.336,0,1,1,0,33.336,33.336,33.336,0,0,1,33.336,0Z" transform="translate(525.133 853.782)" fill="#d31c61"/>
        <path id="Path_48844" data-name="Path 48844" d="M107.992,333.985a33.169,33.169,0,0,1,32.943-29.414H538.217a33.308,33.308,0,0,0,33.336-33.336,13.339,13.339,0,0,0-.392-3.922A33.434,33.434,0,0,0,538.217,237.9H140.936a33.871,33.871,0,0,0-23.531,9.8,33.159,33.159,0,0,0-9.8,23.531v58.435Z" transform="translate(-107.6 494.306)" fill="#cecece"/>
        <path id="Path_48845" data-name="Path 48845" d="M571.553,269.049a33.308,33.308,0,0,1-33.336,33.336H140.936a33.871,33.871,0,0,0-23.531,9.8,33.16,33.16,0,0,0-9.8,23.531V269.441a33.871,33.871,0,0,1,9.8-23.531,33.159,33.159,0,0,1,23.531-9.8H538.609C556.65,235.714,571.553,250.616,571.553,269.049Z" transform="translate(-107.6 489.041)" fill="#d31c61"/>
        <path id="Path_48846" data-name="Path 48846" d="M379.3,298.4h18.04a33.871,33.871,0,0,1,23.531,9.8,33.278,33.278,0,0,1-23.531,56.867H379.3Z" transform="translate(686.261 671.076)" fill="#11699b"/>
        <path id="Path_48847" data-name="Path 48847" d="M379.3,298.4h18.04a33.871,33.871,0,0,1,23.531,9.8,33.278,33.278,0,0,1-23.531,56.867H379.3Z" transform="translate(686.261 671.076)" fill="#cecece"/>
        <path id="Path_48848" data-name="Path 48848" d="M239.518,447.075c.784-22.747,20-40.395,43.14-40,15.3.392,27.845,9.02,34.9,21.178a23.125,23.125,0,0,0,19.217,11.765l36.865,1.177a22.778,22.778,0,0,0,23.531-21.962l3.137-101.183C401.1,296.477,419.53,279.613,441.1,280l330.218,10.981c21.962.784,39.218,18.825,38.434,40.395l-6.275,188.248c-.784,21.57-18.825,38.434-40.787,38.042L432.472,546.69c-21.962-.784-39.218-18.825-38.434-40.395l.784-21.178a22.435,22.435,0,0,0-21.962-23.139L336,460.8a22.659,22.659,0,0,0-20,10.589,42.141,42.141,0,0,1-36.473,18.825C256.774,489.039,238.734,469.822,239.518,447.075Z" transform="translate(277.771 617.31)" fill="#cecece"/>
        <path id="Path_48849" data-name="Path 48849" d="M239.5,452.045a41.167,41.167,0,0,1,76.476-21.178,22.251,22.251,0,0,0,19.609,10.981h36.473A22.763,22.763,0,0,0,394.8,419.1V317.918A39.334,39.334,0,0,1,434.023,278.7H760.711a39.334,39.334,0,0,1,39.218,39.218V506.166a39.334,39.334,0,0,1-39.218,39.218H433.631a39.334,39.334,0,0,1-39.218-39.218V484.988a22.763,22.763,0,0,0-22.747-22.747H335.193a22.726,22.726,0,0,0-19.609,10.981c-7.452,11.766-20.394,20-35.3,20C257.933,493.616,239.5,474.791,239.5,452.045Z" transform="translate(277.789 613.516)" fill="#fdfdfd"/>
        <circle id="Ellipse_448" data-name="Ellipse 448" cx="33.336" cy="33.336" r="33.336" transform="translate(525.133 1032.226)" fill="#5c2f84"/>
        <path id="Path_48850" data-name="Path 48850" d="M737.953,375.271V316.836a33.872,33.872,0,0,0-9.8-23.531,33.16,33.16,0,0,0-23.531-9.8H307.336a33.434,33.434,0,0,0-32.943,29.414c0,1.176-.392,2.745-.392,3.922a33.308,33.308,0,0,0,33.336,33.336H705.009a33.871,33.871,0,0,1,23.531,9.8,32,32,0,0,1,9.412,19.609Z" transform="translate(378.593 627.541)" fill="#cecece"/>
        <path id="Path_48851" data-name="Path 48851" d="M274.1,314.836a33.308,33.308,0,0,0,33.336,33.336H705.109a33.871,33.871,0,0,1,23.531,9.8,33.159,33.159,0,0,1,9.8,23.531V314.836a33.871,33.871,0,0,0-9.8-23.531,33.16,33.16,0,0,0-23.531-9.8H307.043A33.226,33.226,0,0,0,274.1,314.836Z" transform="translate(378.885 621.697)" fill="#5c2f84"/>
        <path id="Path_48852" data-name="Path 48852" d="M158.976,344h-18.04a33.871,33.871,0,0,0-23.531,9.8,33.278,33.278,0,0,0,23.531,56.867h18.04Z" transform="translate(-107.6 804.312)" fill="#1c9dbc"/>
        <path id="Path_48853" data-name="Path 48853" d="M158.976,344h-18.04a33.871,33.871,0,0,0-23.531,9.8,33.278,33.278,0,0,0,23.531,56.867h18.04Z" transform="translate(-107.6 804.312)" fill="#cecece"/>
        <path id="Path_48854" data-name="Path 48854" d="M685.353,492.575c-.784-22.747-20-40.395-43.14-40-15.3.392-27.845,9.02-34.9,21.178a23.125,23.125,0,0,1-19.217,11.766l-36.865,1.176A22.778,22.778,0,0,1,527.7,464.73l-3.138-101.183c-.784-21.57-19.217-38.434-40.787-38.042L153.553,336.486c-21.962.784-39.218,18.825-38.434,40.395l6.275,188.248c.784,21.57,18.825,38.434,40.787,38.042L492.4,592.189c21.962-.784,39.218-18.825,38.434-40.395l-.784-21.178a22.435,22.435,0,0,1,21.962-23.139l36.865-1.177a22.659,22.659,0,0,1,20,10.589,42.141,42.141,0,0,0,36.473,18.825C668.1,534.539,686.138,515.322,685.353,492.575Z" transform="translate(-85.705 750.253)" fill="#cecece"/>
        <path id="Path_48855" data-name="Path 48855" d="M678.03,497.645a41.167,41.167,0,0,0-76.476-21.178,22.251,22.251,0,0,1-19.609,10.981H545.472A22.763,22.763,0,0,1,522.725,464.7V363.518A39.334,39.334,0,0,0,483.507,324.3H156.818A39.334,39.334,0,0,0,117.6,363.518V551.766a39.334,39.334,0,0,0,39.218,39.218H483.9a39.334,39.334,0,0,0,39.218-39.218V530.588a22.763,22.763,0,0,1,22.747-22.747h36.473a22.726,22.726,0,0,1,19.609,10.981c7.451,11.766,20.393,20,35.3,20C659.6,538.824,678.03,520.391,678.03,497.645Z" transform="translate(-78.382 746.752)" fill="#fdfdfd"/>
        <circle id="Ellipse_449" data-name="Ellipse 449" cx="33.336" cy="33.336" r="33.336" transform="translate(525.133 1211.061)" fill="#6bc6b3"/>
        <path id="Path_48856" data-name="Path 48856" d="M107.992,424.985a33.169,33.169,0,0,1,32.943-29.414H538.217a33.308,33.308,0,0,0,33.336-33.336,13.339,13.339,0,0,0-.392-3.922A33.434,33.434,0,0,0,538.217,328.9H140.936a33.871,33.871,0,0,0-23.531,9.8,33.16,33.16,0,0,0-9.8,23.531v58.435Z" transform="translate(-107.6 760.192)" fill="#cecece"/>
        <path id="Path_48857" data-name="Path 48857" d="M571.553,360.049a33.308,33.308,0,0,1-33.336,33.336H140.936a33.871,33.871,0,0,0-23.531,9.8,33.16,33.16,0,0,0-9.8,23.531V360.441a33.872,33.872,0,0,1,9.8-23.531,33.16,33.16,0,0,1,23.531-9.8H538.609C556.65,326.713,571.553,341.616,571.553,360.049Z" transform="translate(-107.6 754.927)" fill="#6bc6b3"/>
        <path id="Path_48858" data-name="Path 48858" d="M379.3,389.5h18.04a33.871,33.871,0,0,1,23.531,9.8,33.278,33.278,0,0,1-23.531,56.867H379.3Z" transform="translate(686.261 937.255)" fill="#01d5a3"/>
        <path id="Path_48859" data-name="Path 48859" d="M379.3,389.5h18.04a33.871,33.871,0,0,1,23.531,9.8,33.278,33.278,0,0,1-23.531,56.867H379.3Z" transform="translate(686.261 937.255)" fill="#cecece"/>
        <path id="Path_48860" data-name="Path 48860" d="M239.518,538.075c.784-22.747,20-40.395,43.14-40,15.3.392,27.845,9.02,34.9,21.178a23.125,23.125,0,0,0,19.217,11.765l36.865,1.176a22.778,22.778,0,0,0,23.531-21.962l3.137-101.183C401.1,387.477,419.53,370.613,441.1,371l330.218,10.981c21.962.784,39.218,18.825,38.434,40.395l-6.275,188.248c-.784,21.57-18.825,38.434-40.787,38.042L432.472,637.69c-21.962-.784-39.218-18.825-38.434-40.395l.784-21.178a22.435,22.435,0,0,0-21.962-23.139L336,551.8a22.659,22.659,0,0,0-20,10.589,42.141,42.141,0,0,1-36.473,18.825C256.774,580.039,238.734,560.822,239.518,538.075Z" transform="translate(277.771 883.196)" fill="#cecece"/>
        <path id="Path_48861" data-name="Path 48861" d="M239.5,543.145a41.167,41.167,0,0,1,76.476-21.178,22.251,22.251,0,0,0,19.609,10.981h36.473A22.763,22.763,0,0,0,394.8,510.2V409.018A39.334,39.334,0,0,1,434.023,369.8H760.711a39.334,39.334,0,0,1,39.218,39.218V597.266a39.334,39.334,0,0,1-39.218,39.218H433.631a39.334,39.334,0,0,1-39.218-39.218V576.088a22.763,22.763,0,0,0-22.747-22.747H335.193a22.726,22.726,0,0,0-19.609,10.981c-7.452,11.765-20.394,20-35.3,20C257.933,584.324,239.5,565.891,239.5,543.145Z" transform="translate(277.789 879.695)" fill="#fdfdfd"/>
        <circle id="Ellipse_450" data-name="Ellipse 450" cx="33.336" cy="33.336" r="33.336" transform="translate(525.133 1389.504)" fill="#e7a924"/>
        <path id="Path_48862" data-name="Path 48862" d="M737.953,466.271V407.836a33.871,33.871,0,0,0-9.8-23.531,33.16,33.16,0,0,0-23.531-9.8H307.336a33.434,33.434,0,0,0-32.943,29.414c0,1.177-.392,2.745-.392,3.922a33.308,33.308,0,0,0,33.336,33.336H705.009a33.871,33.871,0,0,1,23.531,9.8,32,32,0,0,1,9.412,19.609Z" transform="translate(378.593 893.428)" fill="#cecece"/>
        <path id="Path_48863" data-name="Path 48863" d="M274.1,405.836a33.308,33.308,0,0,0,33.336,33.336H705.109a33.871,33.871,0,0,1,23.531,9.8,33.159,33.159,0,0,1,9.8,23.531V405.836a33.871,33.871,0,0,0-9.8-23.531,33.159,33.159,0,0,0-23.531-9.8H307.043A33.226,33.226,0,0,0,274.1,405.836Z" transform="translate(378.885 887.584)" fill="#e7a924"/>
        <g id="Group_40486" data-name="Group 40486" transform="translate(703.969 189.032)" opacity="0.1">
          <g id="Group_40485" data-name="Group 40485">
            <path id="Path_48882" data-name="Path 48882" d="M287.1,166.071h25.884L342.006,99.4H316.122Z" transform="translate(-287.1 -99.4)" fill="#fdfdfd"/>
            <path id="Path_48883" data-name="Path 48883" d="M364.106,99.4H338.614L309.2,166.071h25.884Z" transform="translate(-222.528 -99.4)" fill="#fdfdfd"/>
            <path id="Path_48884" data-name="Path 48884" d="M418.506,99.4H393.014L363.6,166.071h25.884Z" transform="translate(-63.58 -99.4)" fill="#fdfdfd"/>
            <path id="Path_48885" data-name="Path 48885" d="M377.306,99.4H351.814L322.4,166.071h25.884Z" transform="translate(-183.959 -99.4)" fill="#fdfdfd"/>
          </g>
        </g>
        <g id="Group_40488" data-name="Group 40488" transform="translate(56.082 367.868)" opacity="0.1">
          <g id="Group_40487" data-name="Group 40487">
            <path id="Path_48886" data-name="Path 48886" d="M121.9,211.279h25.884L176.806,145H151.314Z" transform="translate(-121.9 -145)" fill="#fdfdfd"/>
            <path id="Path_48887" data-name="Path 48887" d="M253.7,145H227.814L198.4,211.279h25.884Z" transform="translate(101.62 -145)" fill="#fdfdfd"/>
            <path id="Path_48888" data-name="Path 48888" d="M199.006,145H173.122L144.1,211.279h25.492Z" transform="translate(-57.035 -145)" fill="#fdfdfd"/>
            <path id="Path_48889" data-name="Path 48889" d="M212.206,145H186.322L157.3,211.279h25.492Z" transform="translate(-18.467 -145)" fill="#fdfdfd"/>
          </g>
        </g>
        <g id="Group_40490" data-name="Group 40490" transform="translate(703.969 546.311)" opacity="0.1">
          <g id="Group_40489" data-name="Group 40489">
            <path id="Path_48890" data-name="Path 48890" d="M287.1,256.779h25.884L342.006,190.5H316.122Z" transform="translate(-287.1 -190.5)" fill="#fdfdfd"/>
            <path id="Path_48891" data-name="Path 48891" d="M364.106,190.5H338.614L309.2,256.779h25.884Z" transform="translate(-222.528 -190.5)" fill="#fdfdfd"/>
            <path id="Path_48892" data-name="Path 48892" d="M418.506,190.5H393.014L363.6,256.779h25.884Z" transform="translate(-63.58 -190.5)" fill="#fdfdfd"/>
            <path id="Path_48893" data-name="Path 48893" d="M377.306,190.5H351.814L322.4,256.779h25.884Z" transform="translate(-183.959 -190.5)" fill="#fdfdfd"/>
          </g>
        </g>
        <g id="Group_40492" data-name="Group 40492" transform="translate(56.082 724.754)" opacity="0.1">
          <g id="Group_40491" data-name="Group 40491">
            <path id="Path_48894" data-name="Path 48894" d="M121.9,302.671h25.884L176.806,236H151.314Z" transform="translate(-121.9 -236)" fill="#fdfdfd"/>
            <path id="Path_48895" data-name="Path 48895" d="M253.7,236H227.814L198.4,302.671h25.884Z" transform="translate(101.62 -236)" fill="#fdfdfd"/>
            <path id="Path_48896" data-name="Path 48896" d="M199.006,236H173.122L144.1,302.671h25.492Z" transform="translate(-57.035 -236)" fill="#fdfdfd"/>
            <path id="Path_48897" data-name="Path 48897" d="M212.206,236H186.322L157.3,302.671h25.492Z" transform="translate(-18.467 -236)" fill="#fdfdfd"/>
          </g>
        </g>
        <g id="Group_40494" data-name="Group 40494" transform="translate(703.969 903.59)" opacity="0.1">
          <g id="Group_40493" data-name="Group 40493">
            <path id="Path_48898" data-name="Path 48898" d="M287.1,347.879h25.884L342.006,281.6H316.122Z" transform="translate(-287.1 -281.6)" fill="#fdfdfd"/>
            <path id="Path_48899" data-name="Path 48899" d="M364.106,281.6H338.614L309.2,347.879h25.884Z" transform="translate(-222.528 -281.6)" fill="#fdfdfd"/>
            <path id="Path_48900" data-name="Path 48900" d="M418.506,281.6H393.014L363.6,347.879h25.884Z" transform="translate(-63.58 -281.6)" fill="#fdfdfd"/>
            <path id="Path_48901" data-name="Path 48901" d="M377.306,281.6H351.814L322.4,347.879h25.884Z" transform="translate(-183.959 -281.6)" fill="#fdfdfd"/>
          </g>
        </g>
        <g id="Group_40496" data-name="Group 40496" transform="translate(56.082 1082.033)" opacity="0.1">
          <g id="Group_40495" data-name="Group 40495">
            <path id="Path_48902" data-name="Path 48902" d="M121.9,393.379h25.884L176.806,327.1H151.314Z" transform="translate(-121.9 -327.1)" fill="#fdfdfd"/>
            <path id="Path_48903" data-name="Path 48903" d="M253.7,327.1H227.814L198.4,393.379h25.884Z" transform="translate(101.62 -327.1)" fill="#fdfdfd"/>
            <path id="Path_48904" data-name="Path 48904" d="M199.006,327.1H173.122L144.1,393.379h25.492Z" transform="translate(-57.035 -327.1)" fill="#fdfdfd"/>
            <path id="Path_48905" data-name="Path 48905" d="M212.206,327.1H186.322L157.3,393.379h25.492Z" transform="translate(-18.467 -327.1)" fill="#fdfdfd"/>
          </g>
        </g>
        <g id="Group_40498" data-name="Group 40498" transform="translate(703.969 1260.476)" opacity="0.1">
          <g id="Group_40497" data-name="Group 40497">
            <path id="Path_48906" data-name="Path 48906" d="M287.1,438.879h25.884L342.006,372.6H316.122Z" transform="translate(-287.1 -372.6)" fill="#fdfdfd"/>
            <path id="Path_48907" data-name="Path 48907" d="M364.106,372.6H338.614L309.2,438.879h25.884Z" transform="translate(-222.528 -372.6)" fill="#fdfdfd"/>
            <path id="Path_48908" data-name="Path 48908" d="M418.506,372.6H393.014L363.6,438.879h25.884Z" transform="translate(-63.58 -372.6)" fill="#fdfdfd"/>
            <path id="Path_48909" data-name="Path 48909" d="M377.306,372.6H351.814L322.4,438.879h25.884Z" transform="translate(-183.959 -372.6)" fill="#fdfdfd"/>
          </g>
        </g>
        <text id="_01" data-name="01" transform="translate(545.272 361.619)" fill="#fdfdfd" font-size="24" font-family="SegoeUI, Segoe UI"><tspan x="0" y="0">01</tspan></text>
        <text id="_02" data-name="02" transform="translate(545.272 539.619)" fill="#fdfdfd" font-size="24" font-family="SegoeUI, Segoe UI"><tspan x="0" y="0">02</tspan></text>
        <text id="_03" data-name="03" transform="translate(545.272 718.619)" fill="#fdfdfd" font-size="24" font-family="SegoeUI, Segoe UI"><tspan x="0" y="0">03</tspan></text>
        <text id="_04" data-name="04" transform="translate(545.272 896.619)" fill="#fdfdfd" font-size="24" font-family="SegoeUI, Segoe UI"><tspan x="0" y="0">04</tspan></text>
        <text id="_05" data-name="05" transform="translate(545.272 1075.619)" fill="#fdfdfd" font-size="24" font-family="SegoeUI, Segoe UI"><tspan x="0" y="0">05</tspan></text>
        <text id="_06" data-name="06" transform="translate(545.272 1254.619)" fill="#fdfdfd" font-size="24" font-family="SegoeUI, Segoe UI"><tspan x="0" y="0">06</tspan></text>
        <text id="_07" data-name="07" transform="translate(545.272 1432.619)" fill="#fdfdfd" font-size="24" font-family="SegoeUI, Segoe UI"><tspan x="0" y="0">07</tspan></text>
      </g>
    </g>
  </g>
</svg>
