<svg xmlns="http://www.w3.org/2000/svg" width="600.065" height="282.771" viewBox="0 0 600.065 282.771">
  <g id="offer3" transform="translate(-517.265 -535.33)">
    <g id="_03" data-name="03">
      <path id="Path_48834" data-name="Path 48834" d="M379.3,207.4h18.04a33.871,33.871,0,0,1,23.531,9.8,33.278,33.278,0,0,1-23.531,56.867H379.3Z" transform="translate(686.261 405.19)" fill="#d7006b"/>
      <path id="Path_48835" data-name="Path 48835" d="M379.3,207.4h18.04a33.871,33.871,0,0,1,23.531,9.8,33.278,33.278,0,0,1-23.531,56.867H379.3Z" transform="translate(686.261 405.19)" fill="#cecece"/>
      <path id="Path_48836" data-name="Path 48836" d="M239.518,356.075c.784-22.747,20-40.395,43.14-40,15.3.392,27.845,9.02,34.9,21.178a23.125,23.125,0,0,0,19.217,11.765l36.865,1.177a22.778,22.778,0,0,0,23.531-21.962l3.137-101.183c.784-21.57,19.217-38.434,40.787-38.042l330.218,10.981c21.962.784,39.218,18.825,38.434,40.395l-6.275,188.248c-.784,21.57-18.825,38.434-40.787,38.042L432.472,455.69c-21.962-.784-39.218-18.825-38.434-40.395l.784-21.178a22.435,22.435,0,0,0-21.962-23.139L336,369.8a22.659,22.659,0,0,0-20,10.589,42.141,42.141,0,0,1-36.473,18.825C256.774,397.646,238.734,378.822,239.518,356.075Z" transform="translate(277.771 351.423)" fill="#cecece"/>
      <path id="Path_48837" data-name="Path 48837" d="M239.5,361.045a41.167,41.167,0,0,1,76.476-21.178,22.251,22.251,0,0,0,19.609,10.981h36.473A22.763,22.763,0,0,0,394.8,328.1V226.918A39.334,39.334,0,0,1,434.023,187.7H760.711a39.334,39.334,0,0,1,39.218,39.218V415.166a39.334,39.334,0,0,1-39.218,39.218H433.631a39.334,39.334,0,0,1-39.218-39.218V393.988a22.763,22.763,0,0,0-22.747-22.747H335.193a22.726,22.726,0,0,0-19.609,10.981c-7.452,11.765-20.394,20-35.3,20C257.933,402.224,239.5,383.791,239.5,361.045Z" transform="translate(277.789 347.63)" fill="#fdfdfd"/>
      <path id="Path_48911" data-name="Path 48911" d="M33.336,0A33.336,33.336,0,1,1,0,33.336,33.336,33.336,0,0,1,33.336,0Z" transform="translate(525.133 675.339)" fill="#57b09a"/>
      <path id="Path_48838" data-name="Path 48838" d="M737.953,284.271V225.836a33.871,33.871,0,0,0-9.8-23.531,33.16,33.16,0,0,0-23.531-9.8H307.336a33.434,33.434,0,0,0-32.943,29.414c0,1.177-.392,2.745-.392,3.922a33.308,33.308,0,0,0,33.336,33.336H705.009a33.169,33.169,0,0,1,32.943,29.414Z" transform="translate(378.593 361.655)" fill="#cecece"/>
      <path id="Path_48839" data-name="Path 48839" d="M274.1,223.836a33.308,33.308,0,0,0,33.336,33.336H705.109a33.871,33.871,0,0,1,23.531,9.8,33.159,33.159,0,0,1,9.8,23.531V223.836a33.871,33.871,0,0,0-9.8-23.531,33.16,33.16,0,0,0-23.531-9.8H307.043A33.226,33.226,0,0,0,274.1,223.836Z" transform="translate(378.885 355.811)" fill="#57b09a"/>
    </g>
    <text id="_03-2" data-name="03" transform="translate(545.272 718.619)" fill="#fdfdfd" font-size="24" font-family="SegoeUI, Segoe UI"><tspan x="0" y="0">03</tspan></text>
  </g>
</svg>
