<svg xmlns="http://www.w3.org/2000/svg" width="599.673" height="282.771" viewBox="0 0 599.673 282.771">
  <g id="offer2" transform="translate(0 -356.887)">
    <g id="_02" data-name="02">
      <path id="Path_48828" data-name="Path 48828" d="M158.976,161.9h-18.04a33.871,33.871,0,0,0-23.531,9.8,33.278,33.278,0,0,0,23.531,56.867h18.04Z" transform="translate(-107.6 272.247)" fill="#df2d3d"/>
      <path id="Path_48829" data-name="Path 48829" d="M158.976,161.9h-18.04a33.871,33.871,0,0,0-23.531,9.8,33.278,33.278,0,0,0,23.531,56.867h18.04Z" transform="translate(-107.6 272.247)" fill="#cecece"/>
      <path id="Path_48830" data-name="Path 48830" d="M685.353,310.575c-.784-22.747-20-40.395-43.14-40-15.3.392-27.845,9.02-34.9,21.178a23.125,23.125,0,0,1-19.217,11.766l-36.865,1.177A22.778,22.778,0,0,1,527.7,282.73l-3.138-101.183c-.784-21.57-19.217-38.434-40.787-38.042L153.553,154.486c-21.962.784-39.218,18.825-38.434,40.395l6.275,188.248c.784,21.57,18.825,38.434,40.787,38.042L492.4,410.189c21.962-.784,39.218-18.825,38.434-40.395l-.784-21.178a22.435,22.435,0,0,1,21.962-23.139l36.865-1.177a22.659,22.659,0,0,1,20,10.589,42.141,42.141,0,0,0,36.473,18.825C668.1,352.146,686.138,332.929,685.353,310.575Z" transform="translate(-85.705 218.48)" fill="#cecece"/>
      <path id="Path_48831" data-name="Path 48831" d="M678.03,315.545a41.167,41.167,0,0,0-76.476-21.178,22.251,22.251,0,0,1-19.609,10.981H545.472A22.763,22.763,0,0,1,522.725,282.6V181.418A39.334,39.334,0,0,0,483.507,142.2H156.818A39.334,39.334,0,0,0,117.6,181.418V369.666a39.334,39.334,0,0,0,39.218,39.218H483.9a39.334,39.334,0,0,0,39.218-39.218V348.488a22.763,22.763,0,0,1,22.747-22.747h36.473a22.726,22.726,0,0,1,19.609,10.981c7.451,11.766,20.393,20,35.3,20C659.6,356.724,678.03,338.292,678.03,315.545Z" transform="translate(-78.382 214.687)" fill="#fdfdfd"/>
      <path id="Path_48910" data-name="Path 48910" d="M33.336,0A33.336,33.336,0,1,1,0,33.336,33.336,33.336,0,0,1,33.336,0Z" transform="translate(525.133 496.896)" fill="#fcbd14"/>
      <path id="Path_48832" data-name="Path 48832" d="M107.992,242.985a33.169,33.169,0,0,1,32.943-29.414H538.217a33.308,33.308,0,0,0,33.336-33.336,13.339,13.339,0,0,0-.392-3.922A33.434,33.434,0,0,0,538.217,146.9H140.936a33.871,33.871,0,0,0-23.531,9.8,33.16,33.16,0,0,0-9.8,23.531v58.435Z" transform="translate(-107.6 228.419)" fill="#cecece"/>
      <path id="Path_48833" data-name="Path 48833" d="M571.553,177.943a33.308,33.308,0,0,1-33.336,33.336H140.936a33.871,33.871,0,0,0-23.531,9.8,33.16,33.16,0,0,0-9.8,23.531V178.336a33.871,33.871,0,0,1,9.8-23.531,33.16,33.16,0,0,1,23.531-9.8H538.609A33.142,33.142,0,0,1,571.553,177.943Z" transform="translate(-107.6 222.868)" fill="#fcbd14"/>
    </g>
    <text id="_02-2" data-name="02" transform="translate(545.272 539.619)" fill="#fdfdfd" font-size="24" font-family="SegoeUI, Segoe UI"><tspan x="0" y="0">02</tspan></text>
  </g>
</svg>
