<svg xmlns="http://www.w3.org/2000/svg" width="600.065" height="282.378" viewBox="0 0 600.065 282.378">
  <g id="offer7" transform="translate(-517.265 -1249.495)">
    <g id="_07" data-name="07">
      <path id="Path_48858" data-name="Path 48858" d="M379.3,389.5h18.04a33.871,33.871,0,0,1,23.531,9.8,33.278,33.278,0,0,1-23.531,56.867H379.3Z" transform="translate(686.261 937.255)" fill="#01d5a3"/>
      <path id="Path_48859" data-name="Path 48859" d="M379.3,389.5h18.04a33.871,33.871,0,0,1,23.531,9.8,33.278,33.278,0,0,1-23.531,56.867H379.3Z" transform="translate(686.261 937.255)" fill="#cecece"/>
      <path id="Path_48860" data-name="Path 48860" d="M239.518,538.075c.784-22.747,20-40.395,43.14-40,15.3.392,27.845,9.02,34.9,21.178a23.125,23.125,0,0,0,19.217,11.765l36.865,1.176a22.778,22.778,0,0,0,23.531-21.962l3.137-101.183C401.1,387.477,419.53,370.613,441.1,371l330.218,10.981c21.962.784,39.218,18.825,38.434,40.395l-6.275,188.248c-.784,21.57-18.825,38.434-40.787,38.042L432.472,637.69c-21.962-.784-39.218-18.825-38.434-40.395l.784-21.178a22.435,22.435,0,0,0-21.962-23.139L336,551.8a22.659,22.659,0,0,0-20,10.589,42.141,42.141,0,0,1-36.473,18.825C256.774,580.039,238.734,560.822,239.518,538.075Z" transform="translate(277.771 883.196)" fill="#cecece"/>
      <path id="Path_48861" data-name="Path 48861" d="M239.5,543.145a41.167,41.167,0,0,1,76.476-21.178,22.251,22.251,0,0,0,19.609,10.981h36.473A22.763,22.763,0,0,0,394.8,510.2V409.018A39.334,39.334,0,0,1,434.023,369.8H760.711a39.334,39.334,0,0,1,39.218,39.218V597.266a39.334,39.334,0,0,1-39.218,39.218H433.631a39.334,39.334,0,0,1-39.218-39.218V576.088a22.763,22.763,0,0,0-22.747-22.747H335.193a22.726,22.726,0,0,0-19.609,10.981c-7.452,11.765-20.394,20-35.3,20C257.933,584.324,239.5,565.891,239.5,543.145Z" transform="translate(277.789 879.695)" fill="#fdfdfd"/>
      <circle id="Ellipse_450" data-name="Ellipse 450" cx="33.336" cy="33.336" r="33.336" transform="translate(525.133 1389.504)" fill="#e7a924"/>
      <path id="Path_48862" data-name="Path 48862" d="M737.953,466.271V407.836a33.871,33.871,0,0,0-9.8-23.531,33.16,33.16,0,0,0-23.531-9.8H307.336a33.434,33.434,0,0,0-32.943,29.414c0,1.177-.392,2.745-.392,3.922a33.308,33.308,0,0,0,33.336,33.336H705.009a33.871,33.871,0,0,1,23.531,9.8,32,32,0,0,1,9.412,19.609Z" transform="translate(378.593 893.428)" fill="#cecece"/>
      <path id="Path_48863" data-name="Path 48863" d="M274.1,405.836a33.308,33.308,0,0,0,33.336,33.336H705.109a33.871,33.871,0,0,1,23.531,9.8,33.159,33.159,0,0,1,9.8,23.531V405.836a33.871,33.871,0,0,0-9.8-23.531,33.159,33.159,0,0,0-23.531-9.8H307.043A33.226,33.226,0,0,0,274.1,405.836Z" transform="translate(378.885 887.584)" fill="#e7a924"/>
    </g>
    <text id="_07-2" data-name="07" transform="translate(545.272 1432.619)" fill="#fdfdfd" font-size="24" font-family="SegoeUI, Segoe UI"><tspan x="0" y="0">07</tspan></text>
  </g>
</svg>
