<svg xmlns="http://www.w3.org/2000/svg" width="600.065" height="282.771" viewBox="0 0 600.065 282.771">
  <g id="offer5" transform="translate(-517.265 -892.216)">
    <g id="_05" data-name="05">
      <path id="Path_48846" data-name="Path 48846" d="M379.3,298.4h18.04a33.871,33.871,0,0,1,23.531,9.8,33.278,33.278,0,0,1-23.531,56.867H379.3Z" transform="translate(686.261 671.076)" fill="#11699b"/>
      <path id="Path_48847" data-name="Path 48847" d="M379.3,298.4h18.04a33.871,33.871,0,0,1,23.531,9.8,33.278,33.278,0,0,1-23.531,56.867H379.3Z" transform="translate(686.261 671.076)" fill="#cecece"/>
      <path id="Path_48848" data-name="Path 48848" d="M239.518,447.075c.784-22.747,20-40.395,43.14-40,15.3.392,27.845,9.02,34.9,21.178a23.125,23.125,0,0,0,19.217,11.765l36.865,1.177a22.778,22.778,0,0,0,23.531-21.962l3.137-101.183C401.1,296.477,419.53,279.613,441.1,280l330.218,10.981c21.962.784,39.218,18.825,38.434,40.395l-6.275,188.248c-.784,21.57-18.825,38.434-40.787,38.042L432.472,546.69c-21.962-.784-39.218-18.825-38.434-40.395l.784-21.178a22.435,22.435,0,0,0-21.962-23.139L336,460.8a22.659,22.659,0,0,0-20,10.589,42.141,42.141,0,0,1-36.473,18.825C256.774,489.039,238.734,469.822,239.518,447.075Z" transform="translate(277.771 617.31)" fill="#cecece"/>
      <path id="Path_48849" data-name="Path 48849" d="M239.5,452.045a41.167,41.167,0,0,1,76.476-21.178,22.251,22.251,0,0,0,19.609,10.981h36.473A22.763,22.763,0,0,0,394.8,419.1V317.918A39.334,39.334,0,0,1,434.023,278.7H760.711a39.334,39.334,0,0,1,39.218,39.218V506.166a39.334,39.334,0,0,1-39.218,39.218H433.631a39.334,39.334,0,0,1-39.218-39.218V484.988a22.763,22.763,0,0,0-22.747-22.747H335.193a22.726,22.726,0,0,0-19.609,10.981c-7.452,11.766-20.394,20-35.3,20C257.933,493.616,239.5,474.791,239.5,452.045Z" transform="translate(277.789 613.516)" fill="#fdfdfd"/>
      <circle id="Ellipse_448" data-name="Ellipse 448" cx="33.336" cy="33.336" r="33.336" transform="translate(525.133 1032.226)" fill="#5c2f84"/>
      <path id="Path_48850" data-name="Path 48850" d="M737.953,375.271V316.836a33.872,33.872,0,0,0-9.8-23.531,33.16,33.16,0,0,0-23.531-9.8H307.336a33.434,33.434,0,0,0-32.943,29.414c0,1.176-.392,2.745-.392,3.922a33.308,33.308,0,0,0,33.336,33.336H705.009a33.871,33.871,0,0,1,23.531,9.8,32,32,0,0,1,9.412,19.609Z" transform="translate(378.593 627.541)" fill="#cecece"/>
      <path id="Path_48851" data-name="Path 48851" d="M274.1,314.836a33.308,33.308,0,0,0,33.336,33.336H705.109a33.871,33.871,0,0,1,23.531,9.8,33.159,33.159,0,0,1,9.8,23.531V314.836a33.871,33.871,0,0,0-9.8-23.531,33.16,33.16,0,0,0-23.531-9.8H307.043A33.226,33.226,0,0,0,274.1,314.836Z" transform="translate(378.885 621.697)" fill="#5c2f84"/>
    </g>
    <text id="_05-2" data-name="05" transform="translate(545.272 1075.619)" fill="#fdfdfd" font-size="24" font-family="SegoeUI, Segoe UI"><tspan x="0" y="0">05</tspan></text>
  </g>
</svg>
