<svg xmlns="http://www.w3.org/2000/svg" width="600.065" height="282.379" viewBox="0 0 600.065 282.379">
  <g id="offer1" transform="translate(-517.265 -178.443)">
    <g id="_01" data-name="01">
      <path id="Path_48822" data-name="Path 48822" d="M379.3,116.4h18.04a33.871,33.871,0,0,1,23.531,9.8,33.278,33.278,0,0,1-23.531,56.867H379.3Z" transform="translate(686.261 139.303)" fill="#f79530"/>
      <path id="Path_48823" data-name="Path 48823" d="M379.3,116.4h18.04a33.871,33.871,0,0,1,23.531,9.8,33.278,33.278,0,0,1-23.531,56.867H379.3Z" transform="translate(686.261 139.303)" fill="#cecece"/>
      <path id="Path_48824" data-name="Path 48824" d="M239.518,264.975c.784-22.747,20-40.395,43.14-40,15.3.392,27.845,9.02,34.9,21.178a23.125,23.125,0,0,0,19.217,11.765l36.865,1.177a22.778,22.778,0,0,0,23.531-21.962l3.137-101.183C401.1,114.377,419.53,97.513,441.1,97.9l330.218,10.981c21.962.784,39.218,18.825,38.434,40.395l-6.275,188.248c-.784,21.57-18.825,38.434-40.787,38.042L432.472,364.589c-21.962-.784-39.218-18.825-38.434-40.395l.784-21.178a22.435,22.435,0,0,0-21.962-23.139L336,278.7a22.659,22.659,0,0,0-20,10.589,42.141,42.141,0,0,1-36.473,18.825C256.774,306.939,238.734,287.722,239.518,264.975Z" transform="translate(277.771 85.244)" fill="#cecece"/>
      <path id="Path_48825" data-name="Path 48825" d="M239.5,270.045a41.167,41.167,0,0,1,76.476-21.178,22.251,22.251,0,0,0,19.609,10.981h36.473A22.763,22.763,0,0,0,394.8,237.1V135.918A39.334,39.334,0,0,1,434.023,96.7H760.711a39.334,39.334,0,0,1,39.218,39.218V324.166a39.334,39.334,0,0,1-39.218,39.218H433.631a39.334,39.334,0,0,1-39.218-39.218V302.988a22.763,22.763,0,0,0-22.747-22.747H335.193a22.726,22.726,0,0,0-19.609,10.981c-7.452,11.765-20.394,20-35.3,20C257.933,311.224,239.5,292.791,239.5,270.045Z" transform="translate(277.789 81.743)" fill="#fdfdfd"/>
      <circle id="Ellipse_444" data-name="Ellipse 444" cx="33.336" cy="33.336" r="33.336" transform="translate(525.133 318.453)" fill="#ec1b62"/>
      <path id="Path_48826" data-name="Path 48826" d="M737.953,193.171V134.736a33.871,33.871,0,0,0-9.8-23.531,33.16,33.16,0,0,0-23.531-9.8H307.336a33.434,33.434,0,0,0-32.943,29.414c0,1.177-.392,2.745-.392,3.922a33.308,33.308,0,0,0,33.336,33.336H705.009a33.169,33.169,0,0,1,32.943,29.414Z" transform="translate(378.593 95.476)" fill="#cecece"/>
      <path id="Path_48827" data-name="Path 48827" d="M274.1,132.449a33.308,33.308,0,0,0,33.336,33.336H705.109a33.871,33.871,0,0,1,23.531,9.8,33.159,33.159,0,0,1,9.8,23.531V132.841a33.871,33.871,0,0,0-9.8-23.531,33.159,33.159,0,0,0-23.531-9.8H307.043C289,99.113,274.1,114.016,274.1,132.449Z" transform="translate(378.885 89.919)" fill="#ec1b62"/>
    </g>
    <text id="_01-2" data-name="01" transform="translate(545.272 361.619)" fill="#fdfdfd" font-size="24" font-family="SegoeUI, Segoe UI"><tspan x="0" y="0">01</tspan></text>
  </g>
</svg>
