<svg xmlns="http://www.w3.org/2000/svg" xmlns:xlink="http://www.w3.org/1999/xlink" width="1470" height="398" viewBox="0 0 1470 398">
  <defs>
    <filter id="Rectangle_1880" x="0" y="0" width="1470" height="398" filterUnits="userSpaceOnUse">
      <feOffset input="SourceAlpha"/>
      <feGaussianBlur stdDeviation="5" result="blur"/>
      <feFlood flood-opacity="0.2"/>
      <feComposite operator="in" in2="blur"/>
      <feComposite in="SourceGraphic"/>
    </filter>
  </defs>
  <g id="عرض_سعر" data-name="عرض سعر" transform="translate(-3667 -3005)">
    <g id="Group_40269" data-name="Group 40269">
      <g transform="matrix(1, 0, 0, 1, 3667, 3005)" filter="url(#Rectangle_1880)">
        <rect id="Rectangle_1880-2" data-name="Rectangle 1880" width="1440" height="368" transform="translate(15 15)" fill="rgba(236,27,98,0.1)"/>
      </g>
      <path id="Subtraction_4" data-name="Subtraction 4" d="M-121.3,5036.1H-696.584c-1.879-7.687-3.475-15.485-4.744-23.178v-1.442h3.68a6.249,6.249,0,0,0,3.679-1.2,5.879,5.879,0,0,0,2.209-3.219l2.207-7.114h-13.628c-.161-1.334-.311-2.655-.447-3.925h38.363c3.653,0,6.625-2.2,6.625-4.907,0-1.581-1.073-3.1-2.944-4.17l-.247-.245v-8.587l2.455,3.436a4.254,4.254,0,0,1,1.226,3.189,2.734,2.734,0,0,0,2.7,2.7h2.7a2.734,2.734,0,0,0,2.7-2.7v-3.925c-1.765,0-1.946-.2-2.138-.418l0,0c-.02-.023-.041-.046-.064-.068l-8.834-12.513a2.989,2.989,0,0,0-1.962-.981h-4.907a2.249,2.249,0,0,0-2.033.962,1.433,1.433,0,0,0,.071,1.491l2.944,4.17v10.3l-4.417-4.171a8.393,8.393,0,0,0-5.887-2.452h-22.57v-3.189h10.548a17.312,17.312,0,0,0,16.929-13.983l.244-1.228,1.227-6.379,2.943-15.7,1.227-6.379,2.944-15.7.245-1.472a34.415,34.415,0,0,0,.245-4.907,17.348,17.348,0,0,0-5.52-10.732,16.843,16.843,0,0,0-11.408-4.478h-16.446a294.964,294.964,0,0,1,20-55.936h59a7.2,7.2,0,0,0,7.361-7.359V4746.87a298.266,298.266,0,0,1,40.584-31.539,296.427,296.427,0,0,1,45.772-24.207v35.283a4.666,4.666,0,0,0,4.661,4.661h72.864a4.666,4.666,0,0,0,4.661-4.661v-46.368a4.666,4.666,0,0,0-4.661-4.661h-22.079v-1.4A298.79,298.79,0,0,1-408.943,4668a296.818,296.818,0,0,1,85.607,12.54,294.913,294.913,0,0,1,75.78,35.182l4.621,11.76,6.378-2.452a34.618,34.618,0,0,0,5.888,6.132l-2.944,6.624,13.494,5.888s.015-.037.042-.1c.845-1.956,1.722-3.939,2.471-5.585,4.364,3.691,8.674,7.558,12.814,11.491l-1.46,1.459,7.116,7.115a39.943,39.943,0,0,0-4.907,12.022h-10.8v22.079h10.8a41.4,41.4,0,0,0,4.907,11.775l-7.361,7.361,15.456,15.455,7.358-7.36a41.5,41.5,0,0,0,11.777,4.908v11.04h22.079v-11.04c.619-.146,1.255-.313,1.891-.5a294.884,294.884,0,0,1,25.208,63.305h-69.3v121.192H-115.8c-1.382,9.282-3.232,18.637-5.5,27.807Zm7.218-41.548H-178.04v-4.9h64.414c-.139,1.643-.293,3.292-.457,4.9Zm1.092-14.083h0a62.281,62.281,0,0,1-6.168-.881h-58.634v-4.9h47.349a33.079,33.079,0,0,1-9.568-9.814h-37.781v-4.906h34.837a32.463,32.463,0,0,1-2.945-9.813H-178.04v-4.908h31.647a30.883,30.883,0,0,1,.737-6.869h-1.226l-1.228-9.321a4.692,4.692,0,0,0-4.172-4.17h-4.661l-1.962-.982-.245.245v-1.471c2.623-.716,4.64-3.1,5.4-6.379h.244a1.68,1.68,0,0,0,1.718-1.717,1.851,1.851,0,0,0-1.226-1.718,6.988,6.988,0,0,0,0-3.189,4.528,4.528,0,0,0,2.7-2.577,6.3,6.3,0,0,0,.491-1.84,2.206,2.206,0,0,1-1.743.786,2.425,2.425,0,0,1-2.182-1.275c-1.213-1.993-2.751-3-4.572-3-2.76,0-5.273,2.3-5.977,3a4.868,4.868,0,0,0-1.494-.257,2.729,2.729,0,0,0-2.182.95c-1.059,1.245-1.307,3.652-.739,7.157a1.641,1.641,0,0,0-1.227,1.717,1.68,1.68,0,0,0,1.718,1.718h.244c.756,3.278,2.774,5.662,5.4,6.377v.982l-1.963.982v.244h-4.661a4.7,4.7,0,0,0-4.17,4.171l-1.226,9.322h-3.189v-41.215h34.346v34.838a36.785,36.785,0,0,1,10.278-14,35.538,35.538,0,0,1,15.659-7.619c.229,1.241.447,2.466.65,3.644a31.75,31.75,0,0,0-23.153,19.45,26.773,26.773,0,0,0-1.718,5.888,25.092,25.092,0,0,0-.541,4.048c-.057.727-.112,1.412-.2,2.085,0,.735.063,1.482.123,2.205s.124,1.474.124,2.212a33.126,33.126,0,0,0,2.452,8.831c.14.281.274.556.434.887a19.04,19.04,0,0,0,2.02,3.53,33.419,33.419,0,0,0,8.832,8.831,31.488,31.488,0,0,0,10.3,4.416,24,24,0,0,0,5.352.9c-.049,1.153-.1,2.3-.164,3.411Zm.422-13.728h0a21.4,21.4,0,0,1-10.516-3.835,19.652,19.652,0,0,1-4.661-4.417,22.471,22.471,0,0,1-4.17-8.831,27.224,27.224,0,0,1-.491-4.417,21.658,21.658,0,0,1,1.3-7.414,21.806,21.806,0,0,1,3.593-6.332,21.969,21.969,0,0,1,12.219-7.571c.2,1.47.389,2.933.56,4.348a17.581,17.581,0,0,0-13.5,16.97h15.07c.106,1.662.2,3.313.272,4.908H-127.5a17.022,17.022,0,0,0,7.6,9.813h7.3c.022,1.488.032,2.974.032,4.419,0,.787,0,1.58-.009,2.359Zm-588.269-13.159h-4.293c.091-2.541.215-5.1.369-7.6h3.925v7.6Zm-.49-11.775h-3.15c.217-2.89.479-5.8.776-8.637.3-.24.6-.47.9-.684a22.192,22.192,0,0,0,4.17-3.681,5.82,5.82,0,0,0,1.226-3.435,4.58,4.58,0,0,0-1.718-3.925,5.388,5.388,0,0,0-2.923-1.33c.306-2.043.637-4.108.984-6.138a15.743,15.743,0,0,1,7.826,2.806c2.476,1.981,3.68,4.71,3.68,8.342a11.179,11.179,0,0,1-1.226,4.906,11.6,11.6,0,0,1-4.662,4.417l-2.207,1.473-.219.175-.129.1a13.809,13.809,0,0,0-2.6,2.42c-.074.3-.168.585-.268.892a7.214,7.214,0,0,0-.468,2.3Zm583.408-33.855h-16.941v-11.04h14.595c.849,3.649,1.638,7.363,2.346,11.039Zm-500.732-80.712h-53.125c2.2-4.215,4.535-8.424,6.93-12.512h28.777v-34.591h-5.076a299.016,299.016,0,0,1,22.494-25.232v72.335Zm-21.589-16.93h-21.967a298.024,298.024,0,0,1,17.621-25.759h4.346v25.758Zm479.374-.49h0l-11.529-10.3,3.435-1.718-2.944-5.4,3.37-1.444c.993,1.375,1.975,2.76,2.921,4.117l.579,2.48.721-.6c.532.776,1.047,1.536,1.533,2.258l1.917,7.664.879-3.427c.8,1.237,1.542,2.4,2.269,3.559l-3.147,2.812Zm-20.117-3.924h0a12.337,12.337,0,0,1-1.956-1.712l0,0a32.9,32.9,0,0,1-7.329-10.367,31.6,31.6,0,0,1-2.729-12.94,32.2,32.2,0,0,1,1.015-8.043,31.714,31.714,0,0,1,2.878-7.28,299.015,299.015,0,0,1,20.07,24.713l-5.319.178a6.268,6.268,0,0,0-5.151,5.151l-.981,7.6-.491,2.7ZM-454.035,4718.8h-29.441v-3.681h29.441v3.68Zm-57.9-4.417h-.736v-26.741h21.343v26.5h-.492l-.981-6.625c-.236-1.415-1.429-2.943-2.944-2.943h-3.435l-1.473-.737v-.736a5.915,5.915,0,0,0,3.926-4.661h.245a1.121,1.121,0,0,0,.981-1.228,1.353,1.353,0,0,0-.736-1.226,7.822,7.822,0,0,0-.736-3.435,4.17,4.17,0,0,1,.614-.246l.008,0a4.285,4.285,0,0,0,.6-.243,4.344,4.344,0,0,0-1.226-2.454,5.305,5.305,0,0,0-3.053-1.009,6.955,6.955,0,0,0-4.307,1.745,3.059,3.059,0,0,0-2.229.943c-.9.947-1.309,2.528-1.205,4.7a1.351,1.351,0,0,0-.736,1.226,1.121,1.121,0,0,0,.981,1.228h.491a5.911,5.911,0,0,0,3.925,4.661v.736l-1.471.737v.244l2.7,7.606,2.7-7.606,2.454.982-1.471,2.453,1.471.737-5.153,4.663-5.151-4.663,1.471-.737-1.471-2.453,2.452-.982h-3.433c-1.416.237-2.944,1.431-2.944,2.945l-.981,6.622Zm57.9-3.435h-29.441v-3.679h29.441v3.678Zm0-7.85h-29.441v-3.68h29.441v3.679Zm0-11.04h-29.441v-4.417h29.441v4.416Zm-19.873-16.683h-1.078c.254-.059.5-.114.751-.169l.327-.073v.242Z" transform="translate(4533.9 -1648)" fill="#c8c8c8"/>
      <g id="Group_40264" data-name="Group 40264" transform="translate(-590 -16.921)">
        <g id="Group_40193" data-name="Group 40193" transform="translate(4524.075 3095.31)">
          <g id="Group_40178" data-name="Group 40178" transform="translate(96.232 0)">
            <path id="Path_46712" data-name="Path 46712" d="M336.2,54.3l29.93,27.232L355.336,48.9Z" transform="translate(-172.81 12.678)" fill="#4d4f5a"/>
            <g id="Group_40175" data-name="Group 40175" transform="translate(0 14.72)">
              <path id="Path_46713" data-name="Path 46713" d="M362.335,29.8H285.792A16.176,16.176,0,0,0,269.6,45.992V93.34a16.176,16.176,0,0,0,16.192,16.192h10.549l-20.117,22.816L319.4,109.532h42.687A16.176,16.176,0,0,0,378.281,93.34V45.992A15.968,15.968,0,0,0,362.335,29.8Z" transform="translate(-269.6 -29.8)" fill="#fcbd14"/>
              <g id="Group_40174" data-name="Group 40174" transform="translate(34.592 10.059)">
                <rect id="Rectangle_1882" data-name="Rectangle 1882" width="11.04" height="10.304" transform="translate(13.248 44.65)" fill="#fff"/>
                <path id="Path_46714" data-name="Path 46714" d="M318.292,38.071c-3.435-2.7-8.341-4.171-14.229-4.171q-8.464,0-13.984,4.416c-3.68,2.944-5.643,6.869-6.379,12.021l11.04.491a7.929,7.929,0,0,1,3.189-5.888,11.187,11.187,0,0,1,13-.245,6.85,6.85,0,0,1,2.208,5.4A7.5,7.5,0,0,1,311.422,55a21.225,21.225,0,0,1-5.888,4.907,25.993,25.993,0,0,0-5.888,5.643,16.2,16.2,0,0,0-2.208,6.869h10.3a6.662,6.662,0,0,1,1.472-4.171,14.361,14.361,0,0,1,3.925-3.68l2.944-2.208c2.944-2.208,5.152-4.171,6.133-6.133a12.152,12.152,0,0,0,1.717-6.624C323.443,44.695,321.726,40.769,318.292,38.071Z" transform="translate(-283.7 -33.9)" fill="#fff"/>
              </g>
            </g>
            <g id="Group_40177" data-name="Group 40177" transform="translate(94.698)">
              <path id="Path_46715" data-name="Path 46715" d="M365.853,23.8C333.96,23.8,308.2,40.973,308.2,62.071s25.76,38.271,57.653,38.271,57.653-17.173,57.653-38.271S397.746,23.8,365.853,23.8Z" transform="translate(-308.2 -23.8)" fill="#4d4f5a"/>
              <g id="Group_40176" data-name="Group 40176" transform="translate(32.629 19.381)">
                <rect id="Rectangle_1883" data-name="Rectangle 1883" width="50.047" height="7.605" fill="#fff"/>
                <rect id="Rectangle_1884" data-name="Rectangle 1884" width="50.047" height="7.605" transform="translate(0 15.21)" fill="#fff"/>
                <rect id="Rectangle_1885" data-name="Rectangle 1885" width="50.047" height="7.605" transform="translate(0 30.421)" fill="#fff"/>
              </g>
            </g>
          </g>
          <g id="Group_40180" data-name="Group 40180" transform="translate(100.403 172.712)">
            <rect id="Rectangle_1886" data-name="Rectangle 1886" width="111.625" height="65.012" transform="translate(37.536 10.304)" fill="#a4a7a7"/>
            <rect id="Rectangle_1887" data-name="Rectangle 1887" width="111.625" height="14.229" transform="translate(37.536 10.304)" fill="#848e94" opacity="0.35"/>
            <rect id="Rectangle_1888" data-name="Rectangle 1888" width="19.626" height="104.02" transform="translate(141.556)" fill="#4d4f5a"/>
            <rect id="Rectangle_1889" data-name="Rectangle 1889" width="19.626" height="104.02" transform="translate(28.704)" fill="#4d4f5a"/>
            <g id="Group_40179" data-name="Group 40179" transform="translate(28.704 7.36)" opacity="0.35">
              <rect id="Rectangle_1890" data-name="Rectangle 1890" width="19.626" height="16.928" transform="translate(112.852)" fill="#899090"/>
              <rect id="Rectangle_1891" data-name="Rectangle 1891" width="19.626" height="16.928" fill="#899090"/>
            </g>
            <rect id="Rectangle_1892" data-name="Rectangle 1892" width="190.131" height="16.928" fill="#4d4f5a"/>
          </g>
          <g id="Group_40186" data-name="Group 40186" transform="translate(0 48.388)">
            <g id="Group_40181" data-name="Group 40181" transform="translate(46.719 81.557)">
              <path id="Path_46716" data-name="Path 46716" d="M274.643,103.1a4.283,4.283,0,0,1-5.4-3.435l-6.133-15.456s-2.944-8.341-7.115-7.36h-.245a7.8,7.8,0,0,0-6.133,9.323L256,115.364c.491,2.453,3.189,4.661,5.643,4.171l52.01-10.549-3.435-13.248Z" transform="translate(-249.418 -76.767)" fill="#5c2f84"/>
              <path id="Path_46717" data-name="Path 46717" d="M274.645,84.638c-.245,0-.245,0-.245.245l3.68,13.248h.491a7.063,7.063,0,0,0,4.907-8.587C282.005,85.865,278.325,83.657,274.645,84.638Z" transform="translate(-213.112 -65.667)" fill="#fc6"/>
            </g>
            <path id="Path_46718" data-name="Path 46718" d="M279.931,135.807V130.9H268.4v11.285a2.458,2.458,0,0,0,2.453,2.453h22.816C293.669,144.884,303.482,135.807,279.931,135.807Z" transform="translate(-175.112 83.46)" fill="#141625"/>
            <path id="Path_46719" data-name="Path 46719" d="M271.931,135.807V130.9H260.4v11.285a2.458,2.458,0,0,0,2.453,2.453h22.816C285.914,144.884,295.482,135.807,271.931,135.807Z" transform="translate(-186.738 83.46)" fill="#2d2f3c"/>
            <g id="Group_40182" data-name="Group 40182" transform="translate(20.383 137.327)">
              <path id="Path_46720" data-name="Path 46720" d="M308.16,111.766c-10.549-2.453-32.874-7.605-33.61-12.266l-27.968.736s-13.984,24.533,49.066,24.533l.981,55.69h19.136v-59.37A9.675,9.675,0,0,0,308.16,111.766Z" transform="translate(-229.121 -99.5)" fill="#343643"/>
              <path id="Path_46721" data-name="Path 46721" d="M301.53,111.766c-10.549-2.453-28.213-7.605-28.7-12.266l-32.874.736s-5.643,15.946,6.869,22.325c1.472.736,35.573,2.208,35.573,2.208,3.68-.245,6.379,2.944,6.624,6.624L290,180.7h19.136v-59.37A9.742,9.742,0,0,0,301.53,111.766Z" transform="translate(-238.683 -99.5)" fill="#4d4f5a"/>
            </g>
            <rect id="Rectangle_1893" data-name="Rectangle 1893" width="11.776" height="16.192" transform="translate(38.579 65.445)" fill="#fc6"/>
            <g id="Group_40183" data-name="Group 40183" transform="translate(38.579 65.936)" opacity="0.65">
              <path id="Path_46722" data-name="Path 46722" d="M246.1,76.043a24.629,24.629,0,0,0,5.888.981,16.492,16.492,0,0,0,5.888-.981V70.4H246.1Z" transform="translate(-246.1 -70.4)" fill="#cec5ae"/>
            </g>
            <path id="Path_46723" data-name="Path 46723" d="M270.648,76.9l-14.474-2.7h-.245a16.811,16.811,0,0,0-16.437,16.682L239,138.476h47.839l-4.661-34.346C279.725,89.9,275.309,77.635,270.648,76.9Z" transform="translate(-217.839 1.058)" fill="#472268"/>
            <g id="Group_40184" data-name="Group 40184" transform="translate(0 81.574)">
              <path id="Path_46724" data-name="Path 46724" d="M266.877,129.1H244.061a4.612,4.612,0,0,0-4.661,4.416h0v7.115h5.152V136.46a2.834,2.834,0,0,1,2.944-2.944h15.946a2.834,2.834,0,0,1,2.944,2.944v4.171h5.152v-6.869h0A4.821,4.821,0,0,0,266.877,129.1Z" transform="translate(-217.258 -0.73)" fill="#343643"/>
              <path id="Path_46725" data-name="Path 46725" d="M243.052,132.6a5.182,5.182,0,0,0-5.152,5.152,5.031,5.031,0,0,0,5.152,5.152,5.182,5.182,0,0,0,5.152-5.152A5.031,5.031,0,0,0,243.052,132.6Z" transform="translate(-219.438 4.357)" fill="#343643"/>
              <ellipse id="Ellipse_427" data-name="Ellipse 427" cx="5.152" cy="5.152" rx="5.152" ry="5.152" transform="translate(32.937 136.957)" fill="#343643"/>
              <ellipse id="Ellipse_428" data-name="Ellipse 428" cx="5.152" cy="5.152" rx="5.152" ry="5.152" transform="translate(47.166 136.957)" fill="#343643"/>
              <rect id="Rectangle_1894" data-name="Rectangle 1894" width="4.661" height="49.557" transform="translate(35.635 92.552)" fill="#343643"/>
              <path id="Path_46726" data-name="Path 46726" d="M243.8,120.387a4.277,4.277,0,0,0,4.171,2.944h9.568a4.512,4.512,0,0,0,4.171-2.944l2.7-8.587H241.1Z" transform="translate(-214.787 -25.872)" fill="#343643"/>
              <path id="Path_46727" data-name="Path 46727" d="M284.857,108.7h-47.1c-1.227,0-2.453,1.472-2.453,3.435v4.416c0,1.963.981,3.435,2.453,3.435h47.1c1.227,0,2.453-1.472,2.453-3.435v-4.416C287.31,110.417,286.083,108.7,284.857,108.7Z" transform="translate(-223.216 -30.377)" fill="#343643"/>
              <path id="Path_46728" data-name="Path 46728" d="M242.949,81.989a6.1,6.1,0,0,0-6.869-5.152h-.245a6.012,6.012,0,0,0-5.4,6.624l7.115,61.087a6.1,6.1,0,0,0,6.869,5.152h.245a6.012,6.012,0,0,0,5.4-6.624Z" transform="translate(-230.375 -76.774)" fill="#343643"/>
              <path id="Path_46729" data-name="Path 46729" d="M237.217,104.217h0a2.014,2.014,0,0,0-1.717,1.717l3.68,13.248c.245.736,1.227.981,2.208.736h0a2.067,2.067,0,0,0,1.717-1.717l-3.68-13.248C239.425,104.217,238.2,103.726,237.217,104.217Z" transform="translate(-222.926 -37.179)" fill="#343643"/>
            </g>
            <path id="Path_46730" data-name="Path 46730" d="M244.2,76.535,261.618,86.1l3.189-7.115L248.125,73.1Z" transform="translate(-210.282 -0.54)" fill="#eeeeef"/>
            <g id="Group_40185" data-name="Group 40185" transform="translate(37.094 87.512)">
              <path id="Path_46731" data-name="Path 46731" d="M267.833,107.666a4.428,4.428,0,0,1-4.907-3.925l-1.472-17.418a8.048,8.048,0,0,0-8.341-7.115h-.245a7.99,7.99,0,0,0-7.36,8.587l2.453,29.685c.245,2.453,2.7,5.152,5.152,4.907l52.991-3.435-1.472-13.493Z" transform="translate(-245.495 -79.195)" fill="#5c2f84"/>
              <path id="Path_46732" data-name="Path 46732" d="M269.891,89.934H269.4l1.717,13.738h.491a6.858,6.858,0,0,0,5.888-7.605A6.614,6.614,0,0,0,269.891,89.934Z" transform="translate(-210.753 -63.671)" fill="#fc6"/>
            </g>
            <path id="Path_46733" data-name="Path 46733" d="M263.278,46.5C249.54,46.5,238.5,60.238,238.5,77.412c0,16.928,11.04,30.912,24.778,30.912s24.778-13.738,24.778-30.912S277.017,46.5,263.278,46.5Z" transform="translate(-218.566 -39.198)" fill="#fc6"/>
            <path id="Path_46734" data-name="Path 46734" d="M242.5,90.282h13.984S252.558,58.634,266.542,52.5C266.542,52.5,217.967,24.533,242.5,90.282Z" transform="translate(-222.811 -39.066)" fill="#343643"/>
            <path id="Path_46735" data-name="Path 46735" d="M280.726,53.279c-14.72-23.552-38.026,2.944-38.026,2.944,6.379-.245,13,3.68,16.682,6.379a38.856,38.856,0,0,0,9.323,5.152c23.552,8.1,25.514-13.248,25.514-13.248l-.245.245C290.539,58.921,283.67,57.94,280.726,53.279Z" transform="translate(-212.462 -43.524)" fill="#343643"/>
            <path id="Path_46736" data-name="Path 46736" d="M246.6,57.9a5.91,5.91,0,1,0,5.4,5.888A5.724,5.724,0,0,0,246.6,57.9Z" transform="translate(-214.642 -22.631)" fill="#fc6"/>
          </g>
          <g id="Group_40192" data-name="Group 40192" transform="translate(269.475 50.38)">
            <g id="Group_40187" data-name="Group 40187" transform="translate(6.772 83.074)">
              <path id="Path_46737" data-name="Path 46737" d="M399.182,78.2h0c-4.416-.245-6.133,8.1-6.133,8.1l-4.171,16.192c-.981,2.944-2.453,4.171-4.907,3.925l-36.554-2.7L345.7,117.211l52.991,4.171c2.453.245,4.907-2.453,5.152-4.907l2.7-29.685A7.99,7.99,0,0,0,399.182,78.2Z" transform="translate(-339.018 -78.198)" fill="#6bc6b3"/>
              <path id="Path_46738" data-name="Path 46738" d="M343.034,94.315a7.1,7.1,0,0,0,5.888,7.851h.491l1.963-13.493h-.491A6.868,6.868,0,0,0,343.034,94.315Z" transform="translate(-342.977 -63.152)" fill="#fc6"/>
            </g>
            <path id="Path_46739" data-name="Path 46739" d="M356.123,135.661c-23.552,0-13.984,9.077-13.984,9.077h22.816a2.458,2.458,0,0,0,2.453-2.453V131H355.877v4.661Z" transform="translate(-340.216 81.613)" fill="#141625"/>
            <path id="Path_46740" data-name="Path 46740" d="M364.123,135.661c-23.552,0-13.984,9.077-13.984,9.077h22.816a2.458,2.458,0,0,0,2.453-2.453V131H363.877v4.661Z" transform="translate(-328.59 81.613)" fill="#2d2f3c"/>
            <g id="Group_40188" data-name="Group 40188" transform="translate(13.699 135.335)">
              <path id="Path_46741" data-name="Path 46741" d="M386.77,99.5c-.736,4.907-23.061,9.813-33.61,12.266a9.532,9.532,0,0,0-7.36,9.568V180.7h19.136l.981-55.69c63.05,0,49.066-24.533,49.066-24.533Z" transform="translate(-345.8 -99.5)" fill="#343643"/>
              <path id="Path_46742" data-name="Path 46742" d="M388.564,99.5c-.491,4.907-18.4,9.813-28.7,12.266a9.532,9.532,0,0,0-7.36,9.568V180.7h19.136l.981-49.311a6.447,6.447,0,0,1,6.624-6.624s34.1-1.472,35.573-2.208c12.512-6.379,6.869-22.325,6.869-22.325Z" transform="translate(-336.063 -99.5)" fill="#4d4f5a"/>
            </g>
            <rect id="Rectangle_1895" data-name="Rectangle 1895" width="11.776" height="16.192" transform="translate(70.124 63.453)" fill="#fc6"/>
            <g id="Group_40189" data-name="Group 40189" transform="translate(70.124 63.943)" opacity="0.65">
              <path id="Path_46743" data-name="Path 46743" d="M368.8,76.043a24.629,24.629,0,0,0,5.888.981,16.492,16.492,0,0,0,5.888-.981V70.4H368.8Z" transform="translate(-368.8 -70.4)" fill="#cec5ae"/>
            </g>
            <path id="Path_46744" data-name="Path 46744" d="M392.112,74.2h0l-14.474,2.7c-4.661.736-9.323,13-11.776,27.477L361.2,138.722h47.839l-.491-47.839A16.646,16.646,0,0,0,392.112,74.2Z" transform="translate(-309.721 -0.934)" fill="#57b09a"/>
            <g id="Group_40190" data-name="Group 40190" transform="translate(56.631 79.582)">
              <path id="Path_46745" data-name="Path 46745" d="M394.732,129.1H371.916a4.4,4.4,0,0,0-4.416,4.416h0v7.115h5.152V136.46a2.834,2.834,0,0,1,2.944-2.944h15.946a2.834,2.834,0,0,1,2.944,2.944v4.171h5.152v-6.869h0A5.04,5.04,0,0,0,394.732,129.1Z" transform="translate(-357.196 -0.73)" fill="#343643"/>
              <path id="Path_46746" data-name="Path 46746" d="M382.852,132.6a5.182,5.182,0,0,0-5.152,5.152,5.031,5.031,0,0,0,5.152,5.152,5.152,5.152,0,1,0,0-10.3Z" transform="translate(-342.372 4.357)" fill="#343643"/>
              <path id="Path_46747" data-name="Path 46747" d="M376.952,132.6a5.182,5.182,0,0,0-5.152,5.152,5.031,5.031,0,0,0,5.152,5.152,5.152,5.152,0,1,0,0-10.3Z" transform="translate(-350.947 4.357)" fill="#343643"/>
              <ellipse id="Ellipse_429" data-name="Ellipse 429" cx="5.152" cy="5.152" rx="5.152" ry="5.152" transform="translate(6.624 136.957)" fill="#343643"/>
              <rect id="Rectangle_1896" data-name="Rectangle 1896" width="4.661" height="49.557" transform="translate(23.797 92.552)" fill="#343643"/>
              <path id="Path_46748" data-name="Path 46748" d="M371.9,120.387a4.277,4.277,0,0,0,4.171,2.944h9.568a4.512,4.512,0,0,0,4.171-2.944l2.7-8.587H369.2Z" transform="translate(-354.725 -25.872)" fill="#343643"/>
              <path id="Path_46749" data-name="Path 46749" d="M412.857,108.7h-47.1c-1.227,0-2.453,1.472-2.453,3.435v4.416c0,1.963.981,3.435,2.453,3.435h47.1c1.227,0,2.453-1.472,2.453-3.435v-4.416C415.31,110.417,414.083,108.7,412.857,108.7Z" transform="translate(-363.3 -30.377)" fill="#343643"/>
              <path id="Path_46750" data-name="Path 46750" d="M395.666,76.837h0a6.345,6.345,0,0,0-7.115,5.152l-7.115,61.087a6.012,6.012,0,0,0,5.4,6.624h.245a6.1,6.1,0,0,0,6.869-5.152l7.115-61.087A5.76,5.76,0,0,0,395.666,76.837Z" transform="translate(-337.032 -76.774)" fill="#343643"/>
              <path id="Path_46751" data-name="Path 46751" d="M387.261,104.154h0c-1.227-.245-2.208,0-2.453.736l-3.68,13.248c-.245.736.491,1.472,1.717,1.717h0c.981.245,2.208,0,2.208-.736l3.68-13.248C388.978,105.136,388.242,104.4,387.261,104.154Z" transform="translate(-337.459 -37.117)" fill="#343643"/>
            </g>
            <path id="Path_46752" data-name="Path 46752" d="M367.1,78.988l3.435,7.115,17.418-9.568L384.028,73.1Z" transform="translate(-301.146 -2.533)" fill="#eeeeef"/>
            <g id="Group_40191" data-name="Group 40191" transform="translate(16.585 85.519)">
              <path id="Path_46753" data-name="Path 46753" d="M402.691,79.208h0a8.126,8.126,0,0,0-8.587,7.115l-1.472,17.418a4.267,4.267,0,0,1-4.907,3.925l-36.554-2.208L349.7,118.951l52.991,3.435c2.453,0,4.907-2.453,5.152-4.907L410.3,87.794C410.3,83.378,406.862,79.453,402.691,79.208Z" transform="translate(-343.018 -79.195)" fill="#6bc6b3"/>
              <path id="Path_46754" data-name="Path 46754" d="M347.034,95.942a6.722,6.722,0,0,0,5.888,7.605h.491l1.717-13.738h-.491A7.24,7.24,0,0,0,347.034,95.942Z" transform="translate(-346.976 -63.791)" fill="#fc6"/>
            </g>
            <path id="Path_46755" data-name="Path 46755" d="M385.878,46.5C372.14,46.5,361.1,60.238,361.1,77.412c0,16.928,11.04,30.912,24.778,30.912s24.778-13.984,24.778-31.157C410.657,60.238,399.617,46.5,385.878,46.5Z" transform="translate(-309.866 -41.19)" fill="#fc6"/>
            <path id="Path_46756" data-name="Path 46756" d="M371.6,52.476c19.136,6.624,10.059,37.781,10.059,37.781h9.323A6.86,6.86,0,0,0,397.36,85.6C417.967,25.98,371.6,52.476,371.6,52.476Z" transform="translate(-294.606 -41.033)" fill="#343643"/>
            <path id="Path_46757" data-name="Path 46757" d="M360.6,56.76s10.3,7.605,23.306,4.907a37.912,37.912,0,0,0,17.419-9.077S377.773,31.491,360.6,56.76Z" transform="translate(-310.593 -44.336)" fill="#343643"/>
            <path id="Path_46758" data-name="Path 46758" d="M379.6,57.9a5.91,5.91,0,1,0,5.4,5.888A5.724,5.724,0,0,0,379.6,57.9Z" transform="translate(-290.828 -24.623)" fill="#fc6"/>
          </g>
        </g>
      </g>
    </g>
    <path id="Exclusion_1" data-name="Exclusion 1" d="M-609.985,5039.1H-900.277s96.036-34.289,91.475-167.377S-723.13,4671-723.13,4671H-367.6s-96.036,34.289-91.476,167.377S-544.745,5039.1-544.745,5039.1Z" transform="translate(5428.422 -1651)" fill="rgba(255,255,255,0.18)"/>
  </g>
</svg>
