<svg xmlns="http://www.w3.org/2000/svg" viewBox="0 0 76.93 54.04"><defs><style>.cls-1{fill:#fff;}</style></defs><title>icn_4</title><g id="Layer_2" data-name="Layer 2"><g id="Layer_1-2" data-name="Layer 1"><path class="cls-1" d="M22.29,11.64a1.1,1.1,0,0,0,.8-.34L25.39,9a1.15,1.15,0,0,0,0-1.61,1.12,1.12,0,0,0-1.6,0l-2.3,2.32a1.15,1.15,0,0,0,0,1.61A1.1,1.1,0,0,0,22.29,11.64ZM9.57,21.76,7.28,24.08a1.16,1.16,0,0,0,0,1.62,1.12,1.12,0,0,0,1.59,0l2.3-2.33a1.15,1.15,0,0,0,0-1.61A1.12,1.12,0,0,0,9.57,21.76Zm13.52,0a1.12,1.12,0,0,0-1.6,0,1.15,1.15,0,0,0,0,1.61l2.3,2.33a1.13,1.13,0,0,0,1.6,0,1.16,1.16,0,0,0,0-1.62ZM9.57,11.3a1.11,1.11,0,0,0,1.6,0,1.15,1.15,0,0,0,0-1.61L8.87,7.37a1.11,1.11,0,0,0-1.59,0A1.15,1.15,0,0,0,7.28,9Zm42.48,1.5a1.12,1.12,0,0,0,.79-.33l1.24-1.26a1.15,1.15,0,0,0,0-1.61,1.12,1.12,0,0,0-1.59,0l-1.24,1.26a1.15,1.15,0,0,0,0,1.61A1.13,1.13,0,0,0,52.05,12.8Zm-10.86,11a1.13,1.13,0,0,0,.8-.33l1.24-1.26a1.15,1.15,0,0,0,0-1.61,1.13,1.13,0,0,0-1.6,0l-1.24,1.26a1.15,1.15,0,0,0,0,1.61A1.13,1.13,0,0,0,41.19,23.79Zm11.65-3.2a1.12,1.12,0,0,0-1.59,0,1.15,1.15,0,0,0,0,1.61l1.24,1.26a1.12,1.12,0,0,0,1.59,0,1.15,1.15,0,0,0,0-1.61ZM41.63,12.47a1.13,1.13,0,0,0,1.6,0,1.15,1.15,0,0,0,0-1.61L42,9.6a1.13,1.13,0,0,0-1.6,0,1.15,1.15,0,0,0,0,1.61ZM31.54,35.37H12.92a1.15,1.15,0,0,0,0,2.29H31.54a1.13,1.13,0,0,0,1.13-1.14A1.15,1.15,0,0,0,31.54,35.37ZM12.92,46.64a1.14,1.14,0,0,0,0,2.28h2.2a1.14,1.14,0,0,0,0-2.28Zm18.62,0H20.39a1.14,1.14,0,0,0,0,2.28H31.54a1.14,1.14,0,0,0,0-2.28Zm0-5.63H12.92a1.14,1.14,0,0,0,0,2.28H31.54a1.14,1.14,0,0,0,0-2.28ZM27.88,28.23a16.54,16.54,0,0,0,4.33-7.83H35a13,13,0,0,0,3.16,5.3,12.71,12.71,0,0,0,18.11,0,13.09,13.09,0,0,0,0-18.33,12.7,12.7,0,0,0-18.11,0,13.05,13.05,0,0,0-3.64,10.75H32.59A16.59,16.59,0,0,0,27.88,4.84a16.21,16.21,0,0,0-23.1,0,16.7,16.7,0,0,0,0,23.39,16.22,16.22,0,0,0,23.1,0ZM39.78,9A10.48,10.48,0,0,1,54.7,9a10.79,10.79,0,0,1,0,15.1,10.46,10.46,0,0,1-14.92,0A10.77,10.77,0,0,1,39.78,9ZM6.37,6.45a14,14,0,0,1,19.92,0,14.4,14.4,0,0,1,0,20.16,14,14,0,0,1-19.92,0A14.4,14.4,0,0,1,6.37,6.45ZM22.55,16.53a6.22,6.22,0,1,0-6.22,6.3A6.26,6.26,0,0,0,22.55,16.53Zm-10.18,0a4,4,0,1,1,4,4A4,4,0,0,1,12.37,16.53Zm34.87,4.3A4.3,4.3,0,1,0,43,16.53,4.27,4.27,0,0,0,47.24,20.83Zm0-6.31a2,2,0,1,1-2,2A2,2,0,0,1,47.24,14.52Zm-7,20.85A1.65,1.65,0,0,0,38.59,37V47.27a1.64,1.64,0,0,0,1.63,1.65H50.34A1.64,1.64,0,0,0,52,47.27V37a1.65,1.65,0,0,0-1.63-1.66Zm9.5,11.27H40.84v-9h8.88ZM76,23.46a2.33,2.33,0,0,0-2-.4l-8.64,2.4a2.36,2.36,0,0,0-1.72,2.29v2.08H58.88V28.16a1.13,1.13,0,1,0-2.26,0v23a.59.59,0,0,1-.59.6H8.52a.6.6,0,0,1-.59-.6V33.49a1.13,1.13,0,1,0-2.25,0V51.16A2.86,2.86,0,0,0,8.52,54H56a2.87,2.87,0,0,0,2.85-2.88V42.33h4.73v2.08a2.36,2.36,0,0,0,1.72,2.28L74,49.09a2.27,2.27,0,0,0,.62.09A2.33,2.33,0,0,0,76,48.69a2.37,2.37,0,0,0,.92-1.88V25.35A2.39,2.39,0,0,0,76,23.46ZM63.61,40.05H58.88V32.11h4.73Zm11.06,6.76a.09.09,0,0,1,0,.07.1.1,0,0,1-.07,0l-8.65-2.4a.09.09,0,0,1-.06-.08V27.75a.1.1,0,0,1,.06-.09l8.65-2.4a.09.09,0,0,1,.1.09Z"/></g></g></svg>