<svg xmlns="http://www.w3.org/2000/svg" viewBox="0 0 63.71 75.1"><defs><style>.cls-1{fill:#fff;}</style></defs><title>icn_2</title><g id="Layer_2" data-name="Layer 2"><g id="Layer_1-2" data-name="Layer 1"><path class="cls-1" d="M53.37,49H13.28a1.41,1.41,0,0,0,0,2.82H53.37a1.41,1.41,0,0,0,0-2.82Z"/><path class="cls-1" d="M53.37,60.06H13.28a1.41,1.41,0,0,0,0,2.82H53.37a1.41,1.41,0,0,0,0-2.82Z"/><path class="cls-1" d="M62.32,27H13.54l46.6-14.59a1.41,1.41,0,0,0,.92-1.77L58.12,1a1.43,1.43,0,0,0-.68-.83,1.39,1.39,0,0,0-1.06-.1L1,17.42a1.42,1.42,0,0,0-.92,1.76l2.88,9.41v45.1A1.4,1.4,0,0,0,4.33,75.1h58a1.4,1.4,0,0,0,1.39-1.41V28.38A1.4,1.4,0,0,0,62.32,27Zm-7.83,2.82L47.33,37h-9l7.16-7.25Zm-12.93,0L34.41,37h-9l7.15-7.25Zm-12.92,0L21.48,37h-9l7.16-7.25Zm-12.93,0L8.56,37H5.72V29.79ZM55.87,3.17,58,10.1,55.28,11l-9-4.79ZM42.57,7.34l9,4.78-8.59,2.69L34,10ZM30.22,11.21l9,4.78-8.58,2.69L21.64,13.9ZM17.87,15.08l9,4.78-8.59,2.69L9.29,17.77ZM3.13,19.69l2.4-.75,9,4.79L5.25,26.62Zm57.8,52.59H5.72V39.86H60.93Zm0-35.24H51.27l7.15-7.25h2.51Z"/></g></g></svg>