<svg xmlns="http://www.w3.org/2000/svg" viewBox="0 0 72.88 54.41"><defs><style>.cls-1{fill:#fff;}</style></defs><title>icn_5</title><g id="Layer_2" data-name="Layer 2"><g id="Layer_1-2" data-name="Layer 1"><path class="cls-1" d="M49.24,24.29a88.3,88.3,0,0,0-20.09-2,88.27,88.27,0,0,0-20.08,2C3.05,25.75,0,27.75,0,30.22s3.05,4.47,9.07,5.94c.85.21,1.75.4,2.68.58-.1,1.53-.23,3.07-.38,4.62,0,.12,0,.24,0,.37,0,.32-.07.65-.1,1q-.57,5.1-1.53,10.37a1.14,1.14,0,0,0,.9,1.32l.21,0a1.12,1.12,0,0,0,1.1-.93c.55-3,1-6,1.36-9a115.93,115.93,0,0,0,15.88,1,116,116,0,0,0,15.89-1c.35,3,.81,5.94,1.36,9a1.12,1.12,0,0,0,1.3.91,1.14,1.14,0,0,0,.9-1.32c-.64-3.51-1.15-7-1.52-10.37,0-.33-.07-.65-.11-1l0-.37c-.16-1.54-.28-3.09-.38-4.62.93-.18,1.83-.37,2.68-.58,6-1.47,9.07-3.47,9.07-5.94S55.25,25.75,49.24,24.29Zm-20.09,19a113.63,113.63,0,0,1-15.62-1c0-.35.07-.71.11-1.07v-.11l.15-1.7c0-.21,0-.42,0-.63l.09-1.1c0-.18,0-.35,0-.53,2.25.35,4.69.62,7.25.8h0l.6,0,1.23.07h.16l.86,0h.07l.92,0h.26l.67,0h1.06l.87,0H32.3l.77,0h.16l.91,0h.07l.86,0h.18L36.57,38l.49,0h0c2.56-.18,5-.45,7.25-.8,0,.16,0,.33,0,.49,0,.38.05.76.08,1.15,0,.2,0,.41,0,.62,0,.57.1,1.14.16,1.71v.09c0,.36.07.72.11,1.08A113.78,113.78,0,0,1,29.15,43.28ZM54.43,31.9A22.73,22.73,0,0,1,48.71,34c-1.09.27-2.27.51-3.51.73h-.05l-.77.13-.25,0-.59.1-.25,0-.83.12h-.05l-.79.1-.28,0-.61.07-.28,0-.86.09h-.11l-.78.07-.31,0-.61.05-.31,0-.87.06h-.19l-.74.05-.34,0-.62,0-.34,0-.9,0h0l-1,0H32.3l-.92,0H26.93l-.93,0h-.12l-1,0h-.05l-.9,0-.33,0-.62,0-.34,0-.74-.05h-.2l-.86-.06-.31,0-.62-.05-.31,0-.77-.07h-.11l-.86-.09-.28,0L17,35.24l-.27,0-.79-.1h-.06L15,35l-.25,0-.6-.1-.25,0-.79-.14h0q-1.86-.33-3.51-.72c-5-1.24-7.35-2.8-7.35-3.74,0-.46.61-1.08,1.64-1.67a22.75,22.75,0,0,1,5.71-2.06,86.61,86.61,0,0,1,19.56-2,86.61,86.61,0,0,1,19.56,2c5,1.23,7.35,2.8,7.35,3.73C56.07,30.68,55.45,31.31,54.43,31.9ZM48.8,28.65C47.93,28.42,47,28.21,46,28a92,92,0,0,0-16.84-1.43A92,92,0,0,0,12.32,28c-1,.19-2,.4-2.82.63a1.63,1.63,0,0,0,0,3.14c.87.23,1.82.44,2.82.64a92,92,0,0,0,16.83,1.42A92.08,92.08,0,0,0,46,32.43c1-.2,1.94-.41,2.81-.64a1.62,1.62,0,0,0,0-3.14ZM29.15,31.58a90.11,90.11,0,0,1-16.3-1.36,90.11,90.11,0,0,1,16.3-1.36,90,90,0,0,1,16.3,1.36A90,90,0,0,1,29.15,31.58Zm43.6-26.8L72,2.19A3,3,0,0,0,70.56.38,2.33,2.33,0,0,0,68.72.21L30.28,12.86l-8.5,2.8a2.71,2.71,0,0,0-1.55,3.44l0,.11a2.78,2.78,0,0,0,2.56,2.1,2.06,2.06,0,0,0,.6-.08l47.66-13a2.35,2.35,0,0,0,1.45-1.16A3.07,3.07,0,0,0,72.75,4.78ZM22.84,19c-.07,0-.32-.11-.43-.47l0-.12c-.11-.36,0-.61.1-.63l7.4-2.44L30.35,17ZM70.57,6s0,.08-.07.08l-38,10.35L32,14.68,69.42,2.36h0l.09,0a.72.72,0,0,1,.32.45l.76,2.59A.7.7,0,0,1,70.57,6ZM9.83,15.07h1.35v1.36a1.12,1.12,0,1,0,2.24,0V15.07h1.34a1.13,1.13,0,0,0,0-2.26H13.42V11.45a1.12,1.12,0,1,0-2.24,0v1.36H9.83a1.13,1.13,0,0,0,0,2.26Zm44.69-.24A1.12,1.12,0,0,0,53.4,16v1.36H52.06a1.14,1.14,0,0,0,0,2.27H53.4V21a1.12,1.12,0,1,0,2.24,0V19.59H57a1.14,1.14,0,0,0,0-2.27H55.64V16A1.12,1.12,0,0,0,54.52,14.83ZM35.72,4.76h1.34V6.12a1.12,1.12,0,1,0,2.24,0V4.76h1.35a1.14,1.14,0,0,0,0-2.27H39.3V1.13a1.12,1.12,0,1,0-2.24,0V2.49H35.72a1.14,1.14,0,0,0,0,2.27Z"/></g></g></svg>