<svg xmlns="http://www.w3.org/2000/svg" viewBox="0 0 66.83 66.83"><defs><style>.cls-1{fill:#fff;}</style></defs><title>icn_1</title><g id="Layer_2" data-name="Layer 2"><g id="Layer_1-2" data-name="Layer 1"><path class="cls-1" d="M29,55.22H24.62a5.13,5.13,0,0,1-5.13-5.12V42.63a1.3,1.3,0,0,0-1.3-1.3H11.91l3.94-14.21a1.34,1.34,0,0,0,.05-.35,24,24,0,0,1,4.17-13.58,1.3,1.3,0,0,0-2.15-1.47,26.56,26.56,0,0,0-4.63,14.87L8.93,42.28a1.31,1.31,0,0,0,1.26,1.66h6.69V50.1a7.74,7.74,0,0,0,7.74,7.73H29a2.49,2.49,0,0,1,2.48,2.48v5.21a1.31,1.31,0,1,0,2.61,0V60.31A5.1,5.1,0,0,0,29,55.22Z"/><path class="cls-1" d="M25.76,7a1.27,1.27,0,0,0,.74-.23A24.1,24.1,0,0,1,39.66,2.61a24.39,24.39,0,0,1,7.79,1.14,1.31,1.31,0,0,0,.79-2.49A27.19,27.19,0,0,0,39.62,0,26.7,26.7,0,0,0,25,4.61,1.31,1.31,0,0,0,25.76,7Z"/><path class="cls-1" d="M65.13,31.71a1.3,1.3,0,0,0-1.54,1A31.23,31.23,0,0,1,58.94,44a12.92,12.92,0,0,0-2.33,7.42V65.52a1.31,1.31,0,1,0,2.61,0V51.37a10.37,10.37,0,0,1,1.86-5.93,33.61,33.61,0,0,0,5.06-12.18A1.31,1.31,0,0,0,65.13,31.71Z"/><path class="cls-1" d="M66.83,20.62a7.19,7.19,0,0,0-5.52-7,11,11,0,0,0-21-.13,8.24,8.24,0,0,0-1-.07,7.21,7.21,0,0,0,0,14.41h2.94a1.31,1.31,0,0,0,0-2.61H39.31a4.6,4.6,0,0,1,0-9.19,4.52,4.52,0,0,1,1.51.26,1.3,1.3,0,0,0,1.72-1A8.39,8.39,0,0,1,59,15a1.3,1.3,0,0,0,1.13,1,4.59,4.59,0,0,1-.49,9.16H56a1.31,1.31,0,0,0,0,2.61h3.61A7.21,7.21,0,0,0,66.83,20.62Z"/><path class="cls-1" d="M52.75,28.3H49.33l2.21-6.39a1.31,1.31,0,1,0-2.47-.85l-2.81,8.12a1.31,1.31,0,0,0,.18,1.18,1.28,1.28,0,0,0,1.06.55h3.39l-2,5.59a1.31,1.31,0,0,0,.79,1.67,1.41,1.41,0,0,0,.44.08,1.31,1.31,0,0,0,1.23-.87L54,30.05a1.31,1.31,0,0,0-1.23-1.75Z"/><path class="cls-1" d="M22.19,25.21a1.32,1.32,0,0,0-.92.38,1.29,1.29,0,0,0-.39.92,1.31,1.31,0,1,0,2.61,0,1.28,1.28,0,0,0-.38-.92A1.32,1.32,0,0,0,22.19,25.21Z"/><path class="cls-1" d="M9.56,27.82a1.31,1.31,0,1,0,0-2.61H4.45a1.3,1.3,0,0,0-1.86-1.83L.38,25.59a1.31,1.31,0,0,0,0,1.85l2.21,2.21a1.32,1.32,0,0,0,1.85,0,1.3,1.3,0,0,0,0-1.83Z"/><path class="cls-1" d="M51.69,50.06a1.31,1.31,0,1,0,.92,2.23,1.3,1.3,0,0,0,0-1.84A1.29,1.29,0,0,0,51.69,50.06Z"/><path class="cls-1" d="M51.69,54.69A1.31,1.31,0,0,0,50.38,56v9.52a1.31,1.31,0,1,0,2.61,0V56A1.31,1.31,0,0,0,51.69,54.69Z"/><circle class="cls-1" cx="22.19" cy="8.63" r="1.31"/></g></g></svg>