<svg xmlns="http://www.w3.org/2000/svg" viewBox="0 0 76.59 61.36"><defs><style>.cls-1{fill:#fff;}</style></defs><title>icn_3</title><g id="Layer_2" data-name="Layer 2"><g id="Layer_1-2" data-name="Layer 1"><path class="cls-1" d="M55,12.77a1.13,1.13,0,0,0-1.12-1.14H30a1.14,1.14,0,0,0,0,2.28h23.9A1.13,1.13,0,0,0,55,12.77ZM24.73,13.91a1.14,1.14,0,0,0,0-2.28H20.94a1.14,1.14,0,0,0,0,2.28ZM20.94,46.49a1.14,1.14,0,0,0,0,2.27H32.68a1.14,1.14,0,0,0,0-2.27ZM38.52,36a1.13,1.13,0,0,0-1.12-1.14H20.94a1.14,1.14,0,0,0,0,2.28H37.4A1.13,1.13,0,0,0,38.52,36Zm8-11.62a1.14,1.14,0,0,0-1.13-1.14H20.94a1.14,1.14,0,0,0,0,2.28H45.4A1.14,1.14,0,0,0,46.53,24.39ZM60.32,38.9A1.12,1.12,0,0,0,59.2,40V53.81A5.25,5.25,0,0,1,54,59.09h-.14c-2.94,0-5.17-2.44-5.21-5.67a1.13,1.13,0,0,0-1.12-1.13H15.05V7.55a5.25,5.25,0,0,1,5.2-5.28H61.32l-.09.11-.12.13L61,2.65l-.11.13-.11.14a1.71,1.71,0,0,1-.11.14l-.1.15-.1.15-.1.15-.1.15-.09.16L60.09,4,60,4.14a1.19,1.19,0,0,1-.08.16c0,.06-.05.11-.07.17l-.07.16a1.34,1.34,0,0,0-.07.18L59.65,5a.85.85,0,0,0-.06.17l-.06.17a1.33,1.33,0,0,0-.05.19.84.84,0,0,0,0,.17,1.29,1.29,0,0,0,0,.19,1,1,0,0,0,0,.17,1.77,1.77,0,0,0,0,.2l0,.17a1.5,1.5,0,0,0,0,.22.77.77,0,0,0,0,.15,2.29,2.29,0,0,0,0,.25s0,.09,0,.13,0,.26,0,.39V17.64a1.12,1.12,0,1,0,2.24,0V9.07H73a1.1,1.1,0,0,0,.8-.34,1.16,1.16,0,0,0,.33-.81C74.07,3.4,70.87,0,66.65,0H20.25A7.51,7.51,0,0,0,12.8,7.55V52.29H1.12a1.12,1.12,0,0,0-.8.34,1.17,1.17,0,0,0-.32.81C0,58,3.25,61.36,7.45,61.36H54a7.51,7.51,0,0,0,7.45-7.55V40A1.12,1.12,0,0,0,60.32,38.9ZM61.5,6.77s0-.07,0-.1,0-.1,0-.15l0-.11,0-.13,0-.12,0-.12,0-.12a.56.56,0,0,1,0-.12s0-.07,0-.11,0-.08,0-.11a.61.61,0,0,0,0-.12l.05-.11,0-.12L62,5.15A.54.54,0,0,1,62.09,5s0,0,0,0a5,5,0,0,1,.35-.54h0l.12-.17,0,0,.13-.15,0,0,.14-.15,0,0,.14-.15h0l.16-.15h0A5.31,5.31,0,0,1,65.7,2.36h0l.23,0h0l.22,0h.49a5.23,5.23,0,0,1,5.1,4.52H61.5Zm-54,52.32a5.23,5.23,0,0,1-5.1-4.52H46.48c0,.12,0,.23.05.35s0,.07,0,.11,0,.16.05.23l0,.14a1.94,1.94,0,0,0,0,.2l0,.14.06.19s0,.1,0,.14l.06.19s0,.09.05.14a.87.87,0,0,0,.07.17s0,.1,0,.14l.08.18s0,.08.05.13l.09.18.06.11a1.51,1.51,0,0,0,.11.22l0,.07.17.28a.43.43,0,0,0,0,.07l.13.21.07.09.12.17.08.1.12.16.08.1.13.14.08.1a.23.23,0,0,1,.07.07ZM76.59,21v0a1.55,1.55,0,0,0-.06-.31h0v0a.42.42,0,0,0-.06-.14v0a.41.41,0,0,0-.07-.11l0,0-.09-.11,0,0-.1-.09h0L76,20l0,0-.14-.06h0l-.15,0h0l-.15,0c-9.4-.25-21.65,2-27.84,9.21-2.71,3.13-4,7.1-5.17,11l-.3.94v0l-1.9,6.83a1.14,1.14,0,0,0,.78,1.4,1,1,0,0,0,.3,0,1.12,1.12,0,0,0,1.08-.83l1.76-6.33a35.49,35.49,0,0,1,6.23-2.14c1.21-.33,2.59-.71,4.25-1.23,3.6-1.12,10.51-5.81,13.68-9.3a78.18,78.18,0,0,1,7.82-7.57h0l.11-.11h0l.09-.12,0,0a1.39,1.39,0,0,0,.12-.28v0l0-.15h0a.34.34,0,0,0,0-.1ZM49.35,30.53c2.61-3,6.62-5.3,11.9-6.77a45.74,45.74,0,0,1,4.47-1,86.69,86.69,0,0,0-9.79,5.77,91.06,91.06,0,0,0-9.75,7.55A18.91,18.91,0,0,1,49.35,30.53Zm17.36-2.66c-3.09,3.39-9.77,7.76-12.69,8.66-1.63.51-3,.89-4.18,1.22s-2.07.57-3.05.88c.44-.42,1-.9,1.55-1.43a92.28,92.28,0,0,1,8.84-6.76c5.67-3.83,10.79-6.52,14.56-7.69C70.1,24.28,68.49,25.92,66.71,27.87Z"/></g></g></svg>