<svg xmlns="http://www.w3.org/2000/svg" xmlns:xlink="http://www.w3.org/1999/xlink" width="32" height="32" viewBox="0 0 32 32">
  <defs>
    <linearGradient id="linear-gradient" x1="0.894" y1="0.106" x2="0.076" y2="0.924" gradientUnits="objectBoundingBox">
      <stop offset="0" stop-color="#3a32b8"/>
      <stop offset="1" stop-color="#4e66ff"/>
    </linearGradient>
    <linearGradient id="linear-gradient-2" x1="1.982" y1="-0.222" x2="-0.995" y2="1.329" xlink:href="#linear-gradient"/>
  </defs>
  <g id="Group_36556" data-name="Group 36556" transform="translate(0 0)">
    <g id="Group_36555" data-name="Group 36555">
      <path id="Path_41241" data-name="Path 41241" d="M292.594,292.7H280.206a9.8,9.8,0,0,1-9.806-9.806V270.506a9.8,9.8,0,0,1,9.806-9.806h12.387a9.8,9.8,0,0,1,9.806,9.806v12.387A9.869,9.869,0,0,1,292.594,292.7Zm-12.387-30.761a8.635,8.635,0,0,0-8.619,8.619v12.387a8.635,8.635,0,0,0,8.619,8.619h12.387a8.635,8.635,0,0,0,8.619-8.619V270.558a8.635,8.635,0,0,0-8.619-8.619Z" transform="translate(-270.4 -260.7)" fill="url(#linear-gradient)"/>
    </g>
    <path id="Path_41242" data-name="Path 41242" d="M301.585,275.351l-2.51-.051a3.947,3.947,0,0,0-2.667,1.02,3.387,3.387,0,0,0-1.1,2.55v2.346h-2.353a.137.137,0,0,0-.157.153v2.907a.137.137,0,0,0,.157.153h2.353v7.4a.137.137,0,0,0,.157.153h3.085a.137.137,0,0,0,.157-.153v-7.4h2.353a.137.137,0,0,0,.157-.153l.366-2.907a.185.185,0,0,0-.052-.153.2.2,0,0,0-.157-.051H298.6v-1.479a1.734,1.734,0,0,1,.314-1.122.887.887,0,0,1,.732-.306h1.778a.137.137,0,0,0,.157-.153v-2.652C301.794,275.4,301.69,275.351,301.585,275.351Z" transform="translate(-281.296 -267.665)" fill="url(#linear-gradient-2)"/>
  </g>
</svg>
