<?xml version="1.0" encoding="utf-8"?>
<!-- Generator: Adobe Illustrator 22.1.0, SVG Export Plug-In . SVG Version: 6.00 Build 0)  -->
<svg version="1.1" id="Layer_1" xmlns="http://www.w3.org/2000/svg" xmlns:xlink="http://www.w3.org/1999/xlink" x="0px" y="0px"
	 viewBox="0 0 222 202.6" style="enable-background:new 0 0 222 202.6;" xml:space="preserve">
<style type="text/css">
	.st0{fill:#3FA9F5;}
	.st1{fill:#3390D4;}
</style>
<g>
	<g>
		<path class="st0" d="M0,193C0,131.9,0,70.7,0,9.6c0-0.1,0.1-0.2,0.1-0.4c0.7-3.6,3.2-5.1,6.7-4c5.8,1.8,11.7,3.5,17.5,5.3
			c1.5,0.5,3.1,0.9,4.7,1.4c0-2.4,0-4.7,0-7c0-2.2,1.4-4,3.5-4.6c0.2,0,0.3-0.1,0.5-0.2C85,0,137,0,189.1,0c3.3,1,4.1,3.2,4,5.9
			c-0.1,1.7,0,3.5,0,5.2c0,0.2,0,0.4,0.1,0.7c0.4-0.1,0.8-0.2,1.2-0.3c7.2-2.2,14.3-4.3,21.5-6.4c2-0.6,3.8-0.2,5.1,1.4
			c0.6,0.7,0.8,1.6,1.2,2.5c0,61.6,0,123.1,0,184.7c0,0-0.1,0.1-0.1,0.1c-0.4,2.8-3.4,4.8-6.7,3.7c-6.5-2.1-13.1-4-19.6-5.9
			c-0.8-0.2-1.7-0.5-2.6-0.7c0,2.3,0,4.4,0,6.6c0,0.8-0.1,1.6-0.4,2.4c-0.9,2.1-2.7,2.9-5,2.9c-51.1,0-102.2,0-153.2,0
			c-0.2,0-0.5,0-0.7,0c-2.7-0.1-4.7-2.2-4.7-4.9c0-2,0-4.1,0-6.1c0-0.3,0-0.5,0-0.9c-2.2,0.6-4.2,1.3-6.2,1.9
			c-5.5,1.7-11.1,3.3-16.6,5c-2.5,0.7-5.1-0.7-5.9-3C0.2,194.1,0.1,193.5,0,193z M58,173.7c35.4,0,70.7,0,106.1,0
			c0-48.3,0-96.4,0-144.6c-35.4,0-70.7,0-106.1,0C58,77.3,58,125.5,58,173.7z M9.8,82.5c0,34.7,0,69.3,0,104
			c0.3-0.1,0.5-0.1,0.7-0.2c12.3-3.7,24.6-7.4,36.9-11.1c0.7-0.2,0.9-0.5,0.9-1.3c0-28.8,0-57.6,0-86.5c0-0.2,0-0.4,0-0.5
			c0.1-0.5-0.2-0.6-0.6-0.6c-1.8-0.1-3.6-0.3-5.4-0.5c-4.3-0.4-8.6-0.9-12.8-1.3c-4.3-0.4-8.7-0.9-13-1.3
			C14.3,83,12.1,82.7,9.8,82.5z M212.3,82.5c-0.2,0-0.3,0-0.5,0c-5,0.5-10.1,1-15.1,1.5c-7.3,0.7-14.6,1.5-21.9,2.2
			c-1.2,0.1-1.1,0-1.1,1.2c0,28.8,0,57.5,0,86.3c0,0.9,0.2,1.2,1.1,1.5c9.9,2.9,19.8,5.9,29.8,8.9c2.6,0.8,5.1,1.5,7.7,2.3
			C212.3,151.8,212.3,117.2,212.3,82.5z M9.7,72.8c12.9,1.3,25.7,2.6,38.6,3.9c0-16.4,0-32.7,0-49C35.5,23.8,22.6,20,9.7,16.1
			C9.7,35.1,9.7,53.9,9.7,72.8z M173.8,76.7c12.9-1.3,25.7-2.6,38.5-3.9c0-18.9,0-37.8,0-56.6c-0.3,0.1-0.5,0.1-0.6,0.2
			c-12.4,3.7-24.7,7.4-37.1,11.1c-0.6,0.2-0.8,0.4-0.8,1.1c0,15.8,0,31.5,0,47.3C173.8,76.1,173.8,76.3,173.8,76.7z M38.7,9.7
			c0,1.5,0,2.9,0,4.3c0,0.6,0.2,0.8,0.7,0.9c4.1,1.2,8.2,2.4,12.3,3.7c1.4,0.4,2.9,0.6,4.4,0.6c37.1,0,74.2,0,111.3,0
			c0.5,0,1.1-0.1,1.6-0.2c3.5-1,6.9-2.1,10.4-3.1c1.3-0.4,2.7-0.8,4-1.2c0-1.7,0-3.4,0-5C135.2,9.7,87,9.7,38.7,9.7z M38.7,192.9
			c48.3,0,96.5,0,144.7,0c0-1.5,0-2.9,0-4.4c0-0.5-0.2-0.7-0.6-0.8c-3.9-1.2-7.8-2.4-11.7-3.5c-1.2-0.3-2.4-0.8-3.6-0.8
			c-37.7,0-75.3,0-113,0c-0.4,0-0.9,0.1-1.3,0.2c-2.6,0.8-5.2,1.6-7.8,2.3c-2.2,0.7-4.4,1.3-6.7,2C38.7,189.6,38.7,191.3,38.7,192.9
			z"/>
	</g>
	<rect x="58" y="29" class="st1" width="106.1" height="144.6"/>
</g>
</svg>
