<?xml version="1.0" encoding="utf-8"?>
<!-- Generator: Adobe Illustrator 22.1.0, SVG Export Plug-In . SVG Version: 6.00 Build 0)  -->
<svg version="1.1" xmlns="http://www.w3.org/2000/svg" xmlns:xlink="http://www.w3.org/1999/xlink" x="0px" y="0px"
	 viewBox="0 0 581.3 277.1" style="enable-background:new 0 0 581.3 277.1;" xml:space="preserve">
<style type="text/css">
	.st0{fill:none;stroke:#00FFFF;stroke-miterlimit:10;}
	.st1{fill:#0E3FAC;}
	.st2{fill:#3FA9F5;}
</style>
<g id="tıtle-stroke">
	<g>
		<path class="st0" d="M394.8,91.9c1.4-4.5,1.9-8.4,3.8-11.6c3.4-5.6,7.4-11,11.5-16.1c2.4-2.9,6-4.7,10.1-3c4,1.6,6.1,4.9,5.8,8.8
			c-0.3,3.9-1.1,7.8-1.8,12.1c3.6-0.2,6.5-1.7,8.8-3.9c5.1-4.8,8.1-10.5,8.4-17.3c0.3-7.7,0.4-15.4,0.4-23c0.1-11,4.2-21.2,7.8-31.4
			c0.4-1.1,1.3-2,2.5-3.9c0.6,2,1.2,3,1.1,4c-1.1,17.9-1.7,35.9-3.5,53.8c-1.3,13.3-10.5,23-20.9,31.4c-4,3.3-9.6,4.3-15.1,3.7
			c-6.1-0.7-11.2,0.6-15.6,4.5c-1.5,1.3-3.3,2.4-4.9,3.6c-2.3,1.7-4.8,2.9-7.9,2.4c-4.5-0.7-7.7,1.2-10.4,4.2
			c-1.8,2-3.4,4.2-5.2,6.2c-2,2.3-3.8,4.8-6.2,6.8c-7.2,5.7-15.7,5.2-22.4-1c-0.6-0.6-1.2-1.2-2.1-2c-0.9,1.1-1.5,1.9-2.1,2.8
			c-2.2,3.2-4.4,6.5-6.9,10.2c2.4,0.7,4.5,1.3,6.6,2c8,2.6,9.6,6.1,6.5,13.3c-4.2,9.9-11.7,15-23.3,16.5
			c-15.1,2.1-28.3,8.2-36.4,20.9c-4.8,7.5-6.3,16-8,24.4c-3.4,17.2-4.6,34.6-4.9,52.1c-0.1,4.8-0.7,9.6-1.1,14.5
			c-0.4,0-0.8,0.1-1.2,0.1c-0.4-1.9-1.1-3.9-1.1-5.8c-0.1-14.5-0.9-29,0-43.5c1-16.4,4.1-32.5,11.8-47.7
			c5.7-11.3,14.4-20.1,26.1-26.2c4.8-2.5,8.2-5.6,10.8-10.2c4.3-7.7,9.9-14.9,14.3-22.6c2.1-3.8,3.7-8.1,4.1-12.3
			c1.6-17.7,5.8-34.8,13.1-51.2c0.4-0.9,1.1-1.7,2.8-2.5c0.1,1.2,0.5,2.4,0.3,3.5c-1.3,9.2-3,18.3-3.9,27.5
			c-0.5,5.5,0.7,11.1,6.3,14.3c5.9,3.3,12.4,3.2,18.3-0.4c2.4-1.4,4.5-3.2,6.5-5.1c3.7-3.3,7.7-4.9,12.9-3.3
			C392,92,393.7,91.8,394.8,91.9z M404.9,80.3c5.4,4.8,9.5,4.4,14.6-1.4c-0.5-3.1-2-5.6-5.8-6.1C410,72.4,406.8,75.2,404.9,80.3z"/>
		<path class="st0" d="M74.1,46.7c5.6,1.5,7.3,5.2,9.1,8.6c5.2,9.7,4.5,19.6,0.7,29.4c-3.3,8.5-6.9,17-10.4,25.4
			c-0.7,1.6-1.3,3.3-2.2,5.7c2.9,1.2,5.7,2.5,8.6,3.6c8.3,3,9.8,4.6,9.5,12.8c-0.7,22.1-9.1,41.1-27.1,56.1
			c-8,6.6-17.5,10.6-28.3,11c-17.2,0.6-30.1-8.2-32-23.5c-1.2-9.2,0.3-18.1,2.9-26.8c4.7-15.8,12.3-30.4,21.3-44.4
			c0.5-0.8,1.4-1.5,2.1-2.2c0.4,0.2,0.8,0.3,1.2,0.5c-0.7,2-1.3,4-2.2,5.9c-3.3,7-6.9,14-10.1,21.1c-3.6,8.3-6.1,16.8-5.6,25.9
			c0.5,9.2,6.1,15.8,15.9,18.1c14.2,3.3,27-0.1,39-7c5.9-3.4,10.8-7.7,14.3-13.3c4-6.4,3.1-8.8-4.4-11.1c-1.8-0.5-3.6-1-5.5-1.5
			c-8.5-2.5-12.1-7.7-9.8-15.7c1.8-6.4,4.7-12.5,7.2-18.7c1.4-3.6,2.9-7.2,4.4-10.8c3.2-7.3,0.9-13.9-3.3-19.9
			c-3.3-4.6-3.6-8.8-1.4-13.7C70.3,57.4,72,52.2,74.1,46.7z"/>
		<path class="st0" d="M122.9,67.2c-0.6,4.8-1.1,9.6-1.7,14.3c-1.7,14.5-3.6,29.1-5,43.6c-0.4,3.6,0.4,7.3,1.3,10.9
			c1,4.2,4.1,7,8.8,8c6.4,1.4,12.4,1.2,17.8-2.9c1.6-1.2,3.1-2.6,4.9-3.5c2-0.9,4.5-2.3,6.3-1.8c6.3,1.5,10.4-0.4,13-5.7
			c6.2,1.7,9.2-1.4,11.2-5.5c9.8-2,12-4.7,12.3-13.6c0.1-2.9,1-5.8,2.1-8.5c1.5-3.7,3.5-7.3,5.5-10.9c0.9-1.6,2.1-3,3.6-4.3
			c2.3,17.3-0.6,33.3-15.3,45.3c-5.6,4.5-12.7,7.5-19.2,11.1c-1.3,0.7-2.9,1-4,1.9c-3.4,2.8-7.2,4.2-11.9,3.9
			c-3.9-0.2-6.6,1.9-9,4.7c-3.6,4.2-7.3,8.5-11.7,12c-6.4,5.1-18.2,5.3-23.4-4.8c-2-3.8-3.4-8.3-3.4-12.5c0.2-9.7,1.1-19.5,2.4-29.1
			C109,108.8,111,98,113,87.2c1.3-7.2,4.6-13.8,7.7-20.4C121.5,66.9,122.2,67,122.9,67.2z"/>
		<path class="st0" d="M472.2,217c-0.4-4.6-1.4-9.2-1.2-13.8c0.4-14.3,1.1-28.6,1.8-42.8c0.6-11.9,3.1-23.5,6.9-34.8
			c5.8-17.3,16.9-30.7,34.7-39c1.7-0.8,3.3-2.4,4.3-3.9c2.3-3.4,4.2-7,6.3-10.5c2.6-4.2,3.6-4.7,8.7-3.7c3.7,0.8,7.4,1.6,10.9,2.9
			c4.9,1.8,6.5,4.7,5,9.2c-4.2,12.2-10.5,17.8-22.6,19.3c-5.7,0.7-11.5,2.4-16.9,4.5c-15.1,5.9-24.3,16.6-27.3,31.4
			c-2.4,12.2-4.4,24.4-5.8,36.7c-1.6,14-2.3,28.1-3.4,42.2c-0.1,0.8-0.4,1.6-0.6,2.4C472.8,217,472.5,217,472.2,217z"/>
		<path class="st0" d="M254.8,39.5c-0.3,3.4-0.7,6.8-1,10.2c-0.3,3.3-0.8,6.6-0.9,9.9c-0.5,11.5-0.4,23-1.3,34.5
			c-0.8,10.3-3.3,20.3-7.8,29.8c-2.5,5.2-5.7,9.9-10.5,13.5c-2,1.5-4.2,3-6.6,4c-9.8,3.9-17.2-0.6-17.7-10.8c5.2-3.6,6.6-9,6.9-14.7
			c0.5-10.1,0.6-20.2,1.2-30.3c0.7-11.8,3.8-23,9.1-33.8c0.4-0.8,0.9-1.5,1.5-2.2c0.2-0.2,0.7-0.2,1.3-0.4c0,1.2,0.1,2.3,0,3.4
			c-0.7,9-1.7,18-2.2,27.1c-0.5,7.5-0.4,15-0.9,22.5c-0.6,8.7-3.5,16.7-7.9,24.4c-0.3,0.6-0.5,1.3-0.7,2c9.4,1.1,17.7-2.6,21.2-10.1
			c2-4.4,3.3-9.3,3.7-14.1c0.6-8.7,0.3-17.4,0.3-26.2c0-13.2,4.5-25.4,9.8-37.4c0.3-0.7,1-1.3,1.5-1.9
			C253.9,39.2,254.3,39.4,254.8,39.5z"/>
		<path class="st0" d="M505.7,197c10.9-8.3,24.3-13.8,30.9-26.3c-3.1,0-5.7,0.1-8.4,0c-8.4-0.5-12.9-6.2-10-13.3
			c2.2-5.4,4.8-10.7,8.2-15.4c6.1-8.5,14-7.9,19.2,1.1c0.7,1.2,1.3,2.4,2,3.7c6.1-2.4,7.3-4.8,6.7-10.5c-0.4-3-0.2-6.3,0.7-9.2
			c1.5-5.4,3.7-10.6,5.7-15.9c0.4-1.1,1.2-2.1,2.2-3.7c0.8,1.5,1.6,2.3,1.6,3.1c0,7,0.4,14-0.3,20.9c-1.2,11.5-6.8,21.2-15.1,29.9
			c-2.1,2.2-3.6,4.8-5,7.4c-2.9,5.3-5.4,10.7-8.4,16c-3,5.4-7.8,8.9-14.2,10.5C516.4,196.3,511.5,198.5,505.7,197z"/>
		<path class="st0" d="M49.9,205.6c5.8,1.5,9.5,4.7,12.1,8.8c1,1.5,1.5,3.8,1,5.5c-1.8,6.8-5.9,12.3-13,16
			c-4.8-3.3-9.4-6.6-14.2-9.9c-3.8,3.1-5.8,7.9-11.4,9.8c-4.5-3.2-9-6.5-14.2-10.3c4.9-6.7,9.5-13.2,14.1-19.5
			c8.6,1.7,13.1,6.7,13.8,15.9C42.2,216.1,45.9,211,49.9,205.6z"/>
		<path class="st0" d="M375.3,160.5c-2.5,2.9-4.6,5.4-6.8,7.7c-3.1,3.1-4.6,3.2-8.2,0.6c-3.3-2.4-6.5-4.8-10.1-7.4
			c3.9-7.1,8.8-13.4,14.1-19.7c6.8,3,11.7,6.9,12.9,14.3c4-5.5,7.7-10.4,11.4-15.5c5.4,1.4,8.8,4.2,11.4,8c2,2.9,2.3,6.1,0.4,9
			c-2.4,3.5-5.2,6.8-8,10.1c-2,2.3-4.5,2.1-6.9,0.2C382.2,165.2,378.8,163,375.3,160.5z"/>
		<path class="st0" d="M543.9,193.9c8.1,2.9,11,5.7,13.8,13.5c3.7-5.1,7.3-9.9,10.8-14.7c12.4,2.8,16.3,11.8,9.4,21
			c-6.7,8.9-7.6,9-17,2.4c-1.8-1.3-3.6-2.5-5.4-3.7c-2.7,2.9-5.2,5.7-7.9,8.4c-1.9,2-4.1,2.4-6.5,0.6c-3.5-2.6-7-5.2-11.2-8.3
			C534.8,206.6,539.3,200.3,543.9,193.9z"/>
		<path class="st0" d="M441.9,170.1c0.4-2.2,0.7-3.5,0.9-4.8c1.7-9.4,3.7-18.8,5-28.3c1.2-8.5,1.4-17,2.4-25.5
			c0.5-3.8,1.6-7.5,3-11.1c2-5.1,4.5-10,6.9-14.9c0.7-1.5,1.7-2.9,3.6-4.2c0.2,0.9,0.6,1.8,0.5,2.6c-1.4,13-3,25.9-4.4,38.9
			c-1.4,13.6-3.7,26.9-10.6,39.2C447.6,164.9,446.1,167.9,441.9,170.1z"/>
		<path class="st0" d="M259.4,129.3c-0.7,4.1-1.3,6.9-1.6,9.8c-1.2,11.4-2.5,22.9-3.5,34.4c-1.2,13.7-4.1,26.9-11.4,39.1
			c-1.3,2.2-2.3,4.8-6,6.1c0.1-1.6,0-2.7,0.4-3.7c2.9-8.9,4.2-18,5-27.2c1-10.6,1.2-21.3,3.7-31.6c2.1-8.7,7-16.8,10.8-25.2
			C256.9,130.6,257.6,130.4,259.4,129.3z"/>
		<path class="st0" d="M173.5,52.3c5.9,2,9.9,5.2,12.2,10c0.8,1.6,0.9,3.8,0.5,5.6c-1.4,5.2-5,9.3-9.5,12.8
			c-2.1,1.6-4.2,2.1-6.6,0.2c-3.5-2.7-7.1-5.2-11.2-8.1C163.1,65.5,167.9,58.8,173.5,52.3z"/>
		<path class="st0" d="M45.7,35.3c5.7,1.6,8.8,4.6,11.5,8c2.3,3,2.7,6.7,0.7,9.9c-2.4,3.7-5.5,7-8.6,10.2c-2,2-4.5,2.3-7,0.2
			c-3.4-2.7-7-5.2-11.1-8.3C36.1,48.5,40.8,42,45.7,35.3z"/>
		<path class="st0" d="M405.8,40.4c-4.8-3.5-9.1-6.6-13.5-9.8c0.4-1,0.5-1.9,1-2.6c3.5-5,6.9-10,10.6-14.8c2.5-3.4,3.8-3.6,7.4-1.1
			c2.4,1.7,4.6,3.7,6.5,5.8c2,2.2,2.7,5.1,1.7,7.9C417,32.1,412.6,36.9,405.8,40.4z"/>
		<path class="st0" d="M213,166.2c5,4.8,9.7,0.2,15.3-0.6c-1.5,3.7-5.1,4.5-7.5,6.3c-2.7,1.9-5.5,3.6-8.2,5.5
			c-2.6,1.8-5.2,3.8-8.6,6.3c-0.4-4.6,3.2-5.8,4.7-8.6c-1.3-1-2.6-2.1-4.3-3.6c0.5-1.2,0.8-2.6,1.7-3.5c2.5-2.6,5-5.3,7.9-7.4
			c1.4-1.1,3.9-1.5,5.7-1.3c1.1,0.1,2.6,2.1,2.7,3.3c0,1.9-1.9,2.4-3.8,1.9C216.3,163.7,214.2,163.1,213,166.2z"/>
	</g>
</g>
<g id="title-fill">
	<g>
		<path class="st1" d="M393.3,89.3c1.4-4.5,1.9-8.4,3.8-11.6c3.4-5.6,7.4-11,11.5-16.1c2.4-2.9,6-4.7,10.1-3c4,1.6,6.1,4.9,5.8,8.8
			c-0.3,3.9-1.1,7.8-1.8,12.1c3.6-0.2,6.5-1.7,8.8-3.9c5.1-4.8,8.1-10.5,8.4-17.3c0.3-7.7,0.4-15.4,0.4-23c0.1-11,4.2-21.2,7.8-31.4
			c0.4-1.1,1.3-2,2.5-3.9c0.6,2,1.2,3,1.1,4C450.6,22,450,40,448.2,57.8c-1.3,13.3-10.5,23-20.9,31.4c-4,3.3-9.6,4.3-15.1,3.7
			c-6.1-0.7-11.2,0.6-15.6,4.5c-1.5,1.3-3.3,2.4-4.9,3.6c-2.3,1.7-4.8,2.9-7.9,2.4c-4.5-0.7-7.7,1.2-10.4,4.2
			c-1.8,2-3.4,4.2-5.2,6.2c-2,2.3-3.8,4.8-6.2,6.8c-7.2,5.7-15.7,5.2-22.4-1c-0.6-0.6-1.2-1.2-2.1-2c-0.9,1.1-1.5,1.9-2.1,2.8
			c-2.2,3.2-4.4,6.5-6.9,10.2c2.4,0.7,4.5,1.3,6.6,2c8,2.6,9.6,6.1,6.5,13.3c-4.2,9.9-11.7,15-23.3,16.5
			c-15.1,2.1-28.3,8.2-36.4,20.9c-4.8,7.5-6.3,16-8,24.4c-3.4,17.2-4.6,34.6-4.9,52.1c-0.1,4.8-0.7,9.6-1.1,14.5
			c-0.4,0-0.8,0.1-1.2,0.1c-0.4-1.9-1.1-3.9-1.1-5.8c-0.1-14.5-0.9-29,0-43.5c1-16.4,4.1-32.5,11.8-47.7
			c5.7-11.3,14.4-20.1,26.1-26.2c4.8-2.5,8.2-5.6,10.8-10.2c4.3-7.7,9.9-14.9,14.3-22.6c2.1-3.8,3.7-8.1,4.1-12.3
			c1.6-17.7,5.8-34.8,13.1-51.2c0.4-0.9,1.1-1.7,2.8-2.5c0.1,1.2,0.5,2.4,0.3,3.5c-1.3,9.2-3,18.3-3.9,27.5
			c-0.5,5.5,0.7,11.1,6.3,14.3c5.9,3.3,12.4,3.2,18.3-0.4c2.4-1.4,4.5-3.2,6.5-5.1c3.7-3.3,7.7-4.9,12.9-3.3
			C390.4,89.4,392.2,89.2,393.3,89.3z M403.4,77.7c5.4,4.8,9.5,4.4,14.6-1.4c-0.5-3.1-2-5.6-5.8-6.1
			C408.4,69.8,405.3,72.6,403.4,77.7z"/>
		<path class="st1" d="M72.6,44.1c5.6,1.5,7.3,5.2,9.1,8.6c5.2,9.7,4.5,19.6,0.7,29.4c-3.3,8.5-6.9,17-10.4,25.4
			c-0.7,1.6-1.3,3.3-2.2,5.7c2.9,1.2,5.7,2.5,8.6,3.6c8.3,3,9.8,4.6,9.5,12.8c-0.7,22.1-9.1,41.1-27.1,56.1
			c-8,6.6-17.5,10.6-28.3,11c-17.2,0.6-30.1-8.2-32-23.5c-1.2-9.2,0.3-18.1,2.9-26.8c4.7-15.8,12.3-30.4,21.3-44.4
			c0.5-0.8,1.4-1.5,2.1-2.2c0.4,0.2,0.8,0.3,1.2,0.5c-0.7,2-1.3,4-2.2,5.9c-3.3,7-6.9,14-10.1,21.1c-3.6,8.3-6.1,16.8-5.6,25.9
			c0.5,9.2,6.1,15.8,15.9,18.1c14.2,3.3,27-0.1,39-7c5.9-3.4,10.8-7.7,14.3-13.3c4-6.4,3.1-8.8-4.4-11.1c-1.8-0.5-3.6-1-5.5-1.5
			c-8.5-2.5-12.1-7.7-9.8-15.7c1.8-6.4,4.7-12.5,7.2-18.7c1.4-3.6,2.9-7.2,4.4-10.8c3.2-7.3,0.9-13.9-3.3-19.9
			c-3.3-4.6-3.6-8.8-1.4-13.7C68.8,54.7,70.5,49.6,72.6,44.1z"/>
		<path class="st1" d="M121.3,64.5c-0.6,4.8-1.1,9.6-1.7,14.3c-1.7,14.5-3.6,29.1-5,43.6c-0.4,3.6,0.4,7.3,1.3,10.9
			c1,4.2,4.1,7,8.8,8c6.4,1.4,12.4,1.2,17.8-2.9c1.6-1.2,3.1-2.6,4.9-3.5c2-0.9,4.5-2.3,6.3-1.8c6.3,1.5,10.4-0.4,13-5.7
			c6.2,1.7,9.2-1.4,11.2-5.5c9.8-2,12-4.7,12.3-13.6c0.1-2.9,1-5.8,2.1-8.5c1.5-3.7,3.5-7.3,5.5-10.9c0.9-1.6,2.1-3,3.6-4.3
			c2.3,17.3-0.6,33.3-15.3,45.3c-5.6,4.5-12.7,7.5-19.2,11.1c-1.3,0.7-2.9,1-4,1.9c-3.4,2.8-7.2,4.2-11.9,3.9
			c-3.9-0.2-6.6,1.9-9,4.7c-3.6,4.2-7.3,8.5-11.7,12c-6.4,5.1-18.2,5.3-23.4-4.8c-2-3.8-3.4-8.3-3.4-12.5c0.2-9.7,1.1-19.5,2.4-29.1
			c1.4-10.9,3.5-21.7,5.5-32.5c1.3-7.2,4.6-13.8,7.7-20.4C120,64.3,120.7,64.4,121.3,64.5z"/>
		<path class="st1" d="M470.7,214.3c-0.4-4.6-1.4-9.2-1.2-13.8c0.4-14.3,1.1-28.6,1.8-42.8c0.6-11.9,3.1-23.5,6.9-34.8
			c5.8-17.3,16.9-30.7,34.7-39c1.7-0.8,3.3-2.4,4.3-3.9c2.3-3.4,4.2-7,6.3-10.5c2.6-4.2,3.6-4.7,8.7-3.7c3.7,0.8,7.4,1.6,10.9,2.9
			c4.9,1.8,6.5,4.7,5,9.2c-4.2,12.2-10.5,17.8-22.6,19.3c-5.7,0.7-11.5,2.4-16.9,4.5c-15.1,5.9-24.3,16.6-27.3,31.4
			c-2.4,12.2-4.4,24.4-5.8,36.7c-1.6,14-2.3,28.1-3.4,42.2c-0.1,0.8-0.4,1.6-0.6,2.4C471.3,214.4,471,214.3,470.7,214.3z"/>
		<path class="st1" d="M253.2,36.9c-0.3,3.4-0.7,6.8-1,10.2c-0.3,3.3-0.8,6.6-0.9,9.9c-0.5,11.5-0.4,23-1.3,34.5
			c-0.8,10.3-3.3,20.3-7.8,29.8c-2.5,5.2-5.7,9.9-10.5,13.5c-2,1.5-4.2,3-6.6,4c-9.8,3.9-17.2-0.6-17.7-10.8c5.2-3.6,6.6-9,6.9-14.7
			c0.5-10.1,0.6-20.2,1.2-30.3c0.7-11.8,3.8-23,9.1-33.8c0.4-0.8,0.9-1.5,1.5-2.2c0.2-0.2,0.7-0.2,1.3-0.4c0,1.2,0.1,2.3,0,3.4
			c-0.7,9-1.7,18-2.2,27.1c-0.5,7.5-0.4,15-0.9,22.5c-0.6,8.7-3.5,16.7-7.9,24.4c-0.3,0.6-0.5,1.3-0.7,2c9.4,1.1,17.7-2.6,21.2-10.1
			c2-4.4,3.3-9.3,3.7-14.1c0.6-8.7,0.3-17.4,0.3-26.2c0-13.2,4.5-25.4,9.8-37.4c0.3-0.7,1-1.3,1.5-1.9
			C252.4,36.6,252.8,36.8,253.2,36.9z"/>
		<path class="st1" d="M504.2,194.4c10.9-8.3,24.3-13.8,30.9-26.3c-3.1,0-5.7,0.1-8.4,0c-8.4-0.5-12.9-6.2-10-13.3
			c2.2-5.4,4.8-10.7,8.2-15.4c6.1-8.5,14-7.9,19.2,1.1c0.7,1.2,1.3,2.4,2,3.7c6.1-2.4,7.3-4.8,6.7-10.5c-0.4-3-0.2-6.3,0.7-9.2
			c1.5-5.4,3.7-10.6,5.7-15.9c0.4-1.1,1.2-2.1,2.2-3.7c0.8,1.5,1.6,2.3,1.6,3.1c0,7,0.4,14-0.3,20.9c-1.2,11.5-6.8,21.2-15.1,29.9
			c-2.1,2.2-3.6,4.8-5,7.4c-2.9,5.3-5.4,10.7-8.4,16c-3,5.4-7.8,8.9-14.2,10.5C514.9,193.7,510,195.9,504.2,194.4z"/>
		<path class="st1" d="M373.8,157.8c-2.5,2.9-4.6,5.4-6.8,7.7c-3.1,3.1-4.6,3.2-8.2,0.6c-3.3-2.4-6.5-4.8-10.1-7.4
			c3.9-7.1,8.8-13.4,14.1-19.7c6.8,3,11.7,6.9,12.9,14.3c4-5.5,7.7-10.4,11.4-15.5c5.4,1.4,8.8,4.2,11.4,8c2,2.9,2.3,6.1,0.4,9
			c-2.4,3.5-5.2,6.8-8,10.1c-2,2.3-4.5,2.1-6.9,0.2C380.7,162.6,377.3,160.3,373.8,157.8z"/>
		<path class="st1" d="M542.4,191.3c8.1,2.9,11,5.7,13.8,13.5c3.7-5.1,7.3-9.9,10.8-14.7c12.4,2.8,16.3,11.8,9.4,21
			c-6.7,8.9-7.6,9-17,2.4c-1.8-1.3-3.6-2.5-5.4-3.7c-2.7,2.9-5.2,5.7-7.9,8.4c-1.9,2-4.1,2.4-6.5,0.6c-3.5-2.6-7-5.2-11.2-8.3
			C533.3,204,537.8,197.7,542.4,191.3z"/>
		<path class="st1" d="M440.4,167.5c0.4-2.2,0.7-3.5,0.9-4.8c1.7-9.4,3.7-18.8,5-28.3c1.2-8.5,1.4-17,2.4-25.5
			c0.5-3.8,1.6-7.5,3-11.1c2-5.1,4.5-10,6.9-14.9c0.7-1.5,1.7-2.9,3.6-4.2c0.2,0.9,0.6,1.8,0.5,2.6c-1.4,13-3,25.9-4.4,38.9
			c-1.4,13.6-3.7,26.9-10.6,39.2C446.1,162.2,444.6,165.3,440.4,167.5z"/>
		<path class="st1" d="M257.9,126.7c-0.7,4.1-1.3,6.9-1.6,9.8c-1.2,11.4-2.5,22.9-3.5,34.4c-1.2,13.7-4.1,26.9-11.4,39.1
			c-1.3,2.2-2.3,4.8-6,6.1c0.1-1.6,0-2.7,0.4-3.7c2.9-8.9,4.2-18,5-27.2c1-10.6,1.2-21.3,3.7-31.6c2.1-8.7,7-16.8,10.8-25.2
			C255.4,128,256.1,127.8,257.9,126.7z"/>
		<path class="st1" d="M172,49.7c5.9,2,9.9,5.2,12.2,10c0.8,1.6,0.9,3.8,0.5,5.6c-1.4,5.2-5,9.3-9.5,12.8c-2.1,1.6-4.2,2.1-6.6,0.2
			c-3.5-2.7-7.1-5.2-11.2-8.1C161.6,62.8,166.4,56.2,172,49.7z"/>
		<path class="st1" d="M44.1,32.7c5.7,1.6,8.8,4.6,11.5,8c2.3,3,2.7,6.7,0.7,9.9c-2.4,3.7-5.5,7-8.6,10.2c-2,2-4.5,2.3-7,0.2
			c-3.4-2.7-7-5.2-11.1-8.3C34.6,45.9,39.3,39.4,44.1,32.7z"/>
		<path class="st1" d="M404.3,37.8c-4.8-3.5-9.1-6.6-13.5-9.8c0.4-1,0.5-1.9,1-2.6c3.5-5,6.9-10,10.6-14.8c2.5-3.4,3.8-3.6,7.4-1.1
			c2.4,1.7,4.6,3.7,6.5,5.8c2,2.2,2.7,5.1,1.7,7.9C415.4,29.4,411.1,34.2,404.3,37.8z"/>
		<path class="st1" d="M211.5,163.6c5,4.8,9.7,0.2,15.3-0.6c-1.5,3.7-5.1,4.5-7.5,6.3c-2.7,1.9-5.5,3.6-8.2,5.5
			c-2.6,1.8-5.2,3.8-8.6,6.3c-0.4-4.6,3.2-5.8,4.7-8.6c-1.3-1-2.6-2.1-4.3-3.6c0.5-1.2,0.8-2.6,1.7-3.5c2.5-2.6,5-5.3,7.9-7.4
			c1.4-1.1,3.9-1.5,5.7-1.3c1.1,0.1,2.6,2.1,2.7,3.3c0,1.9-1.9,2.4-3.8,1.9C214.8,161.1,212.6,160.5,211.5,163.6z"/>
		<path class="st1" d="M48.3,202.9c5.8,1.5,9.5,4.7,12.1,8.8c1,1.5,1.5,3.8,1,5.5c-1.8,6.8-5.9,12.3-13,16
			c-4.8-3.3-9.4-6.6-14.2-9.9c-3.8,3.1-5.8,7.9-11.4,9.8c-4.5-3.2-9-6.5-14.2-10.3c4.9-6.7,9.5-13.2,14.1-19.5
			c8.6,1.7,13.1,6.7,13.8,15.9C40.7,213.4,44.4,208.4,48.3,202.9z"/>
		<path class="st2" d="M305.7,80.2c-5.4-1.7-8.5,2-13.3,3.8c0-1.8-0.5-3.3,0.1-4.2c3.7-6.2,8.7-11,17-11.6c5.2-0.4,7.8,2.4,6.4,7.1
			c-2.6,8.7-9,14.4-17.8,17.8c-1.5,0.6-3.3,0.2-6.3,0.4C295.4,87,303.2,86.3,305.7,80.2z"/>
		<path class="st2" d="M123.1,39.7c0.2-3.8,0.5-6.5,3-8.1c8.4-5.2,17-10.2,26.2-15.6c0.7,4.9-1.6,7.5-4.8,9.4
			c-5.6,3.5-11.5,6.7-17.2,10.1C128.2,36.8,126.1,38,123.1,39.7z"/>
		<path class="st2" d="M419.3,104.6c-0.4,3.5-2,6-4.8,7.7c-7.7,4.7-15.6,9.3-23.4,13.9c-0.3,0.2-0.7,0-1.5,0c-0.4-3,0.4-5.7,3-7.3
			c8.2-5,16.6-9.7,25-14.4C417.9,104.4,418.4,104.6,419.3,104.6z"/>
		<path class="st2" d="M573,22.9c0,3.4-1.1,6.1-4,7.8c-8.1,4.8-16.2,9.5-24.6,14.4c-1.5-3.2,0-5.7,2.1-7.2
			C554.7,32,563.7,27.3,573,22.9z"/>
	</g>
</g>
</svg>
