<?xml version="1.0" encoding="utf-8"?>
<!-- Generator: Adobe Illustrator 22.1.0, SVG Export Plug-In . SVG Version: 6.00 Build 0)  -->
<svg version="1.1" id="Layer_1" xmlns="http://www.w3.org/2000/svg" xmlns:xlink="http://www.w3.org/1999/xlink" x="0px" y="0px"
	 viewBox="0 0 404.3 191.3" style="enable-background:new 0 0 404.3 191.3;" xml:space="preserve">
<style type="text/css">
	.st0{fill:#696959;}
</style>
<g>
	<path class="st0" d="M274.3,62.1c1-3.1,1.3-5.9,2.6-8.1c2.3-3.9,5.1-7.6,8-11.2c1.6-2,4.2-3.3,7-2.1c2.8,1.1,4.2,3.4,4,6.2
		c-0.2,2.7-0.8,5.4-1.3,8.5c2.5-0.1,4.5-1.2,6.2-2.7c3.6-3.3,5.7-7.3,5.8-12c0.2-5.4,0.3-10.7,0.3-16.1c0-7.7,2.9-14.8,5.5-21.9
		c0.3-0.7,0.9-1.4,1.7-2.7c0.4,1.4,0.8,2.1,0.8,2.8c-0.7,12.5-1.2,25.1-2.4,37.5c-0.9,9.3-7.3,16-14.6,21.9c-2.8,2.3-6.7,3-10.5,2.6
		c-4.2-0.5-7.8,0.4-10.9,3.2c-1,0.9-2.3,1.7-3.4,2.5c-1.6,1.2-3.4,2-5.5,1.7c-3.1-0.5-5.4,0.8-7.3,2.9c-1.3,1.4-2.4,2.9-3.6,4.3
		c-1.4,1.6-2.7,3.4-4.4,4.7c-5,4-11,3.7-15.6-0.7c-0.4-0.4-0.9-0.8-1.4-1.4c-0.6,0.8-1.1,1.3-1.5,1.9c-1.5,2.3-3.1,4.5-4.8,7.1
		c1.7,0.5,3.1,0.9,4.6,1.4c5.5,1.8,6.7,4.3,4.6,9.3c-2.9,6.9-8.1,10.4-16.3,11.5c-10.6,1.4-19.7,5.7-25.4,14.6
		c-3.4,5.2-4.4,11.2-5.6,17c-2.4,12-3.2,24.1-3.4,36.3c-0.1,3.4-0.5,6.7-0.8,10.1c-0.3,0-0.6,0.1-0.9,0.1c-0.3-1.3-0.8-2.7-0.8-4
		c-0.1-10.1-0.6-20.2,0-30.3c0.7-11.4,2.9-22.7,8.2-33.2c4-7.9,10-14,18.2-18.3c3.4-1.8,5.7-3.9,7.5-7.1c3-5.4,6.9-10.4,9.9-15.8
		c1.5-2.6,2.6-5.7,2.9-8.6c1.1-12.4,4.1-24.3,9.2-35.7c0.3-0.6,0.8-1.2,2-1.8c0.1,0.8,0.3,1.7,0.2,2.5c-0.9,6.4-2.1,12.7-2.7,19.1
		c-0.4,3.8,0.5,7.8,4.4,10c4.1,2.3,8.6,2.2,12.8-0.3c1.6-1,3.1-2.3,4.5-3.5c2.6-2.3,5.4-3.4,9-2.3C272.3,62.2,273.5,62.1,274.3,62.1
		z M281.3,54c3.8,3.3,6.6,3.1,10.2-1c-0.3-2.2-1.4-3.9-4-4.2C284.8,48.5,282.6,50.5,281.3,54z"/>
	<path class="st0" d="M50.6,30.6c3.9,1.1,5.1,3.6,6.3,6c3.6,6.7,3.2,13.7,0.5,20.5c-2.3,6-4.8,11.8-7.3,17.7c-0.5,1.1-0.9,2.3-1.5,4
		c2,0.8,4,1.8,6,2.5c5.8,2.1,6.8,3.2,6.6,8.9c-0.5,15.4-6.3,28.7-18.9,39.1c-5.6,4.6-12.2,7.4-19.7,7.7c-12,0.4-21-5.7-22.3-16.4
		c-0.8-6.4,0.2-12.6,2.1-18.7c3.3-11,8.6-21.2,14.9-31c0.4-0.6,1-1,1.4-1.6c0.3,0.1,0.6,0.2,0.8,0.3C19,71,18.6,72.4,18,73.7
		c-2.3,4.9-4.8,9.7-7,14.7c-2.5,5.8-4.3,11.7-3.9,18.1c0.4,6.4,4.3,11,11.1,12.6c9.9,2.3,18.9-0.1,27.2-4.9c4.1-2.4,7.5-5.4,10-9.3
		c2.8-4.5,2.1-6.2-3.1-7.8c-1.3-0.4-2.5-0.7-3.8-1c-5.9-1.7-8.4-5.3-6.8-10.9c1.3-4.4,3.3-8.7,5-13c1-2.5,2-5,3.1-7.5
		c2.2-5.1,0.6-9.7-2.3-13.9c-2.3-3.2-2.5-6.1-0.9-9.5C47.9,38,49.1,34.4,50.6,30.6z"/>
	<path class="st0" d="M84.6,44.9c-0.4,3.3-0.8,6.7-1.2,10c-1.2,10.1-2.5,20.3-3.5,30.4c-0.2,2.5,0.3,5.1,0.9,7.6
		c0.7,2.9,2.9,4.9,6.2,5.6c4.4,1,8.7,0.8,12.4-2c1.1-0.9,2.2-1.8,3.4-2.4c1.4-0.7,3.1-1.6,4.4-1.3c4.4,1.1,7.2-0.3,9.1-4
		c4.3,1.2,6.4-1,7.8-3.8c6.8-1.4,8.3-3.2,8.6-9.5c0.1-2,0.7-4,1.5-5.9c1.1-2.6,2.5-5.1,3.8-7.6c0.6-1.1,1.5-2.1,2.5-3
		c1.6,12.1-0.4,23.2-10.7,31.6c-3.9,3.2-8.9,5.2-13.4,7.7c-0.9,0.5-2,0.7-2.8,1.3c-2.4,2-5,2.9-8.3,2.7c-2.7-0.2-4.6,1.3-6.3,3.3
		c-2.5,2.9-5.1,5.9-8.1,8.4c-4.5,3.6-12.7,3.7-16.3-3.4c-1.4-2.7-2.4-5.8-2.3-8.7c0.1-6.8,0.8-13.6,1.7-20.3
		c1-7.6,2.4-15.1,3.8-22.7c0.9-5,3.2-9.6,5.4-14.2C83.6,44.7,84.1,44.8,84.6,44.9z"/>
	<path class="st0" d="M328.3,149.4c-0.3-3.2-0.9-6.4-0.9-9.6c0.3-10,0.8-19.9,1.2-29.9c0.4-8.3,2.2-16.4,4.8-24.3
		c4.1-12.1,11.8-21.4,24.2-27.2c1.2-0.6,2.3-1.7,3-2.7c1.6-2.4,2.9-4.9,4.4-7.4c1.8-3,2.5-3.3,6-2.6c2.6,0.6,5.2,1.1,7.6,2
		c3.4,1.2,4.6,3.3,3.5,6.4c-2.9,8.5-7.3,12.4-15.8,13.4c-4,0.5-8,1.7-11.8,3.1c-10.5,4.1-17,11.6-19,21.9c-1.7,8.5-3.1,17-4.1,25.6
		c-1.1,9.8-1.6,19.6-2.4,29.5c0,0.6-0.3,1.1-0.4,1.6C328.7,149.4,328.5,149.4,328.3,149.4z"/>
	<path class="st0" d="M176.6,25.6c-0.2,2.4-0.5,4.8-0.7,7.1c-0.2,2.3-0.5,4.6-0.6,6.9c-0.3,8-0.3,16.1-0.9,24.1
		c-0.6,7.2-2.3,14.2-5.5,20.8c-1.7,3.6-4,6.9-7.3,9.4c-1.4,1.1-3,2.1-4.6,2.8c-6.9,2.7-12-0.4-12.4-7.6c3.6-2.5,4.6-6.3,4.8-10.2
		c0.3-7,0.4-14.1,0.8-21.1c0.5-8.2,2.6-16.1,6.4-23.6c0.3-0.5,0.6-1.1,1-1.5c0.1-0.1,0.5-0.1,0.9-0.2c0,0.8,0.1,1.6,0,2.4
		c-0.5,6.3-1.2,12.6-1.6,18.9c-0.3,5.2-0.3,10.5-0.6,15.7c-0.4,6-2.4,11.7-5.5,17c-0.2,0.4-0.3,0.9-0.5,1.4c6.6,0.7,12.4-1.8,14.8-7
		c1.4-3.1,2.3-6.5,2.6-9.8c0.4-6.1,0.2-12.2,0.2-18.3c0-9.2,3.2-17.7,6.9-26.1c0.2-0.5,0.7-0.9,1.1-1.3
		C176,25.4,176.3,25.5,176.6,25.6z"/>
	<path class="st0" d="M351.6,135.4c7.6-5.8,16.9-9.6,21.5-18.4c-2.2,0-4,0.1-5.8,0c-5.8-0.3-9-4.3-7-9.3c1.5-3.7,3.4-7.4,5.7-10.8
		c4.2-6,9.8-5.5,13.4,0.8c0.5,0.8,0.9,1.7,1.4,2.6c4.2-1.7,5.1-3.4,4.6-7.3c-0.2-2.1-0.1-4.4,0.5-6.4c1.1-3.8,2.6-7.4,4-11.1
		c0.3-0.8,0.8-1.4,1.5-2.6c0.5,1,1.1,1.6,1.1,2.2c0,4.9,0.3,9.8-0.2,14.6c-0.8,8-4.8,14.8-10.5,20.8c-1.4,1.5-2.5,3.3-3.5,5.1
		c-2,3.7-3.8,7.5-5.8,11.2c-2.1,3.8-5.5,6.2-9.9,7.3C359.1,135,355.7,136.5,351.6,135.4z"/>
	<path class="st0" d="M33.7,141.4c4,1.1,6.6,3.3,8.4,6.2c0.7,1.1,1,2.7,0.7,3.8c-1.3,4.8-4.1,8.6-9.1,11.2c-3.3-2.3-6.6-4.6-9.9-6.9
		c-2.7,2.2-4.1,5.5-8,6.8c-3.1-2.3-6.3-4.6-9.9-7.2c3.4-4.7,6.6-9.2,9.8-13.6c6,1.2,9.1,4.7,9.6,11.1
		C28.3,148.7,30.9,145.2,33.7,141.4z"/>
	<path class="st0" d="M260.7,109.9c-1.8,2-3.2,3.8-4.8,5.4c-2.1,2.2-3.2,2.2-5.7,0.4c-2.3-1.6-4.5-3.3-7-5.2c2.7-5,6.1-9.3,9.8-13.8
		c4.8,2.1,8.1,4.8,9,10c2.8-3.8,5.4-7.3,7.9-10.8c3.7,1,6.1,3,7.9,5.6c1.4,2,1.6,4.2,0.3,6.2c-1.7,2.5-3.6,4.8-5.6,7
		c-1.4,1.6-3.1,1.5-4.8,0.1C265.5,113.2,263.1,111.7,260.7,109.9z"/>
	<path class="st0" d="M378.3,133.3c5.7,2,7.6,4,9.6,9.4c2.6-3.5,5.1-6.9,7.5-10.2c8.7,1.9,11.4,8.2,6.6,14.6
		c-4.7,6.2-5.3,6.3-11.8,1.7c-1.2-0.9-2.5-1.7-3.8-2.6c-1.9,2-3.6,4-5.5,5.9c-1.3,1.4-2.8,1.7-4.5,0.4c-2.4-1.8-4.9-3.6-7.8-5.8
		C371.9,142.2,375.1,137.8,378.3,133.3z"/>
	<path class="st0" d="M307.1,116.7c0.3-1.5,0.5-2.4,0.6-3.3c1.2-6.6,2.6-13.1,3.5-19.7c0.8-5.9,1-11.9,1.7-17.8
		c0.3-2.6,1.1-5.3,2.1-7.7c1.4-3.5,3.1-7,4.8-10.4c0.5-1.1,1.2-2,2.5-2.9c0.1,0.6,0.4,1.2,0.4,1.8c-1,9-2.1,18.1-3,27.1
		c-1,9.5-2.6,18.8-7.4,27.4C311.1,113,310.1,115.1,307.1,116.7z"/>
	<path class="st0" d="M179.8,88.2c-0.5,2.8-0.9,4.8-1.1,6.8c-0.9,8-1.8,16-2.4,24c-0.8,9.6-2.9,18.8-7.9,27.3
		c-0.9,1.5-1.6,3.3-4.2,4.3c0.1-1.1,0-1.9,0.3-2.6c2-6.2,2.9-12.5,3.5-19c0.7-7.4,0.8-14.9,2.6-22c1.5-6.1,4.9-11.7,7.5-17.6
		C178.1,89.1,178.6,89,179.8,88.2z"/>
	<path class="st0" d="M119.9,34.5c4.1,1.4,6.9,3.7,8.5,7c0.5,1.1,0.7,2.7,0.3,3.9c-1,3.7-3.5,6.5-6.6,8.9c-1.4,1.1-2.9,1.5-4.6,0.2
		c-2.4-1.9-5-3.6-7.8-5.6C112.6,43.7,116,39,119.9,34.5z"/>
	<path class="st0" d="M30.8,22.6c4,1.1,6.2,3.2,8,5.6c1.6,2.1,1.9,4.7,0.5,6.9c-1.7,2.6-3.8,4.9-6,7.1c-1.4,1.4-3.1,1.6-4.9,0.2
		c-2.4-1.9-4.9-3.6-7.7-5.8C24.1,31.9,27.4,27.3,30.8,22.6z"/>
	<path class="st0" d="M282,26.2c-3.4-2.4-6.3-4.6-9.4-6.8c0.2-0.7,0.3-1.3,0.7-1.8c2.4-3.5,4.8-7,7.4-10.4c1.7-2.3,2.7-2.5,5.1-0.8
		c1.7,1.2,3.2,2.6,4.5,4.1c1.4,1.6,1.9,3.5,1.2,5.5C289.7,20.4,286.7,23.7,282,26.2z"/>
	<path class="st0" d="M213.2,55.8c-3.8-1.2-6,1.4-9.3,2.6c0-1.3-0.3-2.3,0.1-3c2.6-4.4,6.1-7.7,11.9-8.1c3.7-0.3,5.5,1.7,4.5,5
		c-1.8,6.1-6.3,10-12.4,12.4c-1,0.4-2.3,0.2-4.4,0.3C206,60.5,211.4,60,213.2,55.8z"/>
	<path class="st0" d="M147.5,113.9c3.5,3.3,6.8,0.2,10.7-0.4c-1.1,2.6-3.5,3.2-5.3,4.4c-1.9,1.3-3.9,2.5-5.8,3.9
		c-1.8,1.3-3.6,2.6-6,4.4c-0.3-3.2,2.2-4.1,3.3-6c-0.9-0.7-1.8-1.5-3-2.5c0.4-0.8,0.6-1.8,1.2-2.5c1.7-1.8,3.5-3.7,5.5-5.2
		c1-0.7,2.7-1.1,4-0.9c0.8,0.1,1.8,1.5,1.9,2.3c0,1.3-1.3,1.7-2.6,1.3C149.8,112.2,148.3,111.8,147.5,113.9z"/>
	<path class="st0" d="M85.8,27.6c0.1-2.7,0.4-4.5,2.1-5.6c5.9-3.6,11.9-7.1,18.3-10.9c0.5,3.4-1.1,5.2-3.3,6.6c-3.9,2.4-8,4.7-12,7
		C89.4,25.5,87.9,26.4,85.8,27.6z"/>
	<path class="st0" d="M292.4,72.8c-0.3,2.5-1.4,4.2-3.3,5.4c-5.4,3.3-10.9,6.5-16.3,9.7c-0.2,0.1-0.5,0-1,0c-0.3-2.1,0.3-4,2.1-5.1
		c5.7-3.5,11.6-6.7,17.4-10.1C291.4,72.7,291.8,72.8,292.4,72.8z"/>
	<path class="st0" d="M399.6,15.8c0,2.4-0.8,4.3-2.8,5.5c-5.6,3.3-11.3,6.6-17.1,10.1c-1-2.3,0-4,1.4-5
		C386.8,22.2,393.1,18.9,399.6,15.8z"/>
</g>
</svg>
