<svg xmlns="http://www.w3.org/2000/svg" viewBox="0 0 49.99 49.99"><defs><style>.cls-1{fill:#7c7c70;}.cls-2{fill:#fff;}</style></defs><title>twitter</title><g id="Layer_2" data-name="Layer 2"><g id="Layer_1-2" data-name="Layer 1"><path class="cls-1" d="M25,0A25,25,0,1,0,50,25,25,25,0,0,0,25,0Z"/><path class="cls-2" d="M36.14,19.27c0,.25,0,.5,0,.75,0,7.6-5.79,16.37-16.37,16.37A16.23,16.23,0,0,1,11,33.8a10.44,10.44,0,0,0,1.38.08,11.56,11.56,0,0,0,7.14-2.46,5.75,5.75,0,0,1-5.37-4,5.49,5.49,0,0,0,1.08.11,5.79,5.79,0,0,0,1.51-.2,5.76,5.76,0,0,1-4.61-5.64v-.08a5.75,5.75,0,0,0,2.61.72,5.76,5.76,0,0,1-1.78-7.68,16.35,16.35,0,0,0,11.85,6,5.75,5.75,0,0,1,9.8-5.25A11.49,11.49,0,0,0,38.24,14a5.76,5.76,0,0,1-2.53,3.18,11.13,11.13,0,0,0,3.3-.9A11.58,11.58,0,0,1,36.14,19.27Z"/></g></g></svg>