<svg xmlns="http://www.w3.org/2000/svg" viewBox="0 0 49.99 49.99"><defs><style>.cls-1{fill:#7c7c70;}.cls-2{fill:#fff;}</style></defs><title>youtube</title><g id="Layer_2" data-name="Layer 2"><g id="Layer_1-2" data-name="Layer 1"><path class="cls-1" d="M25,0A25,25,0,1,0,50,25,25,25,0,0,0,25,0Z"/><path class="cls-2" d="M37.08,18.82a3.32,3.32,0,0,0-2.82-2.57,88.63,88.63,0,0,0-9.78-.36,88.72,88.72,0,0,0-9.79.36,3.32,3.32,0,0,0-2.82,2.57A27.72,27.72,0,0,0,11.41,25a28.28,28.28,0,0,0,.45,6.17,3.32,3.32,0,0,0,2.83,2.57,88.63,88.63,0,0,0,9.78.36,88.63,88.63,0,0,0,9.78-.36,3.33,3.33,0,0,0,2.83-2.57A28.28,28.28,0,0,0,37.53,25,27.72,27.72,0,0,0,37.08,18.82Z"/><path class="cls-1" d="M21.1,20.41v8.64l8.3-4.31Z"/></g></g></svg>