<?xml version="1.0" encoding="iso-8859-1"?>
<!-- Generator: Adobe Illustrator 19.0.0, SVG Export Plug-In . SVG Version: 6.00 Build 0)  -->
<svg version="1.1" id="Layer_1" xmlns="http://www.w3.org/2000/svg" xmlns:xlink="http://www.w3.org/1999/xlink" x="0px" y="0px"
	 viewBox="0 0 512.001 512.001" style="enable-background:new 0 0 512.001 512.001;" xml:space="preserve">
<g>
	<g>
		<path d="M444.615,196.923H315.239c-14.153,0-25.624-11.473-25.624-25.624V156.18V25.624C289.613,11.473,278.14,0,263.989,0H77.96
			C57.968,0,41.762,16.206,41.762,36.199v439.604c0,19.991,16.206,36.199,36.198,36.199h356.082
			c19.991,0,36.197-16.206,36.197-36.197V222.547C470.239,208.396,458.766,196.923,444.615,196.923z M140.224,80.127h64.55
			c11.005,0,20.504,8.455,20.989,19.449c0.515,11.67-8.795,21.293-20.351,21.293h-64.55c-11.005,0-20.504-8.455-20.989-19.449
			C119.358,89.751,128.667,80.127,140.224,80.127z M371.099,418.292H140.863c-11.005,0-20.506-8.455-20.991-19.449
			c-0.515-11.67,8.795-21.293,20.351-21.293h230.237c11.005,0,20.504,8.456,20.989,19.449
			C391.965,408.668,382.655,418.292,371.099,418.292z M371.099,349.029H140.863c-11.005,0-20.506-8.455-20.991-19.449
			c-0.515-11.67,8.795-21.294,20.351-21.294h230.237c11.005,0,20.504,8.456,20.989,19.449
			C391.965,339.406,382.655,349.029,371.099,349.029z M371.099,282.483H140.863c-11.005,0-20.506-8.455-20.991-19.449
			c-0.515-11.67,8.795-21.294,20.351-21.294h230.237c11.005,0,20.504,8.455,20.989,19.449
			C391.965,272.859,382.655,282.483,371.099,282.483z"/>
	</g>
</g>
<g>
	<g>
		<path d="M455.053,144.688l-92.54-129.556C355.746,5.656,344.756,0,333.112,0c-1.522,0-2.756,1.234-2.756,2.756V143.14
			c0,7.202,5.838,13.04,13.039,13.04h105.744C455.051,156.18,458.489,149.499,455.053,144.688z"/>
	</g>
</g>
<g>
</g>
<g>
</g>
<g>
</g>
<g>
</g>
<g>
</g>
<g>
</g>
<g>
</g>
<g>
</g>
<g>
</g>
<g>
</g>
<g>
</g>
<g>
</g>
<g>
</g>
<g>
</g>
<g>
</g>
</svg>
