<svg xmlns="http://www.w3.org/2000/svg" viewBox="0 0 106.23 107.58"><defs><style>.cls-1{fill:#3fa9f5;}.cls-2{fill:#fff;}</style></defs><title>icn_2_1</title><g id="Layer_2" data-name="Layer 2"><g id="Layer_1-2" data-name="Layer 1"><ellipse class="cls-1" cx="53.11" cy="53.79" rx="53.11" ry="53.79"/><path class="cls-2" d="M73.89,60.83H33.8a1.41,1.41,0,0,0,0,2.82H73.89a1.41,1.41,0,0,0,0-2.82Z"/><path class="cls-2" d="M73.89,71.92H33.8a1.41,1.41,0,0,0,0,2.82H73.89a1.41,1.41,0,0,0,0-2.82Z"/><path class="cls-2" d="M82.84,38.83H34.06l46.6-14.59a1.41,1.41,0,0,0,.92-1.76l-2.94-9.62A1.38,1.38,0,0,0,78,12a1.35,1.35,0,0,0-1.06-.1L21.5,29.28A1.42,1.42,0,0,0,20.58,31l2.88,9.42V85.55A1.4,1.4,0,0,0,24.85,87h58a1.4,1.4,0,0,0,1.39-1.41V40.25a1.41,1.41,0,0,0-1.39-1.42ZM75,41.66,67.85,48.9h-9L66,41.66Zm-12.93,0L54.93,48.9h-9l7.15-7.24Zm-12.92,0L42,48.9H33l7.16-7.24Zm-12.93,0L29.08,48.9H26.24V41.66ZM76.39,15,78.51,22l-2.71.85-9-4.78ZM63.09,19.2,72,24l-8.59,2.69-9-4.79ZM50.74,23.07l8.95,4.79-8.58,2.68-9-4.78ZM38.39,26.94l9,4.78-8.59,2.69-8.95-4.78ZM23.65,31.56l2.4-.75,9,4.78-9.23,2.89Zm57.8,52.58H26.24V51.72H81.45Zm0-35.24H71.79l7.15-7.24h2.51Z"/></g></g></svg>