<svg xmlns="http://www.w3.org/2000/svg" viewBox="0 0 106.7 108.06"><defs><style>.cls-1{fill:#3fa9f5;}.cls-2{fill:#fff;}</style></defs><title>icn_1_1</title><g id="Layer_2" data-name="Layer 2"><g id="Layer_1-2" data-name="Layer 1"><ellipse class="cls-1" cx="53.35" cy="54.03" rx="53.35" ry="54.03"/><path class="cls-2" d="M71.62,36.9a1.13,1.13,0,0,0-1.12-1.14H46.6a1.14,1.14,0,0,0,0,2.27H70.5A1.13,1.13,0,0,0,71.62,36.9ZM41.38,38a1.14,1.14,0,0,0,0-2.27H37.59a1.14,1.14,0,0,0,0,2.27ZM37.59,70.62a1.14,1.14,0,0,0,0,2.27H49.33a1.14,1.14,0,0,0,0-2.27ZM55.17,60.13A1.13,1.13,0,0,0,54,59H37.59a1.14,1.14,0,0,0,0,2.27H54A1.14,1.14,0,0,0,55.17,60.13Zm8-11.61a1.14,1.14,0,0,0-1.13-1.14H37.59a1.14,1.14,0,0,0,0,2.27H62.05A1.14,1.14,0,0,0,63.18,48.52ZM77,63a1.13,1.13,0,0,0-1.12,1.14V77.94a5.25,5.25,0,0,1-5.21,5.27H70.5c-2.94,0-5.18-2.43-5.21-5.67a1.12,1.12,0,0,0-1.12-1.12H31.7V31.67a5.24,5.24,0,0,1,5.2-5.27H78l-.09.1-.12.13-.12.14-.11.14a.76.76,0,0,0-.11.14l-.11.14a1.3,1.3,0,0,0-.1.15,1.71,1.71,0,0,1-.11.14l-.09.16-.1.15-.09.16a1.09,1.09,0,0,0-.08.15l-.09.17-.08.16-.07.16c0,.06,0,.11-.07.17a1.22,1.22,0,0,0-.07.17,1.22,1.22,0,0,1-.07.17,1.21,1.21,0,0,0-.05.18l-.06.17a1.21,1.21,0,0,0-.05.18,1.54,1.54,0,0,0,0,.17,1.42,1.42,0,0,0,0,.2.85.85,0,0,0,0,.17,1.18,1.18,0,0,0,0,.2l0,.17a1.49,1.49,0,0,0,0,.21,1,1,0,0,0,0,.16,2,2,0,0,0,0,.25.53.53,0,0,0,0,.13c0,.13,0,.26,0,.38v10.1a1.12,1.12,0,1,0,2.24,0V33.19H89.64a1.11,1.11,0,0,0,1.12-1.14c0-4.52-3.24-7.92-7.46-7.92H36.9a7.5,7.5,0,0,0-7.45,7.54V76.42H17.77a1.12,1.12,0,0,0-.8.34,1.13,1.13,0,0,0-.32.81c0,4.51,3.25,7.92,7.45,7.92H70.64a7.51,7.51,0,0,0,7.45-7.55V64.16A1.13,1.13,0,0,0,77,63ZM78.15,30.9s0-.07,0-.11,0-.09,0-.14l0-.11,0-.14,0-.11,0-.13s0-.07,0-.11a.56.56,0,0,1,0-.12l0-.12s0-.07,0-.11l0-.12s0-.07,0-.1l.05-.12,0-.09a.83.83,0,0,1,.07-.13s0,0,0-.05a6.06,6.06,0,0,1,.35-.53h0l.12-.16,0,0,.13-.15,0,0a1.85,1.85,0,0,1,.14-.14l0,0,.14-.14,0,0,.16-.15h0a5.22,5.22,0,0,1,2.47-1.21h0l.23,0h0l.22,0h.49a5.23,5.23,0,0,1,5.1,4.52H78.15Zm-54,52.31A5.22,5.22,0,0,1,19,78.69H63.13c0,.12,0,.24,0,.35s0,.08,0,.12,0,.15,0,.23l0,.13c0,.07,0,.14,0,.2a.83.83,0,0,1,0,.15l.06.19s0,.09,0,.14l.06.18,0,.14a1.34,1.34,0,0,0,.07.18l0,.14.08.17s0,.09,0,.13l.09.19.06.11a2.12,2.12,0,0,0,.11.21l0,.08.17.28a.21.21,0,0,0,0,.06l.13.21a.36.36,0,0,1,.07.1l.12.17.08.1.12.15.08.1.13.15.08.09.07.07ZM93.24,45.08v0a1.45,1.45,0,0,0-.06-.3v0h0a.35.35,0,0,0-.06-.14v0a.75.75,0,0,0-.07-.12l0,0-.09-.12,0,0-.1-.09h0l-.13-.08h0a.59.59,0,0,0-.14-.06h0l-.15,0h-.18c-9.4-.25-21.65,2-27.84,9.2-2.71,3.13-4,7.11-5.17,11l-.3.94v0l-1.9,6.82a1.14,1.14,0,0,0,.78,1.41,1,1,0,0,0,.3,0,1.13,1.13,0,0,0,1.08-.83l1.76-6.33a34.42,34.42,0,0,1,6.23-2.14c1.21-.34,2.59-.72,4.25-1.24C74.93,61.71,81.83,57,85,53.54A77.09,77.09,0,0,1,92.83,46h0l.11-.11h0l.09-.13,0,0a1.39,1.39,0,0,0,.12-.28v0l0-.16h0a.41.41,0,0,0,0-.11ZM66,54.66c2.61-3,6.62-5.3,11.9-6.77a43,43,0,0,1,4.47-1,86.69,86.69,0,0,0-9.79,5.77,89.79,89.79,0,0,0-9.75,7.55A18.79,18.79,0,0,1,66,54.66ZM83.36,52c-3.09,3.39-9.77,7.75-12.69,8.66-1.63.51-3,.88-4.18,1.21s-2.07.57-3,.89c.44-.43,1-.9,1.55-1.43a89.12,89.12,0,0,1,8.84-6.76C79.5,50.74,84.62,48,88.39,46.88,86.75,48.4,85.14,50,83.36,52Z"/></g></g></svg>