<svg xmlns="http://www.w3.org/2000/svg" viewBox="0 0 99.1 100.37"><defs><style>.cls-1{fill:#3fa9f5;}.cls-2{fill:#fff;}</style></defs><title>icn_4_1</title><g id="Layer_2" data-name="Layer 2"><g id="Layer_1-2" data-name="Layer 1"><ellipse class="cls-1" cx="49.55" cy="50.18" rx="49.55" ry="50.18"/><path class="cls-2" d="M32.13,35.39a1.13,1.13,0,0,0,.8-.33l2.3-2.33a1.15,1.15,0,0,0,0-1.61,1.12,1.12,0,0,0-1.6,0l-2.29,2.32a1.16,1.16,0,0,0,0,1.62A1.12,1.12,0,0,0,32.13,35.39ZM19.42,45.51l-2.3,2.32a1.16,1.16,0,0,0,0,1.62,1.13,1.13,0,0,0,.8.33,1.11,1.11,0,0,0,.79-.33L21,47.12a1.15,1.15,0,0,0,0-1.61A1.11,1.11,0,0,0,19.42,45.51Zm13.51,0a1.11,1.11,0,0,0-1.59,0,1.15,1.15,0,0,0,0,1.61l2.29,2.33a1.13,1.13,0,0,0,1.6,0,1.16,1.16,0,0,0,0-1.62ZM19.42,35.06a1.12,1.12,0,0,0,1.59,0,1.16,1.16,0,0,0,0-1.62l-2.3-2.32a1.11,1.11,0,0,0-1.59,0,1.15,1.15,0,0,0,0,1.61Zm42.47,1.5a1.14,1.14,0,0,0,.8-.34L63.93,35a1.16,1.16,0,0,0,0-1.62,1.13,1.13,0,0,0-1.6,0l-1.24,1.26a1.15,1.15,0,0,0,.8,2ZM51,47.54a1.13,1.13,0,0,0,.8-.33L53.07,46a1.16,1.16,0,0,0,0-1.62,1.12,1.12,0,0,0-1.59,0L50.24,45.6a1.15,1.15,0,0,0,0,1.61A1.11,1.11,0,0,0,51,47.54Zm11.66-3.2a1.13,1.13,0,0,0-1.6,0,1.16,1.16,0,0,0,0,1.62l1.24,1.25a1.13,1.13,0,0,0,1.6,0,1.15,1.15,0,0,0,0-1.61ZM51.48,36.22a1.11,1.11,0,0,0,.79.33,1.13,1.13,0,0,0,.8-.33,1.15,1.15,0,0,0,0-1.61l-1.24-1.26a1.12,1.12,0,0,0-1.59,0,1.16,1.16,0,0,0,0,1.62ZM41.39,59.13H22.76a1.14,1.14,0,0,0,0,2.28H41.39a1.14,1.14,0,0,0,0-2.28ZM22.76,70.39a1.14,1.14,0,0,0,0,2.28H25a1.14,1.14,0,0,0,0-2.28Zm18.63,0H30.23a1.14,1.14,0,0,0,0,2.28H41.39a1.14,1.14,0,0,0,0-2.28Zm0-5.63H22.76a1.14,1.14,0,0,0,0,2.28H41.39a1.14,1.14,0,0,0,0-2.28ZM37.73,52a16.43,16.43,0,0,0,4.32-7.83h2.82A12.83,12.83,0,0,0,48,49.45a12.71,12.71,0,0,0,18.11,0,13.09,13.09,0,0,0,0-18.33,12.7,12.7,0,0,0-18.11,0,13,13,0,0,0-3.65,10.75h-2a16.62,16.62,0,0,0-4.7-13.28,16.22,16.22,0,0,0-23.11,0,16.7,16.7,0,0,0,0,23.39,16.24,16.24,0,0,0,23.11,0ZM49.62,32.73a10.48,10.48,0,0,1,14.92,0,10.79,10.79,0,0,1,0,15.1,10.46,10.46,0,0,1-14.92,0A10.79,10.79,0,0,1,49.62,32.73ZM16.22,30.2a14,14,0,0,1,19.91,0,14.4,14.4,0,0,1,0,20.16,14,14,0,0,1-19.91,0A14.38,14.38,0,0,1,16.22,30.2ZM32.39,40.28a6.22,6.22,0,1,0-6.22,6.3A6.26,6.26,0,0,0,32.39,40.28Zm-10.18,0a4,4,0,1,1,4,4A4,4,0,0,1,22.21,40.28Zm34.87,4.3a4.3,4.3,0,1,0-4.24-4.3A4.28,4.28,0,0,0,57.08,44.58Zm0-6.31a2,2,0,1,1-2,2A2,2,0,0,1,57.08,38.27Zm-7,20.86a1.65,1.65,0,0,0-1.64,1.65V71a1.65,1.65,0,0,0,1.64,1.65H60.18A1.65,1.65,0,0,0,61.82,71V60.78a1.65,1.65,0,0,0-1.64-1.65Zm9.49,11.26H50.69v-9h8.87ZM85.85,47.21a2.33,2.33,0,0,0-2-.4l-8.64,2.4a2.37,2.37,0,0,0-1.72,2.29v2.08H68.72V51.91a1.13,1.13,0,1,0-2.26,0v23a.59.59,0,0,1-.58.6H18.36a.59.59,0,0,1-.58-.6V57.24a1.13,1.13,0,1,0-2.26,0V74.91a2.87,2.87,0,0,0,2.84,2.88H65.88a2.87,2.87,0,0,0,2.84-2.88V66.08h4.73v2.08a2.37,2.37,0,0,0,1.72,2.28l8.64,2.4a2.28,2.28,0,0,0,.63.09,2.32,2.32,0,0,0,1.41-.49,2.37,2.37,0,0,0,.92-1.88V49.1A2.39,2.39,0,0,0,85.85,47.21ZM73.45,63.8H68.72V55.86h4.73Zm11.06,6.76a.09.09,0,0,1,0,.07.1.1,0,0,1-.07,0l-8.64-2.4a.08.08,0,0,1-.07-.08V51.5a.1.1,0,0,1,.07-.09L84.41,49a.09.09,0,0,1,.1.09Z"/></g></g></svg>