<svg xmlns="http://www.w3.org/2000/svg" viewBox="0 0 106.23 107.58"><defs><style>.cls-1{fill:#3fa9f5;}.cls-2{fill:#fff;}</style></defs><title>icn_3_1</title><g id="Layer_2" data-name="Layer 2"><g id="Layer_1-2" data-name="Layer 1"><ellipse class="cls-1" cx="53.11" cy="53.79" rx="53.11" ry="53.79"/><path class="cls-2" d="M43.3,76.41H38.88a5.13,5.13,0,0,1-5.13-5.12V63.82a1.3,1.3,0,0,0-1.3-1.3H26.17l3.94-14.21a1.34,1.34,0,0,0,.05-.35,24,24,0,0,1,4.17-13.58,1.3,1.3,0,0,0-2.15-1.47,26.56,26.56,0,0,0-4.63,14.87L23.19,63.47a1.31,1.31,0,0,0,1.26,1.66h6.69v6.16A7.74,7.74,0,0,0,38.88,79H43.3a2.49,2.49,0,0,1,2.48,2.48v5.21a1.31,1.31,0,1,0,2.61,0V81.5A5.1,5.1,0,0,0,43.3,76.41Z"/><path class="cls-2" d="M40,28.19a1.27,1.27,0,0,0,.74-.23A24.1,24.1,0,0,1,53.92,23.8a24.39,24.39,0,0,1,7.79,1.14,1.31,1.31,0,1,0,.79-2.49,27.23,27.23,0,0,0-8.62-1.26A26.7,26.7,0,0,0,39.29,25.8,1.31,1.31,0,0,0,40,28.19Z"/><path class="cls-2" d="M79.39,52.9a1.32,1.32,0,0,0-1.55,1A31,31,0,0,1,73.2,65.14a12.92,12.92,0,0,0-2.33,7.42V86.71a1.31,1.31,0,1,0,2.61,0V72.56a10.29,10.29,0,0,1,1.86-5.93A33.61,33.61,0,0,0,80.4,54.45,1.31,1.31,0,0,0,79.39,52.9Z"/><path class="cls-2" d="M81.09,41.81a7.19,7.19,0,0,0-5.52-7,11,11,0,0,0-21-.13,8.24,8.24,0,0,0-1-.07,7.21,7.21,0,0,0,0,14.41h2.94a1.31,1.31,0,0,0,0-2.61H53.57a4.6,4.6,0,0,1,0-9.19,4.52,4.52,0,0,1,1.51.26,1.3,1.3,0,0,0,1.72-1,8.39,8.39,0,0,1,16.45-.25,1.3,1.3,0,0,0,1.13,1,4.59,4.59,0,0,1-.49,9.16H70.28a1.31,1.31,0,0,0,0,2.61h3.61A7.21,7.21,0,0,0,81.09,41.81Z"/><path class="cls-2" d="M67,49.49H63.59L65.8,43.1a1.31,1.31,0,0,0-2.47-.85l-2.81,8.12a1.33,1.33,0,0,0,.17,1.18,1.31,1.31,0,0,0,1.07.55h3.39l-2,5.59a1.31,1.31,0,0,0,.79,1.67,1.41,1.41,0,0,0,.44.08,1.31,1.31,0,0,0,1.23-.87l2.62-7.33a1.26,1.26,0,0,0-.16-1.19A1.29,1.29,0,0,0,67,49.49Z"/><path class="cls-2" d="M36.45,46.4a1.32,1.32,0,0,0-.92.38,1.29,1.29,0,0,0-.39.92,1.31,1.31,0,0,0,2.23.93,1.34,1.34,0,0,0,.38-.93,1.3,1.3,0,0,0-1.3-1.3Z"/><path class="cls-2" d="M23.82,49a1.31,1.31,0,1,0,0-2.61H18.71a1.3,1.3,0,0,0-1.86-1.83l-2.21,2.21a1.31,1.31,0,0,0,0,1.85l2.21,2.21a1.32,1.32,0,0,0,1.85,0,1.3,1.3,0,0,0,0-1.83Z"/><path class="cls-2" d="M66,71.25a1.27,1.27,0,0,0-.92.39,1.28,1.28,0,0,0,0,1.84,1.26,1.26,0,0,0,.92.38,1.28,1.28,0,0,0,.92-.38,1.3,1.3,0,0,0,0-1.84A1.29,1.29,0,0,0,66,71.25Z"/><path class="cls-2" d="M66,75.88a1.31,1.31,0,0,0-1.31,1.31v9.52a1.31,1.31,0,1,0,2.61,0V77.19A1.31,1.31,0,0,0,66,75.88Z"/><circle class="cls-2" cx="36.45" cy="29.82" r="1.31"/></g></g></svg>