<svg xmlns="http://www.w3.org/2000/svg" viewBox="0 0 72.97 73.9"><defs><style>.cls-1{fill:#3fa9f5;}.cls-2{fill:#fff;}</style></defs><title>icn_0</title><g id="Layer_2" data-name="Layer 2"><g id="Layer_1-2" data-name="Layer 1"><ellipse class="cls-1" cx="36.48" cy="36.95" rx="36.48" ry="36.95"/><path class="cls-2" d="M13,33.49V31.65c1.65,0,1.58-1.36,1.58-2.47V22.93h2s0,.18,0,7.09A3.28,3.28,0,0,1,13,33.49Z"/><path class="cls-2" d="M22.32,33.45v-1.7c.78,0,2.07-.28,2-1.8A2.12,2.12,0,0,1,22.41,31c-2.1,0-3.1-1.35-3.1-4s1.18-4.07,3.28-4.07H25.9V30A3.15,3.15,0,0,1,22.32,33.45Zm1.56-8.71H22.74c-1.18,0-1.41,1.38-1.41,2.23s0,2.24,1.29,2.24,1.26-1.24,1.26-2.16Z"/><path class="cls-2" d="M28.64,27.2V20h2v7.2c0,1,.45,1.52,1.84,1.52v1.89C30,30.56,28.64,29.28,28.64,27.2Z"/><path class="cls-2" d="M32,30.56V28.67h5.09A3.82,3.82,0,0,0,33,24.81V23c4.25,0,6,2.57,6.15,5.68h2.07v1.89Z"/><path class="cls-2" d="M49.06,30.11a3.1,3.1,0,0,1-3,1.84,3.21,3.21,0,0,1-3-1.75,4.16,4.16,0,0,1-1.78.36h-.58V28.67c.79-.05,1.74,0,1.82-1,.13-2.38,1.35-3.9,3.51-3.9s3.44,1.75,3.44,3.9c0,.69.49,1,1.49,1h.58v1.89A5.43,5.43,0,0,1,49.06,30.11Zm-3-4.61c-.82,0-1.37.57-1.37,2.31s.55,2.25,1.37,2.25,1.37-.58,1.37-2.21C47.44,26.07,46.89,25.5,46.07,25.5Z"/><path class="cls-2" d="M51.1,30.56V28.67c1.39,0,2-.52,2-1.49V20h2V27.3C55.15,29.31,53.6,30.56,51.1,30.56Z"/><path class="cls-2" d="M57.88,30.56V20h2V30.56Z"/><path class="cls-2" d="M12.31,50.19c-1.41,0-3.27-1-3.27-3.76,0-2.6,1.2-3.87,3.27-3.87h3.33v5.75H18v1.88Zm-1.44-9.07v-2h1.79v2Zm2.75,3.25h-1.2c-1.12,0-1.36,1.24-1.36,2.06s.52,1.88,1.36,1.88h1.2Zm-.15-3.25v-2h1.81v2Z"/><path class="cls-2" d="M16.94,53.5v-2h1.8v2Zm6-3.31a3.77,3.77,0,0,1-2.44-.8,3.44,3.44,0,0,1-2.39.8h-.58V48.31h.58a1.15,1.15,0,0,0,1.31-1.18V42.56h2v4.62c0,.69.49,1.13,1.49,1.13h.58v1.88ZM19.55,53.5v-2h1.79v2Z"/><path class="cls-2" d="M23,50.19V48.31h3v1.88Z"/><path class="cls-2" d="M23.37,50.19V48.31h3v1.88Z"/><path class="cls-2" d="M25.93,50.19V48.31h2.55V42.55h2v5.76h2.62V42.55h2v5.76h2V42.55h2v5.76H41v1.88Z"/><path class="cls-2" d="M40,53.5v-2h1.8v2Zm6-3.31a3.77,3.77,0,0,1-2.44-.8,3.44,3.44,0,0,1-2.39.8h-.58V48.31h.58a1.15,1.15,0,0,0,1.31-1.18V42.56h2v4.62c0,.69.49,1.13,1.49,1.13h.58v1.88ZM42.56,53.5v-2h1.79v2Z"/><path class="cls-2" d="M46,41.12v-.91h.83V40a1.51,1.51,0,0,1,1.52-1.71,1.39,1.39,0,0,1,1.37.91l-1,.21c-.15-.18-.23-.25-.39-.25-.53,0-.53.56-.53.8v.22H50v.91Zm0,9.07V48.31c1.39,0,2-.51,2-1.47V42.55h2v4.39C50.1,49,48.55,50.19,46.05,50.19Z"/><path class="cls-2" d="M56.78,50.19a3.41,3.41,0,0,1-1.85-.49,3.27,3.27,0,0,1-3.57,3.43V51.29C53,51.29,53,49.93,53,48.82V42.55h2s0,2.8,0,4.29c0,1,.72,1.47,1.81,1.47H57v1.88Z"/><path class="cls-2" d="M56.53,50.19V48.31c1.39,0,2-.52,2-1.49v-7.2h2v7.32C60.59,49,59,50.19,56.53,50.19Z"/><path class="cls-2" d="M62.74,50.19V39.59h2v10.6Z"/></g></g></svg>