<svg xmlns="http://www.w3.org/2000/svg" viewBox="0 0 94.92 96.14"><defs><style>.cls-1{fill:#3fa9f5;}.cls-2{fill:#fff;}</style></defs><title>icn_5_1</title><g id="Layer_2" data-name="Layer 2"><g id="Layer_1-2" data-name="Layer 1"><ellipse class="cls-1" cx="47.46" cy="48.07" rx="47.46" ry="48.07"/><path class="cls-2" d="M61.26,48.37a88.87,88.87,0,0,0-20.09-2,88.84,88.84,0,0,0-20.08,2c-6,1.47-9.07,3.46-9.07,5.93s3.05,4.47,9.07,5.94c.85.21,1.75.4,2.68.58-.1,1.53-.22,3.08-.38,4.62,0,.12,0,.25,0,.37,0,.32-.07.65-.1,1-.38,3.39-.88,6.86-1.52,10.36a1.12,1.12,0,0,0,.9,1.32l.2,0a1.12,1.12,0,0,0,1.1-.93c.55-3,1-6,1.36-9a117.6,117.6,0,0,0,15.88,1,117.64,117.64,0,0,0,15.89-1c.36,2.94.81,5.94,1.36,9a1.12,1.12,0,0,0,1.3.91,1.14,1.14,0,0,0,.9-1.32c-.64-3.51-1.14-7-1.52-10.37,0-.32-.07-.65-.1-1,0-.12,0-.25,0-.37-.16-1.54-.28-3.09-.38-4.62.93-.18,1.83-.37,2.68-.58,6-1.47,9.07-3.46,9.07-5.94S67.28,49.84,61.26,48.37Zm-20.09,19a115.4,115.4,0,0,1-15.62-1c0-.36.07-.72.11-1.07v-.12c.06-.56.11-1.13.15-1.69l.06-.64c0-.37.05-.73.08-1.1,0-.17,0-.35,0-.53,2.25.35,4.69.62,7.25.8h0l.6,0,1.23.08h.16l.87.05h.07l.91,0h.26l.67,0h.19l.87,0h4.14l.9,0h.19l.77,0h.16l.91,0h.07l.87-.05h.17L48.59,62l.5,0h0c2.56-.18,5-.45,7.25-.8,0,.17,0,.33,0,.49,0,.39,0,.77.08,1.15l.06.62q.06.85.15,1.71v.09c0,.36.07.72.11,1.09A115.45,115.45,0,0,1,41.17,67.36ZM66.45,56A23.09,23.09,0,0,1,60.73,58c-1.09.26-2.27.51-3.5.72h0l-.77.13-.25,0-.6.09-.25,0-.83.11h0l-.79.1-.28,0-.61.07-.28,0c-.28,0-.57.07-.86.09l-.11,0-.77.07-.32,0-.61.06-.31,0-.87.06-.19,0-.74,0-.34,0-.62,0-.34,0-.89,0h-.06l-1,0h-.13l-.92,0H39L38,60H37.9l-1,0h0l-.9,0-.33,0-.62,0-.34,0-.74,0-.19,0-.87-.06-.31,0-.62-.06-.31,0-.77-.08h-.11c-.29,0-.58,0-.86-.09l-.28,0L29,59.32l-.27,0-.79-.1h-.06L27,59.07l-.25,0-.6-.09-.25,0-.79-.13h0q-1.86-.32-3.51-.72c-5.05-1.23-7.35-2.8-7.35-3.73,0-.46.61-1.09,1.64-1.68a23.15,23.15,0,0,1,5.71-2.06,86.68,86.68,0,0,1,19.56-2,86.55,86.55,0,0,1,19.56,2c5.06,1.23,7.36,2.8,7.36,3.74C68.09,54.76,67.47,55.39,66.45,56Zm-5.63-3.25C60,52.51,59,52.29,58,52.1a92.08,92.08,0,0,0-16.84-1.42A92,92,0,0,0,24.34,52.1c-1,.19-1.95.41-2.81.63a1.63,1.63,0,0,0,0,3.15c.86.22,1.81.43,2.81.63a92,92,0,0,0,16.83,1.42A92.08,92.08,0,0,0,58,56.51c1-.2,2-.41,2.81-.63a1.63,1.63,0,0,0,0-3.15ZM41.17,55.67A89.86,89.86,0,0,1,24.88,54.3a90.83,90.83,0,0,1,16.29-1.36,90.86,90.86,0,0,1,16.3,1.36A90,90,0,0,1,41.17,55.67Zm43.6-26.8L84,26.27a3,3,0,0,0-1.43-1.81,2.32,2.32,0,0,0-1.84-.17L42.3,37l-8.5,2.79a2.71,2.71,0,0,0-1.55,3.44l0,.11a2.79,2.79,0,0,0,2.56,2.11,2.08,2.08,0,0,0,.6-.09l47.67-13a2.33,2.33,0,0,0,1.44-1.16A3,3,0,0,0,84.77,28.87ZM34.86,43.13c-.07,0-.32-.12-.43-.48l0-.12c-.11-.36,0-.61.1-.63l7.4-2.44.48,1.62ZM82.6,30.07a.2.2,0,0,1-.08.08l-38,10.34L44,38.76,81.44,26.44h0l.09,0a.75.75,0,0,1,.32.45l.76,2.59A.73.73,0,0,1,82.6,30.07ZM21.86,39.16H23.2v1.36a1.12,1.12,0,1,0,2.24,0V39.16h1.34a1.14,1.14,0,0,0,0-2.27H25.44V35.53a1.12,1.12,0,1,0-2.24,0v1.36H21.86a1.14,1.14,0,0,0,0,2.27Zm44.68-.25A1.13,1.13,0,0,0,65.42,40V41.4H64.08a1.14,1.14,0,0,0,0,2.27h1.34V45a1.12,1.12,0,1,0,2.24,0V43.67H69a1.14,1.14,0,0,0,0-2.27H67.66V40A1.13,1.13,0,0,0,66.54,38.91ZM47.74,28.84h1.34V30.2a1.12,1.12,0,1,0,2.24,0V28.84h1.35a1.13,1.13,0,0,0,0-2.26H51.32V25.22a1.12,1.12,0,1,0-2.24,0v1.36H47.74a1.13,1.13,0,0,0,0,2.26Z"/></g></g></svg>